<?xml version="1.0" encoding="utf-8"?>
<!-- Generator: Adobe Illustrator 23.0.0, SVG Export Plug-In . SVG Version: 6.00 Build 0)  -->
<svg version="1.1" id="Calque_1" xmlns="http://www.w3.org/2000/svg" xmlns:xlink="http://www.w3.org/1999/xlink" x="0px" y="0px"
	 viewBox="0 0 270 66.1" style="enable-background:new 0 0 270 66.1;" xml:space="preserve">
<style type="text/css">
	.st0{fill:#FFFFFF;}
	.st1{fill:url(#SVGID_1_);}
	.st2{fill:url(#SVGID_2_);}
	.st3{fill:url(#SVGID_3_);}
	.st4{fill:url(#SVGID_4_);}
	.st5{fill:url(#SVGID_5_);}
	.st6{fill:url(#SVGID_6_);}
	.st7{fill:url(#SVGID_7_);}
	.st8{fill:url(#SVGID_8_);}
	.st9{fill:url(#SVGID_9_);}
	.st10{fill:url(#SVGID_10_);}
	.st11{fill:url(#SVGID_11_);}
	.st12{fill:url(#SVGID_12_);}
	.st13{fill:url(#SVGID_13_);}
	.st14{fill:url(#SVGID_14_);}
	.st15{fill:url(#SVGID_15_);}
	.st16{fill:url(#SVGID_16_);}
	.st17{fill:url(#SVGID_17_);}
	.st18{fill:url(#SVGID_18_);}
	.st19{fill:url(#SVGID_19_);}
	.st20{fill:url(#SVGID_20_);}
	.st21{fill:url(#SVGID_21_);}
	.st22{fill:url(#SVGID_22_);}
	.st23{fill:url(#SVGID_23_);}
	.st24{fill:url(#SVGID_24_);}
	.st25{fill:url(#SVGID_25_);}
	.st26{fill:url(#SVGID_26_);}
	.st27{fill:url(#SVGID_27_);}
	.st28{fill:url(#SVGID_28_);}
	.st29{fill:url(#SVGID_29_);}
	.st30{fill:url(#SVGID_30_);}
	.st31{fill:url(#SVGID_31_);}
	.st32{fill:url(#SVGID_32_);}
	.st33{clip-path:url(#XMLID_2_);fill:#FFFFFF;}
	.st34{clip-path:url(#XMLID_3_);fill:#FFFFFF;}
	.st35{clip-path:url(#XMLID_4_);fill:#FFFFFF;}
	.st36{clip-path:url(#XMLID_5_);fill:#FFFFFF;}
	.st37{clip-path:url(#XMLID_6_);fill:#FFFFFF;}
	.st38{clip-path:url(#XMLID_7_);fill:#FFFFFF;}
	.st39{clip-path:url(#XMLID_8_);fill:#FFFFFF;}
	.st40{clip-path:url(#XMLID_9_);fill:#FFFFFF;}
	.st41{clip-path:url(#XMLID_10_);fill:#FFFFFF;}
	.st42{clip-path:url(#XMLID_11_);fill:#FFFFFF;}
	.st43{clip-path:url(#XMLID_12_);fill:#FFFFFF;}
	.st44{clip-path:url(#XMLID_13_);fill:#FFFFFF;}
	.st45{clip-path:url(#XMLID_14_);fill:#FFFFFF;}
</style>
<g>
	<g>
		<g id="XMLID_419_">
			<defs>
				<path id="XMLID_420_" d="M108.32,29.68l0.32,0.07c-0.18-1.19-0.41-2.34-0.71-3.42c-0.41-0.13-0.81-0.22-1.2-0.29
					c-5.14-0.88-11.17,9.27-13.41,18.44c1.32,0.58,2.66,1.08,3.94,1.47C98.7,38.28,103.92,28.93,108.32,29.68"/>
			</defs>
			<use xlink:href="#XMLID_420_"  style="overflow:visible;fill:#FFFFFF;"/>
			<clipPath id="XMLID_2_">
				<use xlink:href="#XMLID_420_"  style="overflow:visible;"/>
			</clipPath>
			<rect id="XMLID_421_" x="93.32" y="25.17" class="st33" width="15.31" height="20.78"/>
		</g>
		<g id="XMLID_416_">
			<defs>
				<path id="XMLID_417_" d="M104.65,46.68c-1.69,0.54-4.4,0.19-7.39-0.73c-0.2,1.07-0.33,2.1-0.37,3.07
					c4.32,1.51,8.35,2.17,10.75,1.4c4.44-1.41,6.01-10.38,5.27-18.72c-1.5-0.98-2.97-1.67-4.27-1.96
					C109.68,36.9,108.55,45.44,104.65,46.68"/>
			</defs>
			<use xlink:href="#XMLID_417_"  style="overflow:visible;fill:#FFFFFF;"/>
			<clipPath id="XMLID_3_">
				<use xlink:href="#XMLID_417_"  style="overflow:visible;"/>
			</clipPath>
			<rect id="XMLID_418_" x="96.89" y="29.75" class="st34" width="16.75" height="21.44"/>
		</g>
		<g id="XMLID_413_">
			<defs>
				<path id="XMLID_414_" d="M124.88,49.47c-1.76,6.22-21.15,8.97-26.1,5.49c-1.47-1.03-2.01-3.24-1.89-5.94
					c-1.37-0.48-2.76-1.04-4.15-1.67c-0.73,4.64-0.27,8.66,2.07,10.29c6.19,4.34,30.43,0.91,32.63-6.87
					c1.07-3.78-2.29-9.91-6.94-15.13c-0.61,0.33-1.23,0.66-1.86,0.97C122.7,40.94,125.79,46.26,124.88,49.47"/>
			</defs>
			<use xlink:href="#XMLID_414_"  style="overflow:visible;fill:#FFFFFF;"/>
			<clipPath id="XMLID_4_">
				<use xlink:href="#XMLID_414_"  style="overflow:visible;"/>
			</clipPath>
			<rect id="XMLID_415_" x="92.01" y="35.64" class="st35" width="36.49" height="26.35"/>
		</g>
		<g id="XMLID_410_">
			<defs>
				<path id="XMLID_411_" d="M112.51,28.61c0.17,1.01,0.3,2.05,0.39,3.1c1.19,0.77,2.39,1.72,3.57,2.78
					c0.68-0.29,1.36-0.61,2.03-0.95C116.57,31.63,114.51,29.92,112.51,28.61"/>
			</defs>
			<use xlink:href="#XMLID_411_"  style="overflow:visible;fill:#FFFFFF;"/>
			<clipPath id="XMLID_5_">
				<use xlink:href="#XMLID_411_"  style="overflow:visible;"/>
			</clipPath>
			<rect id="XMLID_412_" x="112.51" y="28.61" class="st36" width="5.99" height="5.88"/>
		</g>
		<g id="XMLID_407_">
			<defs>
				<path id="XMLID_408_" d="M131.43,24.03c-0.22-7.58-18.77-18.54-27.16-17.4c-3.33,0.45-5.65,5.4-6.7,11.38
					c1.51-0.53,2.97-0.93,4.34-1.16c0.97-3.91,2.66-6.91,4.97-7.23c6.71-0.92,21.55,7.86,21.73,13.92c0.09,3.38-4.69,7.29-10.1,10
					c0.68,0.68,1.35,1.38,1.99,2.1C126.53,32.33,131.54,27.9,131.43,24.03"/>
			</defs>
			<use xlink:href="#XMLID_408_"  style="overflow:visible;fill:#FFFFFF;"/>
			<clipPath id="XMLID_6_">
				<use xlink:href="#XMLID_408_"  style="overflow:visible;"/>
			</clipPath>
			<rect id="XMLID_409_" x="97.57" y="5.49" class="st37" width="33.97" height="30.16"/>
		</g>
		<g id="XMLID_404_">
			<defs>
				<path id="XMLID_405_" d="M116.47,34.49c-4.34,1.88-8.75,2.87-11.13,2.12c-3.91-1.24-5.04-9.79-3.98-16.94
					c-1.25,0.09-2.67,0.4-4.16,0.88c-0.99,8.63,0.52,18.34,5.16,19.81c3.41,1.08,10.15-0.7,16.28-3.74
					C117.94,35.87,117.21,35.16,116.47,34.49"/>
			</defs>
			<use xlink:href="#XMLID_405_"  style="overflow:visible;fill:#FFFFFF;"/>
			<clipPath id="XMLID_7_">
				<use xlink:href="#XMLID_405_"  style="overflow:visible;"/>
			</clipPath>
			<rect id="XMLID_406_" x="96.21" y="19.66" class="st38" width="22.42" height="21.78"/>
		</g>
		<g id="XMLID_401_">
			<defs>
				<path id="XMLID_402_" d="M116.47,34.49c0.74,0.67,1.47,1.38,2.16,2.12c0.63-0.31,1.25-0.63,1.86-0.97
					c-0.64-0.72-1.31-1.42-1.99-2.1C117.83,33.88,117.15,34.2,116.47,34.49"/>
			</defs>
			<use xlink:href="#XMLID_402_"  style="overflow:visible;fill:#FFFFFF;"/>
			<clipPath id="XMLID_8_">
				<use xlink:href="#XMLID_402_"  style="overflow:visible;"/>
			</clipPath>
			<rect id="XMLID_403_" x="116.47" y="33.55" class="st39" width="4.02" height="3.07"/>
		</g>
		<g id="XMLID_398_">
			<defs>
				<path id="XMLID_399_" d="M78.56,34.1c-0.13,4.55,6.81,9.87,14.18,13.25c0.15-0.94,0.34-1.9,0.58-2.87
					c-6.12-2.69-12.04-7.1-11.93-10.86c0.13-4.61,8.74-10.78,15.81-13.08c0.1-0.86,0.22-1.7,0.37-2.53
					C88.88,21.06,78.72,28.51,78.56,34.1"/>
			</defs>
			<use xlink:href="#XMLID_399_"  style="overflow:visible;fill:#FFFFFF;"/>
			<clipPath id="XMLID_9_">
				<use xlink:href="#XMLID_399_"  style="overflow:visible;"/>
			</clipPath>
			<rect id="XMLID_400_" x="78.43" y="18.01" class="st40" width="19.14" height="29.34"/>
		</g>
		<g id="XMLID_395_">
			<defs>
				<path id="XMLID_396_" d="M103.12,19.7c2.19,0.3,3.83,3.02,4.81,6.63c1.43,0.44,2.99,1.23,4.58,2.27
					c-1.01-6.21-3.36-11.44-6.79-11.9c-1.11-0.15-2.41-0.09-3.81,0.15c-0.22,0.89-0.4,1.84-0.55,2.81
					C101.99,19.62,102.58,19.63,103.12,19.7"/>
			</defs>
			<use xlink:href="#XMLID_396_"  style="overflow:visible;fill:#FFFFFF;"/>
			<clipPath id="XMLID_10_">
				<use xlink:href="#XMLID_396_"  style="overflow:visible;"/>
			</clipPath>
			<rect id="XMLID_397_" x="101.36" y="16.55" class="st41" width="11.15" height="12.06"/>
		</g>
		<g id="XMLID_392_">
			<defs>
				<path id="XMLID_393_" d="M101.9,16.86c-1.36,0.23-2.83,0.63-4.34,1.16c-0.15,0.83-0.27,1.67-0.37,2.53
					c1.49-0.48,2.9-0.79,4.16-0.88C101.5,18.7,101.68,17.75,101.9,16.86"/>
			</defs>
			<use xlink:href="#XMLID_393_"  style="overflow:visible;fill:#FFFFFF;"/>
			<clipPath id="XMLID_11_">
				<use xlink:href="#XMLID_393_"  style="overflow:visible;"/>
			</clipPath>
			<rect id="XMLID_394_" x="97.2" y="16.86" class="st42" width="4.7" height="3.69"/>
		</g>
		<g id="XMLID_389_">
			<defs>
				<path id="XMLID_390_" d="M101.9,16.86c-1.36,0.23-2.83,0.63-4.34,1.16c-0.15,0.83-0.27,1.67-0.37,2.53
					c1.49-0.48,2.9-0.79,4.16-0.88C101.5,18.7,101.68,17.75,101.9,16.86"/>
			</defs>
			<use xlink:href="#XMLID_390_"  style="overflow:visible;fill:#FFFFFF;"/>
			<clipPath id="XMLID_12_">
				<use xlink:href="#XMLID_390_"  style="overflow:visible;"/>
			</clipPath>
			<rect id="XMLID_391_" x="97.2" y="16.86" class="st43" width="4.7" height="3.69"/>
		</g>
		<g id="XMLID_386_">
			<defs>
				<path id="XMLID_387_" d="M97.26,45.95c-1.28-0.39-2.61-0.89-3.94-1.47c-0.24,0.97-0.43,1.93-0.58,2.87
					c1.38,0.63,2.78,1.2,4.15,1.67C96.93,48.05,97.06,47.02,97.26,45.95"/>
			</defs>
			<use xlink:href="#XMLID_387_"  style="overflow:visible;fill:#FFFFFF;"/>
			<clipPath id="XMLID_13_">
				<use xlink:href="#XMLID_387_"  style="overflow:visible;"/>
			</clipPath>
			<rect id="XMLID_388_" x="92.74" y="44.48" class="st44" width="4.52" height="4.54"/>
		</g>
		<g id="XMLID_383_">
			<defs>
				<path id="XMLID_384_" d="M108.63,29.75c1.3,0.28,2.76,0.98,4.27,1.96c-0.09-1.05-0.22-2.09-0.39-3.1
					c-1.59-1.05-3.15-1.84-4.58-2.27C108.22,27.41,108.46,28.56,108.63,29.75"/>
			</defs>
			<use xlink:href="#XMLID_384_"  style="overflow:visible;fill:#FFFFFF;"/>
			<clipPath id="XMLID_14_">
				<use xlink:href="#XMLID_384_"  style="overflow:visible;"/>
			</clipPath>
			<rect id="XMLID_385_" x="107.93" y="26.33" class="st45" width="4.97" height="5.38"/>
		</g>
	</g>
	<g>
		<path id="XMLID_481_" class="st0" d="M138.76,35.98l-0.06,0.05l-0.35,0.93c-0.06,0.16-0.1,0.32-0.1,0.4
			c0,0.12,0.06,0.21,0.26,0.21h0.1l0.1,0.05l-0.11,0.06c-0.21,0-0.49-0.02-0.69-0.02c-0.07,0-0.43,0.02-0.77,0.02l-0.12-0.06
			l0.08-0.05l0.2-0.01c0.3-0.04,0.43-0.26,0.56-0.59l1.64-4.1c0.08-0.19,0.12-0.26,0.18-0.26c0.06,0,0.1,0.06,0.16,0.21
			c0.16,0.36,1.2,3.02,1.62,4.01c0.25,0.59,0.44,0.68,0.57,0.71c0.1,0.02,0.2,0.03,0.27,0.03l0.09,0.05c0,0.05-0.06,0.06-0.3,0.06
			c-0.24,0-0.71,0-1.23-0.01c-0.12-0.01-0.2-0.01-0.2-0.05l0.09-0.06l0.06-0.15l-0.52-1.38l-0.07-0.05H138.76z M140.09,35.66
			l0.03-0.04l-0.59-1.61l-0.03-0.06l-0.04,0.06l-0.6,1.6l0.03,0.05H140.09z"/>
		<path id="XMLID_480_" class="st0" d="M142.97,37.61c-0.1-0.05-0.12-0.08-0.12-0.22c0-0.36,0.03-0.75,0.03-0.86
			c0-0.1,0.03-0.17,0.08-0.17l0.07,0.11c0,0.09,0.02,0.22,0.06,0.33c0.14,0.49,0.53,0.66,0.93,0.66c0.59,0,0.87-0.4,0.87-0.74
			c0-0.32-0.1-0.62-0.64-1.04l-0.3-0.24c-0.72-0.56-0.97-1.02-0.97-1.54c0-0.72,0.6-1.24,1.51-1.24c0.43,0,0.7,0.07,0.87,0.11
			l0.09,0.08c0,0.09-0.03,0.28-0.03,0.78c0,0.15-0.02,0.2-0.07,0.2l-0.07-0.12c0-0.06-0.03-0.26-0.17-0.43
			c-0.1-0.12-0.29-0.32-0.71-0.32c-0.48,0-0.78,0.28-0.78,0.67c0,0.3,0.15,0.53,0.69,0.94l0.18,0.14c0.79,0.59,1.07,1.04,1.07,1.66
			c0,0.38-0.14,0.83-0.61,1.14c-0.33,0.21-0.69,0.27-1.04,0.27C143.54,37.78,143.25,37.73,142.97,37.61"/>
		<path id="XMLID_479_" class="st0" d="M147.09,37.61c-0.1-0.05-0.12-0.08-0.12-0.22c0-0.36,0.03-0.75,0.03-0.86
			c0.01-0.1,0.03-0.17,0.08-0.17l0.07,0.11c0,0.09,0.03,0.22,0.06,0.33c0.14,0.49,0.53,0.66,0.93,0.66c0.59,0,0.88-0.4,0.88-0.74
			c0-0.32-0.1-0.62-0.64-1.04l-0.3-0.24c-0.72-0.56-0.97-1.02-0.97-1.54c0-0.72,0.6-1.24,1.51-1.24c0.43,0,0.7,0.07,0.87,0.11
			l0.09,0.08c0,0.09-0.03,0.28-0.03,0.78c0,0.15-0.02,0.2-0.07,0.2l-0.07-0.12c0-0.06-0.03-0.26-0.17-0.43
			c-0.1-0.12-0.28-0.32-0.71-0.32c-0.48,0-0.77,0.28-0.77,0.67c0,0.3,0.15,0.53,0.69,0.94l0.18,0.14c0.79,0.59,1.07,1.04,1.07,1.66
			c0,0.38-0.14,0.83-0.62,1.14c-0.32,0.21-0.69,0.27-1.04,0.27C147.67,37.78,147.37,37.73,147.09,37.61"/>
		<path id="XMLID_476_" class="st0" d="M150.87,35.22c0-1.12,0.74-2.56,2.7-2.56c1.63,0,2.64,0.95,2.64,2.44
			c0,1.49-1.04,2.68-2.7,2.68C151.62,37.78,150.87,36.37,150.87,35.22 M155.29,35.34c0-1.46-0.84-2.37-1.91-2.37
			c-0.75,0-1.61,0.42-1.61,2.04c0,1.36,0.75,2.44,2,2.44C154.23,37.45,155.29,37.23,155.29,35.34"/>
		<path id="XMLID_475_" class="st0" d="M158.05,37.07c-0.64-0.56-0.81-1.29-0.81-1.93c0-0.44,0.14-1.21,0.76-1.79
			c0.47-0.43,1.09-0.69,2.06-0.69c0.4,0,0.65,0.03,0.95,0.07c0.25,0.03,0.46,0.09,0.65,0.11l0.1,0.08c0,0.05-0.02,0.13-0.03,0.36
			c-0.01,0.22-0.01,0.57-0.02,0.7c-0.01,0.1-0.02,0.15-0.08,0.15c-0.05,0-0.06-0.05-0.06-0.14c-0.01-0.2-0.09-0.43-0.25-0.6
			c-0.21-0.23-0.72-0.41-1.33-0.41c-0.57,0-0.94,0.15-1.23,0.41c-0.48,0.44-0.6,1.06-0.6,1.69c0,1.55,1.18,2.32,2.05,2.32
			c0.58,0,0.93-0.07,1.19-0.37c0.11-0.12,0.2-0.31,0.22-0.43c0.02-0.1,0.03-0.13,0.09-0.13l0.06,0.1c0,0.08-0.08,0.65-0.14,0.87
			c-0.03,0.11-0.06,0.14-0.17,0.19c-0.26,0.11-0.76,0.15-1.18,0.15C159.39,37.78,158.65,37.58,158.05,37.07"/>
		<path id="XMLID_474_" class="st0" d="M163.5,34.65c0-0.99,0-1.18-0.01-1.38c-0.01-0.22-0.08-0.33-0.22-0.37l-0.23-0.03l-0.1-0.07
			c0-0.04,0.05-0.05,0.16-0.05c0.25,0,0.66,0.02,0.85,0.02c0.16,0,0.55-0.02,0.8-0.02l0.14,0.05l-0.1,0.07l-0.2,0.02
			c-0.18,0.03-0.23,0.14-0.24,0.37c-0.01,0.21-0.01,0.39-0.01,1.38v1.15c0,0.63,0,1.15,0.03,1.43c0.02,0.18,0.06,0.29,0.26,0.32
			c0.09,0.01,0.24,0.03,0.33,0.03l0.11,0.05l-0.12,0.06c-0.43,0-0.84-0.02-1.02-0.02c-0.15,0-0.56,0.02-0.82,0.02l-0.13-0.06
			l0.1-0.05c0.1,0,0.18-0.01,0.24-0.03c0.13-0.03,0.17-0.14,0.19-0.33c0.03-0.27,0.03-0.79,0.03-1.42V34.65z"/>
		<path id="XMLID_471_" class="st0" d="M167.04,35.98l-0.06,0.05l-0.35,0.93c-0.07,0.16-0.1,0.32-0.1,0.4
			c0,0.12,0.06,0.21,0.26,0.21h0.1l0.1,0.05l-0.11,0.06c-0.21,0-0.49-0.02-0.69-0.02c-0.07,0-0.43,0.02-0.77,0.02l-0.12-0.06
			l0.08-0.05l0.2-0.01c0.3-0.04,0.43-0.26,0.56-0.59l1.64-4.1c0.08-0.19,0.12-0.26,0.18-0.26c0.06,0,0.1,0.06,0.17,0.21
			c0.16,0.36,1.2,3.02,1.62,4.01c0.25,0.59,0.44,0.68,0.57,0.71c0.1,0.02,0.2,0.03,0.27,0.03l0.09,0.05c0,0.05-0.06,0.06-0.3,0.06
			c-0.23,0-0.71,0-1.23-0.01c-0.12-0.01-0.2-0.01-0.2-0.05l0.09-0.06l0.06-0.15l-0.52-1.38l-0.07-0.05H167.04z M168.37,35.66
			l0.03-0.04l-0.59-1.61l-0.03-0.06l-0.04,0.06l-0.6,1.6l0.03,0.05H168.37z"/>
		<path id="XMLID_470_" class="st0" d="M172.12,33.12l-0.97,0.03c-0.38,0.01-0.54,0.04-0.63,0.19c-0.07,0.1-0.1,0.18-0.11,0.23
			l-0.07,0.08l-0.06-0.1c0-0.11,0.12-0.7,0.14-0.75l0.08-0.13c0.05,0,0.12,0.07,0.28,0.08c0.19,0.02,0.44,0.03,0.65,0.03H174
			c0.21,0,0.35-0.02,0.45-0.03c0.1-0.02,0.15-0.03,0.18-0.03c0.05,0,0.05,0.04,0.05,0.14c0,0.14-0.02,0.59-0.02,0.76l-0.06,0.11
			c-0.05,0-0.06-0.04-0.07-0.13l-0.01-0.07c-0.01-0.17-0.19-0.35-0.77-0.37l-0.82-0.02v2.68c0,0.6,0,1.12,0.03,1.4
			c0.02,0.18,0.06,0.32,0.26,0.35c0.09,0.01,0.23,0.03,0.33,0.03l0.1,0.05l-0.13,0.06c-0.43,0-0.84-0.02-1.02-0.02
			c-0.15,0-0.56,0.02-0.83,0.02l-0.13-0.06l0.1-0.05c0.1,0,0.18-0.01,0.23-0.03c0.13-0.03,0.17-0.17,0.19-0.36
			c0.04-0.27,0.04-0.79,0.04-1.39V33.12z"/>
		<path id="XMLID_469_" class="st0" d="M176.21,34.65c0-0.99,0-1.18-0.01-1.38c-0.01-0.22-0.08-0.33-0.22-0.37l-0.24-0.03l-0.1-0.07
			c0-0.04,0.05-0.05,0.16-0.05c0.25,0,0.66,0.02,0.85,0.02c0.16,0,0.55-0.02,0.8-0.02l0.14,0.05l-0.1,0.07l-0.2,0.02
			c-0.18,0.03-0.23,0.14-0.24,0.37c-0.01,0.21-0.01,0.39-0.01,1.38v1.15c0,0.63,0,1.15,0.03,1.43c0.02,0.18,0.07,0.29,0.26,0.32
			c0.09,0.01,0.23,0.03,0.33,0.03l0.11,0.05l-0.13,0.06c-0.43,0-0.84-0.02-1.02-0.02c-0.15,0-0.56,0.02-0.82,0.02l-0.13-0.06
			l0.1-0.05c0.1,0,0.17-0.01,0.24-0.03c0.13-0.03,0.17-0.14,0.19-0.33c0.03-0.27,0.03-0.79,0.03-1.42V34.65z"/>
		<path id="XMLID_466_" class="st0" d="M178.71,35.22c0-1.12,0.74-2.56,2.7-2.56c1.63,0,2.64,0.95,2.64,2.44
			c0,1.49-1.05,2.68-2.7,2.68C179.47,37.78,178.71,36.37,178.71,35.22 M183.13,35.34c0-1.46-0.84-2.37-1.91-2.37
			c-0.75,0-1.61,0.42-1.61,2.04c0,1.36,0.75,2.44,2,2.44C182.07,37.45,183.13,37.23,183.13,35.34"/>
		<path id="XMLID_465_" class="st0" d="M186.1,36.8c0.01,0.51,0.1,0.68,0.23,0.72c0.11,0.04,0.24,0.05,0.34,0.05l0.11,0.05
			c0,0.05-0.06,0.06-0.15,0.06c-0.43,0-0.69-0.02-0.81-0.02c-0.06,0-0.37,0.02-0.71,0.02l-0.14-0.06l0.1-0.05
			c0.08,0,0.2-0.01,0.29-0.03c0.17-0.05,0.2-0.24,0.2-0.81l0.06-3.87c0-0.13,0.02-0.22,0.08-0.22c0.07,0,0.13,0.09,0.24,0.21
			c0.08,0.08,1.07,1.15,2.02,2.09c0.45,0.44,1.33,1.38,1.44,1.49h0.03l-0.06-2.93c-0.01-0.4-0.07-0.52-0.22-0.59
			c-0.1-0.04-0.25-0.04-0.34-0.04l-0.11-0.06c0-0.05,0.07-0.06,0.17-0.06c0.34,0,0.65,0.02,0.79,0.02c0.07,0,0.32-0.02,0.64-0.02
			l0.15,0.06l-0.12,0.06l-0.2,0.02c-0.18,0.05-0.24,0.19-0.24,0.56l-0.07,4.12c0,0.14-0.03,0.2-0.08,0.2l-0.22-0.14
			c-0.41-0.39-1.25-1.25-1.92-1.92c-0.71-0.71-1.44-1.52-1.55-1.64h-0.02L186.1,36.8z"/>
		<path id="XMLID_464_" class="st0" d="M138.12,45.77c-0.64-0.56-0.81-1.29-0.81-1.93c0-0.45,0.14-1.22,0.76-1.79
			c0.47-0.43,1.09-0.69,2.06-0.69c0.41,0,0.65,0.03,0.95,0.07c0.25,0.03,0.46,0.09,0.65,0.11l0.1,0.08c0,0.05-0.02,0.13-0.03,0.36
			c-0.01,0.21-0.01,0.57-0.02,0.7c-0.01,0.1-0.02,0.15-0.08,0.15c-0.05,0-0.06-0.05-0.06-0.14c-0.01-0.2-0.09-0.43-0.25-0.6
			c-0.22-0.23-0.73-0.41-1.32-0.41c-0.57,0-0.94,0.15-1.23,0.41c-0.48,0.43-0.6,1.06-0.6,1.69c0,1.56,1.18,2.33,2.06,2.33
			c0.58,0,0.93-0.07,1.19-0.37c0.11-0.12,0.2-0.32,0.22-0.43c0.02-0.1,0.03-0.13,0.09-0.13l0.06,0.1c0,0.08-0.08,0.64-0.14,0.87
			c-0.03,0.11-0.06,0.15-0.17,0.19c-0.26,0.11-0.76,0.15-1.17,0.15C139.47,46.48,138.72,46.29,138.12,45.77"/>
		<path id="XMLID_461_" class="st0" d="M143.12,43.92c0-1.12,0.74-2.56,2.7-2.56c1.63,0,2.64,0.95,2.64,2.44
			c0,1.49-1.05,2.67-2.7,2.67C143.88,46.48,143.12,45.08,143.12,43.92 M147.54,44.05c0-1.46-0.84-2.37-1.91-2.37
			c-0.75,0-1.6,0.42-1.6,2.04c0,1.36,0.75,2.44,2,2.44C146.48,46.16,147.54,45.94,147.54,44.05"/>
		<path id="XMLID_460_" class="st0" d="M150.77,45.5c0.01,0.51,0.1,0.67,0.23,0.72c0.11,0.04,0.24,0.05,0.34,0.05l0.11,0.05
			c0,0.05-0.06,0.07-0.15,0.07c-0.42,0-0.68-0.02-0.81-0.02c-0.06,0-0.37,0.02-0.7,0.02l-0.14-0.07l0.11-0.05
			c0.09,0,0.2-0.01,0.29-0.04c0.17-0.05,0.2-0.24,0.2-0.81l0.06-3.86c0-0.13,0.02-0.22,0.09-0.22c0.07,0,0.13,0.09,0.24,0.2
			c0.08,0.08,1.07,1.15,2.02,2.1c0.44,0.44,1.32,1.38,1.44,1.49h0.03l-0.06-2.93c-0.01-0.4-0.06-0.52-0.22-0.59
			c-0.1-0.04-0.25-0.04-0.35-0.04l-0.1-0.06c0-0.05,0.07-0.06,0.17-0.06c0.34,0,0.65,0.02,0.79,0.02c0.07,0,0.32-0.02,0.64-0.02
			l0.15,0.06l-0.12,0.06l-0.2,0.02c-0.18,0.05-0.23,0.19-0.24,0.56l-0.07,4.12c0,0.14-0.03,0.2-0.09,0.2l-0.22-0.14
			c-0.41-0.39-1.25-1.25-1.93-1.92c-0.71-0.7-1.44-1.52-1.55-1.64h-0.02L150.77,45.5z"/>
		<path id="XMLID_456_" class="st0" d="M161.07,45.95c0,0.17-0.01,0.19-0.08,0.23c-0.42,0.22-1.06,0.29-1.57,0.29
			c-1.6,0-3.01-0.76-3.01-2.56c0-1.04,0.54-1.78,1.14-2.13c0.63-0.38,1.21-0.43,1.75-0.43c0.45,0,1.02,0.08,1.16,0.11
			c0.14,0.03,0.36,0.06,0.52,0.07l0.09,0.08c0,0.07-0.05,0.25-0.05,1.07c0,0.1-0.02,0.14-0.07,0.14l-0.07-0.08
			c-0.02-0.15-0.05-0.36-0.22-0.54c-0.2-0.21-0.72-0.51-1.46-0.51c-0.36,0-0.83,0.03-1.29,0.41c-0.37,0.31-0.6,0.8-0.6,1.6
			c0,1.4,0.89,2.45,2.27,2.45c0.17,0,0.4,0,0.55-0.07c0.1-0.05,0.12-0.13,0.12-0.24v-0.61c0-0.33,0-0.58-0.01-0.77
			c-0.01-0.22-0.06-0.33-0.28-0.37c-0.05-0.01-0.16-0.02-0.25-0.02l-0.1-0.05c0-0.05,0.05-0.06,0.14-0.06
			c0.34,0,0.75,0.02,0.95,0.02c0.2,0,0.55-0.02,0.76-0.02l0.13,0.06l-0.08,0.05l-0.18,0.02c-0.18,0.03-0.24,0.14-0.25,0.37
			c-0.01,0.19-0.01,0.46-0.01,0.78V45.95z"/>
		<path id="XMLID_452_" class="st0" d="M162.77,43.92c0-1.12,0.74-2.56,2.7-2.56c1.62,0,2.64,0.95,2.64,2.44
			c0,1.49-1.04,2.67-2.7,2.67C163.53,46.48,162.77,45.08,162.77,43.92 M167.19,44.05c0-1.46-0.84-2.37-1.91-2.37
			c-0.75,0-1.61,0.42-1.61,2.04c0,1.36,0.75,2.44,2.01,2.44C166.13,46.16,167.19,45.94,167.19,44.05"/>
		<path id="XMLID_451_" class="st0" d="M170.87,44.5c0,0.84,0,1.29,0.14,1.41c0.11,0.1,0.28,0.14,0.79,0.14
			c0.35,0,0.6-0.01,0.76-0.19c0.08-0.08,0.16-0.27,0.17-0.39l0.07-0.1l0.05,0.11c0,0.07-0.05,0.56-0.1,0.75
			c-0.04,0.14-0.07,0.17-0.41,0.17c-0.47,0-0.81-0.01-1.1-0.02c-0.29-0.01-0.53-0.02-0.8-0.02c-0.07,0-0.21,0-0.37,0.01
			c-0.15,0-0.32,0.01-0.45,0.01l-0.13-0.07l0.11-0.05c0.1,0,0.18-0.01,0.24-0.03c0.13-0.03,0.16-0.17,0.19-0.36
			c0.03-0.27,0.03-0.79,0.03-1.39v-1.15c0-0.99,0-1.17-0.01-1.38c-0.01-0.22-0.06-0.32-0.28-0.37l-0.22-0.02l-0.11-0.06
			c0-0.05,0.04-0.06,0.14-0.06c0.3,0,0.72,0.02,0.89,0.02c0.15,0,0.63-0.02,0.89-0.02c0.09,0,0.14,0.01,0.14,0.06l-0.12,0.06
			l-0.25,0.02c-0.18,0.03-0.23,0.14-0.24,0.37c-0.01,0.21-0.01,0.39-0.01,1.38V44.5z"/>
		<path id="XMLID_448_" class="st0" d="M174.98,44.69l-0.06,0.05l-0.35,0.94c-0.07,0.16-0.1,0.32-0.1,0.4c0,0.12,0.06,0.2,0.26,0.2
			h0.1l0.1,0.05l-0.11,0.07c-0.21,0-0.49-0.02-0.69-0.02c-0.07,0-0.43,0.02-0.77,0.02l-0.12-0.07l0.08-0.05l0.2-0.01
			c0.3-0.04,0.42-0.26,0.55-0.59l1.64-4.1c0.08-0.19,0.11-0.26,0.18-0.26c0.06,0,0.1,0.06,0.16,0.21c0.16,0.36,1.2,3.02,1.62,4.01
			c0.25,0.59,0.44,0.68,0.57,0.71c0.1,0.02,0.19,0.03,0.27,0.03l0.09,0.05c0,0.05-0.06,0.07-0.3,0.07c-0.23,0-0.71,0-1.23-0.01
			c-0.12-0.01-0.2-0.01-0.2-0.05l0.09-0.06l0.06-0.15l-0.52-1.38l-0.07-0.05H174.98z M176.31,44.36l0.03-0.04l-0.59-1.61l-0.03-0.06
			l-0.04,0.06l-0.6,1.6l0.03,0.05H176.31z"/>
		<path id="XMLID_447_" class="st0" d="M179.88,43.35c0-0.99,0-1.17-0.01-1.38c-0.01-0.22-0.08-0.33-0.23-0.36l-0.23-0.03
			l-0.11-0.06c0-0.04,0.05-0.05,0.16-0.05c0.25,0,0.66,0.02,0.85,0.02c0.16,0,0.55-0.02,0.8-0.02l0.14,0.05l-0.1,0.06l-0.2,0.02
			c-0.18,0.03-0.23,0.14-0.24,0.37c-0.01,0.21-0.01,0.39-0.01,1.38v1.15c0,0.63,0,1.15,0.02,1.43c0.02,0.18,0.07,0.3,0.26,0.32
			c0.09,0.01,0.23,0.03,0.33,0.03l0.1,0.05l-0.12,0.07c-0.43,0-0.84-0.02-1.02-0.02c-0.15,0-0.56,0.02-0.82,0.02l-0.13-0.07
			l0.11-0.05c0.1,0,0.17-0.01,0.23-0.03c0.13-0.03,0.17-0.14,0.19-0.33c0.03-0.27,0.03-0.79,0.03-1.42V43.35z"/>
		<path id="XMLID_446_" class="st0" d="M183.05,46.31c-0.1-0.04-0.12-0.08-0.12-0.22c0-0.36,0.03-0.75,0.03-0.85
			c0.01-0.1,0.03-0.17,0.08-0.17l0.07,0.11c0,0.08,0.03,0.22,0.06,0.33c0.15,0.48,0.53,0.66,0.93,0.66c0.59,0,0.87-0.4,0.87-0.74
			c0-0.32-0.1-0.62-0.64-1.05l-0.3-0.23c-0.72-0.56-0.97-1.02-0.97-1.55c0-0.72,0.6-1.23,1.51-1.23c0.42,0,0.7,0.07,0.87,0.11
			l0.09,0.08c0,0.09-0.03,0.28-0.03,0.78c0,0.14-0.02,0.2-0.07,0.2l-0.07-0.12c0-0.06-0.03-0.26-0.17-0.43
			c-0.1-0.12-0.29-0.32-0.71-0.32c-0.48,0-0.78,0.28-0.78,0.67c0,0.3,0.15,0.53,0.69,0.94l0.18,0.14c0.79,0.59,1.07,1.04,1.07,1.66
			c0,0.38-0.15,0.83-0.62,1.14c-0.33,0.21-0.69,0.26-1.04,0.26C183.63,46.48,183.33,46.44,183.05,46.31"/>
		<path id="XMLID_445_" class="st0" d="M187.8,43.35c0-0.99,0-1.17-0.02-1.38c-0.01-0.22-0.06-0.32-0.28-0.37
			c-0.05-0.01-0.16-0.02-0.26-0.02l-0.11-0.06c0-0.05,0.04-0.06,0.14-0.06c0.18,0,0.36,0.01,0.53,0.01
			c0.17,0.01,0.32,0.01,0.41,0.01c0.21,0,1.51,0,1.63-0.01c0.12-0.01,0.23-0.03,0.28-0.04l0.1-0.03l0.04,0.06
			c0,0.05-0.03,0.12-0.05,0.42l-0.03,0.43l-0.06,0.07l-0.06-0.09l-0.04-0.23c-0.04-0.12-0.11-0.2-0.44-0.23
			c-0.11-0.01-0.8-0.03-0.93-0.03l-0.04,0.06v1.65l0.04,0.07c0.15,0,0.9,0,1.05-0.01c0.15-0.01,0.25-0.03,0.31-0.1l0.1-0.09
			l0.05,0.05c0,0.04-0.03,0.15-0.05,0.48c-0.01,0.13-0.02,0.39-0.02,0.44l-0.06,0.12l-0.06-0.06l-0.03-0.23
			c-0.03-0.13-0.12-0.23-0.36-0.26c-0.12-0.01-0.77-0.02-0.92-0.02l-0.04,0.07v0.51c0,0.22-0.01,0.82,0,1.01
			c0.01,0.45,0.12,0.55,0.78,0.55c0.17,0,0.44,0,0.61-0.08c0.17-0.08,0.25-0.21,0.29-0.48l0.07-0.1l0.05,0.12
			c0,0.15-0.05,0.59-0.09,0.72c-0.05,0.17-0.1,0.17-0.35,0.17c-0.49,0-0.85-0.01-1.13-0.02c-0.28-0.01-0.48-0.02-0.68-0.02
			c-0.07,0-0.21,0-0.37,0.01c-0.15,0-0.32,0.01-0.45,0.01l-0.13-0.07l0.11-0.05c0.1,0,0.18-0.01,0.24-0.03
			c0.13-0.03,0.16-0.17,0.19-0.36c0.03-0.27,0.03-0.79,0.03-1.39V43.35z"/>
		<path id="XMLID_439_" class="st0" d="M137.94,52.05c0-0.99,0-1.17-0.01-1.38c-0.01-0.22-0.06-0.33-0.28-0.37
			c-0.05-0.01-0.16-0.02-0.26-0.02l-0.11-0.06c0-0.04,0.04-0.06,0.14-0.06c0.35,0,0.76,0.02,0.94,0.02c0.2,0,0.61-0.02,1.01-0.02
			c0.82,0,1.91,0,2.62,0.74c0.33,0.34,0.63,0.88,0.63,1.66c0,0.82-0.35,1.45-0.71,1.82c-0.3,0.31-0.98,0.77-2.18,0.77
			c-0.24,0-0.5-0.02-0.75-0.04c-0.25-0.02-0.48-0.04-0.64-0.04c-0.07,0-0.21,0-0.37,0.01c-0.15,0-0.32,0.01-0.45,0.01l-0.13-0.07
			l0.1-0.05c0.1,0,0.18-0.01,0.23-0.02c0.13-0.03,0.16-0.17,0.19-0.36c0.03-0.27,0.03-0.79,0.03-1.39V52.05z M138.75,52.77
			c0,0.69,0.01,1.19,0.01,1.32c0.01,0.16,0.02,0.42,0.07,0.5c0.08,0.13,0.34,0.26,0.85,0.26c0.67,0,1.11-0.13,1.5-0.47
			c0.42-0.36,0.55-0.95,0.55-1.62c0-0.83-0.35-1.36-0.62-1.63c-0.6-0.57-1.35-0.65-1.86-0.65c-0.13,0-0.37,0.02-0.42,0.05
			l-0.08,0.13c-0.01,0.22-0.01,0.79-0.01,1.3V52.77z"/>
		<path id="XMLID_438_" class="st0" d="M144.31,52.05c0-0.99,0-1.17-0.01-1.38c-0.01-0.22-0.07-0.33-0.28-0.37
			c-0.05-0.01-0.16-0.02-0.26-0.02l-0.11-0.06c0-0.04,0.05-0.06,0.14-0.06c0.18,0,0.37,0.01,0.53,0.01
			c0.17,0.01,0.32,0.01,0.41,0.01c0.21,0,1.51,0,1.63,0c0.13-0.01,0.23-0.03,0.28-0.04l0.1-0.03l0.04,0.06
			c0,0.05-0.03,0.12-0.05,0.42l-0.03,0.43l-0.07,0.08L146.58,51l-0.04-0.23c-0.04-0.12-0.11-0.2-0.44-0.24
			c-0.11-0.01-0.8-0.02-0.93-0.02l-0.05,0.06v1.65l0.05,0.08c0.14,0,0.89,0,1.04-0.02c0.16-0.01,0.25-0.03,0.31-0.1l0.1-0.08
			l0.05,0.05c0,0.04-0.03,0.14-0.05,0.48c-0.01,0.13-0.03,0.39-0.03,0.44l-0.06,0.12l-0.06-0.06l-0.03-0.24
			c-0.03-0.13-0.12-0.23-0.37-0.25c-0.13-0.01-0.77-0.02-0.93-0.02l-0.04,0.07v0.51c0,0.22-0.01,0.82,0,1.01
			c0.01,0.45,0.12,0.55,0.78,0.55c0.17,0,0.44,0,0.61-0.08c0.17-0.08,0.25-0.21,0.29-0.48l0.07-0.1l0.05,0.12
			c0,0.15-0.05,0.59-0.08,0.72c-0.04,0.17-0.1,0.17-0.35,0.17c-0.49,0-0.85-0.01-1.13-0.02c-0.28-0.01-0.48-0.02-0.68-0.02
			c-0.07,0-0.22,0-0.37,0.01c-0.15,0-0.32,0.01-0.45,0.01l-0.13-0.07l0.11-0.05c0.1,0,0.18-0.01,0.23-0.02
			c0.13-0.03,0.16-0.17,0.19-0.36c0.03-0.27,0.03-0.79,0.03-1.39V52.05z"/>
		<path id="XMLID_437_" class="st0" d="M148.4,55.01c-0.1-0.05-0.12-0.08-0.12-0.22c0-0.36,0.03-0.75,0.03-0.85
			c0.01-0.1,0.03-0.17,0.08-0.17l0.06,0.11c0,0.08,0.03,0.22,0.06,0.33c0.14,0.48,0.53,0.66,0.93,0.66c0.59,0,0.87-0.4,0.87-0.74
			c0-0.32-0.1-0.62-0.64-1.05l-0.3-0.23c-0.72-0.56-0.97-1.02-0.97-1.55c0-0.72,0.6-1.23,1.51-1.23c0.42,0,0.7,0.07,0.87,0.11
			l0.09,0.08c0,0.09-0.03,0.27-0.03,0.78c0,0.14-0.02,0.2-0.07,0.2l-0.06-0.12c0-0.06-0.03-0.26-0.17-0.43
			c-0.1-0.12-0.29-0.32-0.71-0.32c-0.48,0-0.78,0.28-0.78,0.68c0,0.3,0.15,0.53,0.69,0.94l0.18,0.14c0.79,0.59,1.07,1.04,1.07,1.67
			c0,0.38-0.14,0.83-0.61,1.14c-0.33,0.21-0.69,0.27-1.04,0.27C148.97,55.18,148.68,55.14,148.4,55.01"/>
		<path id="XMLID_433_" class="st0" d="M155.17,52.05c0-0.99,0-1.17-0.01-1.38c-0.01-0.22-0.07-0.33-0.28-0.37
			c-0.05-0.01-0.16-0.02-0.25-0.02l-0.11-0.06c0-0.04,0.05-0.06,0.14-0.06c0.34,0,0.76,0.02,0.89,0.02c0.32,0,0.58-0.02,0.8-0.02
			c1.18,0,1.39,0.63,1.39,0.98c0,0.54-0.31,0.86-0.67,1.14c0.53,0.18,1.19,0.65,1.19,1.41c0,0.7-0.54,1.42-1.74,1.42
			c-0.08,0-0.27-0.01-0.46-0.02c-0.2-0.01-0.39-0.02-0.49-0.02c-0.07,0-0.21,0-0.37,0.01c-0.15,0-0.32,0.01-0.45,0.01l-0.13-0.07
			l0.1-0.05c0.1,0,0.18-0.01,0.23-0.02c0.13-0.03,0.16-0.17,0.19-0.36c0.03-0.27,0.03-0.79,0.03-1.39V52.05z M155.95,52.16
			l0.05,0.07c0.06,0.01,0.16,0.02,0.31,0.02c0.22,0,0.36-0.03,0.47-0.13c0.17-0.14,0.27-0.37,0.27-0.69c0-0.44-0.26-1.01-0.82-1.01
			c-0.09,0-0.15,0-0.22,0.01l-0.06,0.11V52.16z M156.81,52.69c-0.14-0.1-0.29-0.15-0.54-0.16c-0.12-0.01-0.18-0.01-0.28-0.01
			l-0.04,0.05v1.55c0,0.43,0.02,0.54,0.23,0.63c0.18,0.07,0.33,0.08,0.48,0.08c0.29,0,0.79-0.16,0.79-0.84
			C157.45,53.58,157.31,53.03,156.81,52.69"/>
		<path id="XMLID_430_" class="st0" d="M160.4,53.39l-0.06,0.05l-0.35,0.93c-0.06,0.16-0.1,0.32-0.1,0.4c0,0.12,0.06,0.2,0.26,0.2
			h0.1l0.1,0.05l-0.11,0.07c-0.21,0-0.49-0.02-0.69-0.02c-0.07,0-0.43,0.02-0.77,0.02l-0.12-0.07l0.08-0.05l0.2-0.01
			c0.3-0.04,0.42-0.26,0.55-0.59l1.64-4.1c0.08-0.19,0.12-0.26,0.18-0.26c0.06,0,0.1,0.06,0.16,0.21c0.16,0.36,1.2,3.02,1.62,4.01
			c0.25,0.59,0.44,0.68,0.57,0.71c0.1,0.02,0.2,0.02,0.27,0.02l0.08,0.05c0,0.05-0.06,0.07-0.3,0.07c-0.23,0-0.71,0-1.23-0.01
			c-0.12-0.01-0.2-0.01-0.2-0.05l0.09-0.06l0.06-0.15l-0.52-1.38l-0.07-0.05H160.4z M161.73,53.06l0.03-0.04l-0.59-1.61l-0.03-0.06
			l-0.04,0.06l-0.6,1.61l0.03,0.04H161.73z"/>
		<path id="XMLID_429_" class="st0" d="M165.4,54.2c0.01,0.51,0.1,0.68,0.23,0.73c0.11,0.04,0.23,0.04,0.34,0.04l0.11,0.05
			c0,0.05-0.06,0.07-0.15,0.07c-0.42,0-0.69-0.02-0.81-0.02c-0.06,0-0.37,0.02-0.7,0.02l-0.15-0.07l0.11-0.05
			c0.09,0,0.2-0.01,0.29-0.03c0.17-0.05,0.2-0.24,0.2-0.81l0.06-3.86c0-0.13,0.02-0.22,0.09-0.22c0.07,0,0.13,0.09,0.24,0.2
			c0.08,0.09,1.07,1.15,2.02,2.1c0.44,0.44,1.32,1.38,1.44,1.49h0.03l-0.07-2.93c0-0.4-0.07-0.52-0.22-0.59
			c-0.1-0.04-0.25-0.04-0.34-0.04l-0.11-0.06c0-0.05,0.07-0.06,0.17-0.06c0.34,0,0.65,0.02,0.79,0.02c0.07,0,0.32-0.02,0.64-0.02
			l0.15,0.06l-0.12,0.06l-0.19,0.02c-0.18,0.05-0.24,0.19-0.24,0.55l-0.07,4.12c0,0.14-0.02,0.2-0.08,0.2l-0.22-0.14
			c-0.41-0.39-1.25-1.25-1.93-1.92c-0.71-0.7-1.43-1.52-1.55-1.64h-0.02L165.4,54.2z"/>
		<path id="XMLID_426_" class="st0" d="M174.45,55.01c-0.26,0.1-0.68,0.17-1.03,0.17c-1.91,0-2.66-1.42-2.66-2.59
			c0-1.06,0.76-2.53,2.68-2.53c1.56,0,2.64,0.95,2.64,2.47c0,1.15-0.73,1.87-1.13,2.15l1.31,0.67c1.38,0.7,2.25,0.78,2.69,0.78
			c0.34,0,0.82-0.05,1.27-0.23l0.09-0.03l0.06,0.06l-0.08,0.08c-0.39,0.19-1.13,0.49-2.07,0.49c-0.98,0-1.68-0.25-2.76-0.89
			L174.45,55.01z M175.17,52.72c0-1.58-0.98-2.34-1.88-2.34c-0.86,0-1.62,0.55-1.62,2.06c0,1.56,0.94,2.42,1.99,2.42
			C174.19,54.86,175.17,54.63,175.17,52.72"/>
		<path id="XMLID_425_" class="st0" d="M177.59,52.05c0-0.99,0-1.17-0.01-1.38c-0.01-0.22-0.07-0.33-0.28-0.37
			c-0.05-0.01-0.16-0.02-0.25-0.02l-0.11-0.06c0-0.04,0.05-0.06,0.14-0.06c0.35,0,0.76,0.02,0.96,0.02c0.16,0,0.57-0.02,0.8-0.02
			c0.1,0,0.15,0.01,0.15,0.06l-0.11,0.06l-0.19,0.02c-0.17,0.03-0.23,0.14-0.24,0.37c-0.01,0.21-0.01,0.39-0.01,1.38v0.92
			c0,0.94,0.19,1.34,0.51,1.6c0.29,0.24,0.59,0.27,0.81,0.27c0.29,0,0.64-0.09,0.9-0.35c0.36-0.36,0.38-0.95,0.38-1.62v-0.82
			c0-0.99,0-1.17-0.01-1.38c-0.01-0.22-0.07-0.33-0.28-0.37l-0.23-0.02l-0.11-0.06c0-0.04,0.04-0.06,0.14-0.06
			c0.33,0,0.74,0.02,0.75,0.02c0.08,0,0.49-0.02,0.75-0.02c0.09,0,0.14,0.01,0.14,0.06l-0.12,0.06l-0.19,0.02
			c-0.18,0.03-0.23,0.14-0.24,0.37c-0.01,0.21-0.01,0.39-0.01,1.38v0.7c0,0.72-0.07,1.49-0.62,1.96c-0.46,0.4-0.93,0.47-1.36,0.47
			c-0.35,0-0.97-0.02-1.45-0.45c-0.33-0.3-0.58-0.78-0.58-1.73V52.05z"/>
		<path id="XMLID_423_" class="st0" d="M183.76,52.05c0-0.99,0-1.17-0.01-1.38c-0.01-0.22-0.07-0.33-0.28-0.37
			c-0.05-0.01-0.16-0.02-0.25-0.02l-0.11-0.06c0-0.04,0.05-0.06,0.14-0.06c0.18,0,0.37,0.01,0.53,0.01
			c0.17,0.01,0.32,0.01,0.41,0.01c0.21,0,1.51,0,1.63,0c0.13-0.01,0.23-0.03,0.28-0.04l0.1-0.03l0.04,0.06
			c0,0.05-0.03,0.12-0.05,0.42l-0.03,0.43l-0.06,0.08L186.03,51l-0.04-0.23c-0.05-0.12-0.11-0.2-0.44-0.24
			c-0.11-0.01-0.8-0.02-0.93-0.02l-0.04,0.06v1.65l0.04,0.08c0.14,0,0.9,0,1.04-0.02c0.16-0.01,0.26-0.03,0.31-0.1l0.11-0.08
			l0.04,0.05c0,0.04-0.03,0.14-0.05,0.48c-0.01,0.13-0.03,0.39-0.03,0.44L186,53.19l-0.06-0.06l-0.03-0.24
			c-0.03-0.13-0.13-0.23-0.36-0.25c-0.12-0.01-0.77-0.02-0.93-0.02l-0.04,0.07v0.51c0,0.22-0.01,0.82,0,1.01
			c0.01,0.45,0.12,0.55,0.78,0.55c0.17,0,0.44,0,0.62-0.08c0.17-0.08,0.24-0.21,0.29-0.48l0.07-0.1l0.05,0.12
			c0,0.15-0.05,0.59-0.09,0.72c-0.04,0.17-0.1,0.17-0.35,0.17c-0.49,0-0.85-0.01-1.13-0.02c-0.28-0.01-0.48-0.02-0.68-0.02
			c-0.07,0-0.21,0-0.37,0.01c-0.15,0-0.32,0.01-0.45,0.01l-0.13-0.07l0.11-0.05c0.1,0,0.17-0.01,0.24-0.02
			c0.13-0.03,0.16-0.17,0.19-0.36c0.03-0.27,0.03-0.79,0.03-1.39V52.05z"/>
		<path id="XMLID_422_" class="st0" d="M187.85,55.01c-0.1-0.05-0.12-0.08-0.12-0.22c0-0.36,0.03-0.75,0.04-0.85
			c0.01-0.1,0.02-0.17,0.08-0.17l0.07,0.11c0,0.08,0.03,0.22,0.06,0.33c0.14,0.48,0.53,0.66,0.94,0.66c0.59,0,0.87-0.4,0.87-0.74
			c0-0.32-0.1-0.62-0.64-1.05l-0.3-0.23c-0.72-0.56-0.97-1.02-0.97-1.55c0-0.72,0.6-1.23,1.51-1.23c0.42,0,0.7,0.07,0.87,0.11
			l0.09,0.08c0,0.09-0.03,0.27-0.03,0.78c0,0.14-0.02,0.2-0.07,0.2l-0.07-0.12c0-0.06-0.03-0.26-0.17-0.43
			c-0.1-0.12-0.29-0.32-0.71-0.32c-0.48,0-0.78,0.28-0.78,0.68c0,0.3,0.15,0.53,0.69,0.94l0.18,0.14c0.79,0.59,1.07,1.04,1.07,1.67
			c0,0.38-0.14,0.83-0.62,1.14c-0.33,0.21-0.69,0.27-1.04,0.27C188.43,55.18,188.13,55.14,187.85,55.01"/>
		<path id="XMLID_380_" class="st0" d="M149.48,9.98l5.63,15.33c0.75,2.05,1.2,2.49,2.84,3.87h-8.43c0.93-0.91,0.86-1.87,0.53-2.81
			l-0.99-3.02h-5.8l-0.98,2.89c-0.33,0.88-0.46,1.86,0.59,2.94h-5.76c1.24-1.32,1.41-1.97,2.24-4.03L145,9.98H149.48z M146.05,14.87
			l-1.93,5.77h3.98L146.05,14.87z"/>
		<path id="XMLID_379_" class="st0" d="M173.3,28.85c-1.44,0.47-2.86,0.72-5.2,0.72c-2.9,0-4.73-0.47-6.63-1.74
			c-2.87-1.85-4.53-4.89-4.53-8.29c0-2.96,1.33-5.83,3.48-7.57c1.91-1.52,4.75-2.38,7.82-2.37c2.38,0,4.07,0.32,5.41,0.62l0.22,4.06
			c-1.63-1.05-3.47-1.72-5.16-1.72c-3.34,0-5.83,2.35-5.83,6.69c0,4.53,2.43,7.38,6.3,7.38c1.85,0,3.11-0.18,5.36-1.33L173.3,28.85z
			"/>
		<path id="XMLID_375_" class="st0" d="M184.79,9.98c3.26,0,5.5,1.85,5.5,4.56c0,1.85-0.97,3.04-3.06,3.76
			c2.68,0.52,4.23,2.38,4.23,5.03c0,1.71-0.69,3.26-1.94,4.34c-1.27,1.1-2.62,1.52-4.86,1.52h-8.89c1.08-0.8,1.24-1.32,1.24-3.81
			V13.82c0-1.8-0.06-2.18-0.33-2.76c-0.22-0.47-0.44-0.72-0.91-1.08H184.79z M182.21,17.39c0.22,0.08,0.33,0.11,0.58,0.11
			c1.38,0,2.38-1.05,2.38-2.54c0-1.27-0.86-2.21-2.04-2.21c-0.27,0-0.5,0.03-0.91,0.17V17.39z M182.21,26.12
			c0.41,0.25,0.83,0.36,1.35,0.36c1.66,0,2.65-1.27,2.65-3.43c0-2.07-1.08-3.09-3.29-3.09c-0.14,0-0.42,0-0.72,0.03V26.12z"/>
	</g>
</g>
</svg>
