<?xml version="1.0" encoding="utf-8"?>
<!-- Generator: Adobe Illustrator 23.0.0, SVG Export Plug-In . SVG Version: 6.00 Build 0)  -->
<svg version="1.1" id="Calque_1" xmlns="http://www.w3.org/2000/svg" xmlns:xlink="http://www.w3.org/1999/xlink" x="0px" y="0px"
	 viewBox="0 0 270 66.1" style="enable-background:new 0 0 270 66.1;" xml:space="preserve">
<style type="text/css">
	.st0{fill:#FFFFFF;}
	.st1{fill:url(#SVGID_1_);}
	.st2{fill:url(#SVGID_2_);}
	.st3{fill:url(#SVGID_3_);}
	.st4{fill:url(#SVGID_4_);}
	.st5{fill:url(#SVGID_5_);}
	.st6{fill:url(#SVGID_6_);}
	.st7{fill:url(#SVGID_7_);}
	.st8{fill:url(#SVGID_8_);}
	.st9{fill:url(#SVGID_9_);}
	.st10{fill:url(#SVGID_10_);}
	.st11{fill:url(#SVGID_11_);}
	.st12{fill:url(#SVGID_12_);}
	.st13{fill:url(#SVGID_13_);}
	.st14{fill:url(#SVGID_14_);}
	.st15{fill:url(#SVGID_15_);}
	.st16{fill:url(#SVGID_16_);}
	.st17{fill:url(#SVGID_17_);}
	.st18{fill:url(#SVGID_18_);}
	.st19{fill:url(#SVGID_19_);}
	.st20{fill:url(#SVGID_20_);}
	.st21{fill:url(#SVGID_21_);}
	.st22{fill:url(#SVGID_22_);}
	.st23{fill:url(#SVGID_23_);}
	.st24{fill:url(#SVGID_24_);}
	.st25{fill:url(#SVGID_25_);}
	.st26{fill:url(#SVGID_26_);}
	.st27{fill:url(#SVGID_27_);}
	.st28{fill:url(#SVGID_28_);}
	.st29{fill:url(#SVGID_29_);}
	.st30{fill:url(#SVGID_30_);}
	.st31{fill:url(#SVGID_31_);}
	.st32{fill:url(#SVGID_32_);}
	.st33{clip-path:url(#XMLID_2_);fill:#FFFFFF;}
	.st34{clip-path:url(#XMLID_3_);fill:#FFFFFF;}
	.st35{clip-path:url(#XMLID_4_);fill:#FFFFFF;}
	.st36{clip-path:url(#XMLID_5_);fill:#FFFFFF;}
	.st37{clip-path:url(#XMLID_6_);fill:#FFFFFF;}
	.st38{clip-path:url(#XMLID_7_);fill:#FFFFFF;}
	.st39{clip-path:url(#XMLID_8_);fill:#FFFFFF;}
	.st40{clip-path:url(#XMLID_9_);fill:#FFFFFF;}
	.st41{clip-path:url(#XMLID_10_);fill:#FFFFFF;}
	.st42{clip-path:url(#XMLID_11_);fill:#FFFFFF;}
	.st43{clip-path:url(#XMLID_12_);fill:#FFFFFF;}
	.st44{clip-path:url(#XMLID_13_);fill:#FFFFFF;}
	.st45{clip-path:url(#XMLID_14_);fill:#FFFFFF;}
</style>
<g>
	<path class="st0" d="M111.24,12.5c-0.01,0-0.02,0.01-0.03,0C111.22,12.5,111.23,12.5,111.24,12.5L111.24,12.5z"/>
	<path class="st0" d="M111.15,12.63c0-0.01,0-0.02,0-0.03C111.15,12.61,111.15,12.62,111.15,12.63L111.15,12.63z"/>
	<path class="st0" d="M109.13,6.78c-0.01,0-0.01,0.01-0.02,0C109.12,6.78,109.12,6.78,109.13,6.78L109.13,6.78z"/>
	<path class="st0" d="M110.39,12.88c0.08,0.05,0.16,0.09,0.25,0.14c0.08-0.02,0.17-0.05,0.25-0.07c0.02-0.04,0.05-0.08,0.09-0.1
		c0.01-0.02,0.02-0.03,0.03-0.05c0.03-0.08,0.08-0.15,0.14-0.21c0.02-0.03,0.04-0.07,0.06-0.1c0.02-0.04,0.03-0.08,0.08-0.11
		c0.01-0.02,0.02-0.03,0.03-0.05c0.12-0.24,0.24-0.48,0.36-0.72c0.01-0.02,0.02-0.04,0.03-0.06c0-0.02,0-0.03,0.01-0.04
		c0-0.03,0.01-0.05,0.03-0.07c0.01-0.03,0.02-0.07,0.03-0.1c0-0.02,0.01-0.03,0.02-0.04c0.04-0.12,0.08-0.24,0.12-0.36
		c0.04-0.17,0.08-0.34,0.11-0.51c0.01-0.05,0.02-0.11,0.04-0.16c0.02-0.34,0.03-0.68-0.03-1.02c-0.15-0.82-0.58-1.46-1.2-1.99
		c-0.42-0.36-0.88-0.63-1.38-0.87c-0.06-0.03-0.13-0.03-0.16-0.1c-0.03,0-0.07,0-0.1,0c-0.42,0.48-0.76,1.02-1,1.61
		c-0.27,0.68-0.37,1.39-0.23,2.11c0.08,0.39,0.24,0.74,0.43,1.08l0,0C108.91,11.89,109.6,12.44,110.39,12.88z M108.15,9.84
		c-0.02-0.12-0.03-0.24-0.02-0.35c-0.01-0.21-0.03-0.41,0.04-0.62c0.01-0.05,0.01-0.1,0.02-0.15c0.03-0.16,0.05-0.33,0.14-0.47
		c0.01-0.03,0.01-0.06,0.02-0.09l0,0v0c0.02-0.07,0.02-0.14,0.08-0.2c0,0,0,0,0,0c0,0,0,0,0,0c0.01-0.02,0.01-0.04,0.02-0.05
		c0.02-0.06,0.03-0.13,0.08-0.17c0-0.01,0-0.03,0.01-0.03c0.01-0.07,0.04-0.13,0.09-0.17c0-0.01,0-0.02,0.01-0.03
		c0.01,0,0.02,0,0.03,0c-0.01,0-0.02,0.01-0.03,0c0.01-0.06,0.04-0.12,0.09-0.16c0-0.02,0-0.03,0.02-0.04
		c0.02-0.04,0.03-0.09,0.08-0.11c0,0,0,0,0,0c0,0,0,0,0,0c0,0,0,0,0,0l0,0c0-0.04,0.02-0.08,0.06-0.1c0.02-0.06,0.05-0.11,0.1-0.15
		c0.02-0.05,0.04-0.09,0.09-0.11c0,0,0,0,0,0c0,0,0,0,0,0l0,0c0,0,0,0,0,0c-0.01-0.02,0-0.03,0.02-0.04
		c0.06-0.08,0.07-0.2,0.21-0.19c0.47,0.21,0.9,0.47,1.3,0.79c1.11,0.9,1.48,2.05,1.12,3.43c-0.18,0.68-0.5,1.3-0.91,1.87
		c-0.06,0.08-0.1,0.16-0.24,0.09c-0.66-0.38-1.27-0.81-1.76-1.41C108.48,10.91,108.25,10.4,108.15,9.84z"/>
	<path class="st0" d="M108.54,7.77c0-0.01,0-0.03-0.01-0.04C108.55,7.74,108.54,7.76,108.54,7.77L108.54,7.77z"/>
	<path class="st0" d="M136.78,33.98c0.1-0.14,0.02-0.31-0.02-0.46c-0.03-0.11-0.01-0.18,0.07-0.25c0.13-0.12,0.21-0.26,0.32-0.39
		c0.12-0.15,0.21-0.32,0.44-0.33c0.12-0.01,0.2-0.1,0.22-0.24c0.03-0.17,0.12-0.3,0.29-0.35c0.13-0.04,0.16-0.19,0.26-0.23
		c0.11-0.05,0.2,0.12,0.33,0.08c0.06-0.02,0.13-0.03,0.2-0.04c0.28-0.08,0.56-0.17,0.86-0.12c0,0,0,0,0,0
		c-0.04-0.02-0.09-0.04-0.15-0.07c0.2-0.24,0.4-0.46,0.52-0.75c0.4-0.89,0.78-1.79,1.16-2.69c0.03-0.06,0.06-0.13,0.06-0.19
		c-0.01-0.37-0.02-0.75-0.04-1.12c0-0.11-0.05-0.13-0.15-0.09c-0.24,0.1-0.49,0.19-0.73,0.3c-0.51,0.23-1.04,0.41-1.61,0.47
		c-0.12,0.01-0.24,0.02-0.35,0.04c-0.33,0.05-0.65,0.13-0.95,0.27c-0.13,0.06-0.22,0.04-0.3-0.08c-0.03-0.05-0.08-0.09-0.12-0.13
		c-0.59-0.72-1.28-1.34-1.95-1.98c-0.22-0.21-0.45-0.39-0.71-0.54c-0.36-0.22-0.7-0.45-1.07-0.65c-0.16-0.09-0.24-0.2-0.21-0.39
		c0.01-0.04,0-0.09,0-0.13c0.02-0.16-0.05-0.27-0.15-0.38c-0.33-0.36-0.67-0.7-1.05-1c-0.1-0.08-0.16-0.17-0.17-0.3
		c-0.03-0.3-0.09-0.61-0.08-0.91c0.01-0.24-0.01-0.48,0-0.71c0.01-0.14-0.04-0.24-0.16-0.31c-0.25-0.16-0.49-0.34-0.74-0.5
		c-0.09-0.06-0.16-0.12-0.16-0.24c-0.01-0.4-0.17-0.74-0.41-1.04c-0.14-0.18-0.26-0.38-0.39-0.57c-0.06-0.08-0.11-0.17-0.15-0.27
		c-0.13-0.34-0.27-0.68-0.4-1.02c-0.02-0.05-0.07-0.1-0.02-0.16c0.1-0.01,0.18,0.05,0.27,0.08c0.05,0.02,0.11,0.03,0.12-0.04
		c0.04-0.25,0.14-0.49,0.13-0.75c-0.01-0.31-0.05-0.63-0.12-0.93c-0.13-0.59-0.34-0.73-0.92-0.58c-0.25,0.06-0.48,0.03-0.67-0.13
		c-0.13-0.1-0.25-0.11-0.4-0.07c-0.5,0.14-1,0.26-1.52,0.32c-0.17,0.02-0.33,0.08-0.51,0.05c-0.41-0.05-0.83-0.1-1.24-0.16
		c-0.17-0.03-0.34-0.02-0.5-0.09c-0.39-0.17-0.77-0.35-1.16-0.53c-0.41-0.19-0.83-0.26-1.21,0.07c-0.08,0.07-0.16,0.13-0.25,0.18
		c-0.18,0.09-0.23,0.23-0.24,0.41c-0.02,0.26-0.05,0.53-0.06,0.79c-0.01,0.11-0.05,0.15-0.15,0.15c-0.12,0-0.24,0.02-0.36,0.04
		c-0.1,0.01-0.18-0.01-0.25-0.09c-0.14-0.15-0.29-0.29-0.43-0.44c-0.09-0.1-0.19-0.13-0.31-0.13c-0.2,0.01-0.39-0.01-0.59,0
		c-0.14,0.01-0.25-0.03-0.32-0.16c-0.19-0.37-0.51-0.58-0.88-0.72c-0.21-0.08-0.42-0.18-0.63-0.26c-0.12-0.05-0.24-0.09-0.37-0.09
		c-0.57-0.01-0.97-0.6-0.97-1.04c0-0.25,0.01-0.49,0.01-0.74c0-0.12,0.03-0.2,0.17-0.17c0.03,0.01,0.07,0,0.1-0.01
		c-0.18-0.08-0.37-0.03-0.55-0.06c-0.72-0.13-1.42-0.35-2.08-0.67c-0.11-0.06-0.19-0.06-0.28,0.04c-0.64,0.67-1.27,1.35-1.87,2.06
		c-0.04,0.04-0.09,0.08-0.1,0.15c0.39-0.04,0.78-0.09,1.17-0.07c0.57,0.03,1.13,0.13,1.64,0.41c0.69,0.36,1.13,0.93,1.43,1.64
		c0.05,0.12,0.09,0.24,0.14,0.35c0,0,0,0,0,0c0,0,0,0,0,0c0.05,0.01,0.07,0.05,0.07,0.1c0.07,0.23,0.16,0.47,0.15,0.72
		c0.01,0.02,0.03,0.05,0.03,0.07c0.02,0.41,0.1,0.81,0.07,1.22c0,0.03-0.03,0.06-0.04,0.09c-0.02,0.09,0.04,0.19-0.06,0.25
		c-0.14,0.14-0.33,0.14-0.51,0.15c-0.65,0.03-1.29,0.01-1.92-0.16c-1.41-0.38-2.24-1.32-2.56-2.72c-0.09-0.38-0.12-0.77-0.12-1.16
		c0-0.08,0-0.16,0-0.24c-0.09,0-0.12,0.06-0.15,0.11c-1.29,1.57-2.49,3.21-3.54,4.95c-0.03,0.05-0.05,0.1-0.08,0.16h0l0,0
		c0.02,0,0.05,0,0.07,0.01c0.51-0.28,1.04-0.55,1.61-0.69c1.12-0.26,2.09-0.01,2.89,0.82c0.38,0.4,0.67,0.86,0.89,1.36
		c0.13,0.29,0.24,0.6,0.33,0.91l0,0c0.05,0.08-0.02,0.11-0.07,0.14c-0.02,0.07-0.09,0.08-0.14,0.1c-0.86,0.32-1.73,0.55-2.66,0.52
		c-1.49-0.05-2.59-0.73-3.3-2.03c-0.04-0.07-0.08-0.15-0.12-0.22c0-0.01-0.01-0.01-0.04-0.02c-0.81,1.43-1.52,2.92-2.11,4.49
		c0,0,0,0.01,0,0.01c0,0,0.01,0,0.01,0c0.08-0.02,0.13-0.07,0.18-0.1c0.52-0.39,1.07-0.72,1.69-0.93c0.53-0.17,1.06-0.24,1.61-0.1
		c0.61,0.15,1.09,0.52,1.48,0.99c0.54,0.66,0.86,1.44,1.08,2.26c0.04,0.14-0.03,0.26-0.16,0.33c-0.82,0.4-1.67,0.69-2.58,0.72
		c-1.41,0.04-2.51-0.55-3.33-1.69c-0.11-0.15-0.2-0.31-0.31-0.47c-0.08,0.03-0.08,0.11-0.1,0.17c-0.48,1.45-0.84,2.94-1.07,4.45
		c-0.07,0.48-0.12,0.96-0.18,1.44c-0.01,0.12-0.01,0.24-0.01,0.36c0.04,0.01,0.04,0.05,0.06,0.09h0c0.4-0.61,0.86-1.17,1.44-1.61
		c0.59-0.45,1.24-0.69,2-0.63c0.49,0.04,0.92,0.22,1.34,0.47c0.49,0.3,0.91,0.68,1.28,1.11c0.01-0.04,0.02-0.08,0.07-0.1
		c0.73-0.34,1.47-0.41,2.23-0.11c0.14,0.05,0.23,0.12,0.28,0.26c0.1,0.24,0.22,0.48,0.32,0.72c0.06,0.13,0.12,0.19,0.28,0.17
		c0.62-0.06,1.24-0.08,1.86-0.14c0.18-0.02,0.29,0.05,0.37,0.2c0.14,0.24,0.22,0.49,0.3,0.76c0.2,0.7,0.07,1.31-0.44,1.84
		c-0.09,0.09-0.12,0.18-0.1,0.3c0.02,0.25,0.06,0.49,0.05,0.74c-0.01,0.34,0.1,0.59,0.39,0.8c0.4,0.3,0.76,0.66,1.19,0.91
		c0.23,0.13,0.38,0.31,0.47,0.54c0.07,0.17,0.14,0.33,0.19,0.5c0.11,0.41,0.28,0.78,0.45,1.16c0.03,0.07,0.05,0.14,0.09,0.21
		c0.07,0.11,0.05,0.2-0.03,0.29c-0.14,0.16-0.25,0.34-0.34,0.54c-0.08,0.17-0.04,0.31,0.09,0.44c0.14,0.15,0.31,0.26,0.48,0.38
		c0.13,0.09,0.34,0.12,0.38,0.27c0.03,0.14-0.1,0.3-0.16,0.45c-0.1,0.23-0.18,0.47-0.34,0.65c-0.25,0.28-0.44,0.6-0.65,0.91
		c-0.09,0.13-0.11,0.26-0.1,0.41c0.07,0.88,0.13,1.76,0.19,2.65c0.01,0.11,0.04,0.19,0.1,0.28c0.25,0.33,0.49,0.66,0.73,0.99
		c0.54,0.74,0.54,0.74,0.74,1.62c0.08,0.37,0.2,0.74,0.23,1.12c0.03,0.38,0.05,0.76,0.04,1.15c0,0.25,0.07,0.45,0.22,0.66
		c0.6,0.83,1.2,1.67,1.75,2.55c0.27,0.43,0.37,0.87,0.21,1.36c-0.04,0.12-0.01,0.19,0.06,0.28c0.12,0.15,0.24,0.29,0.33,0.45
		c0.13,0.22,0.32,0.33,0.57,0.38c0.17,0.04,0.3,0.02,0.45-0.07c0.5-0.29,1.02-0.49,1.61-0.53c0.48-0.03,0.96-0.11,1.44-0.17
		c0.66-0.08,1.18-0.36,1.63-0.84c0.76-0.79,1.51-1.6,2.24-2.41c0.09-0.09,0.12-0.19,0.13-0.32c0.04-0.58,0.04-1.16,0.13-1.73
		c0.03-0.21,0.02-0.22,0.25-0.22c0.18,0,0.36-0.01,0.54,0c0.17,0.01,0.32-0.04,0.46-0.11c0.6-0.31,0.68-0.42,0.58-1.1
		c-0.1-0.73-0.16-1.47-0.36-2.19c-0.04-0.14,0.01-0.21,0.11-0.29c0.3-0.22,0.61-0.44,0.89-0.69c0.56-0.49,1.18-0.85,1.9-1.05
		c0.12-0.03,0.22-0.1,0.29-0.2c0.39-0.55,0.66-1.15,0.66-1.84c0-0.55-0.09-1.1-0.13-1.65c-0.03-0.53-0.19-1.03-0.34-1.54
		c-0.08-0.25-0.12-0.51-0.22-0.76c-0.25-0.67-0.16-1.3,0.17-1.91c0.03-0.06,0.03-0.13,0.13-0.16c0.21,0.34,0.43,0.67,0.62,1.02
		c0.11,0.21,0.26,0.27,0.49,0.26c0.92-0.04,1.84-0.07,2.75-0.11c0.02,0,0.05-0.01,0.06-0.06c-0.74-0.92-1.49-1.85-2.25-2.79
		c0.19-0.11,0.36-0.21,0.51-0.35c0.38-0.35,0.6-0.8,0.72-1.3c0-0.02,0-0.04,0.01-0.06c0-0.01,0.01-0.02,0.01-0.03
		c0,0.01,0,0.02,0,0.02c0,0,0,0,0,0c0,0.02,0.01,0.05,0.01,0.07h0c0.01,0.04,0.01,0.08,0.06,0.1c0-0.03,0.01-0.07,0-0.1
		C136.64,34.36,136.65,34.17,136.78,33.98z M125.94,38.74c-0.56,0-1.11,0-1.66,0c-0.11,0-0.15-0.06-0.18-0.14
		c-0.1-0.27-0.2-0.54-0.3-0.81c-0.08-0.21-0.08-0.21-0.28-0.21c-0.65,0-1.31,0-1.96,0c-0.24,0-0.2-0.01-0.29,0.2
		c-0.11,0.27-0.21,0.54-0.32,0.8c-0.03,0.08-0.06,0.16-0.17,0.15c-0.56,0-1.12,0-1.67,0c-0.04-0.1,0.02-0.17,0.04-0.24
		c0.79-2.05,1.58-4.11,2.37-6.16c0.11-0.27,0.05-0.25,0.36-0.25c0.47,0,0.94,0,1.4,0c0.23,0,0.21-0.02,0.29,0.19
		c0.78,2.07,1.56,4.15,2.34,6.22C125.93,38.58,125.98,38.64,125.94,38.74z M130.17,33.55c-0.54-0.01-1.09,0-1.63,0
		c-0.31,0-0.28-0.03-0.28,0.29c0,0.22,0.01,0.44,0,0.66c0,0.12,0.04,0.16,0.16,0.16c0.49-0.01,0.97,0,1.46,0
		c0.31,0,0.28-0.03,0.28,0.27c0,0.33,0,0.66,0,1c0,0.2,0,0.2-0.2,0.2c-0.49,0-0.99,0-1.48,0c-0.21,0-0.21,0-0.21,0.21
		c0,0.72,0,1.45,0,2.17c0,0.22,0,0.23-0.22,0.23c-0.43,0-0.85,0-1.28,0c-0.23,0-0.23,0-0.23-0.24c0-1.03,0-2.06,0-3.09
		c0-0.99,0-1.97,0-2.96c0-0.05,0-0.1,0-0.15c0.01-0.19,0.01-0.19,0.18-0.19c1.16,0,2.32,0,3.47,0c0.14,0,0.17,0.05,0.17,0.18
		c-0.01,0.37-0.01,0.73,0,1.1C130.35,33.51,130.31,33.55,130.17,33.55z M136.13,34.92c-0.19,0.56-0.57,0.93-1.14,1.12
		c-0.06,0.02-0.14,0.01-0.2,0.09c0.68,0.86,1.36,1.72,2.05,2.6c-0.09,0.05-0.15,0.04-0.22,0.04c-0.57,0-1.14-0.01-1.71,0
		c-0.16,0-0.26-0.05-0.35-0.19c-0.45-0.7-0.91-1.4-1.37-2.09c-0.04-0.07-0.07-0.15-0.18-0.21c0,0.11,0,0.19,0,0.27
		c0,0.66,0.01,1.33,0.01,1.99c0,0.22,0,0.22-0.23,0.23c-0.43,0-0.87,0-1.3,0c-0.23,0-0.23,0-0.23-0.24c0-1.53,0-3.06,0-4.59
		c0-0.5,0-1,0-1.51c0-0.2,0-0.2,0.19-0.2c0.86,0,1.72-0.01,2.58,0.01c0.38,0,0.74,0.07,1.09,0.23c0.57,0.25,0.93,0.67,1.06,1.28
		C136.27,34.13,136.26,34.53,136.13,34.92z"/>
	<path class="st0" d="M115.57,15.41c0.01,0,0.02-0.01,0.03,0C115.58,15.41,115.57,15.41,115.57,15.41
		C115.57,15.41,115.57,15.41,115.57,15.41z"/>
	<path class="st0" d="M108.42,30.93c-0.57-0.58-1.18-1.08-1.98-1.28c-0.74-0.19-1.43-0.07-2.08,0.33c-0.65,0.41-1.15,0.97-1.59,1.59
		c-0.05,0.07-0.08,0.18-0.19,0.19c0,0,0,0,0-0.01c0,0,0,0,0,0c-0.01,0.05-0.05,0.1-0.08,0.07c-0.05-0.05-0.03-0.11,0.02-0.15
		c-0.01-0.01-0.02-0.02-0.03-0.04c-0.06-0.44,0.04-0.86,0.1-1.29c0.2-1.63,0.58-3.23,1.08-4.8c0.01-0.03,0.02-0.07,0.03-0.1
		c0.04-0.09,0.05-0.22,0.17-0.23c0.12-0.01,0.16,0.11,0.21,0.19c0.47,0.75,1.09,1.35,1.93,1.68c0.74,0.29,1.51,0.31,2.28,0.15
		c0.59-0.12,1.15-0.32,1.69-0.57c0.15-0.07,0.24-0.17,0.2-0.34c-0.29-1.12-0.77-2.13-1.75-2.82c-0.65-0.46-1.38-0.5-2.12-0.3
		c-0.65,0.18-1.22,0.52-1.77,0.9c-0.09,0.07-0.2,0.2-0.31,0.12c-0.01,0-0.02,0.01-0.03,0.01c0-0.01,0.01-0.02,0.01-0.02
		c-0.09-0.08,0.01-0.22,0.05-0.32c0.54-1.36,1.15-2.69,1.88-3.97c0.03-0.04,0.05-0.09,0.08-0.13c0.08-0.13,0.17-0.12,0.25,0
		c0.04,0.06,0.07,0.12,0.1,0.18c0.73,1.28,1.81,1.94,3.29,1.96c0.93,0.01,1.8-0.2,2.65-0.56c0.08-0.04,0.11-0.1,0.07-0.19
		c-0.26-0.83-0.63-1.6-1.25-2.22c-0.8-0.8-1.75-0.99-2.82-0.73c-0.37,0.09-0.73,0.24-1.07,0.41c-0.17,0.08-0.32,0.2-0.51,0.22
		c-0.01,0-0.02-0.01-0.03-0.01c-0.01,0.01-0.03,0.03-0.05,0.03c-0.03-0.01-0.02-0.03,0-0.04c0,0,0,0,0,0
		c-0.04-0.09,0.01-0.16,0.06-0.24c1.04-1.71,2.21-3.33,3.49-4.87c0.06-0.07,0.12-0.18,0.22-0.14c0.12,0.04,0.09,0.17,0.09,0.27
		c-0.01,0.42,0.03,0.83,0.13,1.24c0.39,1.57,1.44,2.5,3.04,2.71c0.47,0.06,0.93,0.04,1.4,0.05c0.15,0,0.28-0.04,0.4-0.14
		c0.07-0.06,0.06-0.15,0.08-0.23c0-0.34-0.01-0.68-0.03-1.02c-0.01-0.1-0.02-0.2-0.03-0.29c-0.01-0.1-0.03-0.2-0.05-0.3
		c-0.01-0.04-0.02-0.08-0.02-0.12c-0.02-0.1-0.05-0.19-0.08-0.29c-0.02-0.05-0.04-0.09-0.07-0.14c-0.07-0.11-0.11-0.23-0.16-0.35
		c-0.47-1.14-1.32-1.77-2.54-1.95c-0.5-0.07-0.98-0.04-1.47,0.01c-0.07,0.01-0.15,0.03-0.19-0.03c-0.05-0.08,0.02-0.15,0.06-0.2
		c0.31-0.38,0.64-0.75,0.98-1.11c0.29-0.31,0.57-0.63,0.87-0.93c0.13-0.13,0.26-0.15,0.43-0.07c0.77,0.37,1.56,0.62,2.42,0.67
		c0.07,0,0.07,0.01,0.15,0.1c0.15,0,0.31,0.01,0.46,0.01c1.29-0.05,2.32-0.58,3.06-1.66c0.27-0.39,0.48-0.82,0.64-1.27
		c0.07-0.2,0.05-0.3-0.12-0.43c-0.49-0.38-1.01-0.68-1.6-0.88c-1.32-0.44-2.51-0.21-3.57,0.71c-0.45,0.4-0.81,0.87-1.13,1.37
		c-0.2,0.32-0.37,0.67-0.56,1c-0.01,0.07-0.04,0.13-0.09,0.18c-0.51,0.48-0.96,1.01-1.44,1.52c-0.03,0.04-0.07,0.07-0.11,0.1v0
		c-0.04,0.06-0.07,0.12-0.11,0.17c-0.01,0.02-0.03,0.04-0.05,0.06l0,0c-0.01,0.02-0.03,0.03-0.04,0.05l-0.02,0
		c-0.01,0.05-0.03,0.08-0.07,0.11c-0.01,0.01-0.01,0-0.02,0v0c0.01,0,0.01,0,0.02,0c-0.03,0.07-0.07,0.13-0.13,0.18
		c0,0,0-0.01,0-0.01l0,0c0,0,0,0.01,0,0.01c0,0.06-0.04,0.1-0.08,0.13h0c-0.01,0.02-0.02,0.03-0.03,0.05
		c-0.03,0.07-0.07,0.13-0.14,0.17c-0.08,0.06-0.21,0.02-0.25,0.15c-0.32,0.4-0.65,0.8-0.97,1.21c-1.06,1.34-2.04,2.73-2.93,4.19l0,0
		c-0.01,0.04-0.03,0.07-0.04,0.11c-0.08,0.16-0.07,0.36-0.25,0.46c-0.02,0.05-0.05,0.08-0.1,0.1c-0.04,0.01-0.09,0.04-0.1,0.08
		c-0.05,0.28-0.23,0.5-0.36,0.75c-0.54,1-1.03,2.02-1.48,3.06c0,0.05-0.02,0.1-0.06,0.14c0,0,0,0,0,0c0,0,0,0,0,0
		c-0.01,0.01-0.02,0.02-0.03,0.04c-0.02-0.11-0.02-0.2,0.03-0.28c0.02-0.45,0.03-0.9-0.06-1.35c-0.24-1.07-0.91-1.72-1.95-2.01
		c-0.71-0.2-1.43-0.19-2.15-0.14c-0.19,0.02-0.39,0.06-0.58,0.07c-0.12,0.01-0.16,0.07-0.18,0.17c-0.02,0.09-0.04,0.18-0.05,0.28
		c-0.12,1.14,0.02,2.21,0.75,3.14c0.5,0.64,1.17,1.05,1.93,1.33c0.47,0.17,0.96,0.27,1.46,0.35c0.22,0.03,0.22,0.03,0.15,0.25
		c-0.36,1.09-0.67,2.19-0.9,3.32c-0.21,1-0.35,2.01-0.45,3.02c0.01,0.05,0.01,0.11,0,0.16c0,0.01,0,0.02,0.01,0.03
		c-0.01-0.01,0-0.02-0.01-0.03c0,0.02,0,0.04-0.01,0.06c-0.04-0.07-0.03-0.15-0.02-0.22c-0.09-0.52-0.18-1.04-0.37-1.53
		c-0.22-0.57-0.51-1.09-0.99-1.49c-0.64-0.53-1.38-0.7-2.19-0.56c-0.02,0-0.05,0-0.07-0.01c-0.79,0.11-1.52,0.39-2.21,0.78
		c0,0.12,0,0.24,0,0.36c0,0.03,0,0.07,0,0.1c0.04,0.1,0.06,0.2,0.04,0.31c0.02,0.07,0.04,0.15,0.05,0.22
		c0.22,0.91,0.71,1.64,1.49,2.17c0.49,0.33,1.04,0.54,1.61,0.67c0.7,0.16,1.41,0.19,2.13,0.17c0.15-0.01,0.3-0.04,0.45,0
		c0,0.05,0,0.1,0,0.14c-0.05,1.85,0.08,3.69,0.44,5.5c0.09,0.44,0.18,0.88,0.27,1.32c0.05,0.04,0.04,0.1,0.05,0.16
		c0.04,0.05,0.05,0.1,0.05,0.16c0.03,0.02,0.05,0.06,0.01,0.07c-0.04,0.01-0.07-0.03-0.07-0.07c-0.02-0.03-0.03-0.07-0.05-0.1
		c-0.02-0.03-0.06-0.06-0.05-0.1v0c-0.02-0.03-0.05-0.05-0.07-0.08c-0.83-1.09-1.87-1.45-3.19-1.1c-0.95,0.25-1.75,0.77-2.53,1.34
		c-0.1,0.08-0.05,0.15-0.02,0.22c0.39,0.92,0.99,1.66,1.9,2.12c0.89,0.45,1.83,0.48,2.78,0.28c0.56-0.11,1.09-0.3,1.62-0.54
		c0.23-0.1,0.26-0.09,0.35,0.15c0.01,0.02,0.01,0.03,0.02,0.05c0.41,1.15,0.91,2.27,1.47,3.36c0.44,0.86,0.95,1.69,1.46,2.51
		c0.03,0,0.04,0.03,0.05,0.05c0.03,0.02,0.06,0.04,0.04,0.08c-0.02,0.03-0.04,0.01-0.05-0.01c-0.03-0.01-0.05-0.02-0.05-0.05
		c-0.23-0.15-0.44-0.32-0.68-0.44c-0.83-0.42-1.66-0.44-2.5-0.04c-0.27,0.13-0.52,0.29-0.75,0.47c-0.74,0.58-1.29,1.32-1.8,2.1
		c-0.08,0.12,0,0.16,0.07,0.22c0.67,0.49,1.4,0.86,2.21,1.06c0.56,0.14,1.12,0.18,1.69,0.07c0.89-0.17,1.59-0.66,2.16-1.34
		c0.2-0.24,0.38-0.5,0.54-0.77c0.09,0.04,0.13,0.12,0.18,0.19c0.73,0.98,1.53,1.92,2.36,2.81c0.77,0.83,1.61,1.59,2.44,2.35
		c0.03,0.02,0.07,0.04,0.1,0.06l0,0v0c0.04,0.01,0.09,0.03,0.07,0.08c-0.01,0.03-0.05,0.02-0.07-0.02c-0.04-0.01-0.09,0-0.1-0.05
		c-0.15-0.05-0.29-0.09-0.44-0.13c-1.39-0.4-2.57,0.02-3.38,1.21c-0.18,0.27-0.33,0.55-0.47,0.85c-0.32,0.72-0.51,1.48-0.65,2.24
		c-0.03,0.15-0.02,0.16,0.18,0.21c0.78,0.19,1.57,0.28,2.38,0.18c1.65-0.2,2.74-1.09,3.27-2.67c0.12-0.34,0.18-0.7,0.26-1.05
		c0.06,0,0.09,0.03,0.12,0.05c1.79,1.3,3.7,2.38,5.68,3.34c0.5,0.24,0.99,0.47,1.49,0.71c0.16,0.02,0.26-0.04,0.32-0.2
		c0.12-0.32,0.25-0.63,0.37-0.95c0.08-0.21,0.03-0.31-0.2-0.38c-0.76-0.23-1.53-0.46-2.28-0.71c-1.57-0.51-3.13-1.08-4.62-1.8
		c-0.13-0.06-0.28-0.12-0.4-0.22c0.2-0.06,0.39-0.11,0.57-0.18c1.01-0.38,1.74-1.04,2.08-2.09c0.11-0.34,0.17-0.69,0.18-1.05
		c0.03-0.95-0.18-1.86-0.49-2.75c-0.05-0.16-0.17-0.22-0.36-0.18c-0.73,0.15-1.42,0.41-2.02,0.86c-0.64,0.47-1.07,1.08-1.25,1.86
		c-0.12,0.56-0.1,1.11,0,1.67c0.08,0.45,0.24,0.88,0.39,1.32c0.03,0.01,0.04,0.03,0.01,0.04c-0.03,0.02-0.06,0-0.07-0.04
		c-0.17-0.13-0.34-0.25-0.5-0.39c-1.85-1.54-3.45-3.31-4.88-5.23c-0.02-0.03-0.05-0.05-0.02-0.1c0.14,0.01,0.3,0.01,0.45,0.02
		c1.83,0.06,3.16-0.87,3.74-2.6c0.27-0.82,0.35-1.66,0.35-2.52c0-0.28-0.06-0.35-0.33-0.36c-0.55-0.03-1.11-0.02-1.65,0.1
		c-1.53,0.34-2.52,1.23-2.88,2.78c-0.13,0.56-0.14,1.13-0.13,1.7c0.04,0.09,0.04,0.19,0.04,0.29c-0.07,0.02-0.09-0.02-0.1-0.08
		c-1.38-1.97-2.49-4.07-3.32-6.33c-0.02-0.05-0.08-0.1-0.02-0.17c0.08,0.03,0.16,0.06,0.24,0.08c1.68,0.57,3.17,0.24,4.43-1.02
		c0.52-0.52,0.92-1.14,1.25-1.79c0.12-0.23,0.1-0.29-0.13-0.42c-0.49-0.29-1.02-0.51-1.57-0.66c-0.6-0.16-1.2-0.22-1.82-0.1
		c-0.81,0.16-1.43,0.6-1.91,1.26c-0.34,0.47-0.58,1-0.76,1.55c-0.02,0.05-0.01,0.12-0.09,0.13c-0.87-2.75-1.26-5.56-1.16-8.45
		c0.12,0.02,0.16,0.1,0.23,0.15c0.07,0.05,0.13,0.11,0.2,0.16c1.02,0.76,2.15,1.08,3.41,0.78c1.13-0.27,2.03-0.93,2.84-1.72
		c0.1-0.1,0.1-0.19,0.02-0.31c-0.16-0.23-0.33-0.45-0.51-0.67c0,0,0,0,0,0l0,0C108.51,31.1,108.48,30.99,108.42,30.93z M115.38,7.82
		c0.8-0.57,1.69-0.72,2.64-0.49c0.69,0.16,1.3,0.49,1.86,0.92c0.09,0.07,0.14,0.13,0.09,0.25c-0.22,0.57-0.5,1.12-0.91,1.58
		c-0.79,0.9-1.8,1.24-2.97,1.18c-0.92-0.05-1.78-0.31-2.61-0.71c-0.03-0.01-0.06-0.03-0.12-0.07
		C113.86,9.44,114.44,8.49,115.38,7.82z M110.86,13.42c0.01-0.1,0.03-0.18,0.15-0.2c0.76-0.12,1.52-0.16,2.27,0.06
		c0.82,0.24,1.42,0.75,1.8,1.51c0.34,0.69,0.47,1.43,0.47,2.2c0,0.15,0,0.31,0,0.46c-0.01,0.23-0.01,0.23-0.25,0.25
		c-0.32,0.02-0.65,0.03-0.97,0c-0.42-0.03-0.84-0.1-1.25-0.24c-0.92-0.31-1.56-0.92-1.92-1.81
		C110.88,14.93,110.81,14.18,110.86,13.42z M106.7,19.24c0.58-0.39,1.2-0.72,1.88-0.88c1.08-0.26,2,0.01,2.75,0.83
		c0.51,0.56,0.83,1.22,1.06,1.93c0.04,0.11,0.01,0.15-0.09,0.19c-0.76,0.28-1.54,0.48-2.53,0.49c-1.38-0.02-2.51-0.71-3.2-2.11
		C106.44,19.41,106.44,19.41,106.7,19.24z M105.98,23.46c0.4-0.15,0.81-0.26,1.24-0.23c0.5,0.03,0.94,0.2,1.33,0.52
		c0.52,0.43,0.89,0.97,1.13,1.6c0,0,0,0,0,0c0,0,0,0,0,0c0.04,0.02,0.05,0.06,0.05,0.11c0,0,0,0,0,0c0.02,0.03,0.02,0.08,0.05,0.1
		c0.01,0.01,0.01,0.02,0.01,0.03c0,0,0,0,0,0c0.04,0.03,0.05,0.07,0.05,0.12c0,0,0,0,0,0c0.02,0.03,0.02,0.07,0.04,0.1
		c0.27,0.79,0.31,0.58-0.35,0.88c-0.63,0.28-1.3,0.46-1.99,0.48c-0.92,0.03-1.76-0.21-2.46-0.84c-0.01-0.02-0.03-0.04-0.06-0.05l0,0
		c-0.01-0.03-0.03-0.04-0.06-0.05l0,0c-0.01-0.03-0.03-0.04-0.05-0.05c0,0,0,0,0,0l0,0c0,0,0,0,0,0c-0.01-0.03-0.03-0.05-0.06-0.05
		l0,0c-0.01-0.03-0.03-0.05-0.06-0.06l0,0c-0.01-0.03-0.03-0.05-0.06-0.06l0,0c-0.01-0.03-0.03-0.05-0.05-0.06l0,0
		c-0.01-0.03-0.03-0.05-0.05-0.06l0,0c-0.01-0.02-0.03-0.04-0.05-0.06l0,0c-0.01-0.02-0.03-0.04-0.05-0.06l0,0
		c-0.26-0.26-0.43-0.59-0.59-0.91c-0.04-0.07-0.03-0.13,0.03-0.18c0.03-0.03,0.06-0.06,0.09-0.09
		C104.67,24.17,105.27,23.74,105.98,23.46z M103.63,24.65c-1.24-0.17-2.4-0.51-3.26-1.5c-0.01-0.01-0.01-0.02-0.01-0.02
		c-0.01-0.02-0.03-0.04-0.05-0.06l0,0c-0.03-0.02-0.02-0.08-0.06-0.09c0,0,0,0-0.01,0c-0.36-0.43-0.54-0.94-0.64-1.47
		c-0.05-0.28-0.08-0.55-0.05-0.83c-0.02-0.25,0.01-0.49,0.05-0.73c0.01-0.11,0.07-0.15,0.16-0.16c0.17-0.02,0.34-0.04,0.51-0.05
		c0.68-0.06,1.36-0.05,2.02,0.14c0.44,0.12,0.85,0.3,1.15,0.65c0.32,0.28,0.5,0.66,0.6,1.06c0.12,0.48,0.16,0.96,0.06,1.46l0,0
		c-0.02,0.52-0.17,1.02-0.32,1.51C103.76,24.62,103.72,24.66,103.63,24.65z M101.95,32.42c-0.9,0.03-1.8,0.01-2.67-0.27
		c-0.93-0.29-1.7-0.8-2.19-1.68c-0.11-0.19-0.21-0.39-0.25-0.61c-0.15-0.31-0.17-0.65-0.2-0.99c-0.01-0.09,0.03-0.14,0.11-0.18
		c0.71-0.34,1.44-0.62,2.23-0.67c1.07-0.06,1.88,0.37,2.41,1.3c0.02,0.04,0.03,0.08,0.05,0.12c0.26,0.42,0.38,0.88,0.49,1.36
		c0.1,0.47,0.15,0.95,0.17,1.44C102.11,32.36,102.08,32.42,101.95,32.42z M114.88,56.11c2.09,0.94,4.26,1.66,6.45,2.3
		c0.2,0.06,0.2,0.06,0.13,0.26c-0.09,0.23-0.18,0.46-0.27,0.69c-0.08,0.2-0.09,0.2-0.28,0.12c-1.01-0.46-2.01-0.95-3-1.47
		c-1.06-0.56-2.09-1.18-3.08-1.85c-0.09-0.04-0.17-0.09-0.27-0.2C114.71,56,114.8,56.04,114.88,56.11z M113.19,53.93
		c-0.02-0.03-0.02-0.07-0.04-0.11c-0.01-0.05-0.01-0.09-0.02-0.14c-0.01-0.04-0.01-0.08-0.03-0.12c-0.02-0.06-0.03-0.12-0.02-0.19
		c0,0,0,0,0-0.01c-0.04-0.07-0.05-0.14-0.04-0.21c-0.02-0.19-0.03-0.38,0-0.56c0.02-0.83,0.36-1.51,0.96-2.06
		c0.62-0.56,1.37-0.86,2.18-1.04c0.12-0.03,0.15,0.04,0.18,0.12c0.19,0.58,0.34,1.17,0.41,1.78c0.05,0.42,0.05,0.83-0.01,1.24
		c-0.01,0.06,0,0.12-0.05,0.17c0.01,0.01,0.01,0.03-0.01,0.04c0.01,0.07,0,0.15-0.05,0.21c0,0.06,0,0.12-0.05,0.17
		c0.01,0.02,0,0.03-0.01,0.04c-0.03,0.03-0.02,0.07-0.04,0.1c0,0,0,0,0,0c0,0.05-0.01,0.09-0.05,0.12c0.01,0.01,0,0.02-0.01,0.03
		c-0.03,0.03-0.02,0.07-0.05,0.1l0,0c-0.03,0.03-0.02,0.07-0.05,0.1l0,0c-0.02,0.02-0.04,0.04-0.04,0.08c0.01,0.01,0,0.02-0.01,0.03
		c-0.01,0.02-0.03,0.03-0.04,0.06l0,0c-0.04,0.02-0.03,0.07-0.06,0.1c-0.17,0.31-0.43,0.54-0.72,0.74
		c-0.48,0.34-1.02,0.54-1.59,0.64c-0.21,0.04-0.25,0.02-0.33-0.15C113.44,54.79,113.26,54.38,113.19,53.93z M113.36,55.5
		c0.11,0.07,0.16,0.14,0.12,0.27c-0.06,0.24-0.08,0.49-0.18,0.71c-0.36,1.34-1.18,2.24-2.54,2.6c-0.91,0.24-1.82,0.18-2.73-0.02
		c-0.09-0.02-0.19-0.03-0.16-0.17c0.15-0.72,0.32-1.44,0.66-2.11c0.39-0.89,0.95-1.61,1.92-1.9c0.45-0.14,0.91-0.12,1.36-0.02
		C112.37,54.97,112.88,55.2,113.36,55.5z M107.58,47.71c0.01-0.35,0.04-0.71,0.15-1.05c0.04-0.03,0.04-0.07,0.04-0.12
		c-0.01-0.01,0-0.03,0.01-0.03c-0.01-0.06,0-0.11,0.05-0.15h0c0.23-0.81,0.73-1.41,1.46-1.82c0.6-0.34,1.25-0.48,1.93-0.52
		c0.26-0.01,0.53,0,0.79,0c0.1,0,0.16,0.05,0.15,0.16c-0.02,0.69-0.03,1.38-0.24,2.04c0.01,0.02,0,0.03-0.01,0.04
		c-0.04,0.04,0,0.11-0.04,0.15c0,0,0,0,0,0c0,0.06,0,0.11-0.05,0.15c0,0.06,0,0.11-0.05,0.15c0,0.06-0.01,0.11-0.06,0.15l0,0
		c-0.03,0.03-0.03,0.07-0.05,0.1c0,0,0,0,0,0c0,0.05-0.01,0.09-0.05,0.12c0,0.01,0,0.03-0.01,0.03c-0.02,0.02-0.04,0.04-0.04,0.07
		c0.01,0.01,0,0.02-0.01,0.03c-0.02,0.02-0.04,0.04-0.04,0.07c0,0.01,0,0.02-0.01,0.03c-0.02,0.02-0.03,0.04-0.04,0.06
		c-0.34,0.66-0.87,1.12-1.55,1.41c-0.66,0.28-1.35,0.32-2.05,0.25c-0.08-0.01-0.23,0.03-0.22-0.14c0,0,0,0,0,0v0
		c-0.02-0.11-0.03-0.23-0.02-0.34C107.54,48.29,107.57,48,107.58,47.71z M107.36,49.19c0.04,0.06,0.07,0.11,0.02,0.18
		c-0.54,0.88-1.22,1.59-2.24,1.9c-0.3,0.09-0.62,0.11-0.9,0.14c-0.42-0.02-0.81-0.07-1.19-0.18c-0.65-0.19-1.25-0.49-1.8-0.87
		c-0.07-0.05-0.14-0.09-0.06-0.2c0.52-0.78,1.1-1.52,1.88-2.06c0.37-0.26,0.78-0.44,1.23-0.52c0.44-0.08,0.87-0.02,1.27,0.14
		C106.33,48.02,106.89,48.55,107.36,49.19z M103.75,41.54c0.21-0.76,0.48-1.49,0.99-2.11c0.68-0.83,1.57-1.16,2.63-1.06
		c0.28,0.03,0.56,0.05,0.82,0.17c0.52,0.11,0.99,0.34,1.45,0.6c0.07,0.04,0.09,0.09,0.05,0.17c-0.66,1.25-1.47,2.34-2.89,2.79
		c-0.92,0.29-1.82,0.21-2.71-0.17c-0.03-0.03-0.07-0.02-0.1-0.05c0,0,0,0,0,0c0,0,0,0,0,0c0,0,0,0,0,0l0,0
		c-0.04,0-0.08-0.01-0.11-0.05c-0.02,0-0.03,0-0.04-0.01c-0.05-0.01-0.1-0.03-0.1-0.09C103.74,41.66,103.74,41.59,103.75,41.54z
		 M103.32,41.77c-0.81,0.36-1.64,0.63-2.53,0.65c-1.27,0.03-2.29-0.48-3.05-1.51c-0.17-0.23-0.32-0.48-0.44-0.75
		c-0.04-0.08-0.04-0.14,0.04-0.19c0.79-0.57,1.61-1.08,2.59-1.27c0.08-0.01,0.15-0.03,0.23-0.04c0.11-0.01,0.22-0.01,0.33-0.02
		c0.82-0.01,1.47,0.33,1.98,0.94c0.48,0.57,0.76,1.24,0.96,1.96C103.46,41.64,103.44,41.71,103.32,41.77z M108.9,31.77
		c0.06,0.08,0.08,0.13,0,0.22c-0.73,0.69-1.53,1.28-2.51,1.55c-1.12,0.32-2.15,0.11-3.12-0.51c-0.26-0.16-0.49-0.36-0.72-0.57
		c-0.08-0.07-0.1-0.14-0.04-0.24c0.45-0.73,0.96-1.41,1.65-1.93c0.53-0.4,1.05-0.58,1.63-0.58c0.61,0,1.15,0.23,1.64,0.56
		C108.01,30.67,108.49,31.19,108.9,31.77z"/>
	<path class="st0" d="M141.37,40.64c0.1-0.04,0.2-0.08,0.29-0.08c0.32,0.01,0.55-0.15,0.73-0.39c0.04-0.05,0.09-0.1,0.14-0.15
		c0.09-0.09,0.14-0.19,0.13-0.32c-0.01-0.14,0.01-0.25,0.2-0.24c0.11,0,0.18-0.09,0.16-0.21c-0.02-0.12-0.03-0.24-0.05-0.35
		c-0.01-0.06-0.01-0.12,0.05-0.16c0.13-0.09,0.23-0.2,0.38-0.26c0.22-0.09,0.3-0.23,0.29-0.48c-0.01-0.21-0.02-0.42-0.1-0.63
		c-0.04-0.12-0.08-0.24-0.03-0.37c0.12-0.29,0.27-0.55,0.52-0.74c0.08-0.06,0.16-0.12,0.25-0.18c0.39-0.26,0.59-0.65,0.74-1.07
		c0.03-0.08,0.02-0.16-0.03-0.26c-0.21,0.11-0.42,0.14-0.64,0.19c-0.05,0.01-0.1,0.03-0.14-0.03c-0.21-0.33-0.64-0.45-0.81-0.81
		c0-0.01-0.01-0.01-0.02-0.02c-0.15-0.11-0.22-0.25-0.2-0.44c0-0.04,0.01-0.1-0.03-0.12c-0.19-0.09-0.2-0.3-0.31-0.45
		c-0.07-0.1-0.13-0.2-0.05-0.35c0.05-0.09,0.02-0.22-0.02-0.32c-0.05-0.1-0.16-0.03-0.23-0.06c-0.08-0.03-0.15-0.02-0.22,0
		c-0.27,0.07-0.53,0.04-0.79-0.08c-0.23-0.1-0.3-0.06-0.38,0.19c-0.02,0.05-0.05,0.12-0.09,0.09c-0.12-0.07-0.28-0.08-0.38-0.17
		c-0.11-0.09-0.22-0.15-0.36-0.18c-0.13-0.03-0.18-0.12-0.18-0.24c0-0.06,0-0.12,0-0.18c0.01-0.1-0.02-0.16-0.14-0.15
		c-0.1,0.01-0.2,0-0.31,0c0,0,0,0,0,0c-0.42,0.04-0.82,0.26-1.25,0.19c-0.15-0.02-0.53,0.24-0.6,0.43
		c-0.07,0.19-0.18,0.32-0.38,0.37c-0.12,0.03-0.19,0.11-0.26,0.2c-0.09,0.11-0.15,0.23-0.25,0.32c-0.17,0.16-0.22,0.33-0.14,0.55
		c0.01,0.03,0.02,0.07,0.01,0.1c-0.1,0.28-0.14,0.58-0.2,0.87c0.13,0.15,0.28,0.3,0.39,0.47c0.11,0.17,0.24,0.3,0.39,0.44
		c0.15,0.14,0.32,0.18,0.52,0.14c0.17-0.03,0.35-0.09,0.53-0.02c0.09,0.03,0.16-0.03,0.24-0.06c0.13-0.06,0.26-0.12,0.42-0.1
		c0.07,0.01,0.15,0.02,0.17,0.09c0.05,0.18,0.18,0.17,0.32,0.15c0.2-0.03,0.25,0.02,0.29,0.22c0.02,0.09,0,0.17-0.05,0.24
		c-0.05,0.07-0.05,0.14-0.06,0.21c-0.01,0.18,0.13,0.24,0.24,0.33c0.2,0.17,0.3,0.37,0.24,0.63c-0.01,0.05-0.02,0.11,0.03,0.14
		c0.17,0.09,0.11,0.2,0.03,0.31c-0.19,0.29-0.18,0.68,0.03,0.96c0.13,0.17,0.2,0.36,0.2,0.57c0,0.22,0.09,0.39,0.21,0.56
		c0.11,0.16,0.25,0.31,0.24,0.54C141.05,40.64,141.22,40.71,141.37,40.64z"/>
	<path class="st0" d="M150.16,38.69c0.43-0.01,0.83-0.15,1.24-0.26c0.11-0.03,0.13-0.1,0.13-0.21c0-0.59,0-1.17,0-1.76
		c0-0.02,0.01-0.05-0.05-0.08c-0.39,0.39-0.85,0.63-1.43,0.64c-0.59,0-1.09-0.19-1.45-0.66c-0.56-0.74-0.46-1.89,0.2-2.52
		c0.56-0.54,1.79-0.73,2.73,0.24c0-0.68,0-1.31,0-1.93c0-0.1-0.07-0.13-0.14-0.16c-0.57-0.22-1.16-0.34-1.77-0.27
		c-1.79,0.21-2.97,1.54-3.14,3.03c-0.14,1.23,0.2,2.27,1.16,3.08C148.37,38.44,149.21,38.73,150.16,38.69z"/>
	<path class="st0" d="M153.32,23.32c0.23,0.17,0.23,0.17,0.15,0.42c0,0.01-0.01,0.02-0.01,0.02c-0.21,0.65-0.42,1.31-0.64,1.96
		c-0.02,0.01-0.03,0.03,0,0.04c0.03,0.01,0.06,0,0.07-0.04c0.56-0.4,1.12-0.8,1.68-1.21c0.22-0.16,0.22-0.16,0.43-0.01
		c0.43,0.31,0.85,0.62,1.28,0.93c0.15,0.11,0.3,0.22,0.49,0.35c-0.04-0.12-0.06-0.2-0.08-0.28c-0.2-0.61-0.4-1.23-0.61-1.84
		c-0.06-0.19-0.06-0.19,0.1-0.31c0.54-0.39,1.08-0.77,1.62-1.16c0.06-0.04,0.13-0.07,0.16-0.16c-0.65,0-1.28,0-1.9,0
		c-0.16,0-0.35,0.05-0.47-0.03c-0.14-0.08-0.13-0.3-0.19-0.46c-0.2-0.59-0.39-1.18-0.58-1.76c-0.09,0.04-0.08,0.12-0.1,0.18
		c-0.2,0.61-0.4,1.23-0.6,1.84c-0.08,0.23-0.08,0.23-0.31,0.23c-0.63,0-1.26,0-1.89,0c-0.09,0-0.18,0-0.33,0
		c0.11,0.09,0.17,0.14,0.24,0.19C152.31,22.6,152.82,22.96,153.32,23.32z"/>
	<path class="st0" d="M146.12,23.34c0.2,0.14,0.2,0.14,0.12,0.37c-0.2,0.61-0.4,1.21-0.6,1.82c-0.02,0.07-0.07,0.15-0.05,0.25
		c0.08-0.06,0.15-0.11,0.22-0.16c0.51-0.37,1.02-0.74,1.53-1.11c0.2-0.14,0.2-0.14,0.41,0.01c0.1,0.07,0.19,0.14,0.29,0.21
		c0.48,0.34,0.95,0.69,1.44,1.04c0.03-0.08,0-0.13-0.01-0.18c-0.21-0.63-0.42-1.26-0.62-1.89c-0.07-0.22-0.07-0.22,0.11-0.35
		c0.55-0.39,1.09-0.78,1.64-1.18c0.04-0.03,0.12-0.04,0.1-0.13c-0.73,0-1.47,0-2.2,0c-0.14,0-0.21-0.04-0.25-0.18
		c-0.2-0.64-0.41-1.28-0.62-1.92c-0.02-0.06-0.02-0.13-0.1-0.17c-0.23,0.69-0.45,1.38-0.67,2.07c-0.04,0.14-0.1,0.2-0.26,0.2
		c-0.67-0.01-1.34-0.01-2.02-0.01c-0.06,0-0.13-0.01-0.21,0.03c0.09,0.06,0.15,0.12,0.22,0.17
		C145.1,22.61,145.61,22.97,146.12,23.34z"/>
	<path class="st0" d="M160.24,23.37c0.16,0.12,0.16,0.12,0.1,0.31c-0.21,0.63-0.41,1.26-0.62,1.89c-0.02,0.06-0.07,0.12-0.02,0.19
		c0.04-0.02,0.07-0.05,0.11-0.07c0.55-0.39,1.09-0.79,1.63-1.18c0.19-0.14,0.19-0.14,0.39,0c0.52,0.38,1.05,0.76,1.57,1.14
		c0.06,0.04,0.12,0.08,0.21,0.14c-0.04-0.12-0.06-0.2-0.09-0.28c-0.2-0.61-0.4-1.23-0.61-1.84c-0.05-0.14-0.02-0.21,0.1-0.29
		c0.54-0.38,1.08-0.77,1.62-1.16c0.06-0.04,0.13-0.07,0.17-0.16c-0.06,0-0.09-0.01-0.12-0.01c-0.7,0-1.4,0-2.09,0
		c-0.2,0-0.2,0-0.26-0.19c-0.14-0.42-0.27-0.84-0.41-1.26c-0.09-0.27-0.18-0.54-0.27-0.82c-0.06,0.06-0.07,0.12-0.09,0.18
		c-0.21,0.64-0.42,1.28-0.62,1.92c-0.04,0.14-0.1,0.18-0.25,0.18c-0.66-0.01-1.31-0.01-1.97-0.01c-0.08,0-0.16,0-0.3,0
		c0.09,0.07,0.12,0.1,0.16,0.13C159.13,22.57,159.68,22.97,160.24,23.37z"/>
	<path class="st0" d="M166.67,45.76c-0.53,0-1.06,0-1.58,0c-0.32,0-0.65,0-0.97,0c-0.2,0-0.2-0.01-0.21-0.2c0-0.15,0-0.31,0-0.46
		c0-0.19,0.01-0.2,0.2-0.2c0.35,0,0.7,0,1.05,0c0.55-0.01,0.46,0.09,0.47-0.5c0-0.19-0.01-0.2-0.21-0.2c-0.33,0-0.66,0-1,0
		c-0.62-0.01-0.51,0.12-0.52-0.55c0-0.02,0-0.03,0-0.05c0.01-0.06,0.04-0.09,0.1-0.1c0.07,0,0.14,0,0.2,0c0.72,0,1.45,0,2.17,0
		c0.54,0,0.47,0.1,0.47-0.49c0-0.21-0.01-0.21-0.22-0.21c-1.11,0-2.23,0-3.34,0c-0.22,0-0.22,0-0.22,0.23c0,1.07,0,2.14,0,3.22
		c0,0.22,0,0.23,0.23,0.23c0.56,0,1.12,0,1.68,0c0.49,0,0.97,0,1.46,0c0.54-0.01,0.46,0.09,0.46-0.48
		C166.91,45.76,166.9,45.76,166.67,45.76z"/>
	<path class="st0" d="M160.38,42.78c-0.74,0.01-1.48,0-2.22,0c-0.24,0-0.47,0.05-0.69,0.16c-0.21,0.14-0.22,0.38-0.23,0.59
		c-0.01,0.75-0.01,1.49,0,2.24c0,0.21,0.04,0.41,0.23,0.54l0,0c0.12,0.09,0.27,0.1,0.41,0.15c0.83,0,1.65,0,2.48,0
		c0.17,0,0.34-0.03,0.5-0.07c0.2-0.05,0.33-0.17,0.39-0.37c0.08-0.26,0.06-0.52,0.06-0.79c0-0.06-0.03-0.1-0.09-0.11
		c-0.22-0.04-0.43-0.08-0.65-0.12c-0.08-0.02-0.11,0.02-0.12,0.09c-0.01,0.14,0,0.29,0,0.43c0,0.22,0,0.22-0.21,0.22
		c-0.65,0-1.29,0-1.94,0c-0.2,0-0.21-0.01-0.21-0.22c0-0.61,0-1.22,0-1.84c0-0.07-0.02-0.14,0.04-0.19
		c0.08-0.05,0.16-0.03,0.25-0.03c0.52,0,1.05,0,1.57,0c0.47,0,0.47,0,0.51,0.47c0.01,0.11,0.03,0.15,0.15,0.13
		c0.21-0.05,0.42-0.03,0.63-0.07c0.03-0.01,0.07-0.03,0.07-0.06c0.01-0.35,0.08-0.72-0.23-1C160.86,42.84,160.63,42.78,160.38,42.78
		z"/>
	<path class="st0" d="M150.54,45.76c-0.07,0-0.14,0-0.2,0c-0.75,0-1.5,0-2.24,0c-0.21,0-0.22,0-0.22-0.21c0-0.37,0-0.75,0-1.12
		c0-0.48,0-0.95,0-1.43c0-0.2-0.01-0.2-0.2-0.21c-0.14,0-0.29,0-0.43,0c-0.21,0-0.21,0.01-0.21,0.22c0,0.54,0,1.07,0,1.61
		c0,0.48,0,0.95,0,1.43c0,0.1,0,0.2,0,0.31c0,0.07,0.04,0.11,0.11,0.11c0.06,0,0.12,0,0.18,0c1.02,0,2.04,0,3.06,0
		c0.05,0,0.1,0,0.15,0c0.08,0,0.13-0.04,0.13-0.12c0-0.15,0-0.31,0-0.46C150.67,45.8,150.63,45.76,150.54,45.76z"/>
	<path class="st0" d="M140.81,30.44c0.01,0.6,0.49,1.07,1.1,1.07c0.6,0,1.08-0.49,1.07-1.09c0-0.6-0.49-1.09-1.09-1.09
		C141.29,29.32,140.8,29.82,140.81,30.44z"/>
	<path class="st0" d="M112.09,10.48c0,0.04-0.02,0.07-0.02,0.11c0,0.07-0.02,0.15-0.05,0.22c-0.01,0.05-0.02,0.1-0.03,0.15
		c-0.01,0.05-0.03,0.09-0.05,0.13c-0.03,0.13-0.07,0.25-0.14,0.36c0,0,0,0.01,0,0.01c-0.01,0.03-0.02,0.05-0.04,0.08
		c0,0.1-0.05,0.18-0.09,0.26c-0.03,0.07-0.06,0.13-0.09,0.2c0.54-0.56,1.04-1.16,1.61-1.7c-0.29-0.04-0.58-0.05-0.88-0.01
		c-0.08,0.01-0.17,0-0.25,0C112.12,10.35,112.1,10.42,112.09,10.48z"/>
	<path class="st0" d="M107.38,48.4c-0.04,0.06,0.02,0.16-0.06,0.21C107.41,48.57,107.41,48.57,107.38,48.4z"/>
	<path class="st0" d="M136.61,34.5c-0.01,0-0.01,0.01-0.01,0.01c0,0.02,0,0.04-0.01,0.06l0.02,0l0.02,0l0,0
		C136.61,34.55,136.61,34.52,136.61,34.5z"/>
	<path class="st0" d="M113.3,54.99c-0.02,0-0.04,0-0.06,0C113.26,55,113.28,55.03,113.3,54.99z"/>
	<path class="st0" d="M102.95,39.8C102.95,39.79,102.96,39.79,102.95,39.8c0.01-0.02,0-0.03,0-0.04c0-0.05,0.01-0.11-0.01-0.16
		c-0.02,0.04-0.01,0.1-0.06,0.12l0,0C102.91,39.74,102.93,39.76,102.95,39.8z"/>
	<path class="st0" d="M112.67,54.88C112.67,54.88,112.67,54.87,112.67,54.88c-0.01-0.02-0.02-0.03-0.03-0.03
		c-0.03-0.02-0.04-0.04-0.06-0.06c0,0.02,0,0.04,0,0.06c0.03,0,0.05,0.01,0.08,0.02C112.68,54.89,112.65,54.9,112.67,54.88z"/>
	<path class="st0" d="M106.71,48.11c0,0-0.02-0.01-0.02-0.01c-0.02-0.02-0.02-0.04-0.03-0.06c0,0.02,0,0.04-0.01,0.06
		c0.02,0,0.03,0.01,0.04,0.02C106.69,48.12,106.71,48.11,106.71,48.11z"/>
	<path class="st0" d="M100.3,27.97c0.81,0.32,1.29,0.98,1.6,1.76c0.22,0.54,0.38,1.11,0.39,1.7c0,0,0,0,0,0.01c0,0,0,0,0,0
		c0,0,0-0.01,0-0.01c-0.04-0.74,0.12-1.45,0.23-2.17c0.22-1.35,0.58-2.67,1-3.98c0.1-0.32,0.1-0.34-0.24-0.39
		c-0.8-0.13-1.56-0.35-2.24-0.8c-1.17-0.77-1.76-1.85-1.76-3.26c0-0.34-0.02-0.68,0.06-1.02c0.04-0.18,0.14-0.28,0.32-0.31
		c0.94-0.13,1.88-0.16,2.81,0.11c1.18,0.35,1.92,1.32,1.96,2.55c0.01,0.26,0.02,0.53-0.01,0.79c-0.01,0.04-0.03,0.08-0.04,0.12
		c0,0,0,0,0,0c0.45-1.14,1-2.24,1.61-3.31c0.11-0.18,0.15-0.4,0.3-0.56c0.01-0.01,0.02-0.02,0.03-0.03
		c-0.03-0.03-0.07-0.04-0.11-0.05c-0.42-0.06-0.83-0.17-1.23-0.33c-1.39-0.56-2.18-1.6-2.46-3.05c-0.05-0.23-0.07-0.47-0.1-0.71
		c-0.21,0.11-0.42,0.17-0.66,0.12c-0.16-0.03-0.32-0.02-0.48-0.03c-0.08-0.01-0.15,0.02-0.2,0.08c-0.2,0.21-0.4,0.42-0.5,0.7
		c-0.08,0.22-0.22,0.39-0.41,0.5c-0.16,0.09-0.27,0.22-0.37,0.37c-0.52,0.83-1.14,1.59-1.83,2.29c-0.13,0.13-0.26,0.27-0.34,0.44
		c-0.06,0.11-0.11,0.21-0.11,0.33c0,0.09,0.01,0.17,0.12,0.2c0.12,0.03,0.17,0.13,0.21,0.23c0.06,0.17,0.12,0.34,0.13,0.52
		c0.03,0.31,0.07,0.63,0.09,0.94c0.03,0.56-0.12,1.07-0.42,1.54c-0.07,0.1-0.16,0.18-0.27,0.22c-0.27,0.11-0.31,0.17-0.32,0.47
		c0,0.17,0.05,0.34,0.06,0.51c0.03,0.5,0.07,1,0.09,1.5c0.01,0.15,0.06,0.25,0.16,0.35c0.26,0.26,0.51,0.52,0.76,0.79
		c0.19,0.2,0.37,0.4,0.56,0.59c0.07,0.08,0,0.09-0.03,0.13c0,0,0,0,0,0h0C99.21,27.63,99.77,27.76,100.3,27.97z"/>
	<path class="st0" d="M106.87,16.22c0.08,0.76-0.02,1.51-0.17,2.25c0,0,0,0,0,0v0c0.01,0.02,0.01,0.04,0.02,0.06
		c0.89-1.51,1.92-2.92,3-4.3c0.29-0.37,0.6-0.72,0.88-1.09c0.01-0.02,0.03-0.03,0.05-0.04c0-0.02,0-0.04-0.01-0.06
		c-0.01,0-0.02,0-0.03,0c-0.85-0.39-1.57-0.95-2.12-1.71c-0.05-0.06-0.09-0.13-0.08-0.21l0,0c-0.05,0.04-0.11,0.04-0.17,0.05
		c-0.39,0-0.78,0-1.17,0.01c-0.12,0-0.17-0.08-0.2-0.16c-0.09-0.33-0.31-0.42-0.63-0.37c-0.11,0.02-0.19,0.04-0.24,0.14
		c-0.17,0.29-0.36,0.56-0.51,0.85c-0.11,0.21-0.26,0.3-0.48,0.3c-0.31,0.01-0.58,0.11-0.81,0.31c-0.08,0.07-0.18,0.13-0.27,0.2
		c-0.18,0.13-0.31,0.31-0.39,0.52c-0.06,0.17-0.14,0.33-0.17,0.51c0.41,0.04,0.81,0.05,1.21,0.15
		C105.92,13.93,106.72,14.87,106.87,16.22z"/>
	<path class="st0" d="M103.08,17.11c0.52,0.9,1.3,1.46,2.28,1.76c0.28,0.09,0.56,0.15,0.84,0.2c0.06,0.01,0.14,0.01,0.16,0.07
		c0.02-0.02,0.04-0.03,0.06-0.05c0.03-0.02,0.04-0.06,0.06-0.08c0.08-0.12,0.12-0.26,0.17-0.39c0,0,0,0,0,0
		c0.01-0.03,0.01-0.07,0.03-0.1c-0.01-0.02-0.01-0.05-0.02-0.07c0.08-0.58,0.21-1.15,0.19-1.74c-0.03-0.78-0.19-1.53-0.72-2.15
		c-0.36-0.42-0.83-0.67-1.35-0.82c-0.29-0.09-0.59-0.14-0.9-0.15c-0.17,0-0.34-0.01-0.49-0.11c-0.2,0.01-0.41,0.03-0.61,0.04
		c-0.29,0.02-0.22-0.02-0.28,0.25c-0.01,0.06-0.01,0.12-0.02,0.18c-0.06,0.37-0.04,0.74-0.04,1.12c0.11,0.08,0.1,0.2,0.11,0.32
		C102.61,15.99,102.76,16.57,103.08,17.11z M102.67,13.92c0.02-0.19,0.02-0.19,0.22-0.2c0.19-0.01,0.37-0.02,0.49-0.03
		c0.5,0.02,0.93,0.06,1.35,0.18c1.04,0.31,1.65,1,1.87,2.05c0.18,0.87,0.08,1.73-0.13,2.58c-0.14,0.57-0.05,0.45-0.57,0.36
		c-0.27-0.04-0.53-0.13-0.78-0.23c-1.26-0.48-2.03-1.39-2.34-2.69C102.62,15.28,102.59,14.6,102.67,13.92z"/>
	<path class="st0" d="M106.36,19.15c-0.01,0.01-0.02,0.02-0.04,0.03c0.01,0.01,0.03,0.02,0.03,0.05
		C106.36,19.2,106.36,19.17,106.36,19.15z"/>
	<path class="st0" d="M111.53,12.02c-0.05,0.09-0.09,0.19-0.15,0.28c0,0,0-0.01,0.01-0.01c0.01-0.02,0.02-0.04,0.03-0.06
		c0.04-0.06,0.07-0.13,0.12-0.19C111.54,12.04,111.53,12.03,111.53,12.02z"/>
	<path class="st0" d="M111.36,12.35C111.36,12.35,111.36,12.35,111.36,12.35c0.01,0,0.01-0.01,0.01-0.01
		c0.01-0.01,0.01-0.02,0.02-0.03c0,0.01-0.01,0.01-0.01,0.02C111.37,12.33,111.37,12.34,111.36,12.35z"/>
	<path class="st0" d="M111.76,11.53c0,0-0.01,0-0.01,0c0,0,0,0.01,0,0.01c-0.03,0.1-0.08,0.18-0.11,0.28
		c-0.03,0.07-0.1,0.13-0.1,0.2c0.06-0.11,0.12-0.21,0.17-0.32c0.01-0.03,0.02-0.06,0.03-0.09c0.01-0.02,0.02-0.04,0.02-0.06
		c0,0,0,0,0,0C111.76,11.54,111.76,11.54,111.76,11.53L111.76,11.53z"/>
	<path class="st0" d="M111.59,12.01c-0.01,0.01-0.03,0.03-0.04,0.04c0,0,0,0,0,0c0,0.02,0.01,0.04,0.02,0.06l0,0
		C111.56,12.07,111.57,12.04,111.59,12.01z"/>
	<path class="st0" d="M111.94,10.97c-0.03,0.19-0.11,0.36-0.18,0.54c0,0.01,0,0.01,0,0.02c0,0,0,0,0,0
		c0.02-0.02,0.02-0.05,0.04-0.07c0.01-0.02,0.02-0.05,0.03-0.07c0.01-0.03,0.03-0.06,0.04-0.09c0.03-0.06,0.05-0.13,0.07-0.2
		c0.01-0.04,0.02-0.08,0.03-0.13c0.01-0.05,0.03-0.11,0.05-0.16c0.02-0.07,0.03-0.14,0.05-0.22c0-0.04-0.01-0.09-0.03-0.13
		C112.07,10.64,111.98,10.8,111.94,10.97z"/>
	<path class="st0" d="M108.18,9.22c0.01-0.12-0.01-0.24,0.05-0.35c0-0.05,0-0.1,0-0.15h0v0c-0.01,0.01-0.01,0-0.02,0
		c0,0,0,0.01,0,0.01c0,0.05,0.01,0.1-0.01,0.15c-0.09,0.19,0.01,0.4-0.06,0.6C108.22,9.41,108.18,9.31,108.18,9.22z"/>
	<path class="st0" d="M110.66,13.09c0.02-0.01,0.04-0.04,0.06-0.04c-0.03,0-0.05,0-0.08,0C110.65,13.06,110.66,13.07,110.66,13.09z"
		/>
	<path class="st0" d="M110.86,13.01C110.86,13.01,110.86,13.01,110.86,13.01c-0.01,0-0.02,0-0.04,0.01
		C110.83,13.02,110.84,13.01,110.86,13.01z"/>
	<path class="st0" d="M110.82,13.02c-0.03,0.01-0.06,0.01-0.09,0.02C110.76,13.04,110.79,13.03,110.82,13.02z"/>
	<path class="st0" d="M110.63,13.02c0,0.01,0,0.02,0,0.02c0,0,0.01,0,0.01,0C110.64,13.04,110.64,13.03,110.63,13.02z"/>
	<path class="st0" d="M110.66,13.09c-0.01,0.01-0.01,0.01-0.02,0.02c0,0.02,0,0.04,0.01,0.06
		C110.66,13.14,110.66,13.11,110.66,13.09z"/>
	<path class="st0" d="M109.13,6.78c0.01,0,0.02,0.01,0.03,0c0.08-0.04,0.13-0.1,0.16-0.19c-0.06,0.05-0.1,0.11-0.16,0.16
		C109.15,6.76,109.14,6.77,109.13,6.78z"/>
	<path class="st0" d="M111.14,12.64c-0.02,0.06-0.06,0.11-0.1,0.15c0,0,0,0.01,0,0.01c0.01,0,0.02,0,0.03,0
		c0.03-0.05,0.06-0.09,0.09-0.14c0.01-0.01,0-0.03,0-0.04C111.15,12.63,111.14,12.64,111.14,12.64z"/>
	<path class="st0" d="M109,6.97c-0.03,0.05-0.05,0.11-0.1,0.15c0,0.01,0,0.02,0,0.03l0,0v0c0.06-0.03,0.1-0.08,0.1-0.16
		c0-0.01,0-0.02,0-0.03C109,6.96,109,6.97,109,6.97z"/>
	<path class="st0" d="M108.48,7.9C108.48,7.9,108.48,7.9,108.48,7.9c0,0.01,0.01,0.01,0.01,0.01v0l0,0c0.04-0.02,0.05-0.06,0.05-0.1
		c0.01-0.01,0-0.02,0-0.03c-0.01,0.01-0.01,0.02-0.01,0.02C108.52,7.83,108.5,7.87,108.48,7.9z"/>
	<path class="st0" d="M109.01,6.95c0,0.01,0.01,0.01,0.01,0.02c0,0.01-0.01,0.02-0.01,0.02c0.07-0.04,0.11-0.08,0.09-0.17
		c0,0,0,0,0,0C109.08,6.87,109.05,6.91,109.01,6.95z"/>
	<path class="st0" d="M109.01,6.95c0-0.01,0-0.01-0.01-0.02c0,0.01,0,0.02,0,0.03C109.01,6.96,109.01,6.95,109.01,6.95z"/>
	<path class="st0" d="M108.76,7.37C108.76,7.37,108.76,7.37,108.76,7.37c-0.01,0,0,0.02-0.01,0.02
		C108.75,7.39,108.76,7.39,108.76,7.37z"/>
	<path class="st0" d="M108.73,7.39c-0.01,0.04-0.03,0.07-0.05,0.1c0,0,0,0,0,0c0.01,0,0.02,0,0.02,0l0,0h0
		c0.04-0.02,0.05-0.06,0.05-0.1c0-0.01,0-0.02,0-0.03C108.74,7.37,108.74,7.38,108.73,7.39z"/>
	<path class="st0" d="M111.35,12.37C111.35,12.37,111.35,12.37,111.35,12.37c-0.01,0-0.01,0-0.01,0c-0.01,0.02-0.02,0.03-0.04,0.05
		c-0.03,0.02-0.05,0.05-0.07,0.08c0.01,0,0.02,0,0.02,0c0.02-0.04,0.05-0.07,0.08-0.11C111.34,12.39,111.35,12.38,111.35,12.37z"/>
	<path class="st0" d="M111.23,12.51c-0.01,0.05-0.05,0.08-0.08,0.12c0,0.01,0,0.03,0,0.04c0.01-0.01,0.02-0.02,0.02-0.04
		c0.02-0.03,0.05-0.07,0.07-0.11c0.01-0.01,0.01-0.02,0.02-0.02c-0.01,0-0.02,0-0.02,0C111.23,12.51,111.23,12.51,111.23,12.51z"/>
	<path class="st0" d="M108.79,7.28c0,0,0,0.01-0.01,0.01c0.01,0,0.01,0,0.02,0v0c0,0,0,0,0,0c0.04-0.03,0.05-0.07,0.04-0.12
		c0,0,0,0,0,0C108.83,7.22,108.81,7.25,108.79,7.28z"/>
	<path class="st0" d="M108.22,8.72c-0.01,0-0.01,0-0.02,0C108.2,8.73,108.21,8.72,108.22,8.72L108.22,8.72z"/>
	<path class="st0" d="M108.31,8.35c-0.04,0.12-0.06,0.25-0.1,0.37c0.01,0,0.01,0,0.02,0c0.06-0.13,0.09-0.27,0.1-0.41
		c0.07-0.05,0.06-0.1,0.01-0.15C108.39,8.23,108.33,8.28,108.31,8.35z"/>
	<polygon class="st0" points="108.84,7.18 108.84,7.18 108.84,7.18 108.84,7.18 	"/>
	<path class="st0" d="M108.84,7.18C108.84,7.18,108.84,7.18,108.84,7.18c0.03,0,0.05-0.01,0.06-0.03c-0.01-0.01,0-0.01-0.01-0.02
		C108.88,7.14,108.87,7.17,108.84,7.18z"/>
	<path class="st0" d="M108.89,7.12C108.89,7.12,108.9,7.12,108.89,7.12C108.9,7.12,108.9,7.12,108.89,7.12
		c0.01-0.02,0.01-0.03,0-0.04c0,0-0.01,0.01-0.01,0.02C108.88,7.11,108.89,7.12,108.89,7.12z"/>
	<polygon class="st0" points="108.84,7.18 108.84,7.18 108.84,7.18 108.84,7.18 	"/>
	<polygon class="st0" points="108.84,7.18 108.84,7.18 108.84,7.18 	"/>
	<path class="st0" d="M108.75,7.35c0,0.01,0.01,0.01,0.01,0.02c0.02-0.02,0.04-0.04,0.04-0.08c-0.01,0.01-0.01,0-0.02,0
		C108.77,7.31,108.76,7.33,108.75,7.35z"/>
	<path class="st0" d="M108.75,7.35c0-0.01,0-0.01-0.01-0.02c0,0.01,0,0.02,0,0.03C108.75,7.36,108.75,7.35,108.75,7.35z"/>
	<path class="st0" d="M108.78,7.29c-0.01,0-0.01,0-0.02,0C108.77,7.3,108.77,7.29,108.78,7.29L108.78,7.29z"/>
	<path class="st0" d="M108.49,7.9c0,0.01-0.01,0-0.01,0c-0.01,0.02,0,0.05-0.04,0.05C108.51,8,108.48,7.93,108.49,7.9z"/>
	<path class="st0" d="M108.48,7.9c-0.01,0-0.02,0-0.02,0C108.46,7.92,108.47,7.91,108.48,7.9L108.48,7.9z"/>
	<path class="st0" d="M108.63,7.59c-0.01,0.04-0.03,0.07-0.05,0.1c-0.01,0.03-0.02,0.05-0.04,0.08c0,0.01,0,0.02,0,0.03
		c0.04-0.02,0.05-0.06,0.05-0.1c0.04-0.02,0.05-0.06,0.05-0.1c0.04-0.02,0.05-0.06,0.06-0.1c-0.01,0.01-0.02,0-0.02,0
		C108.67,7.53,108.66,7.57,108.63,7.59z"/>
	<polygon class="st0" points="108.68,7.49 108.68,7.49 108.68,7.49 	"/>
	<path class="st0" d="M109.09,6.82C109.09,6.82,109.09,6.82,109.09,6.82C109.09,6.82,109.09,6.82,109.09,6.82
		c0.03,0,0.05-0.01,0.07-0.04c-0.01,0-0.02,0-0.03,0C109.12,6.8,109.11,6.81,109.09,6.82L109.09,6.82L109.09,6.82
		C109.09,6.82,109.09,6.82,109.09,6.82z"/>
	<polygon class="st0" points="109.09,6.82 109.09,6.82 109.09,6.82 	"/>
	<path class="st0" d="M111.76,11.51C111.75,11.52,111.75,11.52,111.76,11.51c0,0.01,0,0.01,0.01,0.01
		C111.76,11.52,111.76,11.52,111.76,11.51z"/>
	<path class="st0" d="M111.75,11.52c0,0-0.01-0.01-0.01-0.01c-0.01,0.01-0.01,0.01-0.02,0.02
		C111.73,11.53,111.74,11.53,111.75,11.52C111.75,11.53,111.75,11.52,111.75,11.52z"/>
	<path class="st0" d="M111.76,11.51C111.76,11.51,111.76,11.51,111.76,11.51c0-0.02,0-0.04,0-0.05c0,0-0.01,0.01-0.01,0.02
		C111.74,11.5,111.75,11.5,111.76,11.51z"/>
	<path class="st0" d="M111.36,12.35C111.36,12.35,111.36,12.35,111.36,12.35c-0.02,0-0.03,0-0.05,0c0.01,0.01,0.02,0.02,0.04,0.02
		C111.35,12.36,111.36,12.35,111.36,12.35z"/>
	<path class="st0" d="M111.02,12.85c-0.04,0.06-0.09,0.11-0.15,0.15c0.01-0.01,0.02-0.01,0.04-0.01c0.04-0.03,0.08-0.07,0.12-0.12
		c0.01-0.02,0.03-0.04,0.04-0.05c0,0,0.01-0.01,0.01-0.01c-0.01,0.01-0.02,0-0.03,0C111.03,12.82,111.02,12.84,111.02,12.85z"/>
	<path class="st0" d="M111.03,12.81c-0.01,0-0.02,0-0.03,0C111.01,12.82,111.02,12.81,111.03,12.81L111.03,12.81z"/>
	<polygon class="st0" points="111.06,12.81 111.06,12.81 111.07,12.81 111.07,12.81 	"/>
	<path class="st0" d="M115.78,17.5c0,0,0-0.01,0-0.01c0.04-0.45,0.02-0.89-0.06-1.33c-0.02-0.26-0.09-0.5-0.16-0.74c0,0,0,0,0-0.01
		c-0.01,0-0.01-0.01-0.02,0c0.02,0.11,0.05,0.23,0.07,0.34c0.01,0.04,0.02,0.08,0.02,0.12c0.02,0.09,0.04,0.17,0.06,0.26
		c0.01,0.11,0.02,0.22,0.02,0.33c0.04,0.33,0.08,0.67,0.03,1.01c0,0,0,0.01,0,0.01c0,0.01,0,0.02,0,0.03
		C115.76,17.5,115.77,17.5,115.78,17.5z"/>
	<path class="st0" d="M115.76,17.5c-0.01,0.08-0.01,0.17-0.02,0.25c0.06-0.08,0.02-0.17,0.04-0.25
		C115.77,17.5,115.76,17.52,115.76,17.5z"/>
	<path class="st0" d="M115.78,17.5L115.78,17.5c0.01,0,0.01,0.01,0.02,0l0,0v0C115.79,17.5,115.78,17.5,115.78,17.5z"/>
	<path class="st0" d="M112.65,21.24L112.65,21.24c-0.02,0.05-0.09,0.07-0.07,0.14C112.61,21.34,112.64,21.3,112.65,21.24z"/>
	<path class="st0" d="M106.89,18.85c-0.01,0-0.02-0.01-0.03-0.01C106.87,18.85,106.88,18.85,106.89,18.85z"/>
	<path class="st0" d="M106.89,18.85c0.01-0.01,0.02,0,0.03-0.01C106.91,18.84,106.9,18.85,106.89,18.85
		C106.89,18.85,106.89,18.85,106.89,18.85z"/>
	<path class="st0" d="M106.86,18.84c0,0-0.01,0-0.01-0.01c0,0,0,0,0,0C106.85,18.84,106.86,18.84,106.86,18.84z"/>
	<path class="st0" d="M115.57,15.41c0-0.04,0-0.08-0.05-0.1c0.01,0.03,0.02,0.07,0.03,0.1C115.55,15.41,115.56,15.41,115.57,15.41z"
		/>
	<path class="st0" d="M102.56,31.74c-0.02-0.01-0.02-0.03-0.03-0.04c0,0.02,0,0.04,0.02,0.04
		C102.55,31.74,102.56,31.74,102.56,31.74z"/>
	<path class="st0" d="M102.53,31.7c0-0.01-0.01-0.01-0.01-0.02C102.52,31.68,102.52,31.69,102.53,31.7
		C102.52,31.69,102.52,31.69,102.53,31.7z"/>
	<path class="st0" d="M102.57,31.75c0,0,0-0.01,0-0.01c0,0,0,0,0,0c0,0-0.01,0-0.01,0C102.56,31.74,102.57,31.75,102.57,31.75z"/>
	<path class="st0" d="M102.52,31.68c0-0.01,0-0.02,0-0.02l0,0C102.52,31.66,102.52,31.67,102.52,31.68z"/>
	<path class="st0" d="M111.68,46.03c-1.12,0.04-2.24,0.16-3.37,0.23c-0.16,0.01-0.34-0.02-0.49,0.1c0,0,0,0,0,0
		c0.44,0.01,0.87-0.06,1.31-0.09c0.49-0.03,0.98-0.07,1.46-0.1c0.4-0.03,0.81-0.08,1.21-0.07c0.12,0,0.09,0.06,0.1,0.12
		C111.99,45.96,111.79,46.03,111.68,46.03z"/>
	<polygon class="st0" points="107.83,46.36 107.83,46.36 107.83,46.36 	"/>
	<path class="st0" d="M113.34,52.91c0.98-0.08,1.96-0.13,2.94-0.23c0.17-0.02,0.32,0.01,0.44,0.13c-0.03-0.21-0.03-0.22-0.22-0.22
		c-0.33,0-0.66,0.03-0.99,0.07c-0.31,0.03-0.62,0.04-0.93,0.07c-0.35,0.03-0.71,0.1-1.06,0.07c-0.02,0-0.05,0-0.08,0.01
		c-0.31,0.06-0.31,0.06-0.4-0.21C113.09,52.9,113.11,52.93,113.34,52.91z"/>
	<path class="st0" d="M112.94,56.41c-1.38,0.11-2.76,0.23-4.14,0.3c-0.09,0-0.19,0.01-0.27,0.07c0.56,0.02,1.11-0.06,1.67-0.09
		c0.6-0.03,1.19-0.12,1.79-0.11c0.03,0,0.07,0,0.1-0.01c0.4-0.06,0.8-0.09,1.21-0.09C113.2,56.37,113.07,56.4,112.94,56.41z"/>
	<path class="st0" d="M108.69,25.42c-0.03,0-0.05,0-0.08,0.01c-0.3,0.09-0.61,0.05-0.91,0.08c-0.37,0.03-0.74,0.1-1.11,0.07
		c-0.03,0-0.05,0-0.08,0.01c-0.36,0.06-0.72,0.08-1.08,0.09c-0.25,0.01-0.49,0.08-0.73,0.06c-0.07-0.01-0.11,0.04-0.14,0.1
		c0.38-0.03,0.76-0.06,1.14-0.09c1.11-0.08,2.21-0.16,3.32-0.24c0.22-0.02,0.46,0.01,0.66-0.13c0,0,0,0,0,0
		C109.34,25.36,109.02,25.45,108.69,25.42z"/>
	<path class="st0" d="M96.96,29.71c0.22,0.02,0.44-0.06,0.66-0.05c0.34,0.01,0.67-0.05,1.01-0.07c0.23-0.01,0.46-0.01,0.68-0.04
		c0.43-0.05,0.86-0.08,1.29-0.1c0.08,0,0.17-0.01,0.25-0.03c0.2-0.04,0.4-0.06,0.6,0.03c-0.14-0.18-0.34-0.13-0.52-0.12
		c-0.89,0.07-1.78,0.13-2.67,0.2c-0.41,0.03-0.81,0.05-1.22,0.1c-0.14,0.02-0.26,0.05-0.19,0.24C96.85,29.8,96.85,29.7,96.96,29.71z
		"/>
	<path class="st0" d="M103.55,22.69c0.13-0.01,0.26-0.05,0.38-0.02c0.17,0.05,0.06,0.25,0.16,0.34c0.01,0.01,0.01,0.01,0.02,0.02
		l0,0c0-0.07-0.01-0.14-0.01-0.2c0-0.29,0-0.29-0.28-0.24c-0.05,0.01-0.1,0.02-0.15,0.02c-0.37-0.03-0.74,0.08-1.11,0.05
		c-0.02,0-0.05,0-0.08,0.01c-0.3,0.09-0.62,0.05-0.93,0.08c-0.34,0.03-0.69,0.09-1.04,0.07c-0.12-0.01-0.22,0.03-0.26,0.16l0,0
		c0,0,0,0,0,0c0.23-0.11,0.48-0.08,0.72-0.1C101.83,22.8,102.69,22.74,103.55,22.69z"/>
	<path class="st0" d="M108.08,38.58c-0.58,0.47-1.2,0.87-1.8,1.3c-0.75,0.54-1.51,1.07-2.26,1.61c-0.1,0.07-0.25,0.14-0.18,0.32
		c0.01-0.11,0.08-0.18,0.17-0.24c0.63-0.44,1.25-0.89,1.88-1.34c0.59-0.42,1.19-0.83,1.78-1.26c0.18-0.13,0.38-0.25,0.52-0.43
		C108.14,38.52,108.11,38.55,108.08,38.58z"/>
	<path class="st0" d="M100.41,20.61c0.32-0.07,0.66-0.07,0.98-0.09c0.34-0.02,0.67-0.09,1.01-0.06c0.03,0,0.07-0.02,0.1-0.02
		c0.29,0,0.6-0.16,0.88,0.07c0.01,0.01,0.03,0,0.05,0c-0.17-0.18-0.38-0.21-0.62-0.18c-0.18,0.02-0.37,0.05-0.55,0.06
		c-0.79,0.04-1.58,0.13-2.38,0.16c-0.12,0-0.24,0.03-0.33,0.12c0.26-0.05,0.52-0.06,0.78-0.05
		C100.36,20.62,100.39,20.62,100.41,20.61z"/>
	<path class="st0" d="M106.57,18.86c-0.01,0.01-0.01,0.02-0.02,0.04C106.56,18.89,106.57,18.88,106.57,18.86z"/>
	<path class="st0" d="M106.47,19.01c-0.02,0.03-0.03,0.06-0.05,0.09c0,0,0.02,0.02,0.03,0.04c0.05-0.07,0.07-0.16,0.11-0.24
		C106.54,18.94,106.5,18.98,106.47,19.01z"/>
	<path class="st0" d="M106.65,18.66c-0.03,0.07-0.05,0.14-0.08,0.2c0.03-0.07,0.08-0.14,0.1-0.22c0,0-0.01-0.01-0.01-0.01
		C106.66,18.65,106.65,18.65,106.65,18.66z"/>
	<path class="st0" d="M114.83,56.16c0.02-0.02,0.03-0.03,0.05-0.05C114.83,56.1,114.82,56.12,114.83,56.16z"/>
	<path class="st0" d="M107.66,48.52c0-0.02-0.03,0.03-0.05,0.05c0.01,0,0.01-0.01,0.02-0.01c0,0,0.01,0.01,0.01,0.02
		c0,0.11,0.02,0.22-0.01,0.33C107.71,48.79,107.67,48.65,107.66,48.52z"/>
	<path class="st0" d="M104.36,23.1c-0.01,0.05-0.02,0.1-0.02,0.16l0,0C104.34,23.21,104.36,23.16,104.36,23.1
		C104.36,23.1,104.36,23.1,104.36,23.1z"/>
	<path class="st0" d="M104.37,23.09C104.37,23.09,104.37,23.08,104.37,23.09c-0.01-0.03-0.01-0.05-0.02-0.08
		c-0.01,0.04-0.01,0.07,0.02,0.09C104.36,23.1,104.36,23.1,104.37,23.09c0,0.01,0,0.01,0,0.01c0.01,0.01,0.01,0.02,0.04,0.02
		C104.39,23.11,104.38,23.1,104.37,23.09C104.37,23.08,104.37,23.09,104.37,23.09z"/>
	<path class="st0" d="M106.68,18.61c0.01-0.02,0.02-0.04,0.03-0.06c-0.01,0-0.02,0-0.02-0.01
		C106.68,18.56,106.68,18.58,106.68,18.61z"/>
	<path class="st0" d="M106.71,18.53c0,0,0,0.01-0.01,0.01c0.01,0.01,0.02,0.02,0.04,0.02v0C106.73,18.56,106.72,18.54,106.71,18.53
		C106.71,18.53,106.71,18.53,106.71,18.53z"/>
	<path class="st0" d="M106.67,18.65c0,0,0-0.01,0-0.01c0-0.01,0-0.02,0-0.03C106.67,18.62,106.67,18.63,106.67,18.65
		C106.66,18.64,106.67,18.64,106.67,18.65z"/>
	<path class="st0" d="M106.68,18.54c0-0.02,0-0.05,0.02-0.07c-0.02,0.02-0.02,0.03-0.03,0.05
		C106.67,18.53,106.68,18.53,106.68,18.54z"/>
	<path class="st0" d="M106.67,18.65c0.01,0.01,0.02,0.02,0.03,0.03C106.69,18.66,106.68,18.66,106.67,18.65L106.67,18.65z"/>
	<path class="st0" d="M106.66,18.64L106.66,18.64c-0.01,0-0.01-0.01-0.02-0.01l0,0C106.65,18.63,106.65,18.63,106.66,18.64z"/>
	<path class="st0" d="M102.52,31.66c-0.01,0,0,0.01-0.01,0.01c0,0,0,0,0,0.01C102.51,31.67,102.51,31.66,102.52,31.66z"/>
	<polygon class="st0" points="102.52,31.68 102.52,31.68 102.52,31.68 	"/>
	<path class="st0" d="M102.52,31.69c0,0-0.01-0.01-0.01-0.01c-0.02,0.05-0.02,0.08,0.06,0.08
		C102.52,31.75,102.52,31.72,102.52,31.69z"/>
	<path class="st0" d="M102.29,31.45C102.29,31.45,102.29,31.45,102.29,31.45c0,0.05-0.01,0.11,0.01,0.16c0,0,0,0,0,0
		C102.28,31.56,102.29,31.5,102.29,31.45z"/>
	<path class="st0" d="M102.29,31.45L102.29,31.45c0.01,0,0.01,0.01,0.02,0l0,0v0C102.3,31.44,102.29,31.45,102.29,31.45z"/>
	<path class="st0" d="M102.29,31.45c-0.01,0-0.01,0-0.02,0C102.27,31.46,102.28,31.45,102.29,31.45L102.29,31.45z"/>
	<path class="st0" d="M113.05,53.16c0.04,0.07,0,0.15,0.04,0.21c0,0,0,0,0,0.01C113.08,53.3,113.11,53.22,113.05,53.16z"/>
	<path class="st0" d="M102.99,39.88c0,0,0.02,0,0.02,0S102.99,39.87,102.99,39.88c-0.01-0.03-0.01-0.04-0.02-0.06c0,0-0.01,0-0.01,0
		C102.97,39.84,102.98,39.86,102.99,39.88z"/>
	<path class="st0" d="M102.96,39.8C102.96,39.8,102.95,39.8,102.96,39.8c-0.02,0-0.02,0.02-0.03,0.02c0.02,0,0.03,0,0.04,0
		C102.96,39.82,102.96,39.81,102.96,39.8z"/>
	<path class="st0" d="M102.97,39.82c0.01-0.01,0.02-0.02,0.01-0.06c-0.01,0.01-0.02,0.01-0.02,0.02
		C102.96,39.8,102.97,39.81,102.97,39.82z"/>
	<path class="st0" d="M116.67,53.05C116.67,53.05,116.67,53.05,116.67,53.05c0.05-0.06-0.01-0.15,0.05-0.21
		C116.64,52.9,116.67,52.98,116.67,53.05z"/>
	<path class="st0" d="M116.67,53.05c-0.06,0.04-0.05,0.1-0.05,0.16C116.65,53.17,116.62,53.1,116.67,53.05
		C116.67,53.06,116.67,53.05,116.67,53.05z"/>
	<polygon class="st0" points="116.67,53.06 116.67,53.05 116.67,53.05 	"/>
	<polygon class="st0" points="116.67,53.05 116.67,53.05 116.67,53.06 	"/>
	<path class="st0" d="M111.91,46.26c-0.06,0.04-0.05,0.1-0.04,0.15c0,0,0,0,0,0C111.91,46.37,111.92,46.32,111.91,46.26z"/>
	<path class="st0" d="M112.69,54.88c0-0.01,0-0.03-0.02-0.04c0,0.02,0,0.04,0,0.06C112.69,54.9,112.69,54.89,112.69,54.88z"/>
	<path class="st0" d="M107.83,46.36c-0.04,0.04,0,0.11-0.05,0.15C107.84,46.48,107.83,46.42,107.83,46.36
		C107.83,46.36,107.83,46.36,107.83,46.36z"/>
	<polygon class="st0" points="107.83,46.36 107.83,46.36 107.83,46.36 107.83,46.36 	"/>
	<polygon class="st0" points="107.83,46.36 107.83,46.36 107.83,46.36 	"/>
	<polygon class="st0" points="111.86,46.42 111.87,46.41 111.87,46.41 	"/>
	<path class="st0" d="M111.86,46.41c-0.06,0.04-0.05,0.1-0.05,0.16c0,0,0,0,0,0C111.85,46.52,111.81,46.45,111.86,46.41
		L111.86,46.41C111.86,46.41,111.86,46.41,111.86,46.41z"/>
	<path class="st0" d="M111.82,46.57C111.82,46.57,111.82,46.57,111.82,46.57C111.82,46.57,111.82,46.57,111.82,46.57
		c-0.06,0.04-0.06,0.1-0.05,0.15c0,0,0,0,0,0C111.8,46.68,111.76,46.61,111.82,46.57z"/>
	<polygon class="st0" points="111.82,46.57 111.82,46.57 111.82,46.57 	"/>
	<polygon class="st0" points="111.82,46.57 111.82,46.57 111.82,46.57 	"/>
	<path class="st0" d="M111.76,46.72C111.76,46.72,111.76,46.72,111.76,46.72c-0.06,0.03-0.05,0.09-0.05,0.15
		C111.76,46.83,111.71,46.76,111.76,46.72C111.77,46.72,111.77,46.72,111.76,46.72z"/>
	<polygon class="st0" points="111.77,46.72 111.77,46.72 111.77,46.72 	"/>
	<polygon class="st0" points="111.77,46.72 111.76,46.72 111.76,46.72 	"/>
	<polygon class="st0" points="103.99,41.87 104,41.87 104,41.87 103.99,41.87 	"/>
	<path class="st0" d="M103.99,41.87C104,41.87,104,41.87,103.99,41.87c-0.02-0.05-0.06-0.05-0.11-0.05
		C103.92,41.84,103.97,41.83,103.99,41.87z"/>
	<path class="st0" d="M109.72,25.47C109.72,25.47,109.72,25.47,109.72,25.47c-0.03-0.03-0.03-0.07-0.05-0.11
		C109.67,25.41,109.67,25.45,109.72,25.47z"/>
	<polygon class="st0" points="109.72,25.47 109.72,25.47 109.72,25.47 	"/>
	<polygon class="st0" points="116.57,53.36 116.57,53.36 116.57,53.36 	"/>
	<path class="st0" d="M116.57,53.36C116.57,53.36,116.57,53.36,116.57,53.36c-0.05,0.03-0.05,0.07-0.05,0.12
		C116.53,53.44,116.53,53.39,116.57,53.36z"/>
	<path class="st0" d="M113.1,53.57c-0.01,0.04,0,0.08,0.03,0.12C113.14,53.64,113.14,53.6,113.1,53.57z"/>
	<path class="st0" d="M111.66,46.98C111.66,46.98,111.66,46.98,111.66,46.98c-0.05,0.02-0.05,0.07-0.05,0.12
		C111.63,47.06,111.62,47.01,111.66,46.98z"/>
	<polygon class="st0" points="111.66,46.98 111.67,46.98 111.66,46.98 	"/>
	<polygon class="st0" points="109.82,25.72 109.82,25.73 109.82,25.72 	"/>
	<path class="st0" d="M109.82,25.73C109.82,25.72,109.82,25.72,109.82,25.73c-0.04-0.03-0.03-0.08-0.05-0.12l0,0
		C109.77,25.65,109.77,25.7,109.82,25.73z"/>
	<path class="st0" d="M111.35,12.37C111.35,12.37,111.35,12.37,111.35,12.37c0.02,0,0.03-0.01,0.05-0.02c-0.01,0-0.02,0-0.04,0
		C111.36,12.35,111.36,12.36,111.35,12.37z"/>
	<path class="st0" d="M173.47,38.21c-0.78-2.05-1.55-4.1-2.32-6.16c-0.05-0.15-0.13-0.19-0.28-0.19c-0.48,0.01-0.95,0-1.43,0
		c-0.26,0-0.24-0.02-0.34,0.24c-0.79,2.05-1.58,4.09-2.36,6.14c-0.03,0.08-0.08,0.15-0.06,0.24c0.02,0.01,0.04,0.02,0.05,0.02
		c0.54,0,1.07,0,1.61,0.01c0.12,0,0.16-0.07,0.2-0.16c0.11-0.28,0.22-0.55,0.33-0.83c0.04-0.1,0.09-0.16,0.22-0.16
		c0.69,0.01,1.38,0.01,2.07,0c0.12,0,0.18,0.04,0.22,0.16c0.1,0.28,0.21,0.56,0.31,0.84c0.04,0.11,0.1,0.16,0.22,0.16
		c0.15-0.01,0.31,0,0.46,0c0.4-0.01,0.8,0.02,1.2-0.02c0-0.02,0-0.03,0-0.05C173.49,38.39,173.5,38.29,173.47,38.21z M169.42,36.03
		c0.23-0.7,0.46-1.38,0.69-2.06c0.02,0,0.04,0,0.05,0.01c0.23,0.68,0.45,1.36,0.68,2.05C170.36,36.03,169.9,36.03,169.42,36.03z"/>
	<path class="st0" d="M164.64,38.52c0.39-0.02,0.78,0,1.17-0.01c0.32,0,0.29,0.02,0.29-0.28c0-2.03,0-4.05,0-6.08
		c0-0.05,0-0.1,0-0.15c0-0.08-0.03-0.13-0.12-0.13c-0.49,0-0.99,0-1.48,0c-0.1,0-0.14,0.05-0.13,0.14c0,0.06,0,0.12,0,0.18
		c0,1.14,0,2.28,0,3.42c0,0.08,0.02,0.17-0.03,0.28c-0.05-0.06-0.09-0.09-0.12-0.13c-0.43-0.56-0.87-1.11-1.3-1.67
		c-0.53-0.68-1.07-1.37-1.6-2.05c-0.06-0.08-0.11-0.17-0.24-0.17c-0.49,0-0.99,0-1.48,0c-0.09,0-0.14,0.04-0.14,0.13
		c0,0.07,0,0.14,0,0.2c0,1.79,0,3.57,0,5.36c0,0.26,0.01,0.51,0,0.77c0,0.13,0.04,0.18,0.17,0.18c0.46-0.01,0.92,0,1.38,0
		c0.12,0,0.2-0.03,0.18-0.17c-0.01-0.06,0-0.12,0-0.18c0-1.14,0-2.28,0-3.42c0-0.08,0-0.16,0-0.26c0.11,0.05,0.15,0.13,0.2,0.19
		c0.94,1.21,1.88,2.42,2.82,3.63C164.33,38.46,164.45,38.53,164.64,38.52z"/>
	<path class="st0" d="M158.35,38.52c0.14,0,0.29,0,0.43,0c0.11,0,0.14-0.05,0.1-0.14c-0.02-0.05-0.04-0.1-0.05-0.14
		c-0.22-0.57-0.43-1.15-0.65-1.72c-0.55-1.47-1.11-2.94-1.66-4.41c-0.1-0.27-0.1-0.23-0.32-0.23c-0.46,0-0.92,0-1.38,0
		c-0.32,0-0.26-0.01-0.36,0.25c-0.7,1.82-1.4,3.65-2.1,5.47c-0.11,0.29-0.23,0.58-0.36,0.92c0.6,0,1.16,0,1.72,0
		c0.11,0,0.14-0.08,0.17-0.16c0.11-0.28,0.22-0.55,0.33-0.83c0.04-0.11,0.09-0.16,0.22-0.16c0.69,0.01,1.38,0.01,2.07,0
		c0.12,0,0.18,0.04,0.22,0.16c0.09,0.27,0.21,0.54,0.3,0.81c0.04,0.13,0.11,0.19,0.26,0.18C157.64,38.51,158,38.52,158.35,38.52z
		 M154.77,36.04c0.23-0.69,0.46-1.37,0.69-2.05c0.02,0,0.03,0,0.05,0c0.23,0.67,0.45,1.35,0.69,2.05
		C155.71,36.04,155.25,36.04,154.77,36.04z"/>
	<path class="st0" d="M140.21,42.91c-0.15-0.07-0.3-0.12-0.46-0.12c-1.02,0-2.04,0-3.06,0c-0.19,0-0.2,0.01-0.2,0.2
		c0,0.54,0,1.09,0,1.63c0,0.55,0,1.11,0,1.66c0,0.13,0.04,0.19,0.17,0.18c0.16-0.01,0.32,0,0.48,0c0.2,0,0.2-0.01,0.2-0.2
		c0-0.33,0-0.66,0-1c0-0.21,0-0.21,0.22-0.21c0.26,0,0.51,0,0.77,0c0.47,0,0.94,0.01,1.4,0c0.51-0.02,0.74-0.21,0.77-0.58
		c0.04-0.37,0.03-0.75,0-1.12C140.49,43.16,140.4,42.99,140.21,42.91z M139.65,44.26c-0.03,0.1-0.12,0.11-0.21,0.11
		c-0.66,0-1.32,0-1.98,0c-0.04,0-0.08-0.01-0.1-0.05c-0.04-0.22-0.01-0.44-0.02-0.66c-0.01-0.13,0.05-0.18,0.18-0.18
		c0.64,0.01,1.28,0.01,1.92,0.01c0.14-0.02,0.23,0.05,0.24,0.17C139.71,43.87,139.75,44.07,139.65,44.26z"/>
	<path class="st0" d="M155.9,45.89c-0.27-0.49-0.59-0.96-0.83-1.47c-0.08-0.16-0.15-0.33-0.27-0.46c-0.07-0.07-0.13-0.14-0.16-0.23
		c-0.13-0.23-0.26-0.45-0.4-0.67c-0.06-0.09-0.07-0.22-0.2-0.24c-0.11,0-0.22,0.02-0.33,0c-0.3-0.05-0.44,0.1-0.59,0.35
		c-0.31,0.55-0.6,1.12-0.98,1.63c-0.31,0.48-0.58,1-0.86,1.49c-0.03,0.05-0.1,0.11-0.02,0.18c0.19,0,0.37-0.01,0.56,0.01
		c0.17,0.01,0.27-0.05,0.34-0.2c0.07-0.15,0.17-0.3,0.24-0.45c0.05-0.09,0.12-0.13,0.22-0.13c0.7,0,1.39,0,2.09,0
		c0.12,0,0.19,0.05,0.24,0.15c0.09,0.16,0.18,0.31,0.26,0.47c0.06,0.12,0.14,0.18,0.28,0.17c0.2-0.01,0.41-0.01,0.61-0.01
		c0.11-0.06,0.08-0.13,0.02-0.2C156.03,46.14,155.97,46.01,155.9,45.89z M152.86,44.94c0.26-0.47,0.52-0.93,0.8-1.43
		c0.32,0.48,0.54,0.96,0.8,1.43C154.26,44.99,153.14,45,152.86,44.94z"/>
	<path class="st0" d="M133.85,33.6c-0.21-0.06-0.43-0.06-0.65-0.07c-0.13-0.01-0.19,0.03-0.18,0.17c0.01,0.2,0,0.41,0,0.61
		c0,0.24,0,0.47,0,0.71c0,0.09,0.04,0.14,0.13,0.14c0.25-0.01,0.49-0.01,0.73-0.09c0.36-0.12,0.53-0.36,0.53-0.75
		C134.4,33.95,134.22,33.71,133.85,33.6z"/>
	<path class="st0" d="M122.51,34.21c-0.23,0.67-0.45,1.34-0.69,2.03c0.49,0,0.94,0,1.42,0c-0.23-0.69-0.45-1.36-0.68-2.03
		C122.54,34.21,122.52,34.21,122.51,34.21z"/>
	<path class="st0" d="M145.41,45.63c-0.4-0.69-0.8-1.38-1.2-2.07c0,0,0-0.01-0.01-0.01l-0.45-0.76l-0.16,0.01
		c-0.21,0-0.42-0.01-0.62-0.01l-0.89,1.51c-0.11,0.2-0.23,0.39-0.34,0.59c-0.07,0.12-0.15,0.24-0.22,0.36l-0.02,0.04
		c-0.22,0.38-0.45,0.77-0.67,1.18c0.28,0,0.52,0,0.76,0c0.13-0.22,0.26-0.43,0.38-0.66c0.05-0.1,0.11-0.16,0.23-0.16
		c0.73,0,1.45,0,2.18,0c0.04,0,0.08,0.01,0.1,0.05c0,0,0,0,0,0c0.11,0.18,0.22,0.36,0.32,0.55c0.08,0.15,0.17,0.23,0.35,0.22
		c0.22-0.02,0.44-0.01,0.66-0.01c0.08-0.07,0-0.12-0.03-0.17C145.66,46.07,145.54,45.85,145.41,45.63z M142.53,44.96
		c0.01-0.17,0.56-1.19,0.78-1.43c0.28,0.46,0.52,0.93,0.78,1.4C143.89,44.99,142.91,45,142.53,44.96z"/>
</g>
</svg>
