<?xml version="1.0" encoding="utf-8"?>
<!-- Generator: Adobe Illustrator 23.0.0, SVG Export Plug-In . SVG Version: 6.00 Build 0)  -->
<svg version="1.1" id="Calque_1" xmlns="http://www.w3.org/2000/svg" xmlns:xlink="http://www.w3.org/1999/xlink" x="0px" y="0px"
	 viewBox="0 0 270 66.1" style="enable-background:new 0 0 270 66.1;" xml:space="preserve">
<style type="text/css">
	.st0{fill:#FFFFFF;}
	.st1{fill:url(#SVGID_1_);}
	.st2{fill:url(#SVGID_2_);}
	.st3{fill:url(#SVGID_3_);}
	.st4{fill:url(#SVGID_4_);}
	.st5{fill:url(#SVGID_5_);}
	.st6{fill:url(#SVGID_6_);}
	.st7{fill:url(#SVGID_7_);}
	.st8{fill:url(#SVGID_8_);}
	.st9{fill:url(#SVGID_9_);}
	.st10{fill:url(#SVGID_10_);}
	.st11{fill:url(#SVGID_11_);}
	.st12{fill:url(#SVGID_12_);}
	.st13{fill:url(#SVGID_13_);}
	.st14{fill:url(#SVGID_14_);}
	.st15{fill:url(#SVGID_15_);}
	.st16{fill:url(#SVGID_16_);}
	.st17{fill:url(#SVGID_17_);}
	.st18{fill:url(#SVGID_18_);}
	.st19{fill:url(#SVGID_19_);}
	.st20{fill:url(#SVGID_20_);}
	.st21{fill:url(#SVGID_21_);}
	.st22{fill:url(#SVGID_22_);}
	.st23{fill:url(#SVGID_23_);}
	.st24{fill:url(#SVGID_24_);}
	.st25{fill:url(#SVGID_25_);}
	.st26{fill:url(#SVGID_26_);}
	.st27{fill:url(#SVGID_27_);}
	.st28{fill:url(#SVGID_28_);}
	.st29{fill:url(#SVGID_29_);}
	.st30{fill:url(#SVGID_30_);}
	.st31{fill:url(#SVGID_31_);}
	.st32{fill:url(#SVGID_32_);}
	.st33{clip-path:url(#XMLID_2_);fill:#FFFFFF;}
	.st34{clip-path:url(#XMLID_3_);fill:#FFFFFF;}
	.st35{clip-path:url(#XMLID_4_);fill:#FFFFFF;}
	.st36{clip-path:url(#XMLID_5_);fill:#FFFFFF;}
	.st37{clip-path:url(#XMLID_6_);fill:#FFFFFF;}
	.st38{clip-path:url(#XMLID_7_);fill:#FFFFFF;}
	.st39{clip-path:url(#XMLID_8_);fill:#FFFFFF;}
	.st40{clip-path:url(#XMLID_9_);fill:#FFFFFF;}
	.st41{clip-path:url(#XMLID_10_);fill:#FFFFFF;}
	.st42{clip-path:url(#XMLID_11_);fill:#FFFFFF;}
	.st43{clip-path:url(#XMLID_12_);fill:#FFFFFF;}
	.st44{clip-path:url(#XMLID_13_);fill:#FFFFFF;}
	.st45{clip-path:url(#XMLID_14_);fill:#FFFFFF;}
</style>
<g>
	<path class="st0" d="M91.12,52.27c-0.03-0.07-0.08-0.1-0.15-0.1h-0.45c-0.07,0-0.12,0.03-0.15,0.1l-0.97,2.62l-0.01,0.04
		c0,0.02,0.01,0.04,0.02,0.06c0.02,0.02,0.04,0.02,0.06,0.02h0.36c0.06,0,0.1-0.03,0.12-0.08l0.19-0.49h1.2l0.19,0.49
		c0.02,0.05,0.06,0.08,0.12,0.08h0.36c0.02,0,0.04-0.01,0.06-0.02c0.02-0.02,0.03-0.04,0.03-0.06l-0.01-0.04L91.12,52.27z
		 M90.29,53.97l0.46-1.25l0.46,1.25H90.29z"/>
	<path class="st0" d="M94.16,53.54c-0.14-0.07-0.33-0.13-0.57-0.18c-0.18-0.05-0.31-0.09-0.4-0.12c-0.09-0.04-0.16-0.08-0.2-0.13
		c-0.04-0.05-0.06-0.11-0.06-0.18c0-0.11,0.04-0.19,0.13-0.25c0.09-0.06,0.2-0.09,0.35-0.09c0.14,0,0.25,0.03,0.34,0.09
		c0.09,0.06,0.14,0.13,0.16,0.22c0.02,0.05,0.06,0.07,0.12,0.07h0.39c0.02,0,0.04-0.01,0.06-0.03c0.02-0.02,0.02-0.04,0.02-0.06
		c-0.01-0.12-0.05-0.23-0.14-0.35c-0.09-0.12-0.21-0.22-0.37-0.29c-0.16-0.08-0.36-0.12-0.58-0.12c-0.21,0-0.4,0.04-0.56,0.11
		c-0.16,0.07-0.28,0.17-0.37,0.29c-0.09,0.12-0.13,0.26-0.13,0.42c0,0.23,0.07,0.41,0.22,0.54c0.15,0.12,0.38,0.22,0.7,0.3
		c0.19,0.05,0.34,0.1,0.44,0.13c0.1,0.04,0.17,0.08,0.22,0.13c0.05,0.05,0.07,0.11,0.07,0.18c0,0.11-0.05,0.2-0.14,0.26
		c-0.1,0.06-0.24,0.1-0.43,0.1c-0.17,0-0.3-0.03-0.4-0.09c-0.1-0.06-0.16-0.14-0.18-0.23c-0.02-0.02-0.03-0.04-0.05-0.06
		c-0.02-0.01-0.04-0.02-0.07-0.02h-0.37c-0.02,0-0.04,0.01-0.06,0.03c-0.02,0.02-0.02,0.04-0.02,0.06c0.01,0.14,0.05,0.27,0.14,0.39
		c0.09,0.12,0.22,0.22,0.39,0.29c0.17,0.07,0.38,0.11,0.62,0.11c0.23,0,0.43-0.03,0.61-0.1c0.17-0.07,0.31-0.17,0.41-0.29
		c0.1-0.13,0.14-0.28,0.14-0.46c0-0.16-0.03-0.29-0.1-0.39C94.41,53.7,94.3,53.61,94.16,53.54z"/>
	<path class="st0" d="M96.77,53.54c-0.14-0.07-0.33-0.13-0.57-0.18c-0.18-0.05-0.31-0.09-0.4-0.12s-0.16-0.08-0.2-0.13
		c-0.04-0.05-0.06-0.11-0.06-0.18c0-0.11,0.04-0.19,0.13-0.25c0.09-0.06,0.2-0.09,0.35-0.09c0.14,0,0.25,0.03,0.34,0.09
		c0.09,0.06,0.14,0.13,0.16,0.22c0.02,0.05,0.06,0.07,0.12,0.07h0.39c0.02,0,0.04-0.01,0.06-0.03c0.02-0.02,0.02-0.04,0.02-0.06
		c-0.01-0.12-0.05-0.23-0.14-0.35c-0.09-0.12-0.21-0.22-0.37-0.29c-0.16-0.08-0.36-0.12-0.58-0.12c-0.21,0-0.4,0.04-0.56,0.11
		c-0.16,0.07-0.28,0.17-0.37,0.29c-0.09,0.12-0.13,0.26-0.13,0.42c0,0.23,0.07,0.41,0.22,0.54c0.15,0.12,0.38,0.22,0.7,0.3
		c0.19,0.05,0.34,0.1,0.44,0.13c0.1,0.04,0.17,0.08,0.22,0.13c0.05,0.05,0.07,0.11,0.07,0.18c0,0.11-0.05,0.2-0.14,0.26
		c-0.1,0.06-0.24,0.1-0.43,0.1c-0.17,0-0.3-0.03-0.4-0.09c-0.1-0.06-0.16-0.14-0.18-0.23c-0.02-0.02-0.03-0.04-0.05-0.06
		c-0.02-0.01-0.04-0.02-0.07-0.02h-0.37c-0.02,0-0.04,0.01-0.06,0.03c-0.02,0.02-0.02,0.04-0.02,0.06c0.01,0.14,0.05,0.27,0.14,0.39
		c0.09,0.12,0.22,0.22,0.39,0.29c0.17,0.07,0.38,0.11,0.62,0.11c0.23,0,0.43-0.03,0.61-0.1c0.17-0.07,0.31-0.17,0.41-0.29
		c0.1-0.13,0.14-0.28,0.14-0.46c0-0.16-0.03-0.29-0.1-0.39C97.02,53.7,96.91,53.61,96.77,53.54z"/>
	<path class="st0" d="M99.6,52.41c-0.21-0.19-0.5-0.29-0.85-0.29c-0.36,0-0.65,0.1-0.86,0.29c-0.21,0.19-0.32,0.47-0.33,0.83
		c0,0.08,0,0.19,0,0.35c0,0.15,0,0.27,0,0.34c0.01,0.37,0.12,0.65,0.32,0.83c0.21,0.19,0.49,0.28,0.86,0.28
		c0.37,0,0.66-0.09,0.86-0.28s0.32-0.46,0.33-0.83c0.01-0.16,0.01-0.27,0.01-0.34c0-0.08,0-0.19-0.01-0.35
		C99.92,52.88,99.81,52.6,99.6,52.41z M99.34,53.91c-0.01,0.22-0.06,0.39-0.17,0.5c-0.11,0.11-0.25,0.16-0.43,0.16
		c-0.18,0-0.33-0.05-0.43-0.16c-0.11-0.11-0.16-0.28-0.17-0.5c0-0.08,0-0.19,0-0.33c0-0.14,0-0.25,0-0.33
		c0.01-0.22,0.06-0.39,0.17-0.5c0.11-0.11,0.25-0.16,0.43-0.16c0.18,0,0.32,0.05,0.43,0.16c0.11,0.11,0.17,0.28,0.17,0.5
		c0.01,0.16,0.01,0.27,0.01,0.33C99.35,53.64,99.35,53.75,99.34,53.91z"/>
	<path class="st0" d="M102.19,52.25c-0.18-0.08-0.39-0.12-0.63-0.12c-0.37,0-0.66,0.1-0.86,0.29c-0.21,0.19-0.32,0.46-0.33,0.81
		c0,0.08,0,0.2,0,0.37c0,0.17,0,0.28,0,0.36c0.01,0.35,0.12,0.62,0.33,0.81c0.2,0.19,0.49,0.29,0.87,0.29
		c0.24,0,0.45-0.04,0.63-0.12c0.18-0.08,0.32-0.2,0.42-0.34c0.1-0.14,0.15-0.3,0.16-0.48c0-0.02,0-0.04-0.02-0.06
		c-0.02-0.02-0.04-0.02-0.06-0.02h-0.39c-0.03,0-0.06,0.01-0.07,0.02c-0.02,0.01-0.03,0.04-0.04,0.08
		c-0.04,0.17-0.11,0.29-0.21,0.36c-0.1,0.07-0.23,0.1-0.4,0.1c-0.39,0-0.59-0.22-0.6-0.65c0-0.08,0-0.19,0-0.34
		c0-0.15,0-0.26,0-0.34c0.02-0.43,0.22-0.65,0.6-0.65c0.17,0,0.3,0.03,0.4,0.1c0.1,0.07,0.17,0.19,0.21,0.36
		c0.01,0.04,0.02,0.06,0.04,0.08c0.02,0.01,0.04,0.02,0.07,0.02h0.39c0.02,0,0.04-0.01,0.06-0.02c0.02-0.01,0.03-0.03,0.03-0.05
		v-0.01c-0.01-0.18-0.06-0.34-0.16-0.48C102.51,52.44,102.37,52.33,102.19,52.25z"/>
	<path class="st0" d="M103.74,52.17h-0.39c-0.03,0-0.05,0.01-0.07,0.03c-0.02,0.02-0.03,0.04-0.03,0.07v2.65
		c0,0.03,0.01,0.05,0.03,0.07c0.02,0.02,0.04,0.03,0.07,0.03h0.39c0.03,0,0.05-0.01,0.07-0.03c0.02-0.02,0.03-0.04,0.03-0.07v-2.65
		c0-0.03-0.01-0.05-0.03-0.07C103.79,52.17,103.77,52.17,103.74,52.17z"/>
	<path class="st0" d="M105.93,52.27c-0.03-0.07-0.08-0.1-0.15-0.1h-0.45c-0.07,0-0.12,0.03-0.15,0.1l-0.97,2.62l-0.01,0.04
		c0,0.02,0.01,0.04,0.02,0.06c0.02,0.02,0.04,0.02,0.06,0.02h0.36c0.06,0,0.1-0.03,0.12-0.08l0.19-0.49h1.2l0.19,0.49
		c0.02,0.05,0.06,0.08,0.12,0.08h0.36c0.02,0,0.04-0.01,0.06-0.02c0.02-0.02,0.03-0.04,0.03-0.06l-0.01-0.04L105.93,52.27z
		 M105.1,53.97l0.46-1.25l0.46,1.25H105.1z"/>
	<path class="st0" d="M109.01,52.64c0.02-0.02,0.03-0.04,0.03-0.07v-0.3c0-0.03-0.01-0.05-0.03-0.07c-0.02-0.02-0.04-0.03-0.07-0.03
		h-2.07c-0.03,0-0.05,0.01-0.07,0.03c-0.02,0.02-0.03,0.04-0.03,0.07v0.3c0,0.03,0.01,0.05,0.03,0.07c0.02,0.02,0.04,0.03,0.07,0.03
		h0.75v2.24c0,0.03,0.01,0.05,0.03,0.07c0.02,0.02,0.04,0.03,0.07,0.03h0.38c0.03,0,0.05-0.01,0.07-0.03
		c0.02-0.02,0.03-0.04,0.03-0.07v-2.24h0.75C108.96,52.67,108.99,52.66,109.01,52.64z"/>
	<path class="st0" d="M109.54,52.17c-0.03,0-0.05,0.01-0.07,0.03c-0.02,0.02-0.03,0.04-0.03,0.07v2.65c0,0.03,0.01,0.05,0.03,0.07
		c0.02,0.02,0.04,0.03,0.07,0.03h0.39c0.03,0,0.05-0.01,0.07-0.03c0.02-0.02,0.03-0.04,0.03-0.07v-2.65c0-0.03-0.01-0.05-0.03-0.07
		c-0.02-0.02-0.04-0.03-0.07-0.03H109.54z"/>
	<path class="st0" d="M112.96,53.59c0-0.08,0-0.19-0.01-0.35c-0.01-0.36-0.12-0.64-0.33-0.83c-0.21-0.19-0.5-0.29-0.85-0.29
		c-0.36,0-0.65,0.1-0.86,0.29c-0.21,0.19-0.32,0.47-0.33,0.83c0,0.08,0,0.19,0,0.35c0,0.15,0,0.27,0,0.34
		c0.01,0.37,0.12,0.65,0.32,0.83c0.21,0.19,0.49,0.28,0.86,0.28c0.37,0,0.66-0.09,0.86-0.28c0.21-0.19,0.32-0.46,0.33-0.83
		C112.95,53.78,112.96,53.66,112.96,53.59z M112.36,53.91c-0.01,0.22-0.06,0.39-0.17,0.5c-0.11,0.11-0.25,0.16-0.43,0.16
		c-0.18,0-0.33-0.05-0.43-0.16c-0.11-0.11-0.16-0.28-0.17-0.5c0-0.08,0-0.19,0-0.33c0-0.14,0-0.25,0-0.33
		c0.01-0.22,0.06-0.39,0.17-0.5c0.11-0.11,0.25-0.16,0.43-0.16c0.18,0,0.32,0.05,0.43,0.16c0.11,0.11,0.17,0.28,0.17,0.5
		c0.01,0.16,0.01,0.27,0.01,0.33C112.37,53.64,112.36,53.75,112.36,53.91z"/>
	<path class="st0" d="M114,54.98c0.02-0.02,0.03-0.04,0.03-0.07v-1.73l1.16,1.76c0.03,0.05,0.07,0.07,0.12,0.07h0.32
		c0.03,0,0.05-0.01,0.07-0.03c0.02-0.02,0.03-0.04,0.03-0.07v-2.64c0-0.03-0.01-0.05-0.03-0.07c-0.02-0.02-0.04-0.03-0.07-0.03
		h-0.35c-0.03,0-0.05,0.01-0.07,0.03c-0.02,0.02-0.03,0.04-0.03,0.07v1.77l-1.16-1.8c-0.03-0.05-0.07-0.07-0.12-0.07h-0.32
		c-0.03,0-0.05,0.01-0.07,0.03c-0.02,0.02-0.03,0.04-0.03,0.07v2.64c0,0.03,0.01,0.05,0.03,0.07c0.02,0.02,0.04,0.03,0.07,0.03h0.35
		C113.96,55.01,113.98,55,114,54.98z"/>
	<path class="st0" d="M117.64,54.94c0.17,0.07,0.38,0.11,0.62,0.11c0.23,0,0.43-0.03,0.61-0.1c0.17-0.07,0.31-0.17,0.41-0.29
		c0.1-0.13,0.14-0.28,0.14-0.46c0-0.16-0.03-0.29-0.1-0.39c-0.07-0.1-0.17-0.19-0.31-0.26c-0.14-0.07-0.33-0.13-0.57-0.18
		c-0.18-0.05-0.31-0.09-0.4-0.12c-0.09-0.04-0.16-0.08-0.2-0.13c-0.04-0.05-0.06-0.11-0.06-0.18c0-0.11,0.04-0.19,0.13-0.25
		c0.09-0.06,0.2-0.09,0.35-0.09c0.14,0,0.25,0.03,0.34,0.09c0.09,0.06,0.14,0.13,0.16,0.22c0.02,0.05,0.06,0.07,0.12,0.07h0.39
		c0.02,0,0.04-0.01,0.06-0.03c0.02-0.02,0.02-0.04,0.02-0.06c-0.01-0.12-0.05-0.23-0.14-0.35c-0.09-0.12-0.21-0.22-0.37-0.29
		c-0.16-0.08-0.36-0.12-0.58-0.12c-0.21,0-0.4,0.04-0.56,0.11c-0.16,0.07-0.28,0.17-0.37,0.29c-0.09,0.12-0.13,0.26-0.13,0.42
		c0,0.23,0.07,0.41,0.22,0.54c0.15,0.12,0.38,0.22,0.7,0.3c0.19,0.05,0.34,0.1,0.44,0.13c0.1,0.04,0.17,0.08,0.22,0.13
		c0.05,0.05,0.07,0.11,0.07,0.18c0,0.11-0.05,0.2-0.14,0.26c-0.1,0.06-0.24,0.1-0.43,0.1c-0.17,0-0.3-0.03-0.4-0.09
		c-0.1-0.06-0.16-0.14-0.18-0.23c-0.02-0.02-0.03-0.04-0.05-0.06c-0.02-0.01-0.04-0.02-0.07-0.02h-0.37c-0.02,0-0.04,0.01-0.06,0.03
		c-0.02,0.02-0.02,0.04-0.02,0.06c0.01,0.14,0.05,0.27,0.14,0.39C117.34,54.77,117.47,54.86,117.64,54.94z"/>
	<path class="st0" d="M120.55,54.98c0.02,0.02,0.04,0.03,0.07,0.03h0.37c0.03,0,0.05-0.01,0.07-0.03c0.02-0.02,0.03-0.04,0.03-0.07
		V54l0.96-1.7c0.01-0.01,0.01-0.03,0.01-0.04c0-0.02-0.01-0.04-0.02-0.06c-0.02-0.02-0.04-0.02-0.06-0.02h-0.37
		c-0.03,0-0.05,0.01-0.08,0.02c-0.02,0.02-0.04,0.03-0.05,0.05l-0.69,1.18l-0.68-1.18c-0.03-0.05-0.07-0.08-0.13-0.08h-0.37
		c-0.02,0-0.04,0.01-0.06,0.02c-0.02,0.02-0.03,0.04-0.03,0.06c0,0.01,0,0.02,0.01,0.04l0.96,1.7v0.91
		C120.52,54.94,120.53,54.96,120.55,54.98z"/>
	<path class="st0" d="M123.02,54.91v-1.73l1.16,1.76c0.03,0.05,0.07,0.07,0.12,0.07h0.32c0.03,0,0.05-0.01,0.07-0.03
		c0.02-0.02,0.03-0.04,0.03-0.07v-2.64c0-0.03-0.01-0.05-0.03-0.07c-0.02-0.02-0.04-0.03-0.07-0.03h-0.35
		c-0.03,0-0.05,0.01-0.07,0.03c-0.02,0.02-0.03,0.04-0.03,0.07v1.77l-1.16-1.8c-0.03-0.05-0.07-0.07-0.12-0.07h-0.32
		c-0.03,0-0.05,0.01-0.07,0.03c-0.02,0.02-0.03,0.04-0.03,0.07v2.64c0,0.03,0.01,0.05,0.03,0.07c0.02,0.02,0.04,0.03,0.07,0.03h0.35
		c0.03,0,0.05-0.01,0.07-0.03C123.01,54.96,123.02,54.94,123.02,54.91z"/>
	<path class="st0" d="M127.35,54.74c0.19-0.18,0.3-0.46,0.31-0.84c0.01-0.16,0.01-0.26,0.01-0.31c0-0.05,0-0.16-0.01-0.32
		c-0.02-0.74-0.42-1.1-1.22-1.1h-0.99c-0.03,0-0.05,0.01-0.07,0.03c-0.02,0.02-0.03,0.04-0.03,0.07v2.64c0,0.03,0.01,0.05,0.03,0.07
		c0.02,0.02,0.04,0.03,0.07,0.03h1.01C126.86,55.01,127.15,54.92,127.35,54.74z M125.92,54.53v-1.9h0.5c0.23,0,0.39,0.05,0.5,0.16
		c0.11,0.1,0.16,0.27,0.17,0.49c0.01,0.16,0.01,0.26,0.01,0.3c0,0.04,0,0.14-0.01,0.3c-0.01,0.23-0.06,0.4-0.16,0.5
		c-0.1,0.1-0.26,0.15-0.49,0.15H125.92z"/>
	<path class="st0" d="M128.78,54.91v-2.65c0-0.03-0.01-0.05-0.03-0.07c-0.02-0.02-0.04-0.03-0.07-0.03h-0.39
		c-0.03,0-0.05,0.01-0.07,0.03c-0.02,0.02-0.03,0.04-0.03,0.07v2.65c0,0.03,0.01,0.05,0.03,0.07c0.02,0.02,0.04,0.03,0.07,0.03h0.39
		c0.03,0,0.05-0.01,0.07-0.03C128.77,54.96,128.78,54.94,128.78,54.91z"/>
	<path class="st0" d="M130.51,52.6c0.17,0,0.3,0.03,0.4,0.1c0.1,0.07,0.17,0.19,0.21,0.36c0.01,0.04,0.02,0.06,0.04,0.08
		c0.02,0.01,0.04,0.02,0.07,0.02h0.39c0.02,0,0.04-0.01,0.06-0.02c0.02-0.01,0.03-0.03,0.03-0.05v-0.01
		c-0.01-0.18-0.06-0.34-0.16-0.48c-0.1-0.14-0.24-0.26-0.42-0.34c-0.18-0.08-0.39-0.12-0.63-0.12c-0.37,0-0.66,0.1-0.86,0.29
		c-0.21,0.19-0.32,0.46-0.33,0.81c0,0.08,0,0.2,0,0.37c0,0.17,0,0.28,0,0.36c0.01,0.35,0.12,0.62,0.33,0.81
		c0.2,0.19,0.49,0.29,0.87,0.29c0.24,0,0.45-0.04,0.63-0.12c0.18-0.08,0.32-0.2,0.42-0.34c0.1-0.14,0.15-0.3,0.16-0.48
		c0-0.02,0-0.04-0.02-0.06c-0.02-0.02-0.04-0.02-0.06-0.02h-0.39c-0.03,0-0.06,0.01-0.07,0.02c-0.02,0.01-0.03,0.04-0.04,0.08
		c-0.04,0.17-0.11,0.29-0.21,0.36c-0.1,0.07-0.23,0.1-0.4,0.1c-0.39,0-0.59-0.22-0.6-0.65c0-0.08,0-0.19,0-0.34
		c0-0.15,0-0.26,0-0.34C129.92,52.81,130.12,52.6,130.51,52.6z"/>
	<path class="st0" d="M132.35,55.01c0.06,0,0.1-0.03,0.12-0.08l0.19-0.49h1.2l0.19,0.49c0.02,0.05,0.06,0.08,0.12,0.08h0.36
		c0.02,0,0.04-0.01,0.06-0.02s0.03-0.04,0.03-0.06l-0.01-0.04l-0.97-2.62c-0.03-0.07-0.08-0.1-0.15-0.1h-0.45
		c-0.07,0-0.12,0.03-0.15,0.1l-0.97,2.62l-0.01,0.04c0,0.02,0.01,0.04,0.02,0.06c0.02,0.02,0.04,0.02,0.06,0.02H132.35z
		 M133.25,52.72l0.46,1.25h-0.92L133.25,52.72z"/>
	<path class="st0" d="M136.84,54.52h-1.29v-2.26c0-0.03-0.01-0.05-0.03-0.07c-0.02-0.02-0.04-0.03-0.07-0.03h-0.38
		c-0.03,0-0.05,0.01-0.07,0.03c-0.02,0.02-0.03,0.04-0.03,0.07v2.65c0,0.03,0.01,0.05,0.03,0.07c0.02,0.02,0.04,0.03,0.07,0.03h1.77
		c0.03,0,0.05-0.01,0.07-0.03c0.02-0.02,0.03-0.04,0.03-0.07v-0.29c0-0.03-0.01-0.05-0.03-0.07
		C136.9,54.53,136.87,54.52,136.84,54.52z"/>
	<path class="st0" d="M139.22,52.64c0.03,0,0.05-0.01,0.07-0.03c0.02-0.02,0.03-0.04,0.03-0.07v-0.27c0-0.03-0.01-0.05-0.03-0.07
		c-0.02-0.02-0.04-0.03-0.07-0.03h-1.79c-0.03,0-0.05,0.01-0.07,0.03c-0.02,0.02-0.03,0.04-0.03,0.07v2.64
		c0,0.03,0.01,0.05,0.03,0.07c0.02,0.02,0.04,0.03,0.07,0.03h1.82c0.03,0,0.05-0.01,0.07-0.03c0.02-0.02,0.03-0.04,0.03-0.07v-0.28
		c0-0.03-0.01-0.05-0.03-0.07c-0.02-0.02-0.04-0.03-0.07-0.03h-1.36V53.8h1.24c0.03,0,0.05-0.01,0.07-0.03
		c0.02-0.02,0.03-0.04,0.03-0.07v-0.26c0-0.03-0.01-0.05-0.03-0.07c-0.02-0.02-0.04-0.03-0.07-0.03h-1.24v-0.71H139.22z"/>
	<path class="st0" d="M141.88,52.17h-0.99c-0.03,0-0.05,0.01-0.07,0.03c-0.02,0.02-0.03,0.04-0.03,0.07v2.64
		c0,0.03,0.01,0.05,0.03,0.07c0.02,0.02,0.04,0.03,0.07,0.03h1.01c0.4,0,0.7-0.09,0.89-0.27c0.19-0.18,0.3-0.46,0.31-0.84
		c0.01-0.16,0.01-0.26,0.01-0.31c0-0.05,0-0.16-0.01-0.32C143.08,52.53,142.68,52.17,141.88,52.17z M142.52,53.89
		c-0.01,0.23-0.06,0.4-0.16,0.5c-0.1,0.1-0.26,0.15-0.49,0.15h-0.52v-1.9h0.5c0.23,0,0.39,0.05,0.5,0.16s0.16,0.27,0.17,0.49
		c0.01,0.16,0.01,0.26,0.01,0.3C142.53,53.62,142.53,53.72,142.52,53.89z"/>
	<path class="st0" d="M145.53,52.64c0.03,0,0.05-0.01,0.07-0.03c0.02-0.02,0.03-0.04,0.03-0.07v-0.27c0-0.03-0.01-0.05-0.03-0.07
		c-0.02-0.02-0.04-0.03-0.07-0.03h-1.79c-0.03,0-0.05,0.01-0.07,0.03c-0.02,0.02-0.03,0.04-0.03,0.07v2.64
		c0,0.03,0.01,0.05,0.03,0.07c0.02,0.02,0.04,0.03,0.07,0.03h1.82c0.03,0,0.05-0.01,0.07-0.03c0.02-0.02,0.03-0.04,0.03-0.07v-0.28
		c0-0.03-0.01-0.05-0.03-0.07c-0.02-0.02-0.04-0.03-0.07-0.03h-1.36V53.8h1.24c0.03,0,0.05-0.01,0.07-0.03
		c0.02-0.02,0.03-0.04,0.03-0.07v-0.26c0-0.03-0.01-0.05-0.03-0.07c-0.02-0.02-0.04-0.03-0.07-0.03h-1.24v-0.71H145.53z"/>
	<path class="st0" d="M148.17,54.65c0.1-0.13,0.14-0.28,0.14-0.46c0-0.16-0.03-0.29-0.1-0.39c-0.07-0.1-0.17-0.19-0.31-0.26
		c-0.14-0.07-0.33-0.13-0.57-0.18c-0.18-0.05-0.31-0.09-0.4-0.12s-0.16-0.08-0.2-0.13c-0.04-0.05-0.06-0.11-0.06-0.18
		c0-0.11,0.04-0.19,0.13-0.25c0.09-0.06,0.2-0.09,0.35-0.09c0.14,0,0.25,0.03,0.34,0.09c0.09,0.06,0.14,0.13,0.16,0.22
		c0.02,0.05,0.06,0.07,0.12,0.07h0.39c0.02,0,0.04-0.01,0.06-0.03c0.02-0.02,0.02-0.04,0.02-0.06c-0.01-0.12-0.05-0.23-0.14-0.35
		c-0.09-0.12-0.21-0.22-0.37-0.29c-0.16-0.08-0.36-0.12-0.58-0.12c-0.21,0-0.4,0.04-0.56,0.11c-0.16,0.07-0.28,0.17-0.37,0.29
		c-0.09,0.12-0.13,0.26-0.13,0.42c0,0.23,0.07,0.41,0.22,0.54c0.15,0.12,0.38,0.22,0.7,0.3c0.19,0.05,0.34,0.1,0.44,0.13
		c0.1,0.04,0.17,0.08,0.22,0.13c0.05,0.05,0.07,0.11,0.07,0.18c0,0.11-0.05,0.2-0.14,0.26c-0.1,0.06-0.24,0.1-0.43,0.1
		c-0.17,0-0.3-0.03-0.4-0.09c-0.1-0.06-0.16-0.14-0.18-0.23c-0.02-0.02-0.03-0.04-0.05-0.06c-0.02-0.01-0.04-0.02-0.07-0.02h-0.37
		c-0.02,0-0.04,0.01-0.06,0.03c-0.02,0.02-0.02,0.04-0.02,0.06c0.01,0.14,0.05,0.27,0.14,0.39c0.09,0.12,0.22,0.22,0.39,0.29
		c0.17,0.07,0.38,0.11,0.62,0.11c0.23,0,0.43-0.03,0.61-0.1C147.94,54.88,148.08,54.78,148.17,54.65z"/>
	<path class="st0" d="M151.94,53.07c0-0.29-0.09-0.52-0.28-0.67c-0.19-0.15-0.44-0.23-0.77-0.23h-1.09c-0.03,0-0.05,0.01-0.07,0.03
		c-0.02,0.02-0.03,0.04-0.03,0.07v2.64c0,0.03,0.01,0.05,0.03,0.07c0.02,0.02,0.04,0.03,0.07,0.03h0.39c0.03,0,0.05-0.01,0.07-0.03
		c0.02-0.02,0.03-0.04,0.03-0.07v-0.95h0.6c0.33,0,0.58-0.08,0.77-0.23C151.85,53.58,151.94,53.36,151.94,53.07z M151.23,53.39
		c-0.08,0.07-0.2,0.11-0.36,0.11h-0.58v-0.88h0.58c0.16,0,0.28,0.04,0.36,0.12c0.08,0.08,0.12,0.19,0.12,0.33
		C151.35,53.21,151.31,53.32,151.23,53.39z"/>
	<path class="st0" d="M154.45,53.55c0.09-0.13,0.14-0.3,0.14-0.5c0-0.28-0.09-0.5-0.28-0.66c-0.19-0.15-0.45-0.23-0.78-0.23h-1.05
		c-0.03,0-0.05,0.01-0.07,0.03c-0.02,0.02-0.03,0.04-0.03,0.07v2.64c0,0.03,0.01,0.05,0.03,0.07c0.02,0.02,0.04,0.03,0.07,0.03h0.37
		c0.03,0,0.05-0.01,0.07-0.03c0.02-0.02,0.03-0.04,0.03-0.07v-0.97h0.56l0.52,0.96c0.02,0.03,0.04,0.06,0.06,0.08
		c0.02,0.02,0.06,0.03,0.1,0.03h0.37c0.02,0,0.04-0.01,0.06-0.02c0.02-0.02,0.03-0.04,0.03-0.06c0-0.01,0-0.03-0.01-0.04l-0.59-1.03
		C154.23,53.78,154.36,53.68,154.45,53.55z M153.89,53.36c-0.08,0.07-0.2,0.11-0.37,0.11h-0.56v-0.85h0.56
		c0.16,0,0.28,0.04,0.37,0.11c0.08,0.07,0.12,0.18,0.12,0.32C154.01,53.19,153.97,53.29,153.89,53.36z"/>
	<path class="st0" d="M157.4,53.93c0.01-0.16,0.01-0.27,0.01-0.34c0-0.08,0-0.19-0.01-0.35c-0.01-0.36-0.12-0.64-0.33-0.83
		c-0.21-0.19-0.5-0.29-0.85-0.29c-0.36,0-0.65,0.1-0.86,0.29c-0.21,0.19-0.32,0.47-0.33,0.83c0,0.08,0,0.19,0,0.35
		c0,0.15,0,0.27,0,0.34c0.01,0.37,0.12,0.65,0.32,0.83c0.21,0.19,0.49,0.28,0.86,0.28c0.37,0,0.66-0.09,0.86-0.28
		C157.28,54.58,157.38,54.3,157.4,53.93z M156.81,53.91c-0.01,0.22-0.06,0.39-0.17,0.5c-0.11,0.11-0.25,0.16-0.43,0.16
		c-0.18,0-0.33-0.05-0.43-0.16c-0.11-0.11-0.16-0.28-0.17-0.5c0-0.08,0-0.19,0-0.33c0-0.14,0-0.25,0-0.33
		c0.01-0.22,0.06-0.39,0.17-0.5c0.11-0.11,0.25-0.16,0.43-0.16c0.18,0,0.32,0.05,0.43,0.16c0.11,0.11,0.17,0.28,0.17,0.5
		c0.01,0.16,0.01,0.27,0.01,0.33C156.82,53.64,156.81,53.75,156.81,53.91z"/>
	<path class="st0" d="M160.17,53.07c0-0.29-0.09-0.52-0.28-0.67c-0.19-0.15-0.44-0.23-0.77-0.23h-1.09c-0.03,0-0.05,0.01-0.07,0.03
		c-0.02,0.02-0.03,0.04-0.03,0.07v2.64c0,0.03,0.01,0.05,0.03,0.07c0.02,0.02,0.04,0.03,0.07,0.03h0.39c0.03,0,0.05-0.01,0.07-0.03
		c0.02-0.02,0.03-0.04,0.03-0.07v-0.95h0.6c0.33,0,0.58-0.08,0.77-0.23C160.07,53.58,160.17,53.36,160.17,53.07z M159.45,53.39
		c-0.08,0.07-0.2,0.11-0.36,0.11h-0.58v-0.88h0.58c0.16,0,0.28,0.04,0.36,0.12c0.08,0.08,0.12,0.19,0.12,0.33
		C159.58,53.21,159.54,53.32,159.45,53.39z"/>
	<path class="st0" d="M162.28,53.84c0.17-0.06,0.3-0.16,0.4-0.29c0.09-0.13,0.14-0.3,0.14-0.5c0-0.28-0.09-0.5-0.28-0.66
		c-0.19-0.15-0.45-0.23-0.78-0.23h-1.05c-0.03,0-0.05,0.01-0.07,0.03c-0.02,0.02-0.03,0.04-0.03,0.07v2.64
		c0,0.03,0.01,0.05,0.03,0.07c0.02,0.02,0.04,0.03,0.07,0.03h0.37c0.03,0,0.05-0.01,0.07-0.03c0.02-0.02,0.03-0.04,0.03-0.07v-0.97
		h0.56l0.52,0.96c0.02,0.03,0.04,0.06,0.06,0.08c0.02,0.02,0.06,0.03,0.1,0.03h0.37c0.02,0,0.04-0.01,0.06-0.02
		c0.02-0.02,0.03-0.04,0.03-0.06c0-0.01,0-0.03-0.01-0.04L162.28,53.84z M162.11,53.36c-0.08,0.07-0.2,0.11-0.37,0.11h-0.56v-0.85
		h0.56c0.16,0,0.28,0.04,0.37,0.11c0.08,0.07,0.12,0.18,0.12,0.32C162.23,53.19,162.19,53.29,162.11,53.36z"/>
	<path class="st0" d="M163.83,52.17h-0.39c-0.03,0-0.05,0.01-0.07,0.03c-0.02,0.02-0.03,0.04-0.03,0.07v2.65
		c0,0.03,0.01,0.05,0.03,0.07c0.02,0.02,0.04,0.03,0.07,0.03h0.39c0.03,0,0.05-0.01,0.07-0.03c0.02-0.02,0.03-0.04,0.03-0.07v-2.65
		c0-0.03-0.01-0.05-0.03-0.07C163.88,52.17,163.86,52.17,163.83,52.17z"/>
	<path class="st0" d="M165.61,51.96c0.03,0,0.05,0,0.08-0.01c0.02-0.01,0.04-0.02,0.07-0.04l0.51-0.41
		c0.01-0.01,0.02-0.03,0.02-0.05c0-0.02-0.01-0.04-0.02-0.06c-0.01-0.01-0.03-0.02-0.06-0.02h-0.44c-0.04,0-0.06,0.01-0.08,0.02
		c-0.02,0.01-0.04,0.03-0.07,0.06l-0.33,0.4c-0.01,0.01-0.02,0.03-0.02,0.05c0,0.04,0.02,0.06,0.06,0.06H165.61z"/>
	<path class="st0" d="M166.48,54.53h-1.36V53.8h1.24c0.03,0,0.05-0.01,0.07-0.03c0.02-0.02,0.03-0.04,0.03-0.07v-0.26
		c0-0.03-0.01-0.05-0.03-0.07c-0.02-0.02-0.04-0.03-0.07-0.03h-1.24v-0.71h1.33c0.03,0,0.05-0.01,0.07-0.03
		c0.02-0.02,0.03-0.04,0.03-0.07v-0.27c0-0.03-0.01-0.05-0.03-0.07c-0.02-0.02-0.04-0.03-0.07-0.03h-1.79
		c-0.03,0-0.05,0.01-0.07,0.03c-0.02,0.02-0.03,0.04-0.03,0.07v2.64c0,0.03,0.01,0.05,0.03,0.07c0.02,0.02,0.04,0.03,0.07,0.03h1.82
		c0.03,0,0.05-0.01,0.07-0.03c0.02-0.02,0.03-0.04,0.03-0.07v-0.28c0-0.03-0.01-0.05-0.03-0.07
		C166.54,54.54,166.51,54.53,166.48,54.53z"/>
	<path class="st0" d="M169.11,52.64c0.02-0.02,0.03-0.04,0.03-0.07v-0.3c0-0.03-0.01-0.05-0.03-0.07c-0.02-0.02-0.04-0.03-0.07-0.03
		h-2.07c-0.03,0-0.05,0.01-0.07,0.03c-0.02,0.02-0.03,0.04-0.03,0.07v0.3c0,0.03,0.01,0.05,0.03,0.07c0.02,0.02,0.04,0.03,0.07,0.03
		h0.75v2.24c0,0.03,0.01,0.05,0.03,0.07c0.02,0.02,0.04,0.03,0.07,0.03h0.38c0.03,0,0.05-0.01,0.07-0.03
		c0.02-0.02,0.03-0.04,0.03-0.07v-2.24h0.75C169.07,52.67,169.09,52.66,169.11,52.64z"/>
	<path class="st0" d="M170.71,52.27c-0.03-0.07-0.08-0.1-0.15-0.1h-0.45c-0.07,0-0.12,0.03-0.15,0.1L169,54.88l-0.01,0.04
		c0,0.02,0.01,0.04,0.02,0.06c0.02,0.02,0.04,0.02,0.06,0.02h0.36c0.06,0,0.1-0.03,0.12-0.08l0.19-0.49h1.2l0.19,0.49
		c0.02,0.05,0.06,0.08,0.12,0.08h0.36c0.02,0,0.04-0.01,0.06-0.02c0.02-0.02,0.03-0.04,0.03-0.06l-0.01-0.04L170.71,52.27z
		 M169.89,53.97l0.46-1.25l0.46,1.25H169.89z"/>
	<path class="st0" d="M172.56,52.17h-0.39c-0.03,0-0.05,0.01-0.07,0.03c-0.02,0.02-0.03,0.04-0.03,0.07v2.65
		c0,0.03,0.01,0.05,0.03,0.07c0.02,0.02,0.04,0.03,0.07,0.03h0.39c0.03,0,0.05-0.01,0.07-0.03c0.02-0.02,0.03-0.04,0.03-0.07v-2.65
		c0-0.03-0.01-0.05-0.03-0.07C172.61,52.17,172.59,52.17,172.56,52.17z"/>
	<path class="st0" d="M174.96,53.84c0.17-0.06,0.3-0.16,0.4-0.29c0.09-0.13,0.14-0.3,0.14-0.5c0-0.28-0.09-0.5-0.28-0.66
		c-0.19-0.15-0.45-0.23-0.78-0.23h-1.05c-0.03,0-0.05,0.01-0.07,0.03c-0.02,0.02-0.03,0.04-0.03,0.07v2.64
		c0,0.03,0.01,0.05,0.03,0.07c0.02,0.02,0.04,0.03,0.07,0.03h0.37c0.03,0,0.05-0.01,0.07-0.03c0.02-0.02,0.03-0.04,0.03-0.07v-0.97
		h0.56l0.52,0.96c0.02,0.03,0.04,0.06,0.06,0.08c0.02,0.02,0.06,0.03,0.1,0.03h0.37c0.02,0,0.04-0.01,0.06-0.02
		c0.02-0.02,0.03-0.04,0.03-0.06c0-0.01,0-0.03-0.01-0.04L174.96,53.84z M174.79,53.36c-0.08,0.07-0.2,0.11-0.37,0.11h-0.56v-0.85
		h0.56c0.16,0,0.28,0.04,0.37,0.11c0.08,0.07,0.12,0.18,0.12,0.32C174.91,53.19,174.87,53.29,174.79,53.36z"/>
	<path class="st0" d="M177.94,54.53h-1.36V53.8h1.24c0.03,0,0.05-0.01,0.07-0.03c0.02-0.02,0.03-0.04,0.03-0.07v-0.26
		c0-0.03-0.01-0.05-0.03-0.07c-0.02-0.02-0.04-0.03-0.07-0.03h-1.24v-0.71h1.33c0.03,0,0.05-0.01,0.07-0.03
		c0.02-0.02,0.03-0.04,0.03-0.07v-0.27c0-0.03-0.01-0.05-0.03-0.07c-0.02-0.02-0.04-0.03-0.07-0.03h-1.79
		c-0.03,0-0.05,0.01-0.07,0.03c-0.02,0.02-0.03,0.04-0.03,0.07v2.64c0,0.03,0.01,0.05,0.03,0.07c0.02,0.02,0.04,0.03,0.07,0.03h1.82
		c0.03,0,0.05-0.01,0.07-0.03c0.02-0.02,0.03-0.04,0.03-0.07v-0.28c0-0.03-0.01-0.05-0.03-0.07C178,54.54,177.97,54.53,177.94,54.53
		z"/>
	<path class="st0" d="M180.28,53.54c-0.14-0.07-0.33-0.13-0.57-0.18c-0.18-0.05-0.31-0.09-0.4-0.12c-0.09-0.04-0.16-0.08-0.2-0.13
		c-0.04-0.05-0.06-0.11-0.06-0.18c0-0.11,0.04-0.19,0.13-0.25c0.09-0.06,0.2-0.09,0.35-0.09c0.14,0,0.25,0.03,0.34,0.09
		c0.09,0.06,0.14,0.13,0.16,0.22c0.02,0.05,0.06,0.07,0.12,0.07h0.39c0.02,0,0.04-0.01,0.06-0.03c0.02-0.02,0.02-0.04,0.02-0.06
		c-0.01-0.12-0.05-0.23-0.14-0.35c-0.09-0.12-0.21-0.22-0.37-0.29c-0.16-0.08-0.36-0.12-0.58-0.12c-0.21,0-0.4,0.04-0.56,0.11
		c-0.16,0.07-0.28,0.17-0.37,0.29c-0.09,0.12-0.13,0.26-0.13,0.42c0,0.23,0.07,0.41,0.22,0.54c0.15,0.12,0.38,0.22,0.7,0.3
		c0.19,0.05,0.34,0.1,0.44,0.13c0.1,0.04,0.17,0.08,0.22,0.13c0.05,0.05,0.07,0.11,0.07,0.18c0,0.11-0.05,0.2-0.14,0.26
		c-0.1,0.06-0.24,0.1-0.43,0.1c-0.17,0-0.3-0.03-0.4-0.09c-0.1-0.06-0.16-0.14-0.18-0.23c-0.02-0.02-0.03-0.04-0.05-0.06
		c-0.02-0.01-0.04-0.02-0.07-0.02h-0.37c-0.02,0-0.04,0.01-0.06,0.03c-0.02,0.02-0.02,0.04-0.02,0.06c0.01,0.14,0.05,0.27,0.14,0.39
		c0.09,0.12,0.22,0.22,0.39,0.29c0.17,0.07,0.38,0.11,0.62,0.11c0.23,0,0.43-0.03,0.61-0.1c0.17-0.07,0.31-0.17,0.41-0.29
		c0.1-0.13,0.14-0.28,0.14-0.46c0-0.16-0.03-0.29-0.1-0.39C180.53,53.7,180.42,53.61,180.28,53.54z"/>
	<path class="st0" d="M109.9,56.14h-0.99c-0.03,0-0.05,0.01-0.07,0.03c-0.02,0.02-0.03,0.04-0.03,0.07v2.64
		c0,0.03,0.01,0.05,0.03,0.07c0.02,0.02,0.04,0.03,0.07,0.03h1.01c0.4,0,0.7-0.09,0.89-0.27c0.19-0.18,0.3-0.46,0.31-0.84
		c0.01-0.16,0.01-0.26,0.01-0.31c0-0.05,0-0.16-0.01-0.32C111.11,56.51,110.7,56.14,109.9,56.14z M110.55,57.86
		c-0.01,0.23-0.06,0.4-0.16,0.5c-0.1,0.1-0.26,0.15-0.49,0.15h-0.52v-1.9h0.5c0.23,0,0.39,0.05,0.5,0.16
		c0.11,0.1,0.16,0.27,0.17,0.49c0.01,0.16,0.01,0.26,0.01,0.3C110.56,57.6,110.55,57.7,110.55,57.86z"/>
	<path class="st0" d="M112.17,56.1h-0.38c-0.04,0-0.07,0.01-0.09,0.04c-0.02,0.02-0.03,0.06-0.04,0.09l-0.11,0.69
		c0,0.03,0,0.05,0.01,0.06c0.01,0.02,0.03,0.02,0.05,0.02h0.21c0.06,0,0.11-0.03,0.13-0.1l0.26-0.68c0.01-0.02,0.01-0.04,0.01-0.06
		c0-0.02-0.01-0.04-0.02-0.05C112.2,56.11,112.19,56.1,112.17,56.1z"/>
	<path class="st0" d="M113.16,56.14h-0.39c-0.03,0-0.05,0.01-0.07,0.03c-0.02,0.02-0.03,0.04-0.03,0.07v2.65
		c0,0.03,0.01,0.05,0.03,0.07c0.02,0.02,0.04,0.03,0.07,0.03h0.39c0.03,0,0.05-0.01,0.07-0.03c0.02-0.02,0.03-0.04,0.03-0.07v-2.65
		c0-0.03-0.01-0.05-0.03-0.07C113.21,56.15,113.19,56.14,113.16,56.14z"/>
	<path class="st0" d="M116.45,56.14h-0.32c-0.05,0-0.09,0.03-0.12,0.08l-0.78,1.45l-0.78-1.45c-0.03-0.05-0.07-0.08-0.12-0.08h-0.33
		c-0.03,0-0.05,0.01-0.07,0.03c-0.02,0.02-0.03,0.04-0.03,0.07v2.64c0,0.03,0.01,0.05,0.03,0.07c0.02,0.02,0.04,0.03,0.07,0.03h0.35
		c0.03,0,0.05-0.01,0.07-0.03c0.02-0.02,0.03-0.04,0.03-0.07v-1.75l0.56,1.07c0.04,0.06,0.08,0.09,0.14,0.09h0.17
		c0.06,0,0.1-0.03,0.13-0.09l0.56-1.07v1.75c0,0.03,0.01,0.05,0.03,0.07c0.02,0.02,0.04,0.03,0.07,0.03h0.35
		c0.03,0,0.05-0.01,0.07-0.03c0.02-0.02,0.03-0.04,0.03-0.07v-2.64c0-0.03-0.01-0.05-0.03-0.07
		C116.5,56.15,116.48,56.14,116.45,56.14z"/>
	<path class="st0" d="M119.74,56.14h-0.32c-0.05,0-0.09,0.03-0.12,0.08l-0.78,1.45l-0.78-1.45c-0.03-0.05-0.07-0.08-0.12-0.08h-0.33
		c-0.03,0-0.05,0.01-0.07,0.03c-0.02,0.02-0.03,0.04-0.03,0.07v2.64c0,0.03,0.01,0.05,0.03,0.07c0.02,0.02,0.04,0.03,0.07,0.03h0.35
		c0.03,0,0.05-0.01,0.07-0.03c0.02-0.02,0.03-0.04,0.03-0.07v-1.75l0.56,1.07c0.04,0.06,0.08,0.09,0.14,0.09h0.17
		c0.06,0,0.1-0.03,0.13-0.09l0.56-1.07v1.75c0,0.03,0.01,0.05,0.03,0.07c0.02,0.02,0.04,0.03,0.07,0.03h0.35
		c0.03,0,0.05-0.01,0.07-0.03c0.02-0.02,0.03-0.04,0.03-0.07v-2.64c0-0.03-0.01-0.05-0.03-0.07
		C119.8,56.15,119.77,56.14,119.74,56.14z"/>
	<path class="st0" d="M122.4,58.51h-1.36v-0.73h1.24c0.03,0,0.05-0.01,0.07-0.03c0.02-0.02,0.03-0.04,0.03-0.07v-0.26
		c0-0.03-0.01-0.05-0.03-0.07c-0.02-0.02-0.04-0.03-0.07-0.03h-1.24v-0.71h1.33c0.03,0,0.05-0.01,0.07-0.03
		c0.02-0.02,0.03-0.04,0.03-0.07v-0.27c0-0.03-0.01-0.05-0.03-0.07c-0.02-0.02-0.04-0.03-0.07-0.03h-1.79
		c-0.03,0-0.05,0.01-0.07,0.03c-0.02,0.02-0.03,0.04-0.03,0.07v2.64c0,0.03,0.01,0.05,0.03,0.07c0.02,0.02,0.04,0.03,0.07,0.03h1.82
		c0.03,0,0.05-0.01,0.07-0.03c0.02-0.02,0.03-0.04,0.03-0.07v-0.28c0-0.03-0.01-0.05-0.03-0.07
		C122.45,58.52,122.43,58.51,122.4,58.51z"/>
	<path class="st0" d="M125.2,56.14h-0.37c-0.03,0-0.05,0.01-0.07,0.03c-0.02,0.02-0.03,0.04-0.03,0.07v1.65
		c0,0.21-0.05,0.37-0.15,0.48c-0.1,0.11-0.25,0.16-0.43,0.16s-0.33-0.05-0.43-0.16c-0.1-0.11-0.15-0.27-0.15-0.48v-1.65
		c0-0.03-0.01-0.05-0.03-0.07c-0.02-0.02-0.04-0.03-0.07-0.03h-0.37c-0.03,0-0.05,0.01-0.07,0.03c-0.02,0.02-0.03,0.04-0.03,0.07
		v1.65c0,0.38,0.1,0.66,0.3,0.85c0.2,0.19,0.49,0.28,0.86,0.28c0.37,0,0.65-0.09,0.85-0.28c0.2-0.19,0.3-0.47,0.3-0.85v-1.65
		c0-0.03-0.01-0.05-0.03-0.07C125.25,56.15,125.23,56.14,125.2,56.14z"/>
	<path class="st0" d="M127.78,57.49c0.09-0.04,0.17-0.11,0.24-0.21c0.07-0.1,0.1-0.22,0.1-0.36c0-0.24-0.08-0.43-0.24-0.57
		c-0.16-0.14-0.39-0.21-0.71-0.21H126c-0.03,0-0.05,0.01-0.07,0.03c-0.02,0.02-0.03,0.04-0.03,0.07v2.64c0,0.03,0.01,0.05,0.03,0.07
		c0.02,0.02,0.04,0.03,0.07,0.03h1.21c0.31,0,0.54-0.08,0.71-0.23c0.17-0.15,0.26-0.36,0.26-0.61c0-0.15-0.04-0.28-0.12-0.4
		C127.99,57.63,127.89,57.54,127.78,57.49z M126.48,56.58h0.63c0.14,0,0.25,0.03,0.32,0.09c0.07,0.06,0.11,0.15,0.11,0.26
		c0,0.11-0.04,0.2-0.11,0.27c-0.07,0.07-0.18,0.1-0.32,0.1h-0.63V56.58z M127.48,58.43c-0.08,0.08-0.19,0.12-0.33,0.12h-0.67v-0.82
		h0.67c0.14,0,0.25,0.04,0.33,0.12c0.08,0.08,0.12,0.18,0.12,0.29C127.59,58.26,127.55,58.36,127.48,58.43z"/>
	<path class="st0" d="M130.56,58.5h-1.29v-2.26c0-0.03-0.01-0.05-0.03-0.07c-0.02-0.02-0.04-0.03-0.07-0.03h-0.38
		c-0.03,0-0.05,0.01-0.07,0.03c-0.02,0.02-0.03,0.04-0.03,0.07v2.65c0,0.03,0.01,0.05,0.03,0.07c0.02,0.02,0.04,0.03,0.07,0.03h1.77
		c0.03,0,0.05-0.01,0.07-0.03c0.02-0.02,0.03-0.04,0.03-0.07v-0.29c0-0.03-0.01-0.05-0.03-0.07
		C130.61,58.51,130.59,58.5,130.56,58.5z"/>
	<path class="st0" d="M132.97,58.51h-1.36v-0.73h1.24c0.03,0,0.05-0.01,0.07-0.03c0.02-0.02,0.03-0.04,0.03-0.07v-0.26
		c0-0.03-0.01-0.05-0.03-0.07c-0.02-0.02-0.04-0.03-0.07-0.03h-1.24v-0.71h1.33c0.03,0,0.05-0.01,0.07-0.03
		c0.02-0.02,0.03-0.04,0.03-0.07v-0.27c0-0.03-0.01-0.05-0.03-0.07c-0.02-0.02-0.04-0.03-0.07-0.03h-1.79
		c-0.03,0-0.05,0.01-0.07,0.03c-0.02,0.02-0.03,0.04-0.03,0.07v2.64c0,0.03,0.01,0.05,0.03,0.07c0.02,0.02,0.04,0.03,0.07,0.03h1.82
		c0.03,0,0.05-0.01,0.07-0.03c0.02-0.02,0.03-0.04,0.03-0.07v-0.28c0-0.03-0.01-0.05-0.03-0.07C133.02,58.52,133,58.51,132.97,58.51
		z"/>
	<path class="st0" d="M135.31,57.52c-0.14-0.07-0.33-0.13-0.57-0.18c-0.18-0.05-0.31-0.09-0.4-0.12c-0.09-0.04-0.16-0.08-0.2-0.13
		c-0.04-0.05-0.06-0.11-0.06-0.18c0-0.11,0.04-0.19,0.13-0.25c0.09-0.06,0.2-0.09,0.35-0.09c0.14,0,0.25,0.03,0.34,0.09
		c0.09,0.06,0.14,0.13,0.16,0.22c0.02,0.05,0.06,0.07,0.12,0.07h0.39c0.02,0,0.04-0.01,0.06-0.03c0.02-0.02,0.02-0.04,0.02-0.06
		c-0.01-0.12-0.05-0.23-0.14-0.35s-0.21-0.22-0.37-0.29c-0.16-0.08-0.36-0.12-0.58-0.12c-0.21,0-0.4,0.04-0.56,0.11
		c-0.16,0.07-0.28,0.17-0.37,0.29c-0.09,0.12-0.13,0.26-0.13,0.42c0,0.23,0.07,0.41,0.22,0.54c0.15,0.12,0.38,0.22,0.7,0.3
		c0.19,0.05,0.34,0.1,0.44,0.13c0.1,0.04,0.17,0.08,0.22,0.13c0.05,0.05,0.07,0.11,0.07,0.18c0,0.11-0.05,0.2-0.14,0.26
		c-0.1,0.06-0.24,0.1-0.43,0.1c-0.17,0-0.3-0.03-0.4-0.09c-0.1-0.06-0.16-0.14-0.18-0.23c-0.02-0.02-0.03-0.04-0.05-0.06
		c-0.02-0.01-0.04-0.02-0.07-0.02h-0.37c-0.02,0-0.04,0.01-0.06,0.03c-0.02,0.02-0.02,0.04-0.02,0.06c0.01,0.14,0.05,0.27,0.14,0.39
		c0.09,0.12,0.22,0.22,0.39,0.29c0.17,0.07,0.38,0.11,0.62,0.11c0.23,0,0.43-0.03,0.61-0.1c0.17-0.07,0.31-0.17,0.41-0.29
		c0.1-0.13,0.14-0.28,0.14-0.46c0-0.16-0.03-0.29-0.1-0.39C135.56,57.67,135.45,57.59,135.31,57.52z"/>
	<path class="st0" d="M138.2,56.14h-0.99c-0.03,0-0.05,0.01-0.07,0.03c-0.02,0.02-0.03,0.04-0.03,0.07v2.64
		c0,0.03,0.01,0.05,0.03,0.07c0.02,0.02,0.04,0.03,0.07,0.03h1.01c0.4,0,0.7-0.09,0.89-0.27c0.19-0.18,0.3-0.46,0.31-0.84
		c0.01-0.16,0.01-0.26,0.01-0.31c0-0.05,0-0.16-0.01-0.32C139.41,56.51,139,56.14,138.2,56.14z M138.85,57.86
		c-0.01,0.23-0.06,0.4-0.16,0.5c-0.1,0.1-0.26,0.15-0.49,0.15h-0.52v-1.9h0.5c0.23,0,0.39,0.05,0.5,0.16
		c0.11,0.1,0.16,0.27,0.17,0.49c0.01,0.16,0.01,0.26,0.01,0.3C138.85,57.6,138.85,57.7,138.85,57.86z"/>
	<path class="st0" d="M141.89,58.51h-1.36v-0.73h1.24c0.03,0,0.05-0.01,0.07-0.03c0.02-0.02,0.03-0.04,0.03-0.07v-0.26
		c0-0.03-0.01-0.05-0.03-0.07c-0.02-0.02-0.04-0.03-0.07-0.03h-1.24v-0.71h1.33c0.03,0,0.05-0.01,0.07-0.03
		c0.02-0.02,0.03-0.04,0.03-0.07v-0.27c0-0.03-0.01-0.05-0.03-0.07c-0.02-0.02-0.04-0.03-0.07-0.03h-1.79
		c-0.03,0-0.05,0.01-0.07,0.03c-0.02,0.02-0.03,0.04-0.03,0.07v2.64c0,0.03,0.01,0.05,0.03,0.07c0.02,0.02,0.04,0.03,0.07,0.03h1.82
		c0.03,0,0.05-0.01,0.07-0.03c0.02-0.02,0.03-0.04,0.03-0.07v-0.28c0-0.03-0.01-0.05-0.03-0.07
		C141.94,58.52,141.92,58.51,141.89,58.51z"/>
	<path class="st0" d="M145.98,56.14h-0.32c-0.05,0-0.09,0.03-0.12,0.08l-0.78,1.45l-0.78-1.45c-0.03-0.05-0.07-0.08-0.12-0.08h-0.33
		c-0.03,0-0.05,0.01-0.07,0.03c-0.02,0.02-0.03,0.04-0.03,0.07v2.64c0,0.03,0.01,0.05,0.03,0.07c0.02,0.02,0.04,0.03,0.07,0.03h0.35
		c0.03,0,0.05-0.01,0.07-0.03c0.02-0.02,0.03-0.04,0.03-0.07v-1.75l0.56,1.07c0.04,0.06,0.08,0.09,0.14,0.09h0.17
		c0.06,0,0.1-0.03,0.13-0.09l0.56-1.07v1.75c0,0.03,0.01,0.05,0.03,0.07c0.02,0.02,0.04,0.03,0.07,0.03h0.35
		c0.03,0,0.05-0.01,0.07-0.03c0.02-0.02,0.03-0.04,0.03-0.07v-2.64c0-0.03-0.01-0.05-0.03-0.07
		C146.03,56.15,146.01,56.14,145.98,56.14z"/>
	<path class="st0" d="M147.2,56.14h-0.39c-0.03,0-0.05,0.01-0.07,0.03c-0.02,0.02-0.03,0.04-0.03,0.07v2.65
		c0,0.03,0.01,0.05,0.03,0.07c0.02,0.02,0.04,0.03,0.07,0.03h0.39c0.03,0,0.05-0.01,0.07-0.03c0.02-0.02,0.03-0.04,0.03-0.07v-2.65
		c0-0.03-0.01-0.05-0.03-0.07C147.25,56.15,147.23,56.14,147.2,56.14z"/>
	<path class="st0" d="M150.49,56.14h-0.32c-0.05,0-0.09,0.03-0.12,0.08l-0.78,1.45l-0.78-1.45c-0.03-0.05-0.07-0.08-0.12-0.08h-0.33
		c-0.03,0-0.05,0.01-0.07,0.03c-0.02,0.02-0.03,0.04-0.03,0.07v2.64c0,0.03,0.01,0.05,0.03,0.07c0.02,0.02,0.04,0.03,0.07,0.03h0.35
		c0.03,0,0.05-0.01,0.07-0.03c0.02-0.02,0.03-0.04,0.03-0.07v-1.75l0.56,1.07c0.04,0.06,0.08,0.09,0.14,0.09h0.17
		c0.06,0,0.1-0.03,0.13-0.09l0.56-1.07v1.75c0,0.03,0.01,0.05,0.03,0.07c0.02,0.02,0.04,0.03,0.07,0.03h0.35
		c0.03,0,0.05-0.01,0.07-0.03c0.02-0.02,0.03-0.04,0.03-0.07v-2.64c0-0.03-0.01-0.05-0.03-0.07
		C150.55,56.15,150.52,56.14,150.49,56.14z"/>
	<path class="st0" d="M153.18,56.39c-0.21-0.19-0.5-0.29-0.85-0.29c-0.36,0-0.65,0.1-0.86,0.29c-0.21,0.19-0.32,0.47-0.33,0.83
		c0,0.08,0,0.19,0,0.35c0,0.15,0,0.27,0,0.34c0.01,0.37,0.12,0.65,0.32,0.83c0.21,0.19,0.49,0.28,0.86,0.28
		c0.37,0,0.66-0.09,0.86-0.28c0.21-0.19,0.32-0.46,0.33-0.83c0.01-0.16,0.01-0.27,0.01-0.34c0-0.08,0-0.19-0.01-0.35
		C153.5,56.86,153.39,56.58,153.18,56.39z M152.92,57.89c-0.01,0.22-0.06,0.39-0.17,0.5c-0.11,0.11-0.25,0.16-0.43,0.16
		c-0.18,0-0.33-0.05-0.43-0.16c-0.11-0.11-0.16-0.28-0.17-0.5c0-0.08,0-0.19,0-0.33c0-0.14,0-0.25,0-0.33
		c0.01-0.22,0.06-0.39,0.17-0.5c0.11-0.11,0.25-0.16,0.43-0.16c0.18,0,0.32,0.05,0.43,0.16c0.11,0.11,0.17,0.28,0.17,0.5
		c0.01,0.16,0.01,0.27,0.01,0.33C152.93,57.62,152.93,57.73,152.92,57.89z"/>
	<path class="st0" d="M155.78,57.52c-0.14-0.07-0.33-0.13-0.57-0.18c-0.18-0.05-0.31-0.09-0.4-0.12c-0.09-0.04-0.16-0.08-0.2-0.13
		c-0.04-0.05-0.06-0.11-0.06-0.18c0-0.11,0.04-0.19,0.13-0.25c0.09-0.06,0.2-0.09,0.35-0.09c0.14,0,0.25,0.03,0.34,0.09
		c0.09,0.06,0.14,0.13,0.16,0.22c0.02,0.05,0.06,0.07,0.12,0.07h0.39c0.02,0,0.04-0.01,0.06-0.03c0.02-0.02,0.02-0.04,0.02-0.06
		c-0.01-0.12-0.05-0.23-0.14-0.35c-0.09-0.12-0.21-0.22-0.37-0.29c-0.16-0.08-0.36-0.12-0.58-0.12c-0.21,0-0.4,0.04-0.56,0.11
		c-0.16,0.07-0.28,0.17-0.37,0.29c-0.09,0.12-0.13,0.26-0.13,0.42c0,0.23,0.07,0.41,0.22,0.54c0.15,0.12,0.38,0.22,0.7,0.3
		c0.19,0.05,0.34,0.1,0.44,0.13c0.1,0.04,0.17,0.08,0.22,0.13c0.05,0.05,0.07,0.11,0.07,0.18c0,0.11-0.05,0.2-0.14,0.26
		c-0.1,0.06-0.24,0.1-0.43,0.1c-0.17,0-0.3-0.03-0.4-0.09c-0.1-0.06-0.16-0.14-0.18-0.23c-0.02-0.02-0.03-0.04-0.05-0.06
		s-0.04-0.02-0.07-0.02h-0.37c-0.02,0-0.04,0.01-0.06,0.03c-0.02,0.02-0.02,0.04-0.02,0.06c0.01,0.14,0.05,0.27,0.14,0.39
		c0.09,0.12,0.22,0.22,0.39,0.29c0.17,0.07,0.38,0.11,0.62,0.11c0.23,0,0.43-0.03,0.61-0.1c0.17-0.07,0.31-0.17,0.41-0.29
		c0.1-0.13,0.14-0.28,0.14-0.46c0-0.16-0.03-0.29-0.1-0.39C156.02,57.67,155.92,57.59,155.78,57.52z"/>
	<path class="st0" d="M158.07,56.24c-0.03-0.07-0.08-0.1-0.15-0.1h-0.45c-0.07,0-0.12,0.03-0.15,0.1l-0.97,2.62l-0.01,0.04
		c0,0.02,0.01,0.04,0.02,0.06c0.02,0.02,0.04,0.02,0.06,0.02h0.36c0.06,0,0.1-0.03,0.12-0.08l0.19-0.49h1.2l0.19,0.49
		c0.02,0.05,0.06,0.08,0.12,0.08h0.36c0.02,0,0.04-0.01,0.06-0.02c0.02-0.02,0.03-0.04,0.03-0.06l-0.01-0.04L158.07,56.24z
		 M157.25,57.94l0.46-1.25l0.46,1.25H157.25z"/>
	<path class="st0" d="M161.12,57.52c-0.14-0.07-0.33-0.13-0.57-0.18c-0.18-0.05-0.31-0.09-0.4-0.12c-0.09-0.04-0.16-0.08-0.2-0.13
		c-0.04-0.05-0.06-0.11-0.06-0.18c0-0.11,0.04-0.19,0.13-0.25c0.09-0.06,0.2-0.09,0.35-0.09c0.14,0,0.25,0.03,0.34,0.09
		c0.09,0.06,0.14,0.13,0.16,0.22c0.02,0.05,0.06,0.07,0.12,0.07h0.39c0.02,0,0.04-0.01,0.06-0.03c0.02-0.02,0.02-0.04,0.02-0.06
		c-0.01-0.12-0.05-0.23-0.14-0.35s-0.21-0.22-0.37-0.29c-0.16-0.08-0.36-0.12-0.58-0.12c-0.21,0-0.4,0.04-0.56,0.11
		c-0.16,0.07-0.28,0.17-0.37,0.29c-0.09,0.12-0.13,0.26-0.13,0.42c0,0.23,0.07,0.41,0.22,0.54c0.15,0.12,0.38,0.22,0.7,0.3
		c0.19,0.05,0.34,0.1,0.44,0.13s0.17,0.08,0.22,0.13c0.05,0.05,0.07,0.11,0.07,0.18c0,0.11-0.05,0.2-0.14,0.26
		c-0.1,0.06-0.24,0.1-0.43,0.1c-0.17,0-0.3-0.03-0.4-0.09c-0.1-0.06-0.16-0.14-0.18-0.23c-0.02-0.02-0.03-0.04-0.05-0.06
		s-0.04-0.02-0.07-0.02h-0.37c-0.02,0-0.04,0.01-0.06,0.03c-0.02,0.02-0.02,0.04-0.02,0.06c0.01,0.14,0.05,0.27,0.14,0.39
		c0.09,0.12,0.22,0.22,0.39,0.29c0.17,0.07,0.38,0.11,0.62,0.11c0.23,0,0.43-0.03,0.61-0.1c0.17-0.07,0.31-0.17,0.41-0.29
		c0.1-0.13,0.14-0.28,0.14-0.46c0-0.16-0.03-0.29-0.1-0.39C161.37,57.67,161.26,57.59,161.12,57.52z"/>
	<path class="st0" d="M111.58,48.12l-8.08-18.48h-6.12L89.3,48.12h6.34l1.24-3.22h7.02l1.24,3.22H111.58z M98.6,40.41l1.79-4.65
		l1.8,4.65H98.6z"/>
	<path class="st0" d="M127.11,45.46c0.65-0.94,0.98-1.99,0.98-3.15c0-1.34-0.36-2.39-1.07-3.17c-0.71-0.77-1.55-1.33-2.52-1.68
		c-0.97-0.34-2.16-0.65-3.56-0.91c-1.09-0.21-1.87-0.41-2.35-0.59c-0.48-0.18-0.71-0.46-0.71-0.83c0-0.77,0.8-1.16,2.4-1.16
		c1.62,0,3.33,0.46,5.15,1.37l1.87-4.51c-0.93-0.53-2.01-0.93-3.23-1.2c-1.22-0.27-2.47-0.41-3.74-0.41c-1.85,0-3.42,0.27-4.71,0.82
		c-1.29,0.55-2.27,1.29-2.92,2.24c-0.65,0.95-0.98,2.01-0.98,3.17c0,1.34,0.35,2.4,1.06,3.18c0.7,0.78,1.53,1.35,2.48,1.69
		c0.95,0.34,2.14,0.66,3.56,0.96c1.11,0.23,1.9,0.44,2.39,0.63c0.48,0.19,0.73,0.48,0.73,0.87c0,0.33-0.18,0.59-0.55,0.75
		c-0.37,0.17-0.99,0.25-1.85,0.25c-1,0-2.05-0.15-3.14-0.46c-1.09-0.31-2.08-0.72-2.96-1.23l-2.01,4.54
		c0.93,0.58,2.13,1.04,3.58,1.39c1.45,0.34,2.94,0.51,4.47,0.51c1.85,0,3.42-0.28,4.71-0.83C125.48,47.15,126.46,46.4,127.11,45.46z
		"/>
	<path class="st0" d="M146.22,40.3c0.69-1.06,1.03-2.29,1.03-3.7c0-1.41-0.34-2.64-1.03-3.7c-0.69-1.06-1.66-1.87-2.93-2.43
		c-1.27-0.56-2.75-0.84-4.46-0.84h-8.9v18.48h6.23v-4.54h2.67c1.71,0,3.19-0.28,4.46-0.84C144.56,42.17,145.53,41.36,146.22,40.3z
		 M140.33,38.2c-0.42,0.38-1.06,0.57-1.9,0.57h-2.27v-4.33h2.27c0.84,0,1.48,0.19,1.9,0.57c0.42,0.38,0.63,0.91,0.63,1.6
		C140.97,37.29,140.75,37.82,140.33,38.2z"/>
	<rect x="149.28" y="29.64" class="st0" width="6.23" height="18.48"/>
	<polygon class="st0" points="175.52,29.64 169.66,39.48 163.64,29.64 158.52,29.64 158.52,48.12 164.2,48.12 164.2,39.98 
		168.21,46.45 170.96,46.45 174.97,39.69 175.02,48.12 180.7,48.12 180.64,29.64 	"/>
	<path class="st0" d="M121.58,19.6l11.28-7.67l6.71,4.56l-13.41,9.12h7.14l20.12-13.68l17.13,11.64c1.95,1.33,4.26,2.04,6.62,2.04
		h3.52L157,9.5l-3.57-2.43l-3.57,2.43l-6.71,4.56l-6.71-4.56l-3.57-2.43l-3.57,2.43l-18.34,12.47h2.93
		C116.63,21.97,119.31,21.15,121.58,19.6z"/>
	<path class="st0" d="M146.82,21.99h4.93v-4.5C149.25,17.69,147.23,19.57,146.82,21.99z"/>
	<path class="st0" d="M152.6,17.5v4.5h4.93C157.12,19.57,155.1,17.69,152.6,17.5z"/>
	<path class="st0" d="M157.53,22.77h-4.93v4.5C155.1,27.08,157.12,25.2,157.53,22.77z"/>
	<path class="st0" d="M151.75,27.27v-4.5h-4.93C147.23,25.2,149.25,27.08,151.75,27.27z"/>
</g>
</svg>
