<?xml version="1.0" encoding="utf-8"?>
<!-- Generator: Adobe Illustrator 23.0.0, SVG Export Plug-In . SVG Version: 6.00 Build 0)  -->
<svg version="1.1" id="Calque_1" xmlns="http://www.w3.org/2000/svg" xmlns:xlink="http://www.w3.org/1999/xlink" x="0px" y="0px"
	 viewBox="0 0 270 66.1" style="enable-background:new 0 0 270 66.1;" xml:space="preserve">
<style type="text/css">
	.st0{fill:#FFFFFF;}
	.st1{fill:url(#SVGID_1_);}
	.st2{fill:url(#SVGID_2_);}
	.st3{fill:url(#SVGID_3_);}
	.st4{fill:url(#SVGID_4_);}
	.st5{fill:url(#SVGID_5_);}
	.st6{fill:url(#SVGID_6_);}
	.st7{fill:url(#SVGID_7_);}
	.st8{fill:url(#SVGID_8_);}
	.st9{fill:url(#SVGID_9_);}
	.st10{fill:url(#SVGID_10_);}
	.st11{fill:url(#SVGID_11_);}
	.st12{fill:url(#SVGID_12_);}
	.st13{fill:url(#SVGID_13_);}
	.st14{fill:url(#SVGID_14_);}
	.st15{fill:url(#SVGID_15_);}
	.st16{fill:url(#SVGID_16_);}
	.st17{fill:url(#SVGID_17_);}
	.st18{fill:url(#SVGID_18_);}
	.st19{fill:url(#SVGID_19_);}
	.st20{fill:url(#SVGID_20_);}
	.st21{fill:url(#SVGID_21_);}
	.st22{fill:url(#SVGID_22_);}
	.st23{fill:url(#SVGID_23_);}
	.st24{fill:url(#SVGID_24_);}
	.st25{fill:url(#SVGID_25_);}
	.st26{fill:url(#SVGID_26_);}
	.st27{fill:url(#SVGID_27_);}
	.st28{fill:url(#SVGID_28_);}
	.st29{fill:url(#SVGID_29_);}
	.st30{fill:url(#SVGID_30_);}
	.st31{fill:url(#SVGID_31_);}
	.st32{fill:url(#SVGID_32_);}
	.st33{clip-path:url(#XMLID_2_);fill:#FFFFFF;}
	.st34{clip-path:url(#XMLID_3_);fill:#FFFFFF;}
	.st35{clip-path:url(#XMLID_4_);fill:#FFFFFF;}
	.st36{clip-path:url(#XMLID_5_);fill:#FFFFFF;}
	.st37{clip-path:url(#XMLID_6_);fill:#FFFFFF;}
	.st38{clip-path:url(#XMLID_7_);fill:#FFFFFF;}
	.st39{clip-path:url(#XMLID_8_);fill:#FFFFFF;}
	.st40{clip-path:url(#XMLID_9_);fill:#FFFFFF;}
	.st41{clip-path:url(#XMLID_10_);fill:#FFFFFF;}
	.st42{clip-path:url(#XMLID_11_);fill:#FFFFFF;}
	.st43{clip-path:url(#XMLID_12_);fill:#FFFFFF;}
	.st44{clip-path:url(#XMLID_13_);fill:#FFFFFF;}
	.st45{clip-path:url(#XMLID_14_);fill:#FFFFFF;}
</style>
<g>
	<g>
		<path class="st0" d="M82.41,11.57c-11.86,0-21.48,9.61-21.48,21.48s9.61,21.48,21.48,21.48c11.86,0,21.48-9.61,21.48-21.48
			S94.27,11.57,82.41,11.57z M82.41,53.59c-11.34,0-20.54-9.2-20.54-20.54c0-11.34,9.19-20.54,20.54-20.54
			c11.34,0,20.54,9.19,20.54,20.54C102.95,44.39,93.75,53.59,82.41,53.59z"/>
		<path class="st0" d="M73.29,37.69c-0.19-0.3-0.35-0.79-0.68-0.95c-0.2-0.12-1.21,0.79-1.43,0.95c-0.56,0.42-1.06,0.93-1.68,1.29
			c-0.43,0.25-1.15,0.41-1.43,0.82c-0.2,0.29-0.14,1.07-0.04,1.45h6.39C74.65,39.98,73.77,38.48,73.29,37.69z"/>
		<path class="st0" d="M88.65,37.92c-0.13-0.69-1.03-1.62-1.49-2.01c-0.76,0.6-0.76,1.99-1.09,3.03c-0.2,0.5-0.39,1-0.59,1.5
			c-0.06,0.27,0.07,0.59,0.26,0.82h2.17c-0.29-0.19-0.47-0.47-0.44-0.89C87.54,39.42,88.85,39,88.65,37.92z"/>
		<path class="st0" d="M83.87,32.84c-0.06-0.07-0.12-0.14-0.18-0.2c-0.15,0.04-0.17,0.17-0.27,0.2l-0.45-0.07
			c-0.56,0.2-1.12,0.41-1.68,0.61c-0.39,0.15-0.67,0.39-1.13,0.48c-1.53,0.29-3.48-0.12-4.76,0.41c-0.32,0.69,0.6,1.56,0.79,1.99
			c0.41,0.93,0.33,2.26,0.75,3.19c0.2,0.31,0.39,0.62,0.59,0.93c0.57,0.42,0.67,0.26,0.93,0.86h3.67c0.03-0.08,0.06-0.17,0.11-0.25
			c0.17-0.28,0.35-0.56,0.52-0.84c0.04-0.32,0.08-0.63,0.11-0.95c0.16-0.64,0.35-1.3,0.5-1.97c-0.01-0.27-0.03-0.54-0.05-0.82
			c0.15-0.44,0.3-0.89,0.46-1.34C83.81,34.34,83.84,33.59,83.87,32.84z"/>
		<path class="st0" d="M82.31,13.26c-10.91,0-19.76,8.84-19.76,19.76c0,2.94,0.65,5.73,1.8,8.23h0.91c-0.14-0.5-0.29-1.14-0.56-1.52
			c0.01-0.23,0.12-0.34,0.16-0.52c-0.01-0.13-0.03-0.26-0.04-0.39c0.06-0.08,0.12-0.17,0.18-0.25c0.09-0.28-0.17-0.46,0.05-0.82
			c0.25-0.42,0.75-0.63,1.02-1.02c0.33-0.48,0.57-1.26,0.72-1.86c0.53-2.04,0.04-4.84,0.5-6.91c0.18-0.81,0.48-1.5,0.75-2.2
			c0.05-0.21,0.11-0.42,0.16-0.63c0.79-1.34,3.28-3.37,4.85-3.92c0.24-0.04,0.48-0.08,0.73-0.11c0.77-0.22,1.62-0.46,2.47-0.66
			l1.11,0.04c0.75-0.13,1.87-0.22,2.72-0.09c0.27-0.02,0.54-0.04,0.81-0.07c0.29,0.05,0.69,0.19,1.07,0.09
			c0.53-0.22,1.06-0.44,1.59-0.66c0.46-0.18,0.89-0.19,1.4-0.36c0.42-0.14,0.8-0.41,1.29-0.5c0.69-0.13,2.08,0.08,2.58,0.29
			c0.3,0.18,0.6,0.36,0.9,0.54c0.32,0.08,0.64,0.17,0.95,0.25c0.26,0.07,0.56,0.01,0.88,0.07c0.71,0.12,1.4,0.24,1.88,0.59
			c1.9,1.38,2.77,4.05,3.44,6.66c0.04,0.38,0.08,0.75,0.12,1.13c0.1,0.51,0.19,1.18,0.29,1.75c0.08,0.43-0.13,0.51-0.06,0.86
			c0.08,0.42-0.08,1.78-0.18,2.15c-0.11,0.41-0.36,0.88-0.2,1.43c0.06,0.11,0.23,0.22,0.34,0.27c-0.02,0.13-0.05,0.26-0.07,0.39
			c0.3,0.25,0.59,0.5,0.88,0.75c-0.01,0.07-0.01,0.13-0.02,0.2c-0.57-0.04-0.88-0.38-1.36-0.43c-0.05,0.03-0.11,0.06-0.16,0.09
			c-0.22,1.15,0.28,2.05,0.61,2.81c0.14,0.32,0.43,0.77,0.32,1.31c-0.13,0.63-0.86,1.01-1.47,0.61c-0.07-0.04-0.14-0.09-0.2-0.14
			c-0.11-0.26,0.27-0.55,0.41-0.61c0.23-0.49-0.8-1.89-0.97-2.44c-0.3-0.94,0.28-2.19-0.12-3.19l-0.63-0.64
			c-0.73-0.97-1.63-1.83-1.59-3.51c-0.33-0.37-1.73-1.14-2.31-1.22c-0.39,0.38-0.93,0.51-1.22,1c-0.26,0.42-0.86,2.02-0.55,2.72
			c0.39,0.49,0.77,0.98,1.16,1.47c0.22,0.49,0.44,0.98,0.66,1.47c0.15,0.17,0.3,0.33,0.45,0.5c0.08,0.23,0.17,0.45,0.25,0.68
			c0.18,0.3,0.54,0.55,0.63,0.93c0.38,1.46-1.08,2.23-0.84,3.61h9.25c1.15-2.51,1.8-5.3,1.8-8.23
			C102.07,22.1,93.22,13.26,82.31,13.26z"/>
		<path class="st0" d="M91.44,43.91c-0.61-0.35-0.91-0.28-0.91-0.28s-2.1-0.06-3.13,2.3c-0.57,1.1-0.08,1.89-0.08,1.89
			s0.2,0.62,1.22,0.59c0.5-0.03,0.94-0.08,0.94-0.08s-0.03,0.82-2.79,1.75c-0.01,0.05-0.15,0.25-0.08,0.35
			c0.07,0.09,2.19-0.46,3.33-1.43c1.14-0.96,1.76-2.07,1.91-2.81C91.99,45.46,92.32,44.45,91.44,43.91z M90.19,47.15
			c-0.38,0.72-1.64,0.63-1.64,0.63s-0.67-0.2-0.2-1.13c1.02-2.48,2.07-2.27,2.07-2.27v-0.02c0,0,0.68-0.02,0.64,0.66
			C90.84,46.03,90.57,46.43,90.19,47.15z"/>
		<path class="st0" d="M85.48,43.49c0,0-2.26-0.28-3.68,2.47c-0.75,1.64,0.44,2.4,0.44,2.4s1.39,0.75,2.85-0.54
			c1.46-1.29,1.84-1.72,1.85-3.02C86.89,43.53,85.48,43.49,85.48,43.49z M85.22,46.66c-1.13,1.64-2.17,1.16-2.17,1.16
			s-0.87-0.02-0.22-1.67c0.82-1.9,2.42-1.91,2.42-1.91S86.81,44.18,85.22,46.66z"/>
		<path class="st0" d="M80.65,43.95c-0.61-0.35-0.91-0.28-0.91-0.28s-2.1-0.06-3.13,2.3c-0.57,1.1-0.08,1.89-0.08,1.89
			s0.2,0.61,1.22,0.59c0.5-0.03,0.94-0.08,0.94-0.08s-0.03,0.82-2.79,1.75c-0.01,0.05-0.15,0.25-0.08,0.35
			c0.07,0.09,2.19-0.46,3.33-1.43c1.14-0.97,1.76-2.08,1.91-2.81C81.2,45.51,81.53,44.49,80.65,43.95z M79.4,47.19
			c-0.37,0.72-1.63,0.63-1.63,0.63s-0.67-0.2-0.2-1.14c1.02-2.48,2.06-2.26,2.06-2.26v-0.01c0,0,0.68-0.03,0.65,0.65
			C80.04,46.07,79.78,46.47,79.4,47.19z"/>
		<path class="st0" d="M74.75,48.3c-0.13-0.01-0.5,0.04-0.57-0.02c-0.07-0.06,0-0.43,0.05-0.52c0.14-0.28,1.66-4.04,1.66-4.04
			s0.05-0.08-0.03-0.09c-0.07-0.01-0.7,0.63-2.03,0.67c-0.18,0.1-0.21,0.19-0.19,0.26c0.01,0.07,0.1,0.13,0.64,0.06
			c0.06,0,0.12,0.15,0.07,0.31c-0.05,0.16-1.25,2.81-1.25,2.81s-0.12,0.39-0.82,0.5c-0.19,0.11-0.29,0.35-0.16,0.35
			c0.13,0,2.4-0.01,2.52-0.01C74.75,48.57,74.83,48.33,74.75,48.3z"/>
		<path class="st0" d="M67.22,39.46c0.37-0.16,0.8-0.01,1.14-0.18c0.92-0.47,1.56-1.11,2.34-1.72l0.52-0.3
			c0.08-0.12,0.17-0.23,0.25-0.34c0.48-0.3,0.95-0.61,1.43-0.91c0.44-0.33,0.41-0.62,1.09-0.82c0.02-0.42,0.91-1.19,1.23-1.34
			l0.91-0.14v-0.13c-0.25-0.28-1.09-0.63-1.48-0.5c-0.17,0.06-0.25,0.26-0.36,0.39h-0.16c-0.09-0.74,0.89-1.04,1.59-0.93
			c2.41,0.36,5.52-0.37,6.84-1.68c0.49-0.48,1.2-3.32,1.07-4.29c0.05-0.46,0.11-0.92,0.16-1.39c-0.07-0.38-0.31-0.55-0.45-0.82
			c-0.36-0.67-1.11-2.08-0.77-3.02c0.13-0.36,0.52-0.75,0.75-1.04c-0.01-0.02-0.02-0.03-0.02-0.04c-0.59,0.07-1.24,0.31-1.93,0.45
			c-1.59,0.02-3.18,0.03-4.77,0.05c-0.86,0.15-1.99,0.24-2.88,0.52c-0.25,0.08-0.55,0.32-0.77,0.45c-0.35,0.22-0.78,0.29-1.13,0.48
			c-1.18,0.63-2.84,2.17-3.42,3.35c-1.29,2.63-0.7,5.74-1.28,8.93c-0.14,0.81-0.65,2.04-1.09,2.59c-0.17,0.21-0.8,0.5-0.73,0.82
			c0.03,0.18,0.1,0.19,0.27,0.16c0.16-0.25,0.46-0.49,0.66-0.73c0.35-0.4,0.6-1.01,0.84-1.5c0.25-0.51,0.4-2.07,0.75-2.34h0.02
			c0.02,0.02,0.05,0.04,0.07,0.07c-0.04,1.15-0.72,2.05-0.82,3.02c0.01,0.01,0.01,0.02,0.02,0.02h0.11c0.78-0.6,1.33-1.51,1.95-2.27
			c0.24,0.01,0.34,0.13,0.48,0.23v0.09c-0.28,0.3-0.73,0.46-1.02,0.75c-0.17,0.25-0.35,0.5-0.52,0.75
			c-0.16,0.13-0.32,0.26-0.48,0.39c-0.2,0.25-0.38,0.52-0.61,0.73c-0.74,0.68-1.89,1.32-2.11,2.43c0.45-0.01,0.37,1.14,0.5,1.56
			h2.13c0.37-1.03-0.24-0.93-0.39-1.7C67.16,39.51,67.17,39.49,67.22,39.46z M69.29,29.53c0.04,0.01,0.09,0.02,0.13,0.03
			c0.09,0.02,0.19,0.02,0.28,0.02c0.02,0,0.05,0,0.07,0c0.07,0,0.12,0.01,0.17,0.03c0,0.04,0,0.07-0.01,0.09c0,0.01,0,0.01,0,0.02
			c-0.01,0.03-0.02,0.05-0.03,0.08c-0.12,0-0.31-0.01-0.51-0.02c-0.16-0.01-0.33-0.02-0.49-0.01c-0.28,0-0.52,0.03-0.61,0.12
			c-0.02,0.02-0.03,0.04-0.05,0.07c-0.02,0.05-0.04,0.11-0.07,0.16c-0.01,0.03-0.03,0.05-0.05,0.07c-0.04-0.01-0.09-0.01-0.14-0.02
			c-0.05-0.32-0.07-0.67,0.09-0.93c0.1-0.01,0.2-0.01,0.3-0.02C68.64,29.33,68.98,29.45,69.29,29.53z M69.22,32.9
			c-0.02,0.01-0.03,0.02-0.05,0.03c-0.07-0.04-0.11-0.1-0.14-0.16c-0.01-0.01-0.01-0.02-0.01-0.04C69.01,32.7,69,32.68,69,32.65
			c0-0.01-0.01-0.03-0.01-0.04c-0.03-0.09-0.06-0.18-0.16-0.24c-0.09-0.06-0.18-0.11-0.27-0.15c-0.09-0.05-0.18-0.09-0.26-0.13
			c-0.13-0.08-0.25-0.16-0.32-0.29c-0.06-0.1-0.08-0.22-0.07-0.39c0-0.04,0.01-0.08,0.02-0.13c0.04-0.24-0.02-0.36,0.09-0.54h0.11
			c0.03,0.03,0.06,0.05,0.09,0.07c0.03,0.19,0.08,0.35,0.13,0.5c0.02,0.06,0.04,0.11,0.06,0.16c0.2,0.44,0.5,0.65,0.91,0.82
			c0.1,0.04,0.2,0.08,0.31,0.11c0.11,0.04,0.23,0.07,0.35,0.11c0,0.02-0.01,0.04-0.01,0.06c0,0.02-0.01,0.04-0.01,0.06
			c-0.17,0.01-0.29,0.04-0.4,0.09C69.44,32.77,69.34,32.83,69.22,32.9z"/>
		<path class="st0" d="M96.6,40.59c0.16-0.08,0.31-0.13,0.46-0.2c0.24-0.9-0.03-0.68-0.33-1.35c-0.25-0.56-0.38-1.13-0.49-1.64
			c-0.25-1.16,0.57-1.21-0.47-2.05c-0.34,0.02-0.41,0.82-0.33,1.24c0.11,0.56,0.03,1.12,0.3,1.74c0.22,0.5,0.71,1.04,0.94,1.5
			C96.83,40.15,96.34,40.46,96.6,40.59z"/>
		<path class="st0" d="M96.55,27.93c-0.04-0.35-0.08-0.7-0.11-1.04c-0.55-2.19-1.31-4.63-2.97-5.72c-0.16-0.15-0.32-0.3-0.48-0.46
			c-0.43-0.22-0.92-0.27-1.45-0.34c-0.27-0.04-0.59,0.08-0.91,0c-0.81-0.22-1.62-0.65-2.29-1c-0.26-0.05-0.51-0.11-0.77-0.16
			c-0.53,0.01-1.06,0.01-1.59,0.02c-0.19,0.08-0.38,0.15-0.57,0.23c-0.14,0.03-0.29,0.06-0.43,0.09c-0.87,0.56-1.77,1.31-2.09,2.41
			c-0.12,0.41,0.03,0.94,0.18,1.18c0.26,0.42,0.7,0.73,0.93,1.18c0.4,0.76,0.57,1.49,1.18,2.02c0.42,0.37,1.11,0.38,1.54,0.75v0.07
			c-0.19,0.08-0.59-0.06-0.77,0.07c-0.05,0.05-0.11,0.09-0.16,0.14c0.21,0.88-0.85,2.26-1.11,3.02c-0.3,0.89-0.45,2.1-0.68,2.98
			c-0.12,0.46,0.08,1.3,0.02,1.61c-0.12,0.3-0.24,0.61-0.36,0.91c-0.02,0.31-0.05,0.62-0.07,0.93c-0.05,0.15-0.11,0.3-0.16,0.45
			c0.06,0.77-0.61,2.05-0.43,2.51c0.04,0.05,0.08,0.11,0.11,0.16c0.26,0.05,0.36-0.03,0.61-0.07c0.02,0.03,0.03,0.06,0.05,0.09
			c-0.31,0.52-1.4,0.79-1.45,1.23c0.01,0.01,0.05,0.06,0.06,0.07h3.02c-0.1-0.08-0.21-0.15-0.31-0.23c-0.02-0.78,0.36-1.31,0.57-1.9
			c0.14-0.4,0.09-0.81,0.25-1.23c0.21-0.56,0.51-1.23,0.68-1.75c0.15-0.47,0.25-1.09,0.64-1.32c0.01,0.01,0.03,0.01,0.05,0.02
			c-0.02,0.15-0.05,0.3-0.07,0.46c0.06,0.27,0.38,0.46,0.52,0.66c0.12,0.22,0.24,0.46,0.36,0.68c0.26,0.44,0.88,0.89,0.95,1.47
			c0.03,0.25-0.15,0.23-0.21,0.37c-0.11,0.24,0.2,0.53,0.05,0.7c-0.16,0.1-0.32-0.06-0.48,0.03c-0.26,0.21-0.69,0.92-0.39,1.26
			c0.33,0.34,1.75,1.17,2.26,0.46c0.21-0.29,0.13-0.97,0.34-1.32c0.29-0.48,0.73-0.45,0.9-1.09c-0.01-0.12-0.01-0.24-0.02-0.36
			c0.03-0.14,0.06-0.29,0.09-0.43c-0.23-1.03-1.14-1.76-1.62-2.54c-0.08-0.23-0.17-0.47-0.25-0.7c-0.18-0.38-0.94-1.47-1.29-1.66
			c-0.05,0.03-0.11,0.06-0.16,0.09c-0.09,0.41-0.32,0.67-0.43,1.07h-0.11c-0.02-0.03-0.03-0.05-0.04-0.07
			c0.05-0.78,0.68-1.76,0.5-2.77c-0.12-0.66-0.5-1.12-0.8-1.63c-0.11-0.12-0.23-0.24-0.34-0.36c-0.14-0.32,0.11-0.54,0.36-0.57
			c0.29,0.19,0.27,0.28,0.41,0.57h0.16c0.16-0.11,0.32-0.23,0.48-0.34c0.21-0.05,0.46,0.02,0.62-0.05c0.02-0.04,0.04-0.08,0.07-0.11
			c0.06-0.15-0.04-0.32-0.09-0.43c-0.86-0.11-0.72-1.02-0.98-1.7c-0.15-0.22-0.3-0.44-0.45-0.66c0.02-0.02,0.05-0.05,0.07-0.07
			c0.49,0.16,0.57,0.71,0.93,1c0.22,0.18,0.58,0.08,0.73,0.41v0.36c0.02,0.45,0.04,0.79,0.3,1h0.09c0.42-0.59,0.03-1.27,0.18-1.66
			c0.04,0.01,0.08,0.02,0.11,0.02c-0.01,0.38,0.35,0.92,0.64,1h0.5c0.14,0.01,0.3,0.05,0.39-0.05c0.34-0.17-0.03-0.71,0.23-0.98
			c0.03-0.04,0.06-0.07,0.09-0.11c0.83,0.25,0.78,1.14,0.98,1.97v0.45c0.14,0.19,0.27,0.38,0.41,0.57c0.15,0.01,0.26,0.03,0.34-0.07
			c0.14-0.08,0.19-0.24,0.32-0.34c0.14,0.08,0.17,0.32,0.27,0.46h0.16c0.63-0.38,0.2-0.53,0.48-1.09c0.54,0.02,0.57,1.03,0.66,1.54
			c0.23,1.33,0.43,2.4,0.23,3.6c-0.04,0.03-0.08,0.06-0.11,0.09c-0.04-0.01-0.09-0.02-0.14-0.02c-0.81-0.41-1.43-2.86-1.64-3.78
			c-0.13-0.05-0.27-0.18-0.43-0.13c-0.11,0.05-0.21,0.1-0.32,0.16c-0.19,0.83,1.27,3.02,1.71,3.5c0.16,0.13,0.32,0.26,0.48,0.39
			c0.28,0.31,0.57,1.07,1.09,1.13c0.03-0.01,0.06-0.01,0.09-0.02c0.1-0.26,0.08-0.52,0.16-0.86c0.1-0.28,0.2-0.56,0.29-0.84
			c0.08-0.35,0.02-0.69,0.09-0.95c0.13-0.51-0.14-1.2-0.04-1.64C97.06,30.24,96.71,28.65,96.55,27.93z M88.47,22.46
			c-0.35,0.22-0.47,0.83-0.79,1.09c-0.04-0.03-0.08-0.06-0.12-0.09c0.07-0.53,0.67-1.53-0.02-1.89c-0.3,0.03-0.59,0.06-0.89,0.09
			c-0.35,0.1-2.13,0.74-2.38,0.64c-0.05-0.03-0.04-0.03-0.07-0.07c0.09-0.83,1.95-0.76,2.77-0.91c0.02-0.03,0.04-0.06,0.07-0.09
			v-0.07c-0.3-0.19-0.13-0.45-0.27-0.55c-0.37-0.26-1.34,0.03-1.82-0.02v-0.16c0.02-0.03,0.04-0.06,0.07-0.09
			c0.46-0.13,0.88-0.31,1.45-0.39l1.43,0.13c0.61,0.14,1.66,0.94,1.66,1.66C89.29,22.17,88.89,22.19,88.47,22.46z M94.48,24.7
			c-0.42,0.11-0.78-0.07-0.79-0.5c0.06-0.11,0.11-0.18,0.23-0.23c0.08-0.02,0.17-0.03,0.25-0.05c0.09,0.06,0.19,0.07,0.25,0.16
			c0.09,0.13,0.15,0.24,0.16,0.46C94.54,24.6,94.51,24.65,94.48,24.7z"/>
	</g>
	<g>
		<path class="st0" d="M142.53,51.09c-0.24,0.35-0.39,0.94-0.39,1.29c0,0.37,0.16,0.62,0.59,0.62c1.34,0,1.74-1.9,1.88-2.37
			c-0.24-0.03-0.59-0.07-0.81-0.07C143.22,50.55,142.8,50.73,142.53,51.09z"/>
		<path class="st0" d="M126.65,41.4c1.31-0.14,2.41-0.53,3.3-1.15c0.89-0.63,1.6-1.46,2.11-2.51c0.52-1.04,0.77-2.12,0.77-3.23
			c0-1.41-0.4-2.63-1.2-3.67c-0.8-1.04-1.94-1.78-3.42-2.21c1.05-0.48,1.89-1.19,2.5-2.15c0.61-0.95,0.92-2,0.92-3.14
			c0-1.05-0.25-2-0.75-2.85c-0.5-0.85-1.12-1.53-1.87-2.04c-0.75-0.51-1.6-0.84-2.55-1.01c-0.94-0.16-2.38-0.24-4.31-0.24h-9.74
			v24.37h8.3C123.85,41.54,125.83,41.49,126.65,41.4z M117.34,21.25h2.82c2.32,0,3.72,0.03,4.21,0.08c0.82,0.1,1.43,0.38,1.85,0.86
			c0.41,0.47,0.62,1.08,0.62,1.84c0,0.79-0.24,1.42-0.72,1.9c-0.48,0.48-1.14,0.77-1.99,0.87c-0.47,0.06-1.66,0.08-3.57,0.08h-3.22
			V21.25z M117.34,30.94h3.97c2.24,0,3.69,0.12,4.36,0.35c0.67,0.23,1.18,0.61,1.54,1.11c0.35,0.51,0.53,1.13,0.53,1.86
			c0,0.86-0.23,1.55-0.69,2.07c-0.46,0.52-1.06,0.84-1.79,0.97c-0.48,0.1-1.6,0.15-3.37,0.15h-4.56V30.94z"/>
		<path class="st0" d="M148.08,41.98c2.61,0,4.77-0.64,6.47-1.93c1.7-1.29,2.92-3.27,3.65-5.93l-4.77-1.51
			c-0.41,1.79-1.08,3.09-2.02,3.92c-0.94,0.83-2.07,1.25-3.38,1.25c-1.77,0-3.21-0.66-4.32-1.96c-1.11-1.31-1.66-3.5-1.66-6.58
			c0-2.9,0.56-5,1.69-6.3c1.12-1.3,2.59-1.95,4.39-1.95c1.31,0,2.42,0.37,3.34,1.1c0.91,0.73,1.51,1.73,1.8,2.99l4.87-1.16
			c-0.55-1.95-1.38-3.45-2.49-4.49c-1.86-1.76-4.28-2.64-7.26-2.64c-3.41,0-6.16,1.12-8.26,3.37c-2.09,2.24-3.14,5.39-3.14,9.45
			c0,3.83,1.04,6.86,3.13,9.07C142.18,40.88,144.84,41.98,148.08,41.98z"/>
		<path class="st0" d="M176.87,41.05c1.45-0.46,2.6-1.12,3.46-1.95c1.13-1.1,2-2.53,2.61-4.31c0.5-1.45,0.75-3.18,0.75-5.19
			c0-2.28-0.27-4.2-0.8-5.76c-0.53-1.56-1.31-2.88-2.33-3.95c-1.02-1.07-2.25-1.82-3.68-2.24c-1.06-0.31-2.61-0.46-4.64-0.46h-8.99
			v24.37h9.26C174.33,41.57,175.78,41.39,176.87,41.05z M168.18,37.46V21.32h2.21c2,0,3.35,0.08,4.04,0.23
			c0.92,0.2,1.68,0.58,2.28,1.15c0.6,0.56,1.06,1.35,1.4,2.36c0.33,1.01,0.49,2.45,0.49,4.34c0,1.88-0.16,3.37-0.49,4.46
			c-0.33,1.09-0.77,1.87-1.29,2.35c-0.53,0.48-1.19,0.81-1.99,1.01c-0.61,0.16-1.6,0.23-2.97,0.23H168.18z"/>
		<path class="st0" d="M198.95,41.98c2.62,0,4.77-0.64,6.47-1.93c1.7-1.29,2.92-3.27,3.65-5.93l-4.77-1.51
			c-0.41,1.79-1.08,3.09-2.02,3.92c-0.94,0.83-2.07,1.25-3.38,1.25c-1.77,0-3.21-0.66-4.32-1.96c-1.11-1.31-1.66-3.5-1.66-6.58
			c0-2.9,0.56-5,1.69-6.3c1.12-1.3,2.59-1.95,4.4-1.95c1.31,0,2.42,0.37,3.34,1.1c0.91,0.73,1.51,1.73,1.8,2.99l4.87-1.16
			c-0.55-1.95-1.39-3.45-2.49-4.49c-1.86-1.76-4.28-2.64-7.26-2.64c-3.41,0-6.16,1.12-8.26,3.37c-2.09,2.24-3.14,5.39-3.14,9.45
			c0,3.83,1.04,6.86,3.12,9.07C193.05,40.88,195.71,41.98,198.95,41.98z"/>
		<path class="st0" d="M160.28,50.69c0-0.33-0.31-0.61-0.9-0.61c-1.03,0-2.26,1.16-2.26,2.33c0,0.58,0.43,1.01,1.23,1.01
			c1.09,0,1.88-0.89,1.88-1.04c0-0.05-0.04-0.08-0.09-0.08c-0.14,0-0.45,0.67-1.41,0.67c-0.78,0-0.88-0.37-0.94-0.63
			C158.69,52.25,160.28,51.65,160.28,50.69z M157.79,52.17c0-0.06-0.01-0.12-0.01-0.17c0-0.69,0.28-1.49,1.19-1.49
			c0.45,0,0.67,0.07,0.67,0.38C159.63,51.82,158.3,52.08,157.79,52.17z"/>
		<path class="st0" d="M168.07,50.36c0-0.16-0.1-0.28-0.34-0.28c-0.76,0-1.19,1.04-1.42,1.65l-0.02-0.02
			c0.12-0.43,0.18-0.74,0.18-1.07c0-0.34-0.07-0.56-0.4-0.56c-0.44,0-0.9,0.74-0.9,0.85c0,0.05,0.02,0.1,0.08,0.1
			c0.14,0,0.34-0.51,0.51-0.51c0.1,0,0.1,0.17,0.1,0.33c0,0.74-0.47,2.24-0.53,2.45h0.61c0.16-0.55,0.53-1.86,1.07-2.53
			c0.1,0.07,0.16,0.13,0.38,0.13C167.77,50.9,168.07,50.64,168.07,50.36z"/>
		<path class="st0" d="M170.99,50.05c-0.09,0-0.14,0.12-0.2,0.25c-0.18-0.09-0.41-0.22-0.87-0.22c-0.91,0-1.71,0.59-1.71,1.22
			c0,0.76,2.07,0.65,2.07,1.28c0,0.26-0.28,0.48-0.68,0.48c-0.72,0-1.27-0.22-1.53-0.53c0.03-0.15,0.07-0.44,0.07-0.48
			c0-0.05-0.04-0.09-0.09-0.09c-0.13,0-0.15,0.38-0.32,0.92c-0.12,0.4-0.17,0.44-0.17,0.52c0,0.04,0.03,0.08,0.07,0.08
			c0.1,0,0.14-0.15,0.21-0.29c0.24,0.11,0.6,0.24,0.95,0.24c0.49,0,0.87-0.02,1.32-0.31c0.28-0.2,0.54-0.45,0.54-0.92
			c0-0.26-0.21-0.46-0.52-0.58c-0.66-0.24-1.59-0.34-1.59-0.72c0-0.24,0.47-0.38,0.92-0.38c0.64,0,0.97,0.16,1.12,0.38
			c-0.03,0.15-0.05,0.28-0.05,0.4c0,0.04,0.03,0.09,0.09,0.09c0.13,0,0.14-0.39,0.26-0.74c0.11-0.32,0.18-0.48,0.18-0.53
			C171.07,50.08,171.04,50.05,170.99,50.05z"/>
		<path class="st0" d="M177.98,45.81c-0.58,0-1.12,0.93-1.12,1.04c0,0.05,0.03,0.08,0.08,0.08c0.05,0,0.08-0.02,0.1-0.06
			c0.17-0.23,0.41-0.64,0.55-0.64c0.08,0,0.08,0.07,0.08,0.13c0,0.2-0.09,0.55-0.16,0.78l-0.88,3.13c-0.17-0.05-0.62-0.19-0.91-0.19
			c-1.17,0-2.4,1.56-2.4,2.59c0,0.5,0.39,0.76,0.97,0.76c1.04,0,1.4-0.59,1.73-1.03l0.02,0.03c-0.1,0.33-0.11,0.34-0.11,0.63
			c0,0.21,0.15,0.37,0.43,0.37c0.57,0,0.98-0.69,0.98-0.76c0-0.04-0.03-0.08-0.08-0.08c-0.11,0-0.37,0.47-0.56,0.47
			c-0.13,0-0.17-0.08-0.17-0.22c0-0.15,0.13-0.6,0.4-1.6l1.01-3.47c0.16-0.54,0.37-1.31,0.37-1.41
			C178.31,46.12,178.31,45.81,177.98,45.81z M174.69,52.95c-0.71,0-0.72-0.26-0.72-0.61c0-0.61,0.48-1.93,1.23-1.93
			c0.47,0,0.93,0.16,1.31,0.29C176.2,51.52,175.97,52.95,174.69,52.95z"/>
		<path class="st0" d="M163.94,50.28c-0.06,0.25-0.42,1.31-0.83,1.76c-0.2,0.22-0.35,0.49-0.56,0.67c-0.21,0.18-0.42,0.29-0.66,0.29
			c-0.17,0-0.37-0.06-0.37-0.23c0-0.09,0.1-0.34,0.17-0.58l0.36-1.03c0.08-0.22,0.22-0.62,0.22-0.75c0-0.17-0.11-0.33-0.35-0.33
			c-0.54,0-1.07,0.73-1.07,0.86c0,0.05,0.02,0.09,0.07,0.09c0.15,0,0.46-0.59,0.62-0.59c0.05,0,0.09,0.06,0.09,0.1
			c0,0.11-0.05,0.22-0.18,0.58l-0.3,0.88c-0.13,0.39-0.31,0.8-0.31,0.96c0,0.34,0.3,0.46,0.68,0.46c1.14,0,1.87-1.42,2.07-1.87
			l0.02,0.03c-0.16,0.44-0.38,1.12-0.38,1.48c0,0.15,0.05,0.37,0.33,0.37c0.52,0,1.02-0.82,1.02-0.91c0-0.05-0.03-0.09-0.09-0.09
			c-0.13,0-0.35,0.55-0.55,0.55c-0.05,0-0.08-0.08-0.08-0.13c0-0.47,0.59-2.24,0.75-2.64L163.94,50.28z"/>
		<path class="st0" d="M156.83,50.05c-0.09,0-0.14,0.12-0.21,0.25c-0.18-0.09-0.41-0.22-0.88-0.22c-0.91,0-1.7,0.59-1.7,1.22
			c0,0.76,2.07,0.65,2.07,1.28c0,0.26-0.28,0.48-0.68,0.48c-0.72,0-1.27-0.22-1.53-0.53c0.03-0.15,0.08-0.44,0.08-0.48
			c0-0.05-0.05-0.09-0.09-0.09c-0.13,0-0.15,0.38-0.32,0.92c-0.12,0.4-0.17,0.44-0.17,0.52c0,0.04,0.03,0.08,0.08,0.08
			c0.1,0,0.14-0.15,0.22-0.29c0.24,0.11,0.59,0.24,0.95,0.24c0.49,0,0.87-0.02,1.32-0.31c0.28-0.2,0.54-0.45,0.54-0.92
			c0-0.26-0.22-0.46-0.52-0.58c-0.66-0.24-1.59-0.34-1.59-0.72c0-0.24,0.46-0.38,0.92-0.38c0.64,0,0.97,0.16,1.13,0.38
			c-0.03,0.15-0.06,0.28-0.06,0.4c0,0.04,0.03,0.09,0.09,0.09c0.13,0,0.14-0.39,0.26-0.74c0.11-0.32,0.18-0.48,0.18-0.53
			C156.9,50.08,156.87,50.05,156.83,50.05z"/>
		<path class="st0" d="M147.88,48.36h-0.63l-0.56,1.84c-0.16,0-0.32-0.01-0.45-0.01c-0.13-0.01-0.24-0.02-0.32-0.03l-0.12,0.33
			c0.23-0.04,0.72-0.06,0.84-0.06l-0.43,1.53c-0.14,0.48-0.24,0.81-0.24,1.01c0,0.33,0.24,0.45,0.62,0.45c0.77,0,1.26-0.56,1.26-0.7
			c0-0.06-0.02-0.09-0.07-0.09c-0.14,0-0.29,0.38-0.81,0.38c-0.27,0-0.35-0.14-0.35-0.28c0-0.12,0.11-0.52,0.31-1.22l0.3-1.08
			c0.27,0,0.72,0.01,1.01,0.06l0.13-0.34c-0.24,0.02-0.91,0.05-1.07,0.05L147.88,48.36z"/>
		<path class="st0" d="M141.64,46.82c0-1.57-1.53-1.9-2.78-1.9c-0.26,0-0.56,0.02-0.91,0.05c-0.34,0.04-0.72,0.06-1.12,0.06
			c-0.49,0-0.91-0.02-1.22-0.04c-0.32-0.02-0.52-0.04-0.58-0.04c-0.09,0-0.14,0.05-0.14,0.13c0,0.05,0.06,0.1,0.1,0.1
			c0.36,0.09,1.11,0.14,1.35,0.16c-0.12,0.66-0.58,2.3-0.93,3.73c-0.19,0.72-0.68,2.38-1.17,3.88c-0.22,0.01-0.91,0.08-1.24,0.18
			c-0.05,0.01-0.1,0.05-0.1,0.11c0,0.08,0.06,0.13,0.14,0.13c0.12,0,0.3-0.03,0.59-0.04c0.29-0.03,0.66-0.04,1.14-0.04
			c0.26,0,0.72,0.03,1.23,0.05c0.49,0.04,1.04,0.06,1.42,0.06c1.64,0,3.56-0.85,3.56-2.35c0-1.42-1.18-1.71-1.94-1.83v-0.02
			C139.77,49.04,141.64,48.49,141.64,46.82z M139.89,51.09c0,1.36-1.05,2.03-2.52,2.03c-0.97,0-1.41-0.07-2.02-0.13
			c0.08-0.64,0.52-2.46,0.86-3.6h0.89C138.6,49.39,139.89,49.66,139.89,51.09z M137.22,49.13h-0.92c0.16-0.5,0.66-2.41,1.11-3.77
			c0.27-0.04,0.65-0.13,1.18-0.13c1.41,0,2.07,0.64,2.07,1.77C140.66,48.63,139.32,49.13,137.22,49.13z"/>
		<path class="st0" d="M153.45,50.05c-0.09,0-0.14,0.12-0.2,0.25c-0.19-0.09-0.41-0.22-0.88-0.22c-0.9,0-1.7,0.59-1.7,1.22
			c0,0.76,2.07,0.65,2.07,1.28c0,0.26-0.28,0.48-0.68,0.48c-0.72,0-1.27-0.22-1.53-0.53c0.03-0.15,0.07-0.44,0.07-0.48
			c0-0.05-0.04-0.09-0.09-0.09c-0.13,0-0.15,0.38-0.32,0.92c-0.12,0.4-0.17,0.44-0.17,0.52c0,0.04,0.03,0.08,0.07,0.08
			c0.1,0,0.14-0.15,0.22-0.29c0.24,0.11,0.59,0.24,0.95,0.24c0.48,0,0.88-0.02,1.32-0.31c0.28-0.2,0.54-0.45,0.54-0.92
			c0-0.26-0.22-0.46-0.52-0.58c-0.66-0.24-1.59-0.34-1.59-0.72c0-0.24,0.46-0.38,0.92-0.38c0.64,0,0.97,0.16,1.12,0.38
			c-0.03,0.15-0.05,0.28-0.05,0.4c0,0.04,0.03,0.09,0.08,0.09c0.13,0,0.14-0.39,0.26-0.74c0.11-0.32,0.19-0.48,0.19-0.53
			C153.52,50.08,153.49,50.05,153.45,50.05z"/>
		<path class="st0" d="M149.56,50.08c-0.65,0-1.14,0.84-1.14,0.92c0,0.04,0.04,0.07,0.09,0.07c0.11,0,0.43-0.57,0.59-0.57
			c0.08,0,0.1,0.06,0.1,0.13c0,0.07-0.11,0.45-0.19,0.76l-0.56,1.91h0.61l0.62-2c0.13-0.42,0.23-0.71,0.23-0.91
			C149.89,50.18,149.73,50.08,149.56,50.08z"/>
		<path class="st0" d="M205.55,50.36c0-0.16-0.1-0.28-0.34-0.28c-0.77,0-1.19,1.04-1.42,1.65l-0.02-0.02
			c0.12-0.43,0.19-0.74,0.19-1.07c0-0.34-0.08-0.56-0.4-0.56c-0.44,0-0.89,0.74-0.89,0.85c0,0.05,0.02,0.1,0.07,0.1
			c0.14,0,0.33-0.51,0.51-0.51c0.1,0,0.1,0.17,0.1,0.33c0,0.74-0.46,2.24-0.53,2.45h0.6c0.16-0.55,0.53-1.86,1.07-2.53
			c0.1,0.07,0.16,0.13,0.38,0.13C205.25,50.9,205.55,50.64,205.55,50.36z"/>
		<path class="st0" d="M188.29,53.14c-0.31-0.09-0.99-0.14-1.21-0.16c-0.29-1.18-1.42-6.41-1.63-7.89
			c-0.03-0.26-0.06-0.53-0.09-0.72c-0.37,0.08-0.83,0.14-1.1,0.18c0.14,0.41,0.39,1.38,0.46,1.72c-0.53,0.63-1.91,2.72-2.85,4.03
			c-0.5,0.73-1.54,2.13-2.07,2.68c-0.19,0.02-0.82,0.07-1.11,0.16c-0.05,0.02-0.1,0.05-0.1,0.1c0,0.08,0.06,0.13,0.14,0.13
			c0.07,0,0.71-0.08,1.57-0.08c1.02,0,1.74,0.08,1.84,0.08c0.08,0,0.14-0.05,0.14-0.13c0-0.05-0.06-0.09-0.1-0.1
			c-0.39-0.08-1.2-0.14-1.46-0.16c0.16-0.35,1.04-1.93,1.27-2.32h3.59c0.12,0.6,0.33,1.74,0.4,2.32c-0.24,0.02-1.01,0.08-1.35,0.16
			c-0.04,0.02-0.1,0.05-0.1,0.1c0,0.08,0.06,0.13,0.14,0.13c0.1,0,0.82-0.08,1.87-0.08c0.93,0,1.62,0.08,1.7,0.08
			c0.08,0,0.14-0.05,0.14-0.13C188.39,53.2,188.33,53.16,188.29,53.14z M182.2,50.37c0.42-0.65,1.74-2.58,2.59-3.65
			c0.13,0.64,0.68,3.34,0.73,3.65H182.2z"/>
		<path class="st0" d="M201.8,50.08c-0.65,0-1.14,0.84-1.14,0.92c0,0.04,0.04,0.07,0.09,0.07c0.11,0,0.43-0.57,0.59-0.57
			c0.08,0,0.1,0.06,0.1,0.13c0,0.07-0.11,0.45-0.19,0.76l-0.56,1.91h0.6l0.63-2c0.13-0.42,0.23-0.71,0.23-0.91
			C202.14,50.18,201.98,50.08,201.8,50.08z"/>
		<path class="st0" d="M195.57,50.69c0-0.33-0.31-0.61-0.89-0.61c-1.02,0-2.26,1.16-2.26,2.33c0,0.58,0.43,1.01,1.23,1.01
			c1.09,0,1.88-0.89,1.88-1.04c0-0.05-0.04-0.08-0.09-0.08c-0.14,0-0.45,0.67-1.41,0.67c-0.78,0-0.89-0.37-0.94-0.63
			C193.99,52.25,195.57,51.65,195.57,50.69z M193.08,52.17c0-0.06-0.01-0.12-0.01-0.17c0-0.69,0.28-1.49,1.19-1.49
			c0.45,0,0.67,0.07,0.67,0.38C194.92,51.82,193.59,52.08,193.08,52.17z"/>
		<path class="st0" d="M202.31,47.66c-0.27,0-0.5,0.21-0.5,0.45c0,0.24,0.23,0.45,0.5,0.45c0.27,0,0.49-0.21,0.49-0.45
			C202.81,47.87,202.58,47.66,202.31,47.66z"/>
		<path class="st0" d="M208.48,50.05c-0.09,0-0.14,0.12-0.21,0.25c-0.18-0.09-0.41-0.22-0.88-0.22c-0.91,0-1.71,0.59-1.71,1.22
			c0,0.76,2.07,0.65,2.07,1.28c0,0.26-0.28,0.48-0.68,0.48c-0.72,0-1.27-0.22-1.53-0.53c0.03-0.15,0.07-0.44,0.07-0.48
			c0-0.05-0.04-0.09-0.09-0.09c-0.13,0-0.15,0.38-0.32,0.92c-0.12,0.4-0.17,0.44-0.17,0.52c0,0.04,0.03,0.08,0.08,0.08
			c0.1,0,0.14-0.15,0.22-0.29c0.24,0.11,0.59,0.24,0.95,0.24c0.49,0,0.87-0.02,1.32-0.31c0.28-0.2,0.54-0.45,0.54-0.92
			c0-0.26-0.22-0.46-0.52-0.58c-0.66-0.24-1.59-0.34-1.59-0.72c0-0.24,0.46-0.38,0.92-0.38c0.64,0,0.97,0.16,1.12,0.38
			c-0.03,0.15-0.05,0.28-0.05,0.4c0,0.04,0.03,0.09,0.09,0.09c0.13,0,0.14-0.39,0.26-0.74c0.11-0.32,0.18-0.48,0.18-0.53
			C208.55,50.08,208.52,50.05,208.48,50.05z"/>
		<path class="st0" d="M199.99,52.5c-0.11,0-0.44,0.55-0.66,0.55c-0.1,0-0.12-0.07-0.12-0.14c0-0.08,0.21-0.62,0.45-1.24
			c0.09-0.23,0.37-0.81,0.37-1.12c0-0.3-0.29-0.46-0.7-0.46c-1.08,0-1.79,1.3-2.24,2.1l-0.02-0.02c0.17-0.38,0.46-1.39,0.46-1.77
			c0-0.2-0.09-0.32-0.35-0.32c-0.63,0-1.06,0.8-1.06,0.9c0,0.05,0.02,0.08,0.09,0.08c0.14,0,0.28-0.53,0.53-0.53
			c0.11,0,0.12,0.12,0.12,0.17c0,0.26-0.21,0.96-0.39,1.52c-0.16,0.47-0.32,0.92-0.38,1.08h0.6c0.17-0.34,0.49-1.09,1.01-1.79
			c0.14-0.19,0.29-0.51,0.61-0.76c0.23-0.18,0.46-0.28,0.73-0.28c0.22,0,0.28,0.1,0.28,0.28c0,0.1-0.16,0.54-0.27,0.84
			c-0.21,0.5-0.52,1.29-0.52,1.49c0,0.2,0.14,0.28,0.39,0.28c0.62,0,1.14-0.73,1.14-0.8C200.07,52.53,200.03,52.5,199.99,52.5z"/>
		<path class="st0" d="M178.65,48.78c0,0.06,0.05,0.08,0.08,0.08c0.18,0,1.03-1,1.05-1.55c0-0.18-0.11-0.37-0.43-0.37
			c-0.16,0-0.65,0.12-0.65,0.25c0,0.17,0.41,0,0.41,0.33c0,0.13-0.02,0.27-0.12,0.51C178.86,48.39,178.65,48.68,178.65,48.78z"/>
		<path class="st0" d="M144.19,48.53l-1.06,0.92c-0.06,0.05-0.12,0.11-0.12,0.14c0,0.04,0.03,0.05,0.06,0.05
			c0.05,0,0.11-0.02,0.16-0.06l1.22-0.7l0.64,0.57c0.06,0.05,0.16,0.15,0.18,0.15c0.03,0,0.07-0.02,0.07-0.06
			c0-0.06-0.04-0.13-0.07-0.17l-0.46-0.84H144.19z"/>
		<path class="st0" d="M149.57,48.12c0,0.24,0.23,0.45,0.49,0.45c0.27,0,0.5-0.21,0.5-0.45c0-0.25-0.23-0.45-0.5-0.45
			C149.8,47.66,149.57,47.87,149.57,48.12z"/>
		<path class="st0" d="M191.61,50.08c-0.18,0-0.35,0.1-0.35,0.35c0,0.37,0.41,0.47,0.62,0.52c0,0.82-0.68,2.13-1.59,2.13
			c-0.29,0-0.54-0.12-0.54-0.42c0-0.12,0.09-0.41,0.14-0.6l0.32-1.09c0.05-0.18,0.15-0.47,0.15-0.59c0-0.16-0.13-0.3-0.32-0.3
			c-0.71,0-1.11,0.79-1.11,0.83c0,0.05,0.05,0.08,0.09,0.08c0.12,0,0.4-0.55,0.62-0.55c0.04,0,0.08,0.04,0.08,0.09
			c0,0.08-0.03,0.23-0.08,0.36l-0.29,0.95c-0.11,0.35-0.23,0.71-0.23,0.99c0,0.38,0.39,0.59,0.85,0.59c1.24,0,2.14-1.4,2.14-2.48
			C192.12,50.62,192.03,50.08,191.61,50.08z"/>
		<path class="st0" d="M134.96,44.66h-22.54v0.45v0.39h22.33C134.61,45.32,134.46,44.98,134.96,44.66z"/>
		<path class="st0" d="M141.51,45.5h42.62l-0.24-0.84h-43.97C140.25,44.75,141.18,45.05,141.51,45.5z"/>
		<polygon class="st0" points="185.93,45.5 209.07,45.5 209.07,44.66 185.78,44.66 		"/>
	</g>
</g>
</svg>
