<?xml version="1.0" encoding="utf-8"?>
<!-- Generator: Adobe Illustrator 23.0.0, SVG Export Plug-In . SVG Version: 6.00 Build 0)  -->
<svg version="1.1" id="Calque_1" xmlns="http://www.w3.org/2000/svg" xmlns:xlink="http://www.w3.org/1999/xlink" x="0px" y="0px"
	 viewBox="0 0 270 66.1" style="enable-background:new 0 0 270 66.1;" xml:space="preserve">
<style type="text/css">
	.st0{fill:#FFFFFF;}
	.st1{fill:url(#SVGID_1_);}
	.st2{fill:url(#SVGID_2_);}
	.st3{fill:url(#SVGID_3_);}
	.st4{fill:url(#SVGID_4_);}
	.st5{fill:url(#SVGID_5_);}
	.st6{fill:url(#SVGID_6_);}
	.st7{fill:url(#SVGID_7_);}
	.st8{fill:url(#SVGID_8_);}
	.st9{fill:url(#SVGID_9_);}
	.st10{fill:url(#SVGID_10_);}
	.st11{fill:url(#SVGID_11_);}
	.st12{fill:url(#SVGID_12_);}
	.st13{fill:url(#SVGID_13_);}
	.st14{fill:url(#SVGID_14_);}
	.st15{fill:url(#SVGID_15_);}
	.st16{fill:url(#SVGID_16_);}
	.st17{fill:url(#SVGID_17_);}
	.st18{fill:url(#SVGID_18_);}
	.st19{fill:url(#SVGID_19_);}
	.st20{fill:url(#SVGID_20_);}
	.st21{fill:url(#SVGID_21_);}
	.st22{fill:url(#SVGID_22_);}
	.st23{fill:url(#SVGID_23_);}
	.st24{fill:url(#SVGID_24_);}
	.st25{fill:url(#SVGID_25_);}
	.st26{fill:url(#SVGID_26_);}
	.st27{fill:url(#SVGID_27_);}
	.st28{fill:url(#SVGID_28_);}
	.st29{fill:url(#SVGID_29_);}
	.st30{fill:url(#SVGID_30_);}
	.st31{fill:url(#SVGID_31_);}
	.st32{fill:url(#SVGID_32_);}
	.st33{clip-path:url(#XMLID_2_);fill:#FFFFFF;}
	.st34{clip-path:url(#XMLID_3_);fill:#FFFFFF;}
	.st35{clip-path:url(#XMLID_4_);fill:#FFFFFF;}
	.st36{clip-path:url(#XMLID_5_);fill:#FFFFFF;}
	.st37{clip-path:url(#XMLID_6_);fill:#FFFFFF;}
	.st38{clip-path:url(#XMLID_7_);fill:#FFFFFF;}
	.st39{clip-path:url(#XMLID_8_);fill:#FFFFFF;}
	.st40{clip-path:url(#XMLID_9_);fill:#FFFFFF;}
	.st41{clip-path:url(#XMLID_10_);fill:#FFFFFF;}
	.st42{clip-path:url(#XMLID_11_);fill:#FFFFFF;}
	.st43{clip-path:url(#XMLID_12_);fill:#FFFFFF;}
	.st44{clip-path:url(#XMLID_13_);fill:#FFFFFF;}
	.st45{clip-path:url(#XMLID_14_);fill:#FFFFFF;}
</style>
<g>
	<path class="st0" d="M175.3,55.93c0.2-0.02,0.38-0.08,0.53-0.04c0.47,0.12,0.91,0.1,1.38-0.01c0.47-0.11,0.77,0.17,0.79,0.67
		c0.02,0.49-0.02,0.98,0.02,1.46c0.02,0.2,0.18,0.39,0.34,0.73c-0.19,0.04-0.52,0.21-0.72,0.11c-0.22-0.11-0.38-0.46-0.43-0.74
		c-0.07-0.41,0.01-0.85-0.04-1.27c-0.02-0.17-0.2-0.33-0.3-0.49c-0.17,0.13-0.48,0.25-0.49,0.39c-0.05,0.66-0.25,1.35,0.32,2.03
		c-0.54,0-1,0-1.48,0C175.71,57.89,175.62,56.96,175.3,55.93z"/>
	<g>
		<path class="st0" d="M93.38,36.68c-3.11-7.08-2.35-16.97,4.56-24.09c7.09-7.3,17.24-8.32,24.39-5.6
			c-7.02-0.88-13.28,0.84-18.52,5.63c-5.25,4.82-7.5,10.9-6.99,18.13c-1.51-0.48-2.94-0.94-4.37-1.39
			c-0.03,0.04-0.06,0.08-0.09,0.11c0.21,0.3,0.43,0.6,0.64,0.9c0.72,1,1.44,2,2.17,2.98c0.22,0.29,0.27,0.52,0.02,0.84
			C94.59,34.99,94.02,35.8,93.38,36.68z"/>
		<path class="st0" d="M134.37,34.86c2.8-10.08-3.17-19.08-11.51-21.63c-9.33-2.85-19.38,2.57-21.91,12.24
			c0.19-5.83,3.86-12.65,11.25-15.54c7.01-2.75,15.24-0.82,20.25,5.29C137.18,20.97,137.63,28.86,134.37,34.86z"/>
		<path class="st0" d="M165.05,31.51c0,4.53,0,8.96,0,13.45c-0.61,0-1.21,0-1.89,0c0-3.86,0-7.73,0-11.6
			c-0.05-0.02-0.11-0.03-0.16-0.05c-0.08,0.17-0.17,0.34-0.23,0.51c-1.24,3.51-2.49,7.03-3.71,10.55c-0.16,0.47-0.35,0.69-0.89,0.67
			c-0.51-0.02-0.83-0.07-1.03-0.65c-1.22-3.54-2.49-7.07-3.75-10.6c-0.04-0.11-0.09-0.23-0.26-0.33c0,3.81,0,7.63,0,11.5
			c-0.43,0-0.77,0-1.19,0c-0.01-0.24-0.03-0.48-0.03-0.73c0-3.08,0-6.16,0-9.23c0-0.53-0.03-1.06-0.06-1.59
			c-0.05-0.85-0.27-1.07-1.1-1.32c-0.29-0.09-0.84,0.12-0.83-0.55c1.52,0,3.01,0,4.54,0c1.31,3.64,2.61,7.28,3.92,10.92
			c0.05,0,0.09,0.01,0.14,0.01c0.26-0.74,0.53-1.47,0.79-2.21c0.96-2.74,1.93-5.47,2.87-8.22c0.14-0.41,0.31-0.58,0.76-0.55
			C163.62,31.55,164.3,31.51,165.05,31.51z"/>
		<path class="st0" d="M104.3,31.51c0.7,0,1.39-0.01,2.09,0c1.82,0.03,3.64,0.07,5.47,0.13c0.33,0.01,0.67,0.12,0.99,0.22
			c1.34,0.44,2.05,1.31,2.12,2.63c0.07,1.35-0.44,2.39-1.69,3.02c-0.19,0.09-0.37,0.19-0.62,0.31c0.41,0.15,0.76,0.27,1.11,0.42
			c1.32,0.59,1.85,1.67,1.89,3.05c0.04,1.41-0.49,2.48-1.79,3.1c-1.08,0.52-2.24,0.62-3.41,0.63c-1.21,0.01-2.42-0.02-3.63,0.01
			c-0.52,0.01-0.69-0.13-0.69-0.67c0.02-3.54,0.01-7.09,0-10.63c-0.01-1.33-0.15-1.47-1.42-1.73c-0.18-0.04-0.34-0.16-0.5-0.24
			C104.23,31.68,104.26,31.6,104.3,31.51z M108.34,38.43c0,1.63,0,3.21,0,4.8c0,0.45,0.22,0.75,0.66,0.79
			c0.65,0.05,1.32,0.13,1.96,0.05c1.71-0.21,2.46-1.12,2.5-2.86c0.03-1.56-0.74-2.52-2.38-2.76
			C110.21,38.33,109.31,38.43,108.34,38.43z M108.38,37.53c1.05-0.13,2.07-0.15,3.03-0.41c1.04-0.29,1.44-1.25,1.34-2.59
			c-0.08-1.09-0.6-1.77-1.66-1.95c-0.68-0.12-1.39-0.11-2.08-0.05c-0.23,0.02-0.6,0.37-0.61,0.58
			C108.35,34.51,108.38,35.93,108.38,37.53z"/>
		<path class="st0" d="M117.71,50.31c-9.64,1.57-19.66-3.62-23.83-12.52c1.15-0.37,2.28-0.75,3.43-1.08
			c0.13-0.04,0.4,0.17,0.52,0.33c1.06,1.43,2.08,2.89,3.16,4.31c3.89,5.13,9.06,8.05,15.43,8.86
			C116.84,50.26,117.28,50.28,117.71,50.31z"/>
		<path class="st0" d="M118.57,38.83c0,2.06,0,4.09,0,6.16c-0.73,0-1.4,0-2.14,0c-0.01-0.26-0.03-0.5-0.03-0.75
			c0-3.35,0-6.71,0-10.06c0-0.17,0-0.34,0-0.51c-0.03-1.19-0.22-1.41-1.39-1.66c-0.19-0.04-0.36-0.16-0.62-0.27
			c0.18-0.15,0.21-0.2,0.24-0.2c2.54,0.03,5.1-0.29,7.61,0.25c2.25,0.48,3.29,2.23,2.73,4.37c-0.25,0.96-0.86,1.59-1.77,1.94
			c-0.35,0.14-0.72,0.23-1.15,0.37c1.21,2.17,2.4,4.3,3.65,6.55c-0.79,0-1.46,0.03-2.13-0.02c-0.15-0.01-0.31-0.25-0.41-0.41
			c-0.97-1.67-1.92-3.35-2.87-5.02C119.76,38.67,119.76,38.67,118.57,38.83z M118.57,35.45c0,0.64,0.01,1.27-0.01,1.91
			c-0.01,0.36,0.08,0.57,0.49,0.53c0.59-0.05,1.19-0.04,1.77-0.14c0.93-0.17,1.65-0.66,1.94-1.62c0.65-2.21-0.8-3.93-3.09-3.69
			c-0.84,0.09-1.07,0.32-1.09,1.17C118.56,34.22,118.57,34.83,118.57,35.45z"/>
		<path class="st0" d="M126.05,44.96c0.51-1.42,1.01-2.78,1.51-4.15c0.8-2.21,1.61-4.41,2.41-6.62c0.09-0.26,0.18-0.52,0.26-0.78
			c0.25-0.88,0.05-1.2-0.85-1.39c-0.21-0.04-0.4-0.16-0.6-0.24c0.02-0.08,0.04-0.17,0.07-0.25c1.18,0,2.36-0.02,3.53,0.03
			c0.15,0.01,0.33,0.34,0.41,0.55c1.21,3.32,2.41,6.64,3.61,9.96c0.34,0.95,0.69,1.9,1.07,2.96c-0.68,0-1.26,0.03-1.84-0.02
			c-0.14-0.01-0.31-0.25-0.37-0.42c-0.41-1.09-0.82-2.18-1.19-3.28c-0.13-0.37-0.32-0.48-0.69-0.48c-1.38,0.02-2.76,0.02-4.13,0
			c-0.36,0-0.53,0.13-0.64,0.46c-0.32,0.96-0.68,1.91-1.02,2.87C127.23,45.12,127.23,45.12,126.05,44.96z M133.55,39.9
			c-0.77-1.96-1.5-3.84-2.3-5.87c-0.75,2.06-1.44,3.94-2.15,5.87C130.6,39.9,132.01,39.9,133.55,39.9z"/>
		<path class="st0" d="M176.92,45.02c-0.65,0-1.24,0.03-1.82-0.02c-0.14-0.01-0.31-0.25-0.37-0.43c-0.41-1.07-0.8-2.14-1.17-3.23
			c-0.13-0.37-0.31-0.54-0.72-0.53c-1.36,0.03-2.72,0.03-4.07,0c-0.42-0.01-0.59,0.15-0.72,0.53c-0.31,0.94-0.67,1.88-1.01,2.81
			c-0.35,0.98-0.36,0.98-1.49,0.79c0.07-0.22,0.13-0.44,0.21-0.65c1.26-3.46,2.52-6.93,3.78-10.39c0.07-0.18,0.12-0.36,0.17-0.55
			c0.24-0.83,0.03-1.17-0.83-1.35c-0.21-0.05-0.41-0.15-0.62-0.23c0.02-0.09,0.04-0.18,0.06-0.28c0.9,0,1.8-0.01,2.7,0
			c1.28,0.02,0.95-0.2,1.37,0.93c1.45,3.96,2.88,7.92,4.32,11.89C176.78,44.53,176.83,44.73,176.92,45.02z M170.73,34.03
			c-0.76,2.07-1.45,3.95-2.15,5.86c1.5,0,2.93,0,4.43,0C172.26,37.95,171.53,36.09,170.73,34.03z"/>
		<path class="st0" d="M140.25,31.31c0,0.3,0,0.55,0,0.79c0,3.52,0,7.05,0,10.57c0,0.27-0.04,0.58,0.07,0.81
			c0.11,0.25,0.38,0.59,0.58,0.6c1.12,0.05,2.25,0.07,3.37-0.03c1.02-0.09,1.29-0.5,1.54-2.06c0.21,0.22,0.41,0.34,0.46,0.5
			c0.06,0.24,0.03,0.51,0.02,0.76c-0.02,0.57-0.06,1.13-0.09,1.74c-2.7,0-5.36,0-8.11,0c0-0.26,0-0.51,0-0.75
			c0-3.44,0-6.88-0.01-10.31c-0.01-1.3-0.2-1.48-1.47-1.67c-0.21-0.03-0.4-0.16-0.59-0.25c0.02-0.06,0.05-0.13,0.07-0.19
			c0.16-0.04,0.32-0.1,0.49-0.11C137.75,31.57,138.95,31.44,140.25,31.31z"/>
		<path class="st0" d="M149.21,31.31c0,4.56,0,9.09,0,13.67c-0.67,0-1.34,0-2.09,0c-0.01-0.23-0.03-0.48-0.04-0.72
			c0-2.99,0-5.98,0-8.97c0-0.53-0.03-1.06-0.05-1.59c-0.04-1.04-0.21-1.23-1.23-1.42c-0.26-0.05-0.49-0.21-0.73-0.32
			c0.25-0.1,0.5-0.26,0.76-0.29C146.94,31.53,148.05,31.43,149.21,31.31z"/>
		<path class="st0" d="M154.05,58.81c-0.41,0-0.9,0-1.34,0c0.43-1.32,0.39-2.57,0.06-3.89c0.37,0,0.85,0,1.2,0
			c0,0.49-0.04,0.96,0.04,1.41c0.01,0.06,0.62,0.01,0.96,0.01c0-0.47,0-0.93,0-1.45c0.37,0,0.83,0,1.27,0
			c-0.42,1.31-0.42,2.58,0.02,3.91c-0.44,0-0.93,0-1.35,0c0.07-0.49,0.17-0.97,0.2-1.45c0.03-0.49-0.35-0.42-0.67-0.43
			c-0.31-0.01-0.64-0.01-0.61,0.43C153.88,57.82,153.97,58.28,154.05,58.81z"/>
		<path class="st0" d="M144.24,55.85c0.32,0.07,0.68,0.16,1.04,0.25c-0.01,0.07-0.03,0.14-0.04,0.21c0.54-0.31,1.1-0.74,1.66-0.15
			c0.55,0.58,0.51,1.32,0.28,2.03c-0.22,0.7-0.55,0.83-2.05,0.86c0.04,0.44,0.07,0.88,0.11,1.3c-0.29,0-0.64,0-1,0
			C144.24,58.87,144.24,57.42,144.24,55.85z M145.15,57.53C145.15,57.53,145.15,57.53,145.15,57.53c0,0.21-0.06,0.45,0.02,0.63
			c0.12,0.26,0.32,0.62,0.53,0.65c0.2,0.03,0.56-0.26,0.66-0.49c0.14-0.33,0.16-0.75,0.12-1.11c-0.05-0.42-0.08-0.98-0.71-0.93
			c-0.59,0.05-0.64,0.52-0.61,1C145.15,57.36,145.15,57.44,145.15,57.53z"/>
		<path class="st0" d="M132.82,56.1c-0.13,0.04-0.25,0.09-0.37,0.13c0.23,1.34-0.02,1.62-1.41,1.73c-0.17,0.01-0.33,0.18-0.5,0.27
			c0.15,0.14,0.29,0.36,0.46,0.4c0.33,0.07,0.69-0.02,1.01,0.05c0.27,0.07,0.7,0.25,0.73,0.43c0.05,0.32-0.06,0.77-0.28,1
			c-0.41,0.45-1.93,0.48-2.41,0.12c-0.12-0.09-0.25-0.29-0.23-0.41c0.11-0.66,0.27-1.31,0.44-2.11c-0.02-0.03-0.18-0.21-0.26-0.41
			c-0.27-0.7,0.22-1.36,1.08-1.41c0.29-0.02,0.59,0.05,0.88,0.07c0.27,0.01,0.55,0,0.82,0C132.79,56.01,132.81,56.05,132.82,56.1z
			 M131.27,59.22c-0.36,0.04-0.88-0.12-0.88,0.5c0,0.57,0.51,0.55,0.89,0.55c0.39,0,0.89-0.05,0.88-0.59
			C132.14,59.12,131.65,59.25,131.27,59.22z M132.07,56.91c-0.36-0.36-0.6-0.79-0.84-0.8c-0.56,0-0.47,0.53-0.48,0.92
			c-0.01,0.37,0.09,0.78,0.5,0.71C131.52,57.69,131.72,57.28,132.07,56.91z"/>
		<path class="st0" d="M123.64,59.05c-0.34-0.09-0.69-0.18-1.19-0.31c-0.34,0.23-0.93,0.59-1.47,0.05
			c-0.55-0.56-0.55-1.31-0.29-2.02c0.34-0.93,1.15-0.92,2.04-0.86c-0.04-0.46-0.07-0.88-0.1-1.32c0.81-0.25,0.88-0.2,0.88,0.72
			c0,0.91-0.01,1.82,0.01,2.73C123.51,58.34,123.58,58.64,123.64,59.05z M122.7,57.41C122.7,57.41,122.7,57.41,122.7,57.41
			c0-0.21,0.06-0.45-0.02-0.63c-0.11-0.26-0.32-0.48-0.49-0.71c-0.23,0.18-0.59,0.31-0.67,0.54c-0.13,0.36-0.13,0.79-0.09,1.18
			c0.03,0.41,0.08,0.92,0.68,0.87c0.61-0.05,0.61-0.54,0.6-1C122.7,57.58,122.7,57.49,122.7,57.41z"/>
		<path class="st0" d="M170.02,57.58c-0.58,0.37-0.34,0.75-0.01,1.22c-0.52,0-0.95,0-1.39,0c0.28-1.31,0.24-2.63,0.04-3.96
			c0.8-0.28,0.96-0.17,0.96,0.73c0,0.47,0,0.94,0,1.41c0.1,0.03,0.2,0.05,0.3,0.08c0.19-0.33,0.39-0.66,0.58-0.98
			c-0.05-0.05-0.09-0.09-0.14-0.14c0.4,0,0.79,0,1.22,0c-0.18,0.55-1.16,0.6-0.76,1.38c0.26,0.5,0.58,0.96,0.87,1.44
			C171.19,58.93,171.19,58.93,170.02,57.58z"/>
		<path class="st0" d="M164.98,58.85c-0.28,0-0.63,0.1-0.84-0.03c-0.19-0.12-0.27-0.48-0.31-0.74c-0.05-0.4,0.02-0.81-0.04-1.2
			c-0.03-0.19-0.24-0.34-0.37-0.52c-0.15,0.17-0.43,0.33-0.44,0.51c-0.03,0.61,0.03,1.23,0.06,1.92c-0.31,0-0.75,0-1.1,0
			c0-0.95,0-1.88,0-2.87c0.06-0.01,0.2-0.06,0.33-0.05c0.52,0.04,1.02,0.13,1.57,0c0.54-0.13,0.73,0.33,0.76,0.79
			c0.03,0.44-0.02,0.89,0.02,1.33c0.02,0.22,0.16,0.43,0.24,0.64C164.91,58.72,164.94,58.78,164.98,58.85z"/>
		<path class="st0" d="M143.11,59.03c-0.22-0.06-0.56-0.15-0.89-0.24c0.01-0.05,0.01-0.1,0.02-0.15c-0.14,0.08-0.28,0.17-0.42,0.25
			c-0.8,0.42-1.39,0.07-1.41-0.83c-0.01-0.67,0-1.34,0-2.02c0.77-0.14,0.79-0.12,0.79,0.75c0,0.4-0.06,0.82,0.02,1.2
			c0.05,0.25,0.28,0.63,0.47,0.66c0.41,0.06,0.63-0.26,0.63-0.69c0-0.64,0-1.29,0-1.94c0.79-0.09,0.79-0.09,0.79,0.74
			C143.11,57.48,143.11,58.21,143.11,59.03z"/>
		<path class="st0" d="M124.74,56c0.79-0.06,0.79-0.06,0.79,0.78c0,0.4-0.06,0.82,0.03,1.2c0.06,0.25,0.31,0.46,0.48,0.69
			c0.22-0.22,0.6-0.41,0.64-0.65c0.09-0.65,0.03-1.33,0.03-2.01c0.74-0.1,0.73-0.1,0.75,0.79c0.01,0.71,0.04,1.41,0.07,2.21
			c-0.24-0.06-0.59-0.14-0.93-0.22c0.01-0.05,0.02-0.09,0.03-0.14c-0.04,0.01-0.09,0-0.12,0.02c-0.41,0.28-0.92,0.6-1.32,0.23
			c-0.28-0.26-0.37-0.8-0.42-1.23C124.69,57.14,124.74,56.59,124.74,56z"/>
		<path class="st0" d="M102.45,56.27c0.01,0.28,0.03,0.47,0.03,0.65c0,0.14-0.02,0.29-0.03,0.43c-0.07,0.06-0.15,0.13-0.22,0.19
			c-0.06-0.15-0.07-0.36-0.18-0.44c-0.4-0.29-0.82-0.09-0.82,0.4c0,0.48,0.06,0.95,0.09,1.45c-0.3,0-0.69,0-1.02,0
			c0-1.38,0-2.76,0-4.21c0.71,0,1.52-0.02,2.34,0.01c0.62,0.02,0.24,0.47,0.38,0.75c-0.47-0.22-0.83-0.44-1.23-0.54
			c-0.36-0.09-0.61,0.1-0.58,0.53c0.02,0.21-0.03,0.43,0.01,0.63c0.04,0.22,0.16,0.43,0.24,0.64c0.25-0.11,0.49-0.22,0.74-0.33
			C102.26,56.4,102.31,56.36,102.45,56.27z"/>
		<path class="st0" d="M159.44,58.02c-0.03,0.19,0,0.33-0.06,0.41c-0.41,0.61-1.59,0.72-2.24,0.23c-0.67-0.51-0.76-1.68-0.18-2.34
			c0.54-0.62,1.56-0.64,2.16-0.04c0.45,0.45,0.4,0.79-0.17,1.07c-0.3,0.14-0.64,0.22-0.94,0.37c-0.15,0.07-0.26,0.23-0.38,0.35
			c0.16,0.12,0.32,0.35,0.47,0.34c0.34-0.02,0.68-0.15,1.02-0.24C159.19,58.14,159.27,58.09,159.44,58.02z M157.15,56.97
			c0.32,0.24,0.52,0.48,0.61,0.45c0.31-0.14,0.57-0.36,0.86-0.56c-0.19-0.22-0.37-0.44-0.56-0.66
			C157.8,56.42,157.54,56.64,157.15,56.97z"/>
		<path class="st0" d="M172.82,57.95c0.69,0.84,1.29,0.36,1.93,0.09c0,0.16,0.04,0.28-0.01,0.34c-0.44,0.66-1.6,0.8-2.27,0.28
			c-0.65-0.51-0.73-1.71-0.16-2.34c0.56-0.62,1.55-0.63,2.15-0.02c0.48,0.49,0.44,0.75-0.17,1.05
			C173.85,57.55,173.38,57.72,172.82,57.95z M173.21,57.71c0.35-0.42,0.65-0.65,0.73-0.94c0.03-0.12-0.4-0.54-0.61-0.53
			c-0.46,0.01-0.58,0.43-0.54,0.83C172.81,57.22,172.98,57.36,173.21,57.71z"/>
		<path class="st0" d="M168.19,58.02c-0.31,0.79-1.07,1.12-1.81,0.92c-0.69-0.19-1.22-0.94-1.12-1.64c0.09-0.64,0.35-1.2,1.03-1.39
			c0.58-0.16,1.13-0.05,1.56,0.42c0.38,0.42,0.33,0.75-0.18,0.99c-0.32,0.16-0.68,0.24-1,0.39c-0.14,0.07-0.24,0.24-0.36,0.36
			c0.14,0.11,0.28,0.31,0.42,0.32c0.3,0.01,0.61-0.08,0.91-0.15C167.8,58.22,167.94,58.13,168.19,58.02z M166.1,57.15
			c0.06,0.05,0.26,0.31,0.33,0.28c0.31-0.14,0.59-0.36,0.88-0.55c-0.18-0.22-0.34-0.61-0.56-0.64
			C166.27,56.15,166.17,56.57,166.1,57.15z"/>
		<path class="st0" d="M139.41,57.44c0,1-0.59,1.62-1.55,1.64c-0.89,0.02-1.54-0.66-1.53-1.59c0.02-0.99,0.63-1.61,1.57-1.61
			C138.86,55.88,139.42,56.45,139.41,57.44z M138.64,57.49c-0.07-0.32-0.1-0.69-0.24-1.01c-0.08-0.18-0.34-0.4-0.51-0.38
			c-0.2,0.02-0.53,0.25-0.55,0.4c-0.05,0.64-0.04,1.29,0.03,1.92c0.02,0.16,0.36,0.4,0.54,0.4c0.19-0.01,0.44-0.23,0.54-0.43
			C138.58,58.14,138.58,57.82,138.64,57.49z"/>
		<path class="st0" d="M112.54,59.04c-0.26-0.09-0.55-0.18-0.96-0.32c-0.13,0.05-0.42,0.29-0.7,0.28c-0.33-0.01-0.76-0.15-0.95-0.4
			c-0.28-0.36-0.01-0.74,0.36-0.93c0.27-0.14,0.61-0.16,0.89-0.29c0.21-0.1,0.54-0.31,0.53-0.45c-0.02-0.28-0.18-0.6-0.39-0.78
			c-0.09-0.08-0.45,0.15-0.68,0.25c-0.05,0.02-0.06,0.13-0.11,0.15c-0.12,0.05-0.25,0.06-0.38,0.09c0.03-0.15,0.03-0.41,0.08-0.42
			c0.59-0.1,1.2-0.3,1.77-0.21c0.58,0.09,0.53,0.73,0.54,1.22C112.54,57.78,112.54,58.34,112.54,59.04z M112.01,57.98
			c-0.32-0.26-0.47-0.49-0.6-0.48c-0.38,0.03-0.8,0.18-0.75,0.67c0.02,0.2,0.38,0.54,0.42,0.52
			C111.36,58.54,111.61,58.3,112.01,57.98z"/>
		<path class="st0" d="M118.26,58.38c-0.59,0.69-1.49,0.85-2.12,0.46c-0.56-0.34-0.77-1.3-0.46-2.07c0.26-0.65,1.01-1.03,1.72-0.87
			c0.53,0.12,0.99,0.65,0.97,1.19c-0.01,0.12-0.24,0.32-0.38,0.33c-0.52,0.04-1.05,0.02-1.56,0.02
			C116.31,58.63,116.87,58.92,118.26,58.38z M116.98,57.46c0.27-0.27,0.56-0.44,0.57-0.62c0.02-0.35-0.12-0.82-0.56-0.73
			c-0.24,0.05-0.45,0.47-0.58,0.76C116.38,56.95,116.7,57.18,116.98,57.46z"/>
		<path class="st0" d="M150.61,58.63c-0.3,0.53-1.46,0.52-1.97,0.19c-0.57-0.37-0.74-1.47-0.36-2.2c0.32-0.61,1.12-0.91,1.81-0.66
			c0.62,0.22,0.86,0.69,0.7,1.46c-0.59,0-1.2,0-1.99,0c0.16,0.42,0.19,0.9,0.4,0.99C149.62,58.6,150.14,58.58,150.61,58.63z
			 M149.97,57.29c0.07-0.08,0.15-0.16,0.22-0.23c-0.15-0.31-0.27-0.64-0.47-0.91c-0.05-0.06-0.47,0.03-0.56,0.16
			c-0.14,0.2-0.15,0.5-0.21,0.75C149.29,57.14,149.63,57.21,149.97,57.29z"/>
		<path class="st0" d="M113.72,54.57c0.79-0.23,0.85-0.18,0.85,0.76c0,1.2,0,2.4,0,3.62c-0.26,0-0.61,0-0.89,0
			C113.84,57.51,113.79,56.08,113.72,54.57z"/>
		<path class="st0" d="M105.96,54.59c0.79-0.22,0.86-0.17,0.86,0.6c0,0.93-0.01,1.87,0.01,2.8c0.01,0.31,0.08,0.62,0.12,0.96
			c-0.28,0-0.63,0-0.99,0C105.96,57.51,105.96,56.07,105.96,54.59z"/>
		<path class="st0" d="M134.52,56.32c0.37-0.17,0.64-0.34,0.94-0.41c0.14-0.04,0.44,0.05,0.47,0.15c0.06,0.17-0.04,0.38-0.07,0.58
			c-0.16-0.06-0.34-0.08-0.48-0.17c-0.43-0.29-0.84-0.1-0.89,0.5c-0.05,0.65-0.01,1.32-0.01,1.99c-0.19,0-0.55,0-0.84,0
			c0-1.01,0-1.99,0-3.02C133.94,55.92,134.4,55.61,134.52,56.32z"/>
		<path class="st0" d="M161.08,58.83c-0.29,0-0.73,0-1.2,0c0.38-0.95,0.35-1.88,0.07-2.81c0.82-0.33,1-0.2,1.02,0.69
			C160.99,57.37,161.04,58.05,161.08,58.83z"/>
		<path class="st0" d="M103.97,55.94c0.78-0.15,0.81-0.13,0.82,0.68c0.01,0.77,0.04,1.54,0.06,2.33c-0.22,0-0.57,0-0.88,0
			C103.97,57.97,103.97,56.99,103.97,55.94z"/>
		<path class="st0" d="M108.89,58.95c-0.17,0-0.52,0-0.83,0c0-0.99,0-1.99,0-3c0.77-0.17,0.82-0.13,0.83,0.72
			C108.89,57.42,108.89,58.17,108.89,58.95z"/>
		<path class="st0" d="M161.13,55.07c-0.3,0.22-0.47,0.44-0.63,0.43c-0.17-0.02-0.32-0.25-0.48-0.39c0.15-0.15,0.29-0.39,0.46-0.42
			C160.63,54.66,160.82,54.88,161.13,55.07z"/>
		<path class="st0" d="M109.05,54.92c-0.26,0.18-0.4,0.35-0.52,0.34c-0.13-0.01-0.24-0.19-0.36-0.29c0.11-0.12,0.2-0.3,0.33-0.32
			C108.62,54.61,108.77,54.76,109.05,54.92z"/>
		<path class="st0" d="M104.4,54.43c0.18,0.25,0.36,0.38,0.35,0.49c-0.01,0.12-0.19,0.32-0.31,0.32c-0.12,0-0.31-0.17-0.34-0.3
			C104.08,54.84,104.25,54.69,104.4,54.43z"/>
	</g>
</g>
</svg>
