<?xml version="1.0" encoding="utf-8"?>
<!-- Generator: Adobe Illustrator 23.0.0, SVG Export Plug-In . SVG Version: 6.00 Build 0)  -->
<svg version="1.1" id="Calque_1" xmlns="http://www.w3.org/2000/svg" xmlns:xlink="http://www.w3.org/1999/xlink" x="0px" y="0px"
	 viewBox="0 0 270 66.1" style="enable-background:new 0 0 270 66.1;" xml:space="preserve">
<style type="text/css">
	.st0{fill:#FFFFFF;}
	.st1{fill:url(#SVGID_1_);}
	.st2{fill:url(#SVGID_2_);}
	.st3{fill:url(#SVGID_3_);}
	.st4{fill:url(#SVGID_4_);}
	.st5{fill:url(#SVGID_5_);}
	.st6{fill:url(#SVGID_6_);}
	.st7{fill:url(#SVGID_7_);}
	.st8{fill:url(#SVGID_8_);}
	.st9{fill:url(#SVGID_9_);}
	.st10{fill:url(#SVGID_10_);}
	.st11{fill:url(#SVGID_11_);}
	.st12{fill:url(#SVGID_12_);}
	.st13{fill:url(#SVGID_13_);}
	.st14{fill:url(#SVGID_14_);}
	.st15{fill:url(#SVGID_15_);}
	.st16{fill:url(#SVGID_16_);}
	.st17{fill:url(#SVGID_17_);}
	.st18{fill:url(#SVGID_18_);}
	.st19{fill:url(#SVGID_19_);}
	.st20{fill:url(#SVGID_20_);}
	.st21{fill:url(#SVGID_21_);}
	.st22{fill:url(#SVGID_22_);}
	.st23{fill:url(#SVGID_23_);}
	.st24{fill:url(#SVGID_24_);}
	.st25{fill:url(#SVGID_25_);}
	.st26{fill:url(#SVGID_26_);}
	.st27{fill:url(#SVGID_27_);}
	.st28{fill:url(#SVGID_28_);}
	.st29{fill:url(#SVGID_29_);}
	.st30{fill:url(#SVGID_30_);}
	.st31{fill:url(#SVGID_31_);}
	.st32{fill:url(#SVGID_32_);}
	.st33{clip-path:url(#XMLID_2_);fill:#FFFFFF;}
	.st34{clip-path:url(#XMLID_3_);fill:#FFFFFF;}
	.st35{clip-path:url(#XMLID_4_);fill:#FFFFFF;}
	.st36{clip-path:url(#XMLID_5_);fill:#FFFFFF;}
	.st37{clip-path:url(#XMLID_6_);fill:#FFFFFF;}
	.st38{clip-path:url(#XMLID_7_);fill:#FFFFFF;}
	.st39{clip-path:url(#XMLID_8_);fill:#FFFFFF;}
	.st40{clip-path:url(#XMLID_9_);fill:#FFFFFF;}
	.st41{clip-path:url(#XMLID_10_);fill:#FFFFFF;}
	.st42{clip-path:url(#XMLID_11_);fill:#FFFFFF;}
	.st43{clip-path:url(#XMLID_12_);fill:#FFFFFF;}
	.st44{clip-path:url(#XMLID_13_);fill:#FFFFFF;}
	.st45{clip-path:url(#XMLID_14_);fill:#FFFFFF;}
</style>
<g>
	<path class="st0" d="M151.98,17.76c0-2.92,0-5.75,0-8.64c0.2-0.01,0.38-0.04,0.55-0.04c2.62,0,5.23,0.01,7.85-0.01
		c0.47,0,0.58,0.15,0.58,0.6c-0.02,2.47-0.01,4.93-0.01,7.4c0,0.2,0,0.4,0,0.67c1.83,0,3.63,0,5.47,0c0,2.44,0,4.81,0,7.24
		c-1.8,0-3.59,0-5.43,0c0,5.98,0,11.9,0,17.88c1.88,0,3.75,0,5.65,0c0,2.47,0,4.88,0,7.37c-0.21,0-0.4,0-0.59,0
		c-2.92,0-5.83-0.06-8.75,0.02c-2.73,0.07-5.3-2.27-5.31-5.24c-0.01-3.68-0.01-7.37-0.01-11.05c0-2.78,0-5.57,0-8.35
		c0-0.18,0-0.36,0-0.57c-0.21-0.01-0.38-0.03-0.54-0.03c-1.52,0-3.03-0.02-4.55,0.01c-0.24,0-0.55,0.13-0.72,0.31
		c-1.08,1.18-2.12,2.4-3.18,3.59c-0.21,0.23-0.23,0.42-0.1,0.7c3.1,6.72,6.2,13.45,9.29,20.18c0.05,0.12,0.1,0.24,0.18,0.41
		c-0.18,0.01-0.32,0.03-0.46,0.03c-3.23,0-6.47,0-9.7,0.01c-0.35,0-0.52-0.1-0.67-0.43c-1.87-4.01-3.76-8.02-5.64-12.02
		c-0.06-0.13-0.13-0.26-0.22-0.44c-0.11,0.11-0.21,0.19-0.29,0.28c-1.1,1.25-2.21,2.49-3.29,3.76c-0.17,0.2-0.28,0.53-0.28,0.8
		c-0.02,2.48-0.01,4.97-0.01,7.45c0,0.17,0,0.33,0,0.54c-3.06,0-6.1,0-9.19,0c0-0.92,0-1.86,0-2.93c-0.2,0.16-0.31,0.24-0.41,0.33
		c-2.42,2.16-5.2,3.21-8.45,2.64c-2.67-0.47-4.75-1.94-6.43-4c-2.62-3.22-3.77-6.99-3.96-11.09c-0.16-3.49,0.46-6.83,2.04-9.96
		c1.33-2.64,3.16-4.84,5.87-6.13c3.57-1.71,6.95-1.2,10.1,1.14c0.2,0.15,0.39,0.31,0.58,0.47c0.19,0.16,0.37,0.32,0.64,0.56
		c0-4.09,0-8.07,0-12.09c3.09,0,6.11,0,9.22,0c0,7.39,0,14.77,0,22.15c0.04,0.01,0.08,0.02,0.12,0.03c0.77-0.91,1.55-1.81,2.32-2.72
		c2.97-3.51,5.94-7.01,8.93-10.51c0.15-0.17,0.44-0.3,0.67-0.3c2.5-0.02,5-0.01,7.5-0.01C151.52,17.76,151.72,17.76,151.98,17.76z
		 M122.58,34.23c0-2.11,0-4.23-0.01-6.34c0-0.19-0.02-0.42-0.12-0.56c-0.79-1.15-1.78-2.06-3.1-2.57c-1.96-0.75-3.91-0.15-4.99,1.64
		c-0.48,0.8-0.84,1.71-1.07,2.61c-0.69,2.74-0.64,5.54-0.36,8.34c0.15,1.55,0.47,3.06,1.24,4.44c0.79,1.41,1.96,2.23,3.64,2.18
		c2-0.06,3.38-1.16,4.51-2.67c0.15-0.21,0.24-0.51,0.25-0.77C122.59,38.43,122.58,36.33,122.58,34.23z"/>
	<path class="st0" d="M110.62,56.87c-0.74,0.18-1.21,0.05-1.59-0.58c-0.51-0.84-1.15-1.61-1.78-2.48c0,1.07,0,2.07,0,3.09
		c-0.32,0-0.61,0-0.94,0c0-1.43,0-2.85,0-4.29c0.68-0.14,1.22-0.09,1.64,0.59c0.49,0.8,1.1,1.53,1.7,2.36c0-1.03,0-1.99,0-2.96
		c0.11-0.02,0.17-0.04,0.24-0.05c0.73-0.04,0.73-0.04,0.73,0.67C110.62,54.45,110.62,55.66,110.62,56.87z"/>
	<path class="st0" d="M126.98,56.9c0-1.44,0-2.85,0-4.25c0.9-0.23,1.1-0.16,1.62,0.54c0.57,0.77,1.13,1.55,1.73,2.37
		c0-1,0-1.96,0-2.96c0.32,0,0.6,0,0.93,0c0,1.42,0,2.84,0,4.28c-0.63,0.15-1.12,0.08-1.51-0.55c-0.53-0.86-1.18-1.64-1.81-2.51
		c0,1.04,0,2.04,0,3.07C127.62,56.9,127.33,56.9,126.98,56.9z"/>
	<path class="st0" d="M156.06,56.88c-0.73,0.21-1.21,0.01-1.57-0.63c-0.24-0.43-0.59-0.8-0.88-1.21c-0.29-0.4-0.56-0.81-0.89-1.29
		c0,1.11,0,2.11,0,3.15c-0.31,0-0.59,0-0.93,0c0-1.42,0-2.84,0-4.26c0.89-0.22,1.09-0.15,1.6,0.54c0.57,0.78,1.13,1.55,1.74,2.38
		c0-1,0-1.96,0-2.95c0.32,0,0.61,0,0.93,0C156.06,54.03,156.06,55.45,156.06,56.88z"/>
	<path class="st0" d="M147.91,57.02c-1.77-0.03-2.75-1.03-2.63-2.5c0.08-0.97,0.85-1.8,1.9-1.95c0.47-0.07,0.97-0.06,1.44,0.03
		c1.03,0.19,1.71,1.01,1.75,2.02c0.04,1.06-0.55,1.93-1.56,2.23C148.46,56.96,148.09,56.99,147.91,57.02z M146.37,54.73
		c-0.02,0.92,0.55,1.56,1.41,1.59c0.84,0.03,1.46-0.61,1.48-1.53c0.02-0.91-0.56-1.56-1.42-1.58
		C146.97,53.19,146.39,53.79,146.37,54.73z"/>
	<path class="st0" d="M122.84,55.24c0,0.56,0,1.11,0,1.67c-0.35,0-0.66,0-1,0c0-1.42,0-2.83,0-4.28c0.97-0.11,1.93-0.21,2.87,0.11
		c0.41,0.14,0.71,0.42,0.77,0.9c0.06,0.47-0.18,0.79-0.54,1.05c-0.08,0.06-0.17,0.1-0.17,0.1c0.32,0.7,0.62,1.38,0.95,2.11
		c-0.17,0.02-0.24,0.04-0.32,0.04c-0.85,0.02-0.85,0.02-1.1-0.82C124.05,55.27,123.8,55.11,122.84,55.24z M122.8,53.24
		c0.07,0.47,0.14,0.87,0.2,1.28c0.41-0.08,0.84-0.12,1.22-0.27c0.12-0.05,0.21-0.5,0.12-0.65C124.02,53.06,123.45,53.23,122.8,53.24
		z"/>
	<path class="st0" d="M162.14,56.92c-0.11,0.01-0.19,0.02-0.28,0.02c-0.81,0.02-0.83,0.02-1.12-0.75c-0.13-0.35-0.32-0.52-0.69-0.46
		c-0.08,0.01-0.17,0-0.25,0c-1.06,0.03-0.83-0.19-1.21,0.84c-0.1,0.28-0.23,0.41-0.53,0.37c-0.21-0.02-0.42,0-0.7,0
		c0.41-1.04,0.8-2.03,1.19-3.01c0.09-0.23,0.22-0.45,0.27-0.69c0.12-0.55,0.43-0.72,0.99-0.69c0.45,0.02,0.67,0.13,0.83,0.56
		c0.42,1.14,0.9,2.25,1.35,3.37C162.05,56.62,162.09,56.76,162.14,56.92z M159.72,53.41c-0.22,0.58-0.4,1.08-0.59,1.6
		c0.43,0,0.8,0,1.21,0C160.13,54.47,159.94,53.99,159.72,53.41z"/>
	<path class="st0" d="M137.32,56.92c-0.09,0.01-0.17,0.02-0.26,0.02c-0.82,0.02-0.84,0.02-1.11-0.75c-0.13-0.36-0.32-0.51-0.69-0.45
		c-0.13,0.02-0.27,0.02-0.4,0c-0.56-0.09-0.88,0.09-1.03,0.68c-0.16,0.61-0.22,0.59-1.27,0.49c0.27-0.67,0.53-1.33,0.8-1.99
		c0.27-0.66,0.54-1.32,0.79-1.99c0.09-0.25,0.22-0.39,0.5-0.35c0.21,0.03,0.44-0.03,0.65,0.02c0.15,0.03,0.35,0.14,0.4,0.26
		c0.55,1.3,1.07,2.61,1.59,3.92C137.32,56.81,137.32,56.86,137.32,56.92z M135.54,55.03c-0.21-0.55-0.4-1.04-0.63-1.63
		c-0.21,0.59-0.4,1.09-0.59,1.63C134.74,55.03,135.1,55.03,135.54,55.03z"/>
	<path class="st0" d="M117.13,52.6c1.05,0,2.08,0,3.12,0c0,0.24,0,0.45,0,0.71c-0.7,0-1.38,0-2.08,0c0,0.36,0,0.66,0,1.02
		c0.65,0,1.3,0,1.97,0c0,0.24,0,0.43,0,0.68c-0.63,0-1.27,0-1.95,0c0,0.42,0,0.79,0,1.21c0.56,0,1.12,0,1.68,0
		c0.59,0,0.59,0,0.52,0.68c-1.07,0-2.14,0-3.25,0C117.13,55.49,117.13,54.07,117.13,52.6z"/>
	<path class="st0" d="M113.33,53.3c-0.56,0-1.03,0-1.52,0c0-0.26,0-0.47,0-0.73c1.3,0,2.58-0.01,3.85,0.02
		c0.09,0,0.25,0.24,0.25,0.36c0,0.12-0.16,0.33-0.27,0.34c-0.39,0.04-0.79,0.02-1.24,0.02c0,1.21,0,2.38,0,3.59
		c-0.37,0-0.69,0-1.06,0C113.33,55.74,113.33,54.57,113.33,53.3z"/>
	<path class="st0" d="M140.11,56.91c-0.4,0-0.7,0-1.08,0c0-1.19,0-2.37,0-3.61c-0.54,0-1.02,0-1.52,0c0-0.26,0-0.47,0-0.71
		c1.37,0,2.72,0,4.1,0c0,0.23,0,0.44,0,0.69c-0.5,0-0.98,0-1.51,0C140.11,54.51,140.11,55.68,140.11,56.91z"/>
	<path class="st0" d="M164.49,56.24c0.79,0,1.47,0,2.17,0c0,0.23,0,0.42,0,0.66c-1.04,0-2.08,0-3.16,0c0-1.41,0-2.83,0-4.29
		c0.3,0,0.61,0,0.99,0C164.49,53.8,164.49,54.98,164.49,56.24z"/>
	<path class="st0" d="M143.84,56.91c-0.36,0-0.68,0-1.01,0c0-1.45,0-2.87,0-4.32c0.34,0,0.66,0,1.01,0
		C143.84,54.04,143.84,55.46,143.84,56.91z"/>
	<path class="st0" d="M104.57,56.91c-0.32,0-0.63,0-0.98,0c0-1.43,0-2.85,0-4.31c0.31,0,0.61,0,0.98,0
		C104.57,54.02,104.57,55.45,104.57,56.91z"/>
</g>
</svg>
