<?xml version="1.0" encoding="utf-8"?>
<!-- Generator: Adobe Illustrator 23.0.0, SVG Export Plug-In . SVG Version: 6.00 Build 0)  -->
<svg version="1.1" id="Calque_1" xmlns="http://www.w3.org/2000/svg" xmlns:xlink="http://www.w3.org/1999/xlink" x="0px" y="0px"
	 viewBox="0 0 270 66.1" style="enable-background:new 0 0 270 66.1;" xml:space="preserve">
<style type="text/css">
	.st0{fill:#FFFFFF;}
	.st1{fill:url(#SVGID_1_);}
	.st2{fill:url(#SVGID_2_);}
	.st3{fill:url(#SVGID_3_);}
	.st4{fill:url(#SVGID_4_);}
	.st5{fill:url(#SVGID_5_);}
	.st6{fill:url(#SVGID_6_);}
	.st7{fill:url(#SVGID_7_);}
	.st8{fill:url(#SVGID_8_);}
	.st9{fill:url(#SVGID_9_);}
	.st10{fill:url(#SVGID_10_);}
	.st11{fill:url(#SVGID_11_);}
	.st12{fill:url(#SVGID_12_);}
	.st13{fill:url(#SVGID_13_);}
	.st14{fill:url(#SVGID_14_);}
	.st15{fill:url(#SVGID_15_);}
	.st16{fill:url(#SVGID_16_);}
	.st17{fill:url(#SVGID_17_);}
	.st18{fill:url(#SVGID_18_);}
	.st19{fill:url(#SVGID_19_);}
	.st20{fill:url(#SVGID_20_);}
	.st21{fill:url(#SVGID_21_);}
	.st22{fill:url(#SVGID_22_);}
	.st23{fill:url(#SVGID_23_);}
	.st24{fill:url(#SVGID_24_);}
	.st25{fill:url(#SVGID_25_);}
	.st26{fill:url(#SVGID_26_);}
	.st27{fill:url(#SVGID_27_);}
	.st28{fill:url(#SVGID_28_);}
	.st29{fill:url(#SVGID_29_);}
	.st30{fill:url(#SVGID_30_);}
	.st31{fill:url(#SVGID_31_);}
	.st32{fill:url(#SVGID_32_);}
	.st33{clip-path:url(#XMLID_2_);fill:#FFFFFF;}
	.st34{clip-path:url(#XMLID_3_);fill:#FFFFFF;}
	.st35{clip-path:url(#XMLID_4_);fill:#FFFFFF;}
	.st36{clip-path:url(#XMLID_5_);fill:#FFFFFF;}
	.st37{clip-path:url(#XMLID_6_);fill:#FFFFFF;}
	.st38{clip-path:url(#XMLID_7_);fill:#FFFFFF;}
	.st39{clip-path:url(#XMLID_8_);fill:#FFFFFF;}
	.st40{clip-path:url(#XMLID_9_);fill:#FFFFFF;}
	.st41{clip-path:url(#XMLID_10_);fill:#FFFFFF;}
	.st42{clip-path:url(#XMLID_11_);fill:#FFFFFF;}
	.st43{clip-path:url(#XMLID_12_);fill:#FFFFFF;}
	.st44{clip-path:url(#XMLID_13_);fill:#FFFFFF;}
	.st45{clip-path:url(#XMLID_14_);fill:#FFFFFF;}
</style>
<g>
	<path class="st0" d="M111.33,41.23c-0.4-0.35-0.99-0.58-1.78-0.58h-2.24v3.82h2.24c0.79,0,1.38-0.03,1.78-0.38
		c0.4-0.34,0.6-0.79,0.6-1.42C111.93,42.04,111.73,41.58,111.33,41.23z"/>
	<path class="st0" d="M156.07,54.03c-0.42,0-0.65,0.37-0.69,0.75h1.36C156.73,54.4,156.49,54.03,156.07,54.03z"/>
	<path class="st0" d="M153.96,54.03c-0.42,0-0.65,0.37-0.69,0.75h1.36C154.61,54.4,154.37,54.03,153.96,54.03z"/>
	<path class="st0" d="M138.16,54.03c-0.55,0-0.74,0.46-0.74,0.9c0,0.44,0.19,0.9,0.74,0.9c0.49,0,0.69-0.46,0.69-0.9
		C138.85,54.49,138.65,54.03,138.16,54.03z"/>
	<path class="st0" d="M146.82,53.25c-0.77,0-1.1,0.64-1.1,1.28c0,0.64,0.33,1.28,1.1,1.28c0.77,0,1.09-0.64,1.09-1.28
		C147.91,53.89,147.59,53.25,146.82,53.25z"/>
	<polygon class="st0" points="140.47,29.6 140.47,25.99 140.73,25.6 136.34,29.6 	"/>
	<path class="st0" d="M122.05,43.62c-0.38-0.32-0.86-0.42-1.42-0.42c-0.57,0-1.04,0.12-1.42,0.44c-0.38,0.32-0.62,0.62-0.73,1.23
		h4.3C122.67,44.27,122.43,43.94,122.05,43.62z"/>
	<path class="st0" d="M159.22,54.93c-0.44,0.08-0.98,0.07-0.98,0.49c0,0.26,0.23,0.42,0.47,0.42c0.39,0,0.74-0.25,0.73-0.66v-0.33
		h-0.01C159.41,54.89,159.29,54.91,159.22,54.93z"/>
	<path class="st0" d="M160.29,43.56c-0.65,0-1.18,0.22-1.59,0.66c-0.41,0.44-0.62,1.05-0.62,1.82c0,0.79,0.21,1.4,0.62,1.85
		c0.41,0.45,0.94,0.67,1.59,0.67c0.63,0,1.16-0.22,1.57-0.67c0.41-0.45,0.62-1.06,0.62-1.85c0-0.77-0.2-1.38-0.61-1.82
		C161.47,43.78,160.94,43.56,160.29,43.56z"/>
	<path class="st0" d="M136.55,43.59l-2.71,1.38c-0.48-0.94-1.18-1.41-2.09-1.41c-0.66,0-1.2,0.22-1.64,0.66
		c-0.43,0.44-0.65,1.05-0.65,1.82c0,0.79,0.22,1.4,0.65,1.85c0.43,0.45,0.98,0.67,1.64,0.67c0.92,0,1.61-0.47,2.09-1.41l2.73,1.39
		c-0.39-0.75-0.59-1.58-0.59-2.49C135.98,45.15,136.17,44.33,136.55,43.59z"/>
	<path class="st0" d="M98.64,4.62v56.86h72.73V4.62H98.64z M129.1,10.78c1.82-0.96,3.97-1.44,6.46-1.44c1.97,0,3.71,0.32,5.22,0.96
		c1.51,0.64,2.7,1.55,3.54,2.74c0.85,1.19,1.27,2.56,1.27,4.14c0,0.8-0.1,1.53-0.3,2.28l6.94-9.74h7.57L149.3,24.78h5.43v-4.42h6.63
		v4.42h4.02v5.83h-4.02v4.62h-6.83v-4.62h-8.04v4.62H126.4v-4.1l9.56-9.05c0.94-0.89,1.45-1.64,1.77-2.27
		c0.32-0.63,0.48-1.26,0.48-1.9c0-0.84-0.28-1.49-0.85-1.96c-0.57-0.47-1.39-0.7-2.47-0.7c-0.96,0-1.84,0.22-2.64,0.65
		c-0.8,0.43-1.46,1.05-1.98,1.86l-5.43-3.03C125.86,13.06,127.28,11.74,129.1,10.78z M103.78,13.26h6.28v9.33l8.69-9.33h6.99
		l-9.17,9.94l9.65,12.5h-7.37l-6.41-8.14l-2.37,2.53v5.61h-6.28V13.26z M138.16,56.04c-0.34,0-0.63-0.18-0.75-0.46h-0.01v0.4h-0.24
		v-2.91h0.26v1.21h0.01c0.11-0.3,0.42-0.46,0.73-0.46c0.64,0,0.95,0.52,0.95,1.11C139.11,55.53,138.8,56.04,138.16,56.04z
		 M140.23,56.31c-0.15,0.35-0.23,0.46-0.55,0.46c-0.1,0-0.15,0-0.2-0.02v-0.22c0.06,0.01,0.12,0.02,0.18,0.02
		c0.23,0,0.28-0.13,0.37-0.33l0.09-0.24l-0.84-2.1h0.27l0.69,1.8l0.65-1.8h0.26L140.23,56.31z M145.07,55.98h-0.2l-0.04-0.53h-0.01
		c-0.2,0.42-0.59,0.59-1.01,0.59c-0.92,0-1.37-0.72-1.37-1.52c0-0.8,0.46-1.52,1.37-1.52c0.61,0,1.11,0.33,1.22,0.97h-0.28
		c-0.04-0.33-0.38-0.73-0.94-0.73c-0.77,0-1.1,0.64-1.1,1.28c0,0.64,0.33,1.28,1.1,1.28c0.64,0,1.02-0.45,1.01-1.07h-0.99V54.5h1.24
		V55.98z M146.82,56.04c-0.92,0-1.37-0.72-1.37-1.52c0-0.8,0.46-1.52,1.37-1.52c0.91,0,1.37,0.72,1.37,1.52
		C148.19,55.32,147.73,56.04,146.82,56.04z M151.61,53.31h-1.57v1.05h1.4v0.24h-1.4v1.39h-0.28v-2.91h1.85V53.31z M152.94,54.11
		c-0.47-0.02-0.78,0.32-0.78,0.75v1.12h-0.26v-2.11h0.24v0.49h0.01c0.13-0.34,0.42-0.54,0.8-0.52V54.11z M154.88,55h-1.62
		c0,0.38,0.2,0.83,0.69,0.83c0.38,0,0.58-0.22,0.66-0.54h0.26c-0.11,0.48-0.39,0.75-0.92,0.75c-0.67,0-0.95-0.51-0.95-1.11
		c0-0.55,0.28-1.11,0.95-1.11C154.63,53.82,154.9,54.41,154.88,55z M157,55h-1.62c0,0.38,0.2,0.83,0.69,0.83
		c0.38,0,0.58-0.22,0.66-0.54h0.26c-0.11,0.48-0.39,0.75-0.92,0.75c-0.67,0-0.95-0.51-0.95-1.11c0-0.55,0.28-1.11,0.95-1.11
		C156.75,53.82,157.02,54.41,157,55z M157.61,55.98h-0.26v-2.91h0.26V55.98z M159.94,55.97c-0.06,0.01-0.1,0.02-0.17,0.02
		c-0.26,0-0.3-0.15-0.3-0.37h-0.01c-0.18,0.27-0.36,0.43-0.77,0.43c-0.39,0-0.71-0.19-0.71-0.62c0-0.59,0.58-0.61,1.13-0.68
		c0.21-0.02,0.33-0.05,0.33-0.29c0-0.35-0.25-0.43-0.55-0.43c-0.32,0-0.55,0.15-0.56,0.49h-0.26c0.02-0.49,0.37-0.71,0.85-0.71
		c0.37,0,0.78,0.11,0.78,0.68v1.12c0,0.1,0.05,0.16,0.15,0.16c0.03,0,0.06-0.01,0.08-0.02V55.97z M161.93,55.98h-0.26v-1.31
		c0-0.36-0.12-0.64-0.53-0.64c-0.41,0-0.65,0.31-0.66,0.72v1.23h-0.26v-2.11h0.26v0.36h0.01c0.09-0.25,0.38-0.42,0.67-0.42
		c0.59,0,0.77,0.31,0.77,0.81V55.98z M159.5,51.48c-0.96,0-1.81-0.22-2.6-0.67c-0.79-0.45-1.41-1.08-1.87-1.91
		c-0.46-0.83-0.69-1.78-0.69-2.87c0-0.77,0.12-1.48,0.35-2.11c-0.25-0.02-0.47-0.04-0.64-0.04c-0.79,0-1.41,0.21-1.86,0.64
		c-0.45,0.43-0.68,1.08-0.68,1.96v4.61h-3.82V47.3c-0.12,0.55-0.33,1.07-0.62,1.55c-0.5,0.83-1.21,1.47-2.11,1.94
		c-0.9,0.46-1.92,0.7-3.06,0.7c-1.12,0-2.14-0.23-3.04-0.7c-0.9-0.46-1.61-1.11-2.12-1.94c-0.03-0.05-0.06-0.11-0.1-0.17
		c-0.37,0.86-0.97,1.53-1.8,2.02c-0.87,0.51-1.89,0.75-3.08,0.75c-1.16,0-2.2-0.27-3.12-0.74c-0.92-0.46-1.63-1.19-2.14-2.02
		c-0.35-0.57-0.58-1.21-0.69-2.02h-7.29c0.15,0.6,0.46,1.11,0.9,1.41c0.45,0.29,1,0.59,1.68,0.59c0.5,0,0.94-0.07,1.31-0.21
		c0.37-0.14,0.74-0.37,1.11-0.7l1.94,2.01c-1.02,1.14-2.51,1.7-4.47,1.7c-1.23,0-2.31-0.24-3.24-0.7c-0.93-0.46-1.65-1.12-2.16-1.94
		c-0.51-0.83-0.77-1.78-0.77-2.82c0-0.11,0-0.24,0.01-0.34c-0.43,0.54-0.99,0.93-1.68,1.27l2.93,4.16h-4.11l-2.46-3.62h-2.2v3.62
		h-3.62V37.64h6.08c1.23,0,2.29,0.26,3.2,0.67c0.9,0.41,1.6,1.04,2.09,1.8c0.49,0.76,0.74,1.64,0.74,2.66c0,0.05,0,0.1,0,0.15
		c0.47-0.66,1.08-1.18,1.83-1.58c0.88-0.46,1.87-0.7,2.96-0.7c1.05,0,2,0.22,2.85,0.65c0.85,0.43,1.53,1.06,2.02,1.88
		c0.22,0.37,0.4,0.77,0.52,1.2c0.13-0.39,0.3-0.77,0.52-1.12c0.51-0.82,1.22-1.46,2.14-1.92c0.92-0.46,1.96-0.69,3.12-0.69
		c1.19,0,2.21,0.26,3.08,0.77c0.83,0.49,1.43,1.16,1.8,2.02c0.03-0.06,0.07-0.11,0.1-0.17c0.51-0.83,1.21-1.47,2.11-1.93
		c0.9-0.46,1.91-0.69,3.05-0.69c1.14,0,2.16,0.23,3.06,0.69c0.9,0.46,1.61,1.1,2.11,1.92c0.29,0.47,0.5,0.99,0.62,1.54v-4.13h3.62
		v1.42c0.4-0.48,0.91-0.84,1.51-1.08c0.6-0.24,1.3-0.36,2.11-0.36v2.83c0-0.09,0.06-0.19,0.12-0.28c0.46-0.82,1.05-1.45,1.84-1.89
		c0.79-0.44,1.64-0.66,2.6-0.66c1.25,0,2.07,0.36,2.88,1.08v-4.89h3.62V51.1h-3.42v-0.83C162.16,51.08,160.87,51.48,159.5,51.48z
		 M163.3,56.04c-0.64,0-1-0.51-1-1.11c0-0.6,0.35-1.11,1-1.11c0.45,0,0.8,0.24,0.85,0.72h-0.26c-0.07-0.31-0.26-0.51-0.6-0.51
		c-0.49,0-0.74,0.45-0.74,0.9c0,0.45,0.24,0.9,0.74,0.9c0.32,0,0.58-0.25,0.61-0.6h0.26C164.1,55.73,163.77,56.04,163.3,56.04z
		 M166.3,55h-1.62c0,0.38,0.2,0.83,0.69,0.83c0.38,0,0.58-0.22,0.66-0.54h0.26c-0.11,0.48-0.39,0.75-0.92,0.75
		c-0.67,0-0.95-0.51-0.95-1.11c0-0.55,0.28-1.11,0.95-1.11C166.05,53.82,166.32,54.41,166.3,55z"/>
	<path class="st0" d="M141.91,43.56c-0.65,0-1.18,0.22-1.59,0.66c-0.41,0.44-0.62,1.05-0.62,1.82c0,0.79,0.21,1.4,0.62,1.85
		c0.41,0.45,0.94,0.67,1.59,0.67c0.65,0,1.18-0.22,1.59-0.67c0.41-0.45,0.62-1.06,0.62-1.85c0-0.77-0.21-1.38-0.62-1.82
		C143.08,43.78,142.55,43.56,141.91,43.56z"/>
	<path class="st0" d="M165.37,54.03c-0.42,0-0.65,0.37-0.69,0.75h1.36C166.03,54.4,165.79,54.03,165.37,54.03z"/>
</g>
</svg>
