<?xml version="1.0" encoding="utf-8"?>
<!-- Generator: Adobe Illustrator 23.0.0, SVG Export Plug-In . SVG Version: 6.00 Build 0)  -->
<svg version="1.1" id="Calque_1" xmlns="http://www.w3.org/2000/svg" xmlns:xlink="http://www.w3.org/1999/xlink" x="0px" y="0px"
	 viewBox="0 0 270 66.1" style="enable-background:new 0 0 270 66.1;" xml:space="preserve">
<style type="text/css">
	.st0{fill:#FFFFFF;}
	.st1{fill:url(#SVGID_1_);}
	.st2{fill:url(#SVGID_2_);}
	.st3{fill:url(#SVGID_3_);}
	.st4{fill:url(#SVGID_4_);}
	.st5{fill:url(#SVGID_5_);}
	.st6{fill:url(#SVGID_6_);}
	.st7{fill:url(#SVGID_7_);}
	.st8{fill:url(#SVGID_8_);}
	.st9{fill:url(#SVGID_9_);}
	.st10{fill:url(#SVGID_10_);}
	.st11{fill:url(#SVGID_11_);}
	.st12{fill:url(#SVGID_12_);}
	.st13{fill:url(#SVGID_13_);}
	.st14{fill:url(#SVGID_14_);}
	.st15{fill:url(#SVGID_15_);}
	.st16{fill:url(#SVGID_16_);}
	.st17{fill:url(#SVGID_17_);}
	.st18{fill:url(#SVGID_18_);}
	.st19{fill:url(#SVGID_19_);}
	.st20{fill:url(#SVGID_20_);}
	.st21{fill:url(#SVGID_21_);}
	.st22{fill:url(#SVGID_22_);}
	.st23{fill:url(#SVGID_23_);}
	.st24{fill:url(#SVGID_24_);}
	.st25{fill:url(#SVGID_25_);}
	.st26{fill:url(#SVGID_26_);}
	.st27{fill:url(#SVGID_27_);}
	.st28{fill:url(#SVGID_28_);}
	.st29{fill:url(#SVGID_29_);}
	.st30{fill:url(#SVGID_30_);}
	.st31{fill:url(#SVGID_31_);}
	.st32{fill:url(#SVGID_32_);}
	.st33{clip-path:url(#XMLID_2_);fill:#FFFFFF;}
	.st34{clip-path:url(#XMLID_3_);fill:#FFFFFF;}
	.st35{clip-path:url(#XMLID_4_);fill:#FFFFFF;}
	.st36{clip-path:url(#XMLID_5_);fill:#FFFFFF;}
	.st37{clip-path:url(#XMLID_6_);fill:#FFFFFF;}
	.st38{clip-path:url(#XMLID_7_);fill:#FFFFFF;}
	.st39{clip-path:url(#XMLID_8_);fill:#FFFFFF;}
	.st40{clip-path:url(#XMLID_9_);fill:#FFFFFF;}
	.st41{clip-path:url(#XMLID_10_);fill:#FFFFFF;}
	.st42{clip-path:url(#XMLID_11_);fill:#FFFFFF;}
	.st43{clip-path:url(#XMLID_12_);fill:#FFFFFF;}
	.st44{clip-path:url(#XMLID_13_);fill:#FFFFFF;}
	.st45{clip-path:url(#XMLID_14_);fill:#FFFFFF;}
</style>
<g>
	<path class="st0" d="M126.51,54.18c-0.01,0.12-0.02,0.24-0.03,0.35c-0.23,0.02-0.45,0.03-0.67,0.08c-0.14,0.03-0.27,0.1-0.39,0.17
		c-0.15,0.1-0.24,0.24-0.2,0.43c0.03,0.19,0.14,0.33,0.33,0.37c0.17,0.04,0.35,0.05,0.52,0.08c0.25,0.04,0.5,0.05,0.74,0.11
		c0.36,0.1,0.54,0.38,0.6,0.73c0.07,0.33-0.05,0.61-0.32,0.81c-0.46,0.34-0.98,0.45-1.54,0.41c-0.04,0-0.08-0.06-0.1-0.1
		c-0.01-0.02-0.01-0.06,0-0.09c0-0.06,0.01-0.12,0.02-0.2c0.07,0,0.14,0,0.21,0c0.35,0.02,0.68-0.05,0.98-0.22
		c0.18-0.1,0.31-0.24,0.28-0.47c-0.03-0.23-0.15-0.39-0.37-0.46c-0.16-0.05-0.32-0.06-0.48-0.08c-0.19-0.02-0.38-0.02-0.57-0.04
		c-0.4-0.05-0.65-0.27-0.75-0.65c-0.1-0.39,0.01-0.7,0.33-0.95C125.46,54.22,126.08,54.08,126.51,54.18z"/>
	<path class="st0" d="M127.5,8.61c0.45-0.16,0.87-0.32,1.31-0.48c0.09,0.27,0.17,0.51,0.26,0.78c-0.42,0.15-0.83,0.3-1.26,0.46
		C127.71,9.13,127.61,8.89,127.5,8.61z"/>
	<path class="st0" d="M145,10.35c-0.41-0.21-0.79-0.4-1.19-0.6c0.11-0.24,0.22-0.48,0.34-0.75c0.42,0.21,0.82,0.41,1.25,0.62
		C145.26,9.87,145.13,10.1,145,10.35z"/>
	<path class="st0" d="M129.81,7.83c0.44-0.1,0.85-0.2,1.26-0.29c0.03-0.01,0.11,0.04,0.11,0.08c0.05,0.22,0.1,0.45,0.15,0.7
		c-0.44,0.1-0.86,0.2-1.3,0.31C129.96,8.36,129.89,8.11,129.81,7.83z"/>
	<path class="st0" d="M122.38,11.59c0.18,0.22,0.34,0.43,0.51,0.65c-0.34,0.29-0.67,0.57-1.02,0.87c-0.18-0.2-0.36-0.4-0.55-0.61
		C121.67,12.18,122.01,11.89,122.38,11.59z"/>
	<path class="st0" d="M139.52,7.49c0.43,0.1,0.83,0.2,1.23,0.3c0.04,0.01,0.09,0.1,0.08,0.15c-0.04,0.18-0.09,0.37-0.14,0.55
		c-0.02,0.09-0.07,0.12-0.16,0.09c-0.34-0.09-0.68-0.17-1.03-0.24c-0.11-0.02-0.15-0.07-0.12-0.18
		C139.43,7.95,139.47,7.74,139.52,7.49z"/>
	<path class="st0" d="M150.19,13.2c0.29,0.3,0.59,0.63,0.92,0.97c-0.21,0.19-0.41,0.36-0.61,0.55c-0.31-0.32-0.6-0.64-0.91-0.96
		C149.78,13.57,149.98,13.39,150.19,13.2z"/>
	<path class="st0" d="M116.81,18.24c0.24-0.41,0.46-0.8,0.7-1.21c0.25,0.15,0.47,0.29,0.7,0.43c-0.23,0.39-0.44,0.76-0.67,1.16
		C117.3,18.49,117.07,18.37,116.81,18.24z"/>
	<path class="st0" d="M141.87,8.11c0.45,0.16,0.87,0.32,1.31,0.47c-0.11,0.27-0.2,0.5-0.3,0.76c-0.1-0.04-0.2-0.07-0.29-0.1
		c-0.27-0.1-0.54-0.2-0.82-0.29c-0.11-0.04-0.15-0.08-0.11-0.21C141.74,8.55,141.8,8.35,141.87,8.11z"/>
	<path class="st0" d="M146.32,10.16c0.39,0.26,0.76,0.5,1.16,0.76c-0.16,0.23-0.31,0.45-0.47,0.68c-0.38-0.25-0.74-0.49-1.12-0.74
		C146.03,10.62,146.17,10.4,146.32,10.16z"/>
	<path class="st0" d="M149.39,12.43c-0.2,0.22-0.37,0.41-0.55,0.61c-0.34-0.29-0.67-0.56-1.03-0.86c0.16-0.21,0.33-0.42,0.51-0.65
		C148.68,11.84,149.02,12.13,149.39,12.43z"/>
	<path class="st0" d="M118.92,15.03c0.23,0.18,0.43,0.34,0.65,0.51c-0.27,0.36-0.53,0.71-0.8,1.08c-0.22-0.15-0.44-0.3-0.68-0.47
		C118.37,15.78,118.63,15.41,118.92,15.03z"/>
	<path class="st0" d="M114.81,32.48c-0.08-0.46-0.16-0.9-0.24-1.37c0.26-0.04,0.49-0.08,0.73-0.11c0.03,0,0.1,0.06,0.11,0.09
		c0.07,0.36,0.14,0.73,0.19,1.1c0.01,0.04-0.05,0.12-0.09,0.13C115.29,32.38,115.07,32.42,114.81,32.48z"/>
	<path class="st0" d="M116.56,20.74c-0.25-0.1-0.49-0.19-0.76-0.3c0.18-0.43,0.36-0.84,0.55-1.28c0.26,0.12,0.5,0.23,0.75,0.35
		C116.92,19.93,116.74,20.33,116.56,20.74z"/>
	<path class="st0" d="M125.3,9.66c0.42-0.21,0.82-0.42,1.24-0.63c0.11,0.24,0.21,0.45,0.31,0.67c0.01,0.03-0.02,0.1-0.04,0.12
		c-0.36,0.19-0.73,0.37-1.11,0.56C125.57,10.14,125.44,9.92,125.3,9.66z"/>
	<path class="st0" d="M116.21,21.71c-0.12,0.41-0.23,0.8-0.34,1.18c-0.01,0.03-0.09,0.08-0.12,0.07c-0.23-0.05-0.45-0.11-0.7-0.18
		c0.1-0.34,0.18-0.66,0.28-0.97c0.11-0.36,0.12-0.36,0.48-0.24C115.93,21.61,116.06,21.66,116.21,21.71z"/>
	<path class="st0" d="M124.81,10.89c-0.38,0.25-0.74,0.49-1.12,0.74c-0.16-0.22-0.31-0.43-0.48-0.67c0.39-0.26,0.77-0.51,1.16-0.77
		C124.53,10.43,124.67,10.66,124.81,10.89z"/>
	<path class="st0" d="M120.52,13.24c0.21,0.2,0.4,0.38,0.6,0.57c-0.29,0.31-0.59,0.63-0.9,0.96c-0.21-0.18-0.4-0.35-0.62-0.54
		C119.92,13.87,120.23,13.55,120.52,13.24z"/>
	<path class="st0" d="M133.66,7.79c0.06,0.17-0.06,0.21-0.25,0.22c-0.31,0.02-0.61,0.07-0.92,0.11c-0.1,0.01-0.16,0-0.17-0.11
		c-0.02-0.18-0.05-0.36-0.08-0.54c-0.02-0.1,0.01-0.16,0.12-0.17c0.36-0.04,0.71-0.08,1.07-0.12c0.14-0.02,0.19,0.04,0.19,0.18
		C133.62,7.48,133.64,7.61,133.66,7.79z"/>
	<path class="st0" d="M138.34,8.13c-0.32-0.04-0.63-0.07-0.93-0.11c-0.38-0.05-0.38-0.05-0.36-0.44c0.01-0.12,0.02-0.25,0.03-0.41
		c0.23,0.02,0.45,0.04,0.66,0.06c0.19,0.02,0.39,0.04,0.58,0.08c0.05,0.01,0.12,0.08,0.12,0.11C138.42,7.65,138.38,7.88,138.34,8.13
		z"/>
	<path class="st0" d="M134.67,7.11c0.42,0,0.84,0,1.26,0.01c0.04,0,0.1,0.07,0.1,0.11c0,0.19-0.01,0.39-0.03,0.58
		c0,0.04-0.07,0.1-0.11,0.1c-0.37,0.01-0.74,0.01-1.11,0c-0.04,0-0.1-0.06-0.1-0.09C134.66,7.59,134.67,7.36,134.67,7.11z"/>
	<path class="st0" d="M120.59,43.7c-0.03-0.6-0.07-1.17,0.16-1.72c0.02-0.05,0.05-0.09,0.08-0.13c0.12-0.16,0.25-0.16,0.33,0.02
		c0.21,0.47,0.25,0.95,0.03,1.42C121.07,43.52,120.87,43.65,120.59,43.7z"/>
	<g>
		<path class="st0" d="M109.83,53.12c-0.23-0.16-0.48-0.29-0.67-0.47c-0.62-0.58-0.76-1.54-0.34-2.32c0.07-0.12,0.08-0.24,0.06-0.38
			c-0.22-1.43-0.44-2.87-0.66-4.3c-0.02-0.1-0.06-0.21-0.13-0.28c-0.9-0.91-0.77-2.32,0.3-3.03c0.35-0.23,0.74-0.4,1.13-0.58
			c0.63-0.3,1.26-0.58,1.89-0.87c0.52-0.24,1.04-0.32,1.6-0.17c0.04,0.01,0.13-0.02,0.15-0.05c0.36-0.6,0.85-1.05,1.5-1.3
			c-3.12-5.96-3.77-12.16-1.72-18.57c1.6-5.01,4.63-9,8.94-12.01c8.53-5.95,20.06-5.48,28.15,1.1c8.11,6.59,11.26,18.36,6.15,28.67
			c1.72,0.67,2.43,1.92,2.15,3.76c0.21,0,0.42-0.01,0.63,0c2.05,0.06,3.42,1.13,4.19,2.96c0.94,2.24,0.73,4.4-0.78,6.35
			c-0.91,1.18-2.18,1.83-3.61,2.17c-1.33,0.32-2.67,0.35-4.01,0.12c-1.88-0.33-3.75-0.73-5.62-1.12c-2.29-0.48-4.59-0.92-6.91-1.23
			c-1.61-0.21-3.22-0.17-4.84-0.09c-4.21,0.22-8.36,0.82-12.42,1.98c-2.87,0.82-5.62,1.91-8.18,3.47c-1.28,0.78-2.49,1.66-3.59,2.68
			c-0.25,0.23-0.47,0.51-0.72,0.75c-0.59,0.57-1.27,1-2.11,1.1c-1.1,0.13-1.99-0.28-2.72-1.08c-0.89-0.97-1.39-2.1-1.29-3.44
			c0.07-0.86,0.44-1.6,1.03-2.23c0.63-0.68,1.41-1.16,2.27-1.51C109.69,53.17,109.77,53.14,109.83,53.12z M138.48,21.89
			c0.07,0.08,0.12,0.13,0.16,0.18c0.32,0.44,0.47,0.93,0.5,1.47c0.04,0.76-0.14,1.49-0.32,2.22c-0.02,0.1-0.03,0.22,0,0.31
			c0.09,0.32,0.21,0.63,0.3,0.96c0.05,0.16,0.14,0.19,0.28,0.16c0.49-0.09,0.83-0.38,1.08-0.79c0.05-0.08,0.09-0.16,0.14-0.23
			c0.02,0,0.03,0.01,0.05,0.01c-0.02,0.29-0.03,0.59-0.07,0.88c-0.11,0.8-0.4,1.53-0.72,2.27c-0.21,0.48-0.41,0.97-0.56,1.46
			c-0.14,0.47-0.03,0.92,0.36,1.26c0.31,0.27,0.63,0.53,0.97,0.76c0.32,0.22,0.53,0.49,0.58,0.87c0.06,0.44,0.1,0.89,0.14,1.34
			c0.02,0.24,0.07,0.29,0.33,0.32c0.33-0.89,0.73-1.75,1.23-2.56c0.01,0.18-0.01,0.35-0.02,0.53c-0.04,0.64-0.07,1.29,0.06,1.92
			c0.05,0.22,0.15,0.42,0.25,0.63c0.02,0.04,0.15,0.08,0.18,0.06c0.2-0.16,0.42-0.31,0.58-0.5c0.17-0.2,0.15-0.44,0.02-0.67
			c-0.09-0.16-0.18-0.32-0.23-0.49c-0.41-1.34-0.21-2.59,0.59-3.75c0.17-0.24,0.34-0.49,0.47-0.75c0.52-1.04,0.82-2.14,1.07-3.27
			c0.02-0.07,0.04-0.15,0.07-0.27c0.04,0.09,0.06,0.12,0.08,0.15c0.6,1.39,0.81,2.82,0.39,4.31c-0.03,0.12-0.06,0.25-0.04,0.37
			c0.09,0.73,0.27,1.43,0.65,2.08c0.26,0.43,0.49,0.89,0.68,1.35c0.31,0.75,0.4,1.54,0.17,2.34c-0.07,0.23-0.04,0.25,0.17,0.36
			c0.36,0.19,0.71,0.4,1.08,0.58c0.15,0.07,0.33,0.09,0.5,0.09c0.15,0,0.21-0.1,0.17-0.26c-0.14-0.48-0.26-0.98-0.42-1.45
			c-0.23-0.67-0.51-1.32-0.58-2.03c-0.01-0.14-0.08-0.27-0.13-0.4c-0.17-0.4-0.4-0.78-0.51-1.19c-0.26-0.98-0.07-1.87,0.71-2.55
			c0.62-0.53,1.1-1.16,1.5-1.86c0.59-1.04,1.03-2.15,1.4-3.29c0.09-0.28,0.18-0.56,0.28-0.88c0.07,0.11,0.12,0.18,0.16,0.25
			c0.47,0.82,0.54,1.72,0.39,2.63c-0.12,0.76-0.3,1.51-0.45,2.26c-0.1,0.51-0.18,1.01-0.14,1.54c0.09,1.23,1.49,1.84,2.3,1.61
			c0.55-0.15,1-0.44,1.03-1.1c0-0.02,0.01-0.04,0.01-0.06c0-0.11,0.05-0.14,0.16-0.12c0.07,0.01,0.18,0,0.2-0.04
			c0.14-0.29,0.27-0.59,0.41-0.91c-0.19-0.02-0.32-0.04-0.45-0.04c-0.14,0-0.19-0.04-0.18-0.19c0.03-0.33,0.04-0.67,0.05-1
			c0-0.12,0.06-0.17,0.17-0.16c0.15,0.01,0.3,0.02,0.45,0.01c0.17-0.01,0.23,0.06,0.21,0.22c-0.07,0.37,0,0.71,0.22,1.02
			c0.1,0.14,0.14,0.31,0.21,0.46c0.03,0.06,0.05,0.12,0.09,0.21c0.96-8.46-3.04-16.75-10.51-21.23c-7.38-4.42-16.72-4.06-23.73,0.89
			c-2.83,1.99-5.06,4.51-6.7,7.56c-1.64,3.05-2.49,6.3-2.58,9.81c0.05-0.06,0.07-0.07,0.08-0.09c0.37-0.71,0.74-1.42,1.11-2.13
			c0.02-0.03,0.02-0.07,0.03-0.11c0.06-0.42,0.12-0.85,0.19-1.27c0.01-0.04,0.07-0.11,0.1-0.1c0.24,0.04,0.48,0.09,0.72,0.14
			c-0.02,0.12-0.04,0.21-0.05,0.29c-0.07,0.56-0.24,1.1-0.15,1.69c0.13,0.85-0.11,1.67-0.39,2.46c-0.02,0.07-0.05,0.14-0.08,0.23
			c0.23-0.04,0.27,0.06,0.27,0.24c0,0.3,0.03,0.59,0.06,0.89c0.02,0.16-0.02,0.23-0.19,0.24c-0.18,0-0.35,0.02-0.53,0.04
			c-0.05,0.01-0.13,0.06-0.15,0.1c-0.31,0.99-0.41,1.99-0.13,3c0.13,0.48,0.36,0.9,0.79,1.19c0.08,0.05,0.17,0.08,0.29,0.14
			c-0.1-0.36-0.19-0.68-0.28-1c0.22-0.06,0.42-0.1,0.61-0.17c0.14-0.05,0.2-0.01,0.24,0.14c0.09,0.32,0.19,0.64,0.29,0.96
			c0.02,0.05,0.11,0.12,0.15,0.11c0.8-0.18,1.49-0.92,1.51-1.69c0.01-0.48-0.18-0.88-0.47-1.25c-0.78-1.02-1.05-2.16-0.81-3.43
			c0.19-1,0.63-1.9,1.15-2.76c0.29-0.48,0.5-0.99,0.64-1.53c0.28-1.1,0.35-2.23,0.34-3.36c0-0.1,0-0.21,0-0.33
			c0.28,0.17,0.58,0.49,0.81,0.88c0.45,0.74,0.68,1.55,0.78,2.39c0.02,0.18,0.06,0.38,0.01,0.54c-0.36,1.18-0.48,2.38-0.31,3.61
			c0.06,0.44,0.19,0.85,0.52,1.15c0.3,0.28,0.63,0.52,0.96,0.77c0.32,0.24,0.7,0.26,1.09,0.2c0.54-0.08,1.04-0.26,1.51-0.52
			c0.25-0.14,0.49-0.29,0.74-0.44c0.02,0.07,0.05,0.13,0.06,0.19c0.29,0.97,0.32,1.95,0.1,2.94c-0.19,0.83-0.4,1.66-0.56,2.49
			c-0.13,0.66-0.09,1.31,0.23,1.92c0.04,0.07,0.08,0.13,0.12,0.19c0.02,0,0.03-0.01,0.05-0.01c-0.09-0.93,0.1-1.8,0.51-2.69
			c0.04,0.17,0.07,0.29,0.1,0.41c0.22,0.88,0.45,1.75,0.91,2.54c0.23,0.4,0.19,0.48,0.65,0.12c0.59-0.45,0.8-1.1,0.86-1.81
			c0.07-0.87-0.12-1.69-0.39-2.51c-0.3-0.87-0.45-1.76-0.36-2.68c0.12-1.34,0.7-2.44,1.73-3.3c0.05-0.04,0.11-0.08,0.19-0.13
			c-0.1,0.41-0.2,0.77-0.27,1.14c-0.12,0.62-0.16,1.24,0.05,1.85c0.33,0.96,1.56,1.39,2.34,0.83c0.33-0.24,0.5-0.58,0.61-0.96
			c0.18-0.6,0.22-1.22,0.18-1.84c-0.01-0.12-0.01-0.25-0.02-0.37c0.02,0,0.04-0.01,0.06-0.01c0.11,0.24,0.24,0.47,0.34,0.71
			c0.32,0.75,0.33,1.55,0.31,2.35c-0.01,0.25,0.01,0.51,0.05,0.75c0.03,0.19,0.13,0.36,0.33,0.48c0.02-0.12,0.04-0.21,0.06-0.3
			c0.07-0.59,0.04-1.18-0.08-1.77c0.05,0.05,0.09,0.11,0.11,0.17c0.27,0.66,0.54,1.32,0.79,1.99c0.06,0.15,0.11,0.2,0.27,0.16
			c0.65-0.18,1.11-0.58,1.39-1.19c0.02-0.05-0.01-0.15-0.05-0.21c-0.13-0.21-0.31-0.39-0.4-0.61c-0.62-1.48-1.23-2.96-1.84-4.45
			c-0.3-0.74-0.61-1.47-0.9-2.21c-0.03-0.06-0.03-0.19,0-0.21c0.27-0.16,0.56-0.31,0.85-0.47c0.44,0.84,0.87,1.65,1.31,2.5
			c0.02-0.07,0.03-0.08,0.04-0.1c0.1-1.05,0.41-2.04,0.79-3.01c0.14-0.36,0.32-0.6,0.7-0.67c0.08-0.01,0.15-0.06,0.23-0.09
			c0.19-0.07,0.37-0.14,0.58-0.21c0.42,1.13,0.84,2.25,1.25,3.36c0.02,0,0.04,0,0.06,0c0.07-0.35,0.15-0.7,0.2-1.05
			C138.42,22.65,138.44,22.29,138.48,21.89z M153.17,40.7c0-0.06,0-0.09,0-0.12c0.06-0.57-0.18-0.98-0.72-1.18
			c-0.16-0.06-0.34-0.1-0.51-0.13c-0.55-0.09-1.09-0.11-1.64,0.03c-0.42,0.11-0.5,0.32-0.25,0.66c0.14,0.19,0.15,0.37,0.03,0.58
			c-0.54,0.96-1.08,1.91-1.61,2.87c-0.19,0.34-0.4,0.63-0.8,0.71c-0.03,0.01-0.06,0.03-0.08,0.04c-0.2,0.13-0.21,0.35,0,0.47
			c0.12,0.07,0.27,0.12,0.41,0.15c0.86,0.19,1.71,0.37,2.57,0.55c0.15,0.03,0.31,0.06,0.47,0.05c0.37-0.03,0.45-0.3,0.25-0.51
			c-0.16-0.17-0.17-0.37-0.05-0.58c0.43-0.77,0.86-1.54,1.29-2.31c0.14-0.25,0.34-0.44,0.61-0.54c0.21-0.08,0.42-0.04,0.52,0.09
			c0.12,0.17,0.05,0.32-0.05,0.47c-0.31,0.48-0.63,0.95-0.92,1.43c-0.17,0.28-0.33,0.58-0.44,0.89c-0.18,0.52-0.02,0.97,0.39,1.33
			c0.6,0.53,2.11,0.82,3,0c0.25-0.23,0.53-0.43,0.82-0.61c0.66-0.4,1.33-0.76,2.16-0.65c0.71,0.09,1.35,0.28,1.81,0.89
			c1.22,1.63,1,4.79-1.92,5.55c-1.14,0.3-2.29,0.23-3.41-0.03c-1.41-0.32-2.82-0.69-4.22-1.05c-2.52-0.66-5.04-1.31-7.61-1.73
			c-2.59-0.42-5.2-0.66-7.82-0.6c-1.36,0.03-2.71,0.11-4.06,0.23c-2.06,0.18-4.08,0.56-6.09,1.05c-4.67,1.13-9.08,2.9-13.34,5.09
			c-0.63,0.33-1.29,0.61-1.91,0.94c-0.43,0.23-0.86,0.48-1.25,0.78c-0.57,0.45-0.94,1.06-0.9,1.81c0.06,0.96,0.49,1.74,1.27,2.31
			c0.44,0.32,0.95,0.36,1.43,0.11c0.29-0.15,0.55-0.36,0.79-0.57c0.22-0.19,0.39-0.45,0.61-0.65c1.98-1.83,4.22-3.27,6.65-4.41
			c4.34-2.04,8.93-3.15,13.66-3.77c1.76-0.23,3.52-0.39,5.3-0.47c1.48-0.06,2.95-0.11,4.42,0.07c1.99,0.25,3.97,0.58,5.93,0.98
			c1.96,0.41,3.92,0.84,5.88,1.24c1.33,0.27,2.67,0.39,4.03,0.17c1.12-0.18,2.14-0.59,2.96-1.4c1.6-1.57,1.7-4.43,0.22-6.12
			c-0.4-0.46-0.89-0.8-1.5-0.9c-1.48-0.24-2.85,0.03-4.09,0.9c-0.05,0.04-0.11,0.07-0.16,0.11c-0.02-0.01-0.03-0.02-0.05-0.03
			c0.03-0.09,0.05-0.2,0.09-0.28c0.39-0.7,0.79-1.39,1.17-2.1c0.1-0.19,0.19-0.39,0.24-0.59c0.23-0.89-0.21-1.66-1.1-1.9
			c-0.77-0.21-1.5-0.1-2.16,0.38C153.39,40.53,153.3,40.61,153.17,40.7z M140.01,40.35c0.1-0.03,0.17-0.04,0.23-0.07
			c0.32-0.16,0.67-0.28,0.95-0.49c0.91-0.67,1.13-2.43-0.39-3.08c-0.41-0.18-0.84-0.27-1.29-0.26c-1.05,0.03-2.09,0.07-3.14,0.11
			c-0.55,0.02-1.11,0.03-1.66,0.09c-0.39,0.04-0.51,0.34-0.29,0.65c0.17,0.24,0.2,0.48,0.13,0.75c-0.4,1.62-0.79,3.23-1.18,4.85
			c-0.09,0.4-0.25,0.74-0.63,0.94c-0.04,0.02-0.07,0.05-0.1,0.09c-0.21,0.24-0.12,0.52,0.19,0.58c0.1,0.02,0.21,0.02,0.32,0.02
			c1.24-0.05,2.48-0.09,3.72-0.14c0.77-0.03,1.54-0.02,2.3-0.19c1.16-0.26,1.8-0.89,2-1.97c0.15-0.84-0.2-1.48-1-1.79
			C140.13,40.4,140.09,40.38,140.01,40.35z M112.69,45.39c-0.01,0-0.02,0-0.04,0c-0.09-0.55-0.17-1.11-0.26-1.66
			c0-0.02,0-0.05-0.01-0.08c-0.03-0.26,0.02-0.5,0.18-0.71c0.05-0.07,0.12-0.15,0.12-0.23c0.01-0.14,0.02-0.31-0.05-0.4
			c-0.05-0.07-0.23-0.06-0.36-0.06c-0.08,0-0.17,0.05-0.25,0.09c-0.39,0.17-0.77,0.35-1.15,0.53c-0.51,0.24-1.04,0.46-1.54,0.73
			c-0.38,0.2-0.38,0.51-0.03,0.74c0.23,0.15,0.34,0.35,0.38,0.62c0.23,1.53,0.47,3.05,0.71,4.58c0.08,0.54,0.21,1.07-0.2,1.55
			c-0.06,0.08-0.03,0.29,0.03,0.4c0.07,0.14,0.23,0.13,0.37,0.09c0.07-0.02,0.14-0.04,0.21-0.08c0.51-0.23,1.02-0.46,1.53-0.7
			c0.42-0.19,0.84-0.38,1.24-0.6c0.35-0.2,0.34-0.52,0-0.72c-0.22-0.13-0.34-0.31-0.38-0.56c-0.07-0.41-0.12-0.82-0.2-1.23
			c-0.05-0.23,0.03-0.41,0.16-0.6c0.04,0.04,0.07,0.07,0.1,0.11c0.48,0.54,0.94,1.09,1.43,1.61c0.43,0.46,0.83,0.52,1.4,0.27
			c0.51-0.22,1.01-0.46,1.51-0.69c0.12-0.06,0.25-0.13,0.35-0.22c0.23-0.2,0.2-0.52-0.1-0.62c-0.56-0.19-0.97-0.57-1.36-0.99
			c-0.64-0.7-1.3-1.38-1.94-2.07c-0.05-0.05-0.09-0.15-0.07-0.2c0.16-0.36,0.34-0.72,0.5-1.06c0.2,0.04,0.38,0.11,0.57,0.12
			c0.97,0.03,1.56-0.95,1.13-1.88c-0.35-0.78-1.27-0.97-1.89-0.37c-0.15,0.15-0.28,0.33-0.37,0.52c-0.22,0.43-0.41,0.87-0.61,1.3
			C113.45,43.74,113.07,44.56,112.69,45.39z M128.22,40.24c-0.19-0.69-0.63-1.02-1.26-0.94c-0.63,0.08-1.22,0.28-1.76,0.61
			c-0.12,0.07-0.24,0.17-0.33,0.28c-0.15,0.18-0.13,0.37,0.08,0.47c0.34,0.16,0.38,0.42,0.34,0.75c-0.12,0.9-0.22,1.8-0.34,2.7
			c-0.06,0.52-0.04,1.08-0.56,1.42c0,0-0.01,0.01-0.01,0.02c-0.14,0.2-0.06,0.41,0.19,0.45c0.11,0.02,0.23,0.01,0.34-0.01
			c0.76-0.13,1.53-0.27,2.29-0.41c0.28-0.05,0.57-0.11,0.84-0.21c0.3-0.12,0.31-0.38,0.03-0.55c-0.21-0.13-0.3-0.31-0.27-0.56
			c0.11-0.87,0.2-1.74,0.31-2.61c0.04-0.33,0.18-0.62,0.48-0.8c0.13-0.08,0.28-0.11,0.41-0.02c0.14,0.09,0.16,0.23,0.13,0.39
			c-0.01,0.06-0.02,0.12-0.03,0.19c-0.13,0.71-0.28,1.42-0.37,2.14c-0.1,0.75,0.27,1.34,0.95,1.49c0.88,0.19,1.68-0.01,2.34-0.64
			c0.3-0.29,0.46-0.65,0.36-1.08c-0.02-0.08-0.09-0.15-0.14-0.23c-0.06,0.05-0.1,0.12-0.17,0.16c-0.08,0.05-0.18,0.09-0.27,0.13
			c-0.03-0.09-0.1-0.18-0.09-0.26c0.06-0.55,0.14-1.09,0.2-1.63c0.05-0.48,0.11-0.96,0.08-1.43c-0.05-0.72-0.56-1.23-1.25-1.34
			c-0.82-0.14-1.81,0.35-2.3,1.13C128.38,39.96,128.31,40.09,128.22,40.24z M120.74,44.44c0.34-0.09,0.67-0.16,1-0.26
			c0.71-0.22,1.38-0.52,1.91-1.07c0.7-0.72,0.5-1.97-0.4-2.42c-0.24-0.12-0.53-0.2-0.8-0.2c-1.22,0-2.34,0.33-3.29,1.14
			c-0.47,0.4-0.81,0.9-0.97,1.51c-0.23,0.89-0.19,1.77,0.15,2.62c0.32,0.82,0.93,1.3,1.8,1.43c0.99,0.15,1.89-0.09,2.72-0.63
			c0.38-0.24,0.66-0.58,0.87-0.98c0.19-0.37,0.28-0.76,0.17-1.17c-0.04-0.17-0.12-0.21-0.28-0.12c-0.12,0.06-0.22,0.14-0.33,0.22
			c-0.41,0.29-0.82,0.56-1.33,0.66C121.31,45.28,120.91,45.05,120.74,44.44z M144.65,41.76c0.32,0.04,0.64,0.1,0.97,0.13
			c0.73,0.07,1.47,0.05,2.16-0.24c1.08-0.46,1.3-1.85,0.4-2.61c-0.2-0.17-0.44-0.3-0.69-0.39c-0.75-0.28-1.53-0.37-2.33-0.3
			c-0.96,0.09-1.8,0.46-2.4,1.24c-0.55,0.71-0.82,1.53-0.84,2.42c-0.02,1.01,0.45,1.72,1.33,2.17c0.65,0.33,1.34,0.43,2.06,0.39
			c0.64-0.04,1.21-0.25,1.69-0.68c0.28-0.25,0.49-0.54,0.57-0.92c0.05-0.25-0.02-0.33-0.28-0.28c-0.2,0.03-0.39,0.08-0.59,0.13
			c-0.52,0.12-1.04,0.15-1.54-0.07C144.74,42.59,144.56,42.22,144.65,41.76z M148.33,47.47c0.08,0.02,0.12,0.04,0.16,0.05
			c0.71,0.18,1.43,0.37,2.14,0.55c1.66,0.42,3.31,0.85,4.97,1.24c0.81,0.19,1.64,0.22,2.46,0.02c0.61-0.15,1.11-0.45,1.35-1.07
			c0.22-0.57,0.16-1.14-0.05-1.72c-0.22-0.59-0.9-0.66-1.31-0.53c-0.54,0.17-0.99,0.53-1.42,0.88c-1.62,1.31-3.7,0.93-4.86,0.07
			c-0.09-0.06-0.16-0.08-0.27-0.07c-0.22,0.03-0.45,0.07-0.68,0.05c-0.41-0.05-0.82-0.14-1.23-0.21c-0.08-0.01-0.18-0.04-0.23,0
			C149.01,46.97,148.68,47.21,148.33,47.47z M135.88,21.63c-0.14,0.95,0.23,2.57,0.72,2.91C136.36,23.57,136.12,22.6,135.88,21.63z"
			/>
		<path class="st0" d="M142.95,54.87c-0.56-0.04-1.12-0.08-1.67-0.12c-0.08,0.36,0.11,0.72,0.47,0.8c0.3,0.06,0.61,0.05,0.91,0.06
			c0.01-0.02,0.02-0.04,0.02-0.06c0.01,0.11,0.02,0.23,0.03,0.34c-0.69,0.33-1.63,0.01-1.84-0.63c-0.16-0.5-0.13-1,0.17-1.45
			c0.33-0.48,1.04-0.62,1.52-0.29c0.12,0.08,0.22,0.21,0.29,0.34C143.01,54.12,143.04,54.55,142.95,54.87z M142.52,54.48
			c0.07-0.39-0.14-0.69-0.5-0.74c-0.34-0.04-0.66,0.24-0.7,0.65C141.71,54.42,142.11,54.45,142.52,54.48z"/>
		<path class="st0" d="M129.05,55.31c-0.1-0.52-0.32-0.67-0.81-0.52c-0.16,0.05-0.32,0.12-0.48,0.18c0,0-0.01,0-0.02-0.01
			c-0.16-0.32-0.16-0.34,0.17-0.45c0.21-0.08,0.43-0.14,0.66-0.16c0.43-0.04,0.7,0.13,0.83,0.55c0.12,0.39,0.21,0.79,0.31,1.19
			c0.01,0.02,0.01,0.05,0.02,0.07c0.12,0.48,0.12,0.49-0.35,0.64c-0.27,0.09-0.56,0.16-0.84,0.19c-0.39,0.03-0.64-0.18-0.74-0.54
			c-0.11-0.37,0.01-0.67,0.35-0.87c0.14-0.08,0.3-0.14,0.45-0.18C128.73,55.34,128.89,55.33,129.05,55.31z M129.33,56.44
			c-0.06-0.26-0.1-0.46-0.16-0.66c-0.01-0.05-0.1-0.11-0.14-0.11c-0.22,0.05-0.44,0.1-0.65,0.19c-0.18,0.08-0.24,0.25-0.19,0.43
			c0.06,0.21,0.18,0.32,0.4,0.29C128.84,56.56,129.08,56.49,129.33,56.44z"/>
		<path class="st0" d="M131.98,55.88c-0.12-0.72-0.23-1.4-0.35-2.1c0.15-0.03,0.28-0.05,0.44-0.08c0.13,0.8,0.27,1.6,0.4,2.41
			c-0.44,0.19-0.88,0.34-1.35,0.3c-0.38-0.03-0.66-0.29-0.76-0.74c-0.1-0.44-0.16-0.88-0.24-1.32c-0.02-0.1-0.03-0.2-0.05-0.31
			c0.15-0.03,0.28-0.05,0.43-0.08c0.07,0.43,0.14,0.85,0.21,1.26c0.02,0.12,0.05,0.25,0.09,0.37c0.12,0.35,0.34,0.48,0.7,0.41
			C131.67,55.97,131.81,55.92,131.98,55.88z"/>
		<path class="st0" d="M143.34,55.96c0.03-0.11,0.07-0.22,0.1-0.31c0.27,0.06,0.52,0.13,0.78,0.18c0.07,0.01,0.14,0,0.21,0
			c0.14-0.01,0.27-0.07,0.27-0.21c0-0.11-0.05-0.24-0.13-0.33c-0.08-0.1-0.21-0.15-0.33-0.22c-0.12-0.08-0.25-0.14-0.37-0.22
			c-0.26-0.17-0.34-0.42-0.27-0.71c0.06-0.29,0.27-0.45,0.55-0.51c0.32-0.07,0.77,0.01,1.09,0.19c-0.04,0.11-0.08,0.22-0.11,0.32
			c-0.21-0.05-0.41-0.11-0.61-0.15c-0.08-0.02-0.16-0.01-0.24,0.01c-0.26,0.06-0.33,0.32-0.15,0.51c0.08,0.07,0.17,0.13,0.26,0.18
			c0.16,0.1,0.33,0.18,0.49,0.29c0.26,0.18,0.33,0.43,0.26,0.73c-0.07,0.3-0.27,0.44-0.55,0.49
			C144.19,56.27,143.66,56.17,143.34,55.96z"/>
		<path class="st0" d="M138,53.33c-0.03,0.13-0.05,0.25-0.07,0.34c-0.22-0.02-0.42-0.04-0.62-0.06c-0.06,0-0.11,0-0.17,0.02
			c-0.13,0.04-0.26,0.09-0.28,0.25c-0.02,0.17,0.06,0.28,0.21,0.35c0.23,0.1,0.47,0.18,0.7,0.29c0.32,0.15,0.45,0.41,0.4,0.76
			c-0.04,0.3-0.24,0.45-0.5,0.53c-0.37,0.12-0.85,0.09-1.24-0.06c0.02-0.12,0.04-0.24,0.06-0.33c0.27,0.03,0.51,0.06,0.76,0.07
			c0.09,0.01,0.19,0,0.26-0.04c0.08-0.05,0.2-0.13,0.2-0.21c0.01-0.1-0.04-0.24-0.12-0.31c-0.12-0.1-0.28-0.15-0.42-0.21
			c-0.14-0.07-0.29-0.12-0.43-0.19c-0.23-0.13-0.33-0.33-0.32-0.6c0.01-0.26,0.13-0.45,0.36-0.56
			C137.17,53.16,137.58,53.22,138,53.33z"/>
		<path class="st0" d="M138.54,55.71c0.03-0.13,0.06-0.24,0.08-0.34c0.25,0.04,0.49,0.08,0.73,0.12c0.06,0.01,0.13,0,0.19-0.01
			c0.14-0.02,0.28-0.05,0.32-0.21c0.04-0.17-0.03-0.3-0.18-0.38c-0.19-0.1-0.38-0.19-0.58-0.28c-0.37-0.18-0.53-0.41-0.48-0.75
			c0.04-0.32,0.27-0.54,0.66-0.6c0.32-0.05,0.63,0,0.95,0.11c-0.03,0.12-0.05,0.23-0.08,0.35c-0.2-0.03-0.39-0.08-0.58-0.1
			c-0.28-0.02-0.46,0.08-0.5,0.25c-0.04,0.18,0.07,0.32,0.34,0.44c0.17,0.07,0.34,0.14,0.5,0.22c0.34,0.17,0.45,0.39,0.4,0.77
			c-0.03,0.26-0.22,0.46-0.55,0.53C139.35,55.91,138.94,55.89,138.54,55.71z"/>
		<path class="st0" d="M134.85,55.5c0.03,0.09,0.06,0.18,0.08,0.27c0.01,0.04-0.02,0.1-0.05,0.12c-0.44,0.3-1.3,0.18-1.64-0.23
			c-0.37-0.45-0.42-1.26-0.1-1.74c0.23-0.35,0.58-0.5,0.99-0.5c0.17,0,0.35,0.02,0.54,0.03c-0.02,0.15-0.04,0.26-0.06,0.39
			c-0.45-0.06-0.9-0.11-1.14,0.38c-0.17,0.35-0.07,0.96,0.18,1.21C133.89,55.69,134.25,55.71,134.85,55.5z"/>
		<path class="st0" d="M135.42,55.88c-0.05-0.83-0.1-1.65-0.15-2.49c0.16-0.01,0.29-0.03,0.44-0.04c0.03,0.48,0.06,0.94,0.09,1.41
			c0.02,0.3,0.02,0.59,0.05,0.89c0.02,0.17-0.03,0.25-0.21,0.23C135.58,55.88,135.52,55.88,135.42,55.88z"/>
		<path class="st0" d="M135.44,52.33c0.17,0,0.29,0.12,0.29,0.3c0,0.17-0.11,0.28-0.28,0.28c-0.18,0-0.29-0.12-0.29-0.3
			C135.16,52.44,135.27,52.33,135.44,52.33z"/>
		<path class="st0" d="M123.86,19.39c-0.04,0.57-0.07,1.14-0.11,1.71c0,0.08-0.01,0.16,0.01,0.23c0.02,0.07,0.08,0.14,0.12,0.2
			c0.05-0.05,0.13-0.09,0.16-0.16c0.08-0.2,0.13-0.41,0.21-0.61c0.32-0.8,0.64-1.6,0.98-2.4c0.08-0.17,0.23-0.34,0.39-0.45
			c0.59-0.43,1.21-0.83,1.81-1.24c0.06-0.04,0.12-0.07,0.23-0.13c-0.07,0.15-0.12,0.25-0.17,0.34c-0.29,0.59-0.51,1.21-0.57,1.87
			c-0.01,0.12-0.09,0.3,0.07,0.35c0.17,0.06,0.18-0.14,0.24-0.24c0.57-1.03,1.17-2.05,1.94-2.96c0.26-0.31,0.55-0.57,0.92-0.73
			c0.72-0.32,1.42-0.65,2.13-0.98c0.05-0.02,0.1-0.04,0.2-0.07c-0.07,0.11-0.12,0.19-0.16,0.27c-0.39,0.77-0.78,1.54-1.16,2.31
			c-0.02,0.03-0.04,0.07-0.04,0.11c0,0.09,0.01,0.18,0.02,0.27c0.07-0.04,0.17-0.07,0.22-0.14c0.86-1.12,1.79-2.19,2.87-3.11
			c0.15-0.13,0.32-0.25,0.47-0.38c0.57-0.52,1.3-0.64,2-0.85c0.3-0.09,0.61-0.15,0.93-0.19c-0.16,0.2-0.33,0.39-0.49,0.59
			c-0.59,0.73-1.15,1.49-1.54,2.35c-0.04,0.09-0.08,0.17-0.1,0.26c-0.01,0.06,0.02,0.12,0.03,0.19c0.06-0.02,0.14-0.01,0.18-0.05
			c0.26-0.25,0.51-0.5,0.78-0.75c0.95-0.89,1.92-1.75,2.99-2.5c0.56-0.4,1.15-0.58,1.84-0.55c1.19,0.05,2.37,0.17,3.5,0.57
			c0.93,0.33,1.78,0.79,2.44,1.54c0.33,0.38,0.57,0.8,0.67,1.3c0.14,0.7-0.07,1.31-0.53,1.84c-0.56,0.65-1.3,1.01-2.09,1.27
			c-0.83,0.28-1.69,0.36-2.54,0.49c-3.09,0.45-6.06,1.33-8.88,2.69c-2.37,1.14-4.55,2.57-6.49,4.35c-0.47,0.43-0.91,0.9-1.35,1.35
			c-0.77,0.8-1.62,1.51-2.68,1.89c-0.25,0.09-0.52,0.15-0.79,0.2c-0.31,0.06-0.61,0-0.89-0.17c-0.86-0.51-1.29-1.29-1.38-2.25
			c-0.17-1.73,0.27-3.33,1.19-4.8c0.64-1.03,1.44-1.93,2.32-2.76C123.78,19.44,123.83,19.41,123.86,19.39z"/>
		<path class="st0" d="M151.15,15.49c0.22-0.17,0.42-0.33,0.64-0.51c0.28,0.37,0.55,0.73,0.84,1.12c-0.23,0.16-0.45,0.31-0.67,0.47
			C151.68,16.21,151.42,15.86,151.15,15.49z"/>
		<path class="st0" d="M154.93,20.38c-0.27,0.11-0.51,0.2-0.77,0.31c-0.07-0.16-0.12-0.31-0.19-0.46c-0.09-0.21-0.19-0.42-0.29-0.64
			c-0.04-0.09-0.04-0.15,0.06-0.19c0.2-0.09,0.4-0.19,0.63-0.3C154.56,19.53,154.74,19.94,154.93,20.38z"/>
		<path class="st0" d="M154.52,21.65c0.26-0.09,0.5-0.17,0.78-0.26c0.1,0.34,0.2,0.65,0.3,0.97c0.11,0.36,0.1,0.36-0.27,0.46
			c-0.43,0.11-0.43,0.11-0.55-0.31C154.7,22.23,154.61,21.95,154.52,21.65z"/>
		<path class="st0" d="M155.37,25.22c-0.08-0.45-0.15-0.86-0.23-1.31c0.25-0.05,0.49-0.11,0.73-0.15c0.03,0,0.09,0.07,0.09,0.11
			c0.07,0.36,0.13,0.72,0.19,1.08c0.02,0.12-0.02,0.17-0.14,0.18C155.8,25.15,155.59,25.19,155.37,25.22z"/>
		<path class="st0" d="M153.2,16.97c0.24,0.41,0.46,0.79,0.7,1.2c-0.25,0.13-0.47,0.26-0.72,0.39c-0.23-0.39-0.45-0.77-0.67-1.16
			C152.74,17.26,152.96,17.12,153.2,16.97z"/>
		<path class="st0" d="M156.3,26.15c0.02,0.33,0.05,0.64,0.06,0.95c0.01,0.43,0.01,0.43-0.42,0.44c-0.39,0.01-0.38,0.01-0.39-0.37
			c-0.01-0.27-0.04-0.54-0.05-0.81c0-0.05,0.05-0.14,0.08-0.15C155.81,26.19,156.04,26.18,156.3,26.15z"/>
		<path class="st0" d="M136.21,43.33c0.01-0.08,0.01-0.14,0.03-0.19c0.16-0.66,0.33-1.32,0.49-1.98c0.03-0.12,0.07-0.17,0.2-0.16
			c0.21,0.01,0.42-0.01,0.62,0c0.32,0.02,0.51,0.21,0.52,0.53c0.02,0.49-0.11,0.93-0.38,1.34c-0.15,0.22-0.37,0.35-0.63,0.39
			C136.8,43.3,136.51,43.31,136.21,43.33z"/>
		<path class="st0" d="M137.06,39.79c0.18-0.74,0.36-1.46,0.54-2.2c0.26,0,0.52-0.02,0.77,0.01c0.27,0.03,0.43,0.21,0.44,0.48
			c0.02,0.46-0.11,0.89-0.35,1.27c-0.15,0.23-0.38,0.35-0.64,0.39C137.57,39.77,137.32,39.77,137.06,39.79z"/>
		<path class="st0" d="M144.79,41.02c0.16-0.52,0.35-1.01,0.69-1.43c0.11-0.13,0.23-0.3,0.42-0.23c0.19,0.07,0.13,0.29,0.09,0.44
			c-0.08,0.29-0.17,0.58-0.31,0.84C145.49,40.98,145.21,41.07,144.79,41.02z"/>
	</g>
</g>
</svg>
