<?xml version="1.0" encoding="utf-8"?>
<!-- Generator: Adobe Illustrator 23.0.0, SVG Export Plug-In . SVG Version: 6.00 Build 0)  -->
<svg version="1.1" id="Calque_1" xmlns="http://www.w3.org/2000/svg" xmlns:xlink="http://www.w3.org/1999/xlink" x="0px" y="0px"
	 viewBox="0 0 270 66.1" style="enable-background:new 0 0 270 66.1;" xml:space="preserve">
<style type="text/css">
	.st0{fill:#FFFFFF;}
	.st1{fill:url(#SVGID_1_);}
	.st2{fill:url(#SVGID_2_);}
	.st3{fill:url(#SVGID_3_);}
	.st4{fill:url(#SVGID_4_);}
	.st5{fill:url(#SVGID_5_);}
	.st6{fill:url(#SVGID_6_);}
	.st7{fill:url(#SVGID_7_);}
	.st8{fill:url(#SVGID_8_);}
	.st9{fill:url(#SVGID_9_);}
	.st10{fill:url(#SVGID_10_);}
	.st11{fill:url(#SVGID_11_);}
	.st12{fill:url(#SVGID_12_);}
	.st13{fill:url(#SVGID_13_);}
	.st14{fill:url(#SVGID_14_);}
	.st15{fill:url(#SVGID_15_);}
	.st16{fill:url(#SVGID_16_);}
	.st17{fill:url(#SVGID_17_);}
	.st18{fill:url(#SVGID_18_);}
	.st19{fill:url(#SVGID_19_);}
	.st20{fill:url(#SVGID_20_);}
	.st21{fill:url(#SVGID_21_);}
	.st22{fill:url(#SVGID_22_);}
	.st23{fill:url(#SVGID_23_);}
	.st24{fill:url(#SVGID_24_);}
	.st25{fill:url(#SVGID_25_);}
	.st26{fill:url(#SVGID_26_);}
	.st27{fill:url(#SVGID_27_);}
	.st28{fill:url(#SVGID_28_);}
	.st29{fill:url(#SVGID_29_);}
	.st30{fill:url(#SVGID_30_);}
	.st31{fill:url(#SVGID_31_);}
	.st32{fill:url(#SVGID_32_);}
	.st33{clip-path:url(#XMLID_2_);fill:#FFFFFF;}
	.st34{clip-path:url(#XMLID_3_);fill:#FFFFFF;}
	.st35{clip-path:url(#XMLID_4_);fill:#FFFFFF;}
	.st36{clip-path:url(#XMLID_5_);fill:#FFFFFF;}
	.st37{clip-path:url(#XMLID_6_);fill:#FFFFFF;}
	.st38{clip-path:url(#XMLID_7_);fill:#FFFFFF;}
	.st39{clip-path:url(#XMLID_8_);fill:#FFFFFF;}
	.st40{clip-path:url(#XMLID_9_);fill:#FFFFFF;}
	.st41{clip-path:url(#XMLID_10_);fill:#FFFFFF;}
	.st42{clip-path:url(#XMLID_11_);fill:#FFFFFF;}
	.st43{clip-path:url(#XMLID_12_);fill:#FFFFFF;}
	.st44{clip-path:url(#XMLID_13_);fill:#FFFFFF;}
	.st45{clip-path:url(#XMLID_14_);fill:#FFFFFF;}
</style>
<g>
	<polygon class="st0" points="129.11,9.82 130.43,8.83 131.99,9.36 131.47,7.8 132.46,6.48 130.81,6.5 129.85,5.15 129.36,6.72 
		127.79,7.21 129.13,8.16 	"/>
	<polygon class="st0" points="139.35,56.28 138.03,57.27 136.47,56.74 136.99,58.3 136.01,59.62 137.66,59.6 138.61,60.95 
		139.1,59.38 140.68,58.89 139.33,57.93 	"/>
	<polygon class="st0" points="119.77,14.16 120.55,12.7 122.19,12.53 121.05,11.33 121.39,9.72 119.9,10.43 118.47,9.61 
		118.69,11.25 117.47,12.35 119.09,12.65 	"/>
	<polygon class="st0" points="148.69,51.94 147.91,53.4 146.27,53.57 147.41,54.77 147.07,56.38 148.56,55.67 149.99,56.49 
		149.77,54.85 150.99,53.74 149.37,53.45 	"/>
	<polygon class="st0" points="111.89,20.96 113.14,22.04 113.24,20.39 114.65,19.54 113.11,18.94 112.73,17.33 111.69,18.61 
		110.04,18.47 110.93,19.86 110.29,21.38 	"/>
	<polygon class="st0" points="156.57,45.14 155.32,44.06 155.23,45.71 153.81,46.56 155.35,47.16 155.73,48.77 156.77,47.49 
		158.42,47.63 157.53,46.24 158.17,44.72 	"/>
	<polygon class="st0" points="107.6,32.59 108.87,31.53 110.46,31.98 109.85,30.45 110.77,29.08 109.12,29.18 108.1,27.89 
		107.69,29.49 106.15,30.05 107.54,30.94 	"/>
	<polygon class="st0" points="157.42,25.1 157.17,26.73 158.62,25.94 160.09,26.69 159.79,25.07 160.95,23.89 159.31,23.68 
		158.56,22.22 157.85,23.71 156.22,23.97 	"/>
	<path class="st0" d="M115.13,49.8l-1.65-0.05l0.96,1.34l-0.56,1.55l1.57-0.5l1.3,1.01l0.01-1.65l1.37-0.93l-1.57-0.52l-0.33-1.15
		c-0.14,0-0.29,0-0.43-0.02L115.13,49.8z"/>
	<polygon class="st0" points="152.35,17.63 153.33,16.3 154.98,16.35 154.02,15.01 154.58,13.46 153,13.96 151.7,12.95 151.69,14.6 
		150.32,15.53 151.89,16.05 	"/>
	<polygon class="st0" points="125.41,55.92 124.32,54.68 124,56.3 122.48,56.95 123.92,57.76 124.07,59.4 125.28,58.28 
		126.89,58.65 126.2,57.15 127.05,55.73 	"/>
	<polygon class="st0" points="143.05,10.18 144.14,11.42 144.46,9.8 145.98,9.15 144.54,8.34 144.39,6.7 143.18,7.82 141.57,7.45 
		142.26,8.95 141.41,10.37 	"/>
	<path class="st0" d="M137.22,13.92c0.09-0.07,0.14-0.17,0.16-0.3c0.02-0.13-0.01-0.24-0.08-0.33c-0.07-0.09-0.18-0.14-0.31-0.15
		l-0.29-0.03l-0.1,0.85l0.29,0.03C137.02,14.01,137.13,13.99,137.22,13.92z"/>
	<path class="st0" d="M146.96,30.38c0.03,0.02,0.06,0.03,0.09,0.04C147.03,30.4,147,30.39,146.96,30.38z"/>
	<polygon class="st0" points="134.11,29.18 134.11,29.17 134.11,29.17 	"/>
	<path class="st0" d="M133.8,26.86c0.03-0.01,0.05-0.02,0.05-0.05c0-0.01,0-0.03,0-0.04c0-0.01,0-0.02-0.01-0.03
		c-0.01-0.04-0.03-0.09-0.06-0.13c-0.03-0.05-0.06-0.11-0.08-0.17c-0.02-0.06-0.04-0.12-0.05-0.18c-0.01-0.02-0.01-0.04-0.01-0.06
		c0-0.01,0-0.01,0-0.02c0-0.01,0-0.01,0.01-0.01c0.01,0,0.01,0,0.02,0c0.01,0.01,0.02,0.02,0.03,0.03c0.02,0.03,0.04,0.05,0.06,0.07
		c0.04,0.04,0.08,0.07,0.13,0.09c0.02,0.01,0.05,0.02,0.08,0.02c0.04,0,0.07-0.02,0.08-0.06c0-0.01,0.01-0.03,0.01-0.04
		c0-0.01,0-0.03,0-0.04c0-0.03-0.01-0.06-0.01-0.09c-0.03-0.17-0.05-0.34-0.08-0.5c0,0,0,0,0,0c-0.03-0.16-0.05-0.32-0.08-0.49
		c0-0.03-0.01-0.06-0.01-0.09c0-0.02-0.01-0.05-0.01-0.07c0-0.03,0-0.06,0-0.1c0-0.01,0-0.01,0-0.02c0-0.01,0.02-0.01,0.02-0.01
		c0.01,0.01,0.01,0.01,0.02,0.02c0.01,0.02,0.03,0.04,0.04,0.06c0.02,0.03,0.05,0.07,0.08,0.09c0.02,0.02,0.04,0.03,0.06,0.04
		c0.04,0.02,0.09,0,0.12-0.03c0.01-0.01,0.02-0.02,0.02-0.04c0.01-0.02,0.01-0.03,0.02-0.05c0.01-0.05,0.02-0.1,0.03-0.15
		c0.01-0.08,0.02-0.16,0.04-0.23c0-0.02,0.01-0.05,0.01-0.07c0.04-0.18,0.08-0.37,0.14-0.55c0-0.01,0.01-0.03,0.01-0.04
		c0.05-0.16,0.1-0.33,0.16-0.49c0.04-0.1,0.07-0.19,0.11-0.29c0.1-0.25,0.2-0.5,0.32-0.74c0.03-0.07,0.07-0.14,0.1-0.21
		c0.1-0.21,0.21-0.42,0.32-0.62c0.11-0.19,0.22-0.38,0.33-0.57c0.01-0.02,0.02-0.04,0.04-0.06c0.05-0.07,0.1-0.15,0.15-0.23
		c0.03-0.05,0.06-0.1,0.1-0.15c0.02-0.03,0.04-0.06,0.07-0.09c0.02-0.02,0.03-0.05,0.05-0.07c0.02-0.04,0.05-0.07,0.07-0.11
		c0.07-0.1,0.14-0.2,0.22-0.3c0.11-0.15,0.21-0.29,0.32-0.44c0.02-0.03,0.04-0.06,0.06-0.09c0.03-0.04,0.05-0.08,0.08-0.12
		c0.06-0.09,0.13-0.18,0.19-0.26c0.03-0.04,0.05-0.08,0.08-0.12c0.01-0.02,0.02-0.03,0.03-0.05c0.05-0.08,0.09-0.17,0.12-0.26
		c0.01-0.02,0.01-0.05,0.02-0.08c0.01-0.05,0.01-0.09-0.01-0.14c0-0.01-0.01-0.03-0.01-0.04c0-0.01,0-0.01,0-0.02
		c0-0.01,0-0.01,0.01-0.01c0,0,0.01,0,0.01,0c0.01,0.01,0.02,0.03,0.03,0.05c0.02,0.04,0.03,0.09,0.05,0.13
		c0.01,0.03,0.02,0.06,0.03,0.08c0.01,0.02,0.03,0.04,0.05,0.05c0.03,0.02,0.07,0.02,0.11,0c0.02-0.01,0.04-0.03,0.05-0.05
		c0.03-0.04,0.07-0.09,0.1-0.14c0.02-0.02,0.03-0.05,0.04-0.08c0.03-0.06,0.04-0.12,0.03-0.18c0-0.03-0.01-0.05-0.01-0.08
		c-0.01-0.05-0.03-0.1-0.05-0.15c-0.01-0.01-0.02-0.03-0.03-0.05c0-0.01,0-0.01,0-0.02c0,0,0.01,0,0.01,0
		c0.01,0,0.02,0.01,0.03,0.02c0.04,0.04,0.09,0.08,0.12,0.13c0.03,0.04,0.07,0.08,0.1,0.12c0.02,0.03,0.05,0.05,0.08,0.07
		c0.02,0.01,0.04,0.02,0.06,0.02c0.03,0,0.05-0.01,0.06-0.04c0-0.01,0.01-0.02,0.01-0.02c0-0.01,0-0.02,0.01-0.03
		c0.01-0.09,0-0.18-0.03-0.26c-0.03-0.09-0.08-0.18-0.14-0.27c-0.01-0.01-0.02-0.03-0.03-0.04c-0.07-0.09-0.13-0.14-0.23-0.21
		c-0.04-0.02-0.08-0.04-0.12-0.05c-0.08-0.01-0.17-0.02-0.25-0.03c-0.05,0-0.09,0-0.14,0c-0.1,0.02-0.21,0.03-0.31,0.05
		c-0.03,0-0.06,0.01-0.09,0.02c-0.1,0.03-0.2,0.07-0.29,0.12c-0.02,0.01-0.04,0.02-0.05,0.03c-0.01,0-0.02,0.01-0.02,0.01
		c0,0-0.01,0-0.01,0c-0.01,0-0.01,0-0.02,0c-0.01,0-0.01-0.02-0.01-0.02c0.01-0.02,0.01-0.03,0.02-0.05c0-0.01,0.01-0.02,0.01-0.03
		c0-0.02-0.01-0.04-0.03-0.04c-0.01,0-0.02,0-0.03,0c-0.02,0-0.03,0.01-0.05,0.02c-0.04,0.02-0.08,0.03-0.12,0.05
		c-0.11,0.05-0.21,0.11-0.3,0.18c-0.09,0.06-0.17,0.13-0.24,0.2c-0.03,0.03-0.06,0.06-0.09,0.09c-0.05,0.05-0.09,0.1-0.13,0.15
		c-0.05,0.06-0.09,0.12-0.13,0.18c-0.03,0.04-0.05,0.08-0.07,0.12c-0.03,0.07-0.05,0.13-0.07,0.2c-0.01,0.06-0.02,0.11-0.03,0.17
		c0,0.02,0,0.04,0,0.06c0,0.01,0,0.03,0,0.04c0,0.01,0,0.01-0.01,0.01c-0.01,0-0.01,0-0.01-0.01c-0.01-0.02-0.02-0.05-0.03-0.07
		c-0.04-0.09-0.1-0.17-0.17-0.25c-0.02-0.02-0.05-0.04-0.08-0.06c-0.01-0.01-0.02-0.01-0.03-0.01c-0.02,0-0.04,0.01-0.04,0.02
		c-0.01,0.01-0.01,0.02-0.01,0.03c0,0.03,0,0.05-0.01,0.08c-0.01,0.12-0.04,0.23-0.09,0.34c-0.03,0.05-0.06,0.1-0.09,0.15
		c-0.06,0.09-0.13,0.17-0.21,0.25c-0.04,0.04-0.09,0.08-0.13,0.12c-0.03,0.03-0.07,0.06-0.1,0.09c-0.08,0.07-0.15,0.14-0.22,0.21
		c-0.08,0.08-0.16,0.16-0.23,0.24c-0.07,0.08-0.14,0.15-0.2,0.23c-0.01,0.01-0.01,0.02-0.02,0.03c-0.04,0.04-0.08,0.09-0.11,0.14
		c-0.04,0.05-0.07,0.1-0.11,0.15c-0.05,0.07-0.1,0.13-0.14,0.2c0,0.01-0.01,0.01-0.01,0.01c-0.06,0.1-0.12,0.2-0.18,0.3
		c-0.08,0.14-0.15,0.29-0.21,0.44c-0.03,0.08-0.07,0.17-0.1,0.25c-0.05,0.14-0.09,0.28-0.14,0.43c-0.02,0.06-0.03,0.13-0.04,0.2
		c0,0.01,0,0.02,0,0.04c0,0.03,0.01,0.05,0.03,0.07c0.01,0.01,0.02,0.02,0.03,0.03c0.01,0.01,0.01,0.04,0,0.05
		c-0.01,0.01-0.01,0.01-0.02,0.02c-0.02,0.02-0.04,0.03-0.05,0.05c-0.08,0.07-0.16,0.15-0.22,0.25c-0.01,0.02-0.03,0.04-0.04,0.06
		c-0.04,0.06-0.08,0.12-0.11,0.19c-0.02,0.04-0.03,0.08-0.05,0.11c-0.04,0.1-0.07,0.2-0.08,0.3c-0.02,0.11-0.01,0.22,0.02,0.33
		c0,0.01,0.01,0.02,0.01,0.03c0.02,0.05,0.07,0.05,0.11,0.03c0.01-0.01,0.02-0.01,0.03-0.02c0.02-0.02,0.03-0.03,0.05-0.05
		c0.01-0.01,0.01-0.01,0.02-0.01c0,0,0.01,0,0.01,0c0.01,0,0.01,0.01,0.01,0.01c0,0.01,0,0.02-0.01,0.03
		c-0.01,0.03-0.03,0.07-0.04,0.1c-0.04,0.11-0.09,0.22-0.14,0.32c-0.06,0.12-0.12,0.24-0.19,0.34c-0.01,0.01-0.01,0.02-0.02,0.03
		c0,0.01,0,0.01-0.01,0.02c-0.01,0.02,0.01,0.06,0.03,0.06c0.01,0,0.02,0.01,0.03,0.01c0.02,0,0.05,0,0.07,0.01
		c0.01,0,0.02,0,0.03,0c0.02,0,0.04,0.03,0.04,0.05c0,0.01,0,0.02,0,0.03c-0.02,0.1-0.05,0.19-0.1,0.28
		c-0.01,0.02-0.03,0.05-0.04,0.07c-0.01,0.02-0.02,0.03-0.02,0.05c-0.01,0.02-0.01,0.03-0.01,0.05c-0.01,0.05,0.02,0.1,0.07,0.11
		c0.01,0,0.03,0.01,0.04,0.01c0.02,0,0.03,0.01,0.05,0.01c0.02,0,0.04,0.03,0.04,0.05c0,0.01,0,0.03,0,0.04
		c0,0.05-0.01,0.11-0.01,0.16c-0.01,0.1-0.04,0.19-0.08,0.28c-0.01,0.01-0.01,0.03-0.02,0.04c-0.01,0.02,0.01,0.04,0.03,0.05
		c0.01,0,0.02,0.01,0.03,0.01c0.03,0,0.06-0.01,0.09-0.02c0.03-0.01,0.05-0.03,0.08-0.04c0.01-0.01,0.03-0.02,0.05-0.03
		c0.01-0.01,0.02,0,0.03,0c0.01,0,0.01,0.01,0.02,0.02c0.01,0.02,0.01,0.04,0.01,0.06c0,0.06,0.01,0.12,0.02,0.18
		c0,0.02,0.01,0.05,0.01,0.07c0.01,0.07,0.03,0.13,0.06,0.19c0.01,0.02,0.02,0.04,0.03,0.05c0.01,0.01,0.01,0.02,0.02,0.03
		c0.02,0.02,0.05,0.02,0.07,0.01c0.01,0,0.02-0.01,0.03-0.02c0.01-0.01,0.02-0.03,0.03-0.04c0.01-0.02,0.02-0.04,0.03-0.06
		c0.01-0.03,0.02-0.05,0.03-0.08c0-0.01,0.01-0.01,0.02-0.02c0-0.01,0.02-0.01,0.02,0c0.01,0.01,0.02,0.02,0.02,0.03
		c0.01,0.04,0.03,0.07,0.04,0.11c0.03,0.09,0.07,0.19,0.11,0.28c0.02,0.04,0.04,0.08,0.06,0.12c0.03,0.06,0.07,0.11,0.11,0.16
		c0.02,0.02,0.03,0.03,0.05,0.04c0.03,0.02,0.06,0.03,0.09,0.03c0.03,0,0.05-0.01,0.07-0.03c0.01-0.01,0.01-0.02,0.02-0.03
		c0.01-0.02,0.01-0.03,0.02-0.05c0.01-0.07,0.02-0.13,0.01-0.2c-0.01-0.08-0.01-0.17-0.02-0.25c0-0.01,0-0.01,0-0.02
		c0,0,0-0.01,0-0.01c0-0.01,0.02-0.02,0.03-0.01c0.01,0,0.02,0.01,0.02,0.01c0.02,0.02,0.04,0.03,0.06,0.05
		c0.05,0.05,0.11,0.09,0.17,0.13c0.03,0.02,0.06,0.04,0.09,0.05c0.02,0.01,0.05,0.02,0.08,0.02
		C133.78,26.87,133.79,26.87,133.8,26.86z"/>
	<path class="st0" d="M130.46,13.93c0.09-0.02,0.16-0.06,0.2-0.11c0.04-0.05,0.05-0.11,0.04-0.19c-0.02-0.08-0.05-0.13-0.11-0.16
		c-0.06-0.03-0.13-0.03-0.23-0.01l-0.25,0.05l0.1,0.47L130.46,13.93z"/>
	<path class="st0" d="M147.09,30.43c-0.01,0-0.02-0.01-0.03-0.01C147.07,30.43,147.08,30.43,147.09,30.43z"/>
	<polygon class="st0" points="122.78,17.56 122.28,17.28 122.43,17.83 	"/>
	<path class="st0" d="M125.37,16.21c0.12-0.07,0.2-0.15,0.24-0.26c0.04-0.11,0.02-0.22-0.04-0.33c-0.06-0.12-0.15-0.19-0.26-0.22
		c-0.11-0.03-0.22-0.01-0.35,0.06l-0.26,0.14l0.41,0.75L125.37,16.21z"/>
	<path class="st0" d="M121.53,18.37c0.01-0.06-0.01-0.13-0.06-0.18c-0.05-0.06-0.11-0.08-0.18-0.08c-0.06,0-0.13,0.04-0.2,0.1
		l-0.19,0.17l0.32,0.36l0.19-0.17C121.48,18.5,121.52,18.44,121.53,18.37z"/>
	<path class="st0" d="M146.92,30.36c-0.01-0.01-0.03-0.01-0.04-0.02c-0.12-0.04-0.24-0.09-0.36-0.12c-0.14-0.04-0.28-0.07-0.42-0.1
		c-0.29-0.06-0.57-0.09-0.86-0.11c-0.22-0.01-0.51-0.01-0.75,0c-0.01,0-0.03,0-0.04,0c-0.01,0-0.03,0-0.04,0l0.67,0.06
		c0.16,0,0.32,0.01,0.48,0.02c0.15,0.01,0.3,0.03,0.45,0.05c0.05,0.01,0.09,0.01,0.14,0.02c0.11,0.02,0.21,0.04,0.32,0.07
		c0.1,0.03,0.2,0.05,0.31,0.08c0.04,0.01,0.08,0.03,0.13,0.04c0.02,0.01,0.04,0.01,0.07,0.01
		C146.95,30.37,146.94,30.37,146.92,30.36z"/>
	<polygon class="st0" points="128.86,13.89 128.8,14.46 129.22,14.34 	"/>
	<path class="st0" d="M145.09,29.67c0.17,0.03,0.34,0.05,0.52,0.06c0.08,0.01,0.16,0.01,0.24,0.01c0.03,0,0.06,0,0.1-0.01
		c0.01,0,0.02-0.01,0.02-0.01c0.01-0.01,0.02-0.03,0.01-0.04c-0.01-0.01-0.02-0.02-0.03-0.02c-0.04-0.03-0.08-0.05-0.11-0.08
		c-0.05-0.03-0.09-0.07-0.13-0.11c-0.09-0.08-0.16-0.18-0.24-0.27c-0.01-0.02-0.03-0.04-0.04-0.06c0-0.01-0.01-0.02-0.01-0.02
		c0-0.01,0.01-0.02,0.02-0.02c0.01,0,0.01,0,0.02,0.01c0.02,0.02,0.05,0.04,0.07,0.06c0.04,0.04,0.08,0.07,0.12,0.1
		c0.06,0.05,0.13,0.09,0.19,0.14c0.07,0.05,0.15,0.1,0.23,0.15c0.14,0.08,0.29,0.15,0.44,0.21c0.03,0.01,0.07,0.02,0.1,0.03
		c0.01,0,0.02,0,0.03,0c0.01,0,0.02,0,0.02-0.01c0-0.01,0-0.02,0-0.03c0-0.01-0.01-0.01-0.01-0.02c-0.01-0.02-0.03-0.03-0.04-0.05
		c-0.04-0.04-0.08-0.08-0.11-0.12c-0.06-0.07-0.12-0.14-0.17-0.21c-0.1-0.15-0.19-0.3-0.27-0.46c-0.01-0.02-0.02-0.04-0.03-0.07
		c0-0.01,0-0.02-0.01-0.03c0-0.01,0.01-0.03,0.03-0.03c0.01,0,0.02,0,0.03,0.01c0.02,0.01,0.04,0.02,0.06,0.02
		c0.05,0.02,0.1,0.04,0.16,0.06c0.05,0.01,0.11,0.02,0.17,0.02c0.01,0,0.03,0,0.04-0.01c0.02-0.01,0.03-0.03,0.02-0.05
		c-0.01-0.02-0.03-0.04-0.04-0.06c-0.06-0.07-0.11-0.14-0.16-0.22c-0.01-0.02-0.03-0.04-0.04-0.07c-0.07-0.11-0.12-0.23-0.17-0.35
		c-0.02-0.05-0.04-0.11-0.06-0.17c-0.02-0.06-0.03-0.12-0.05-0.18c-0.02-0.06-0.03-0.13-0.04-0.19c-0.03-0.17-0.05-0.34-0.08-0.51
		c-0.01-0.04-0.01-0.09-0.02-0.13c0-0.03-0.01-0.06-0.01-0.1c0-0.05-0.01-0.1-0.01-0.15c-0.01-0.06-0.02-0.12-0.03-0.17
		c-0.01-0.03-0.01-0.07-0.01-0.11c0-0.04,0-0.09-0.01-0.13c-0.01-0.09-0.03-0.19-0.04-0.28c-0.01-0.05-0.02-0.1-0.03-0.15
		c-0.01-0.02-0.01-0.03-0.01-0.05c-0.01-0.07-0.03-0.13-0.05-0.2c0-0.01,0-0.01,0-0.02c-0.01-0.06-0.03-0.13-0.05-0.19
		c-0.02-0.06-0.05-0.13-0.07-0.19c-0.05-0.12-0.1-0.23-0.17-0.34c-0.01-0.01-0.01-0.02-0.01-0.03c0-0.01,0.01-0.01,0.01-0.01
		c0.01,0,0.01,0,0.02,0.01c0.03,0.03,0.05,0.06,0.07,0.09c0.1,0.13,0.18,0.27,0.25,0.41c0.02,0.05,0.04,0.1,0.07,0.14
		c0.01,0.01,0.01,0.03,0.02,0.04c0,0,0.02,0.01,0.02,0.01c0,0,0.01-0.01,0.01-0.01c0.01-0.01,0.01-0.03,0.01-0.04
		c0-0.07,0-0.15-0.01-0.22c-0.01-0.05-0.01-0.1-0.02-0.16c0-0.03-0.01-0.06-0.01-0.09c-0.01-0.05-0.02-0.09-0.03-0.14
		c-0.01-0.03-0.01-0.07-0.02-0.1c-0.06-0.21-0.15-0.41-0.26-0.59c-0.03-0.05-0.06-0.1-0.1-0.16c-0.02-0.03-0.04-0.06-0.06-0.09
		c-0.08-0.11-0.17-0.22-0.26-0.32c-0.07-0.07-0.13-0.14-0.21-0.21c-0.06-0.06-0.12-0.12-0.19-0.17c-0.02-0.02-0.04-0.03-0.06-0.05
		c-0.01-0.01-0.03-0.02-0.04-0.03c-0.1-0.07-0.2-0.15-0.3-0.21c-0.01-0.01-0.02-0.02-0.04-0.02c-0.06-0.04-0.12-0.08-0.18-0.11
		c-0.09-0.05-0.18-0.11-0.28-0.16c-0.04-0.02-0.08-0.04-0.12-0.06c-0.02-0.01-0.05-0.03-0.07-0.04c-0.04-0.03-0.08-0.05-0.13-0.08
		c-0.02-0.01-0.05-0.03-0.07-0.04c-0.1-0.05-0.21-0.1-0.31-0.14c-0.03-0.01-0.06-0.02-0.08-0.03c-0.01,0-0.02,0-0.03,0
		c-0.01,0-0.03,0.02-0.02,0.03c0,0.01,0.01,0.02,0.01,0.02c0.01,0.01,0.02,0.03,0.03,0.04c0.04,0.05,0.08,0.1,0.12,0.15
		c0.03,0.04,0.06,0.08,0.09,0.12c0.08,0.12,0.14,0.24,0.19,0.38c0.02,0.04,0.03,0.09,0.04,0.13c0,0.01,0,0.02,0,0.03
		c0,0.01-0.01,0.01-0.01,0.01c-0.01,0-0.01,0-0.02,0c-0.01-0.01-0.01-0.01-0.02-0.02c-0.03-0.04-0.05-0.08-0.08-0.12
		c-0.04-0.05-0.08-0.1-0.12-0.15c-0.07-0.08-0.16-0.16-0.24-0.23c-0.05-0.04-0.11-0.08-0.16-0.12c0,0-0.01-0.01-0.02-0.01
		c0,0-0.01,0-0.01,0c-0.02-0.01-0.04,0-0.05,0.02c0,0.01-0.01,0.03-0.01,0.04c0,0.02,0,0.05,0,0.07c0.01,0.17-0.01,0.33-0.08,0.49
		c0,0.01-0.01,0.02-0.01,0.02c-0.03,0.07-0.06,0.13-0.11,0.19c-0.02,0.02-0.03,0.04-0.05,0.06c-0.07,0.1-0.16,0.19-0.26,0.26
		c-0.1,0.08-0.21,0.16-0.33,0.22c-0.14,0.07-0.28,0.14-0.44,0.19c-0.11,0.04-0.23,0.07-0.35,0.1c-0.02,0-0.04,0.01-0.06,0.02
		c-0.03,0.01-0.07,0.02-0.1,0.02c-0.05,0.01-0.1,0.02-0.16,0.02c-0.02,0-0.03,0-0.05,0.01c-0.06,0-0.12,0.01-0.18,0.01
		c-0.09,0-0.19,0-0.28,0c-0.07,0-0.15-0.01-0.22-0.03c-0.03-0.01-0.07-0.01-0.1-0.02c-0.01,0-0.02,0-0.03,0c-0.01,0-0.01,0-0.02,0
		c-0.01,0-0.01,0.01,0,0.02c0,0.01,0.01,0.01,0.02,0.02c0.02,0.01,0.03,0.02,0.05,0.02l0.02,0.11c-0.13-0.05-0.26-0.1-0.38-0.17
		c-0.02-0.01-0.03-0.02-0.05-0.02c-0.01,0-0.01,0-0.02,0c-0.01,0-0.02,0.01-0.02,0.02c0,0.01,0.01,0.02,0.01,0.02
		c0.02,0.02,0.03,0.05,0.05,0.07c0.04,0.05,0.07,0.09,0.11,0.14c0.01,0.01,0.02,0.03,0.03,0.04c0,0.01,0.01,0.02,0.01,0.02
		c0,0.01,0,0.03-0.01,0.03c-0.01,0-0.01,0-0.02,0c-0.02,0-0.04,0-0.06-0.01c-0.12-0.02-0.24-0.03-0.36-0.03
		c-0.09,0-0.19,0-0.28,0.02c-0.03,0.01-0.06,0.01-0.1,0.02c-0.01,0-0.03,0.01-0.04,0.01c-0.01,0-0.01,0-0.02,0.01
		c-0.01,0.01-0.02,0.03-0.01,0.04c0,0.01,0.01,0.02,0.01,0.02c0.02,0.02,0.04,0.04,0.06,0.06c0.04,0.04,0.09,0.09,0.13,0.13
		c0.06,0.06,0.11,0.11,0.16,0.18c0.08,0.11,0.16,0.22,0.23,0.33c0.1,0.17,0.18,0.35,0.23,0.54c0,0.02,0.01,0.03,0.02,0.05
		c0,0.01,0.01,0.01,0.01,0.02c0.01,0.01,0.02,0.01,0.03,0c0.01-0.01,0.01-0.02,0.02-0.03c0.02-0.07,0.06-0.23,0.07-0.32
		c0.01-0.05,0.01-0.1,0.02-0.15c0-0.01,0-0.02,0.01-0.02c0-0.01,0.02-0.01,0.02,0c0,0,0.01,0.01,0.01,0.01
		c0.01,0.02,0.02,0.04,0.02,0.07c0.03,0.1,0.06,0.2,0.08,0.3c0,0.03,0.01,0.05,0.02,0.08c0.01,0.04,0.02,0.09,0.03,0.14
		c0.01,0.06,0.02,0.12,0.03,0.17c0.01,0.03,0.01,0.06,0.02,0.09c0.02,0.06,0.03,0.13,0.04,0.19c0.01,0.06,0.02,0.13,0.04,0.19
		c0,0.01,0.01,0.03,0.01,0.04c0.02,0.08,0.05,0.16,0.07,0.24c0.04,0.12,0.09,0.23,0.14,0.34c0.02,0.04,0.04,0.08,0.07,0.12
		c0.01,0.01,0.01,0.02,0.03,0.02c0,0,0.01,0,0.02,0c0.01,0,0.02-0.01,0.02-0.02c0-0.01,0-0.01,0-0.02c0-0.02-0.01-0.03-0.01-0.05
		c-0.02-0.07-0.03-0.14-0.03-0.21c0-0.09,0-0.18,0-0.26c0-0.03,0-0.05,0.01-0.08c0-0.1,0.02-0.2,0.04-0.3c0-0.01,0-0.01,0-0.02
		c0,0,0-0.01,0-0.01c0-0.01,0.01-0.02,0.02-0.02c0.01,0,0.02,0.01,0.02,0.02c0.01,0.03,0.01,0.06,0.01,0.09c0,0.05,0,0.09,0.01,0.14
		c0,0.03,0.01,0.06,0.01,0.09c0.01,0.04,0.01,0.08,0.03,0.11c0.01,0.04,0.02,0.07,0.03,0.11c0.01,0.09,0.04,0.18,0.07,0.27
		c0.03,0.1,0.07,0.2,0.11,0.3c0.04,0.11,0.09,0.22,0.15,0.33c0.03,0.05,0.06,0.11,0.09,0.16c0.08,0.12,0.16,0.23,0.25,0.34
		c0.08,0.1,0.17,0.19,0.28,0.27c0.02,0.02,0.04,0.03,0.06,0.05c0.04,0.03,0.08,0.06,0.12,0.09c0.05,0.03,0.09,0.06,0.13,0.09
		c0.06,0.04,0.13,0.07,0.19,0.1c0.01,0,0.02,0.01,0.03,0.01c0.01,0,0.02-0.02,0.02-0.03c0-0.01,0-0.01-0.01-0.02
		c-0.01-0.02-0.03-0.03-0.04-0.05c-0.08-0.09-0.14-0.18-0.18-0.29c-0.03-0.06-0.05-0.12-0.07-0.18c0-0.01,0-0.02-0.01-0.03
		c0,0,0-0.01,0-0.01c0-0.01,0-0.02,0.01-0.02c0.01,0,0.02,0,0.02,0c0.02,0.01,0.03,0.03,0.05,0.04c0.05,0.06,0.11,0.11,0.17,0.17
		c0.03,0.03,0.07,0.06,0.1,0.08c0.03,0.02,0.07,0.05,0.1,0.08c0.02,0.02,0.04,0.03,0.06,0.04c0.04,0.02,0.08,0.05,0.12,0.08
		c0.03,0.02,0.06,0.04,0.09,0.06c0.02,0.01,0.04,0.02,0.06,0.03c0.14,0.08,0.29,0.15,0.44,0.2c0.09,0.03,0.18,0.06,0.28,0.09
		c0.08,0.02,0.17,0.05,0.26,0.07c0.16,0.04,0.33,0.07,0.49,0.1c0.18,0.03,0.36,0.07,0.54,0.1
		C144.75,29.61,144.92,29.64,145.09,29.67z M142.33,27.7c0,0.01-0.01,0.01-0.02,0.01c-0.04,0-0.08-0.01-0.12-0.03
		c-0.02-0.01-0.03-0.02-0.05-0.04c-0.04-0.04-0.08-0.08-0.11-0.13c-0.01-0.02-0.02-0.04-0.02-0.06c0-0.01,0-0.02,0-0.03
		c0-0.01,0.01-0.01,0.02-0.02c0.01,0,0.01,0,0.02,0c0.01,0,0.01,0.01,0.01,0.01c0.01,0.01,0.02,0.02,0.03,0.03
		c0.06,0.08,0.14,0.15,0.21,0.22c0.01,0.01,0.02,0.02,0.02,0.03C142.33,27.69,142.33,27.7,142.33,27.7z M142.18,26.49
		c-0.01,0-0.02,0-0.03,0c-0.07-0.02-0.14-0.05-0.18-0.12c-0.05-0.07-0.08-0.15-0.1-0.23c0-0.03-0.01-0.05-0.01-0.08
		c0-0.01,0-0.02,0.01-0.03c0.01-0.02,0.03-0.02,0.04-0.01c0.01,0.01,0.01,0.01,0.02,0.02c0.01,0.02,0.02,0.04,0.03,0.05
		c0.01,0.02,0.02,0.04,0.02,0.06c0.04,0.1,0.1,0.19,0.17,0.27c0.01,0.01,0.02,0.02,0.03,0.03c0,0,0,0.01,0,0.02
		C142.19,26.48,142.19,26.49,142.18,26.49z M143.45,27.52c0,0-0.01,0.01-0.02,0c-0.01,0-0.02,0-0.03-0.01
		c-0.12-0.05-0.24-0.12-0.35-0.21c-0.08-0.06-0.14-0.13-0.2-0.21c-0.03-0.04-0.06-0.09-0.08-0.13c-0.03-0.06-0.06-0.12-0.08-0.19
		c-0.01-0.02-0.01-0.04-0.01-0.06c0-0.01,0-0.02,0.01-0.03c0-0.01,0.02-0.01,0.02-0.01c0,0,0.01,0.01,0.01,0.01
		c0.01,0.02,0.03,0.03,0.04,0.05c0.06,0.09,0.13,0.17,0.19,0.25c0.05,0.06,0.1,0.13,0.16,0.18c0.04,0.04,0.09,0.09,0.13,0.13
		c0.03,0.02,0.05,0.05,0.08,0.07c0.04,0.03,0.07,0.07,0.11,0.1c0,0,0.01,0.01,0.01,0.01C143.45,27.51,143.45,27.52,143.45,27.52z
		 M142.57,25.53c0-0.06,0-0.12,0-0.18c0-0.02,0-0.03,0.01-0.05c0-0.01,0.01-0.01,0.01-0.01c0,0,0.01,0,0.02-0.01
		c0.01,0,0.01,0,0.02,0.01c0.01,0.01,0.01,0.01,0.01,0.02c0.01,0.02,0.02,0.04,0.02,0.07c0.02,0.06,0.04,0.11,0.06,0.17
		c0.06,0.14,0.12,0.27,0.19,0.41c0.03,0.05,0.05,0.1,0.08,0.14c0.01,0.02,0.03,0.04,0.04,0.07c0,0.01,0,0.01,0,0.02
		c0,0.01-0.02,0.01-0.02,0c0,0-0.01,0-0.01,0c-0.04-0.02-0.07-0.05-0.1-0.08c-0.09-0.09-0.17-0.19-0.23-0.3
		c-0.02-0.03-0.03-0.06-0.04-0.1c-0.01-0.04-0.03-0.09-0.04-0.13C142.57,25.56,142.57,25.54,142.57,25.53z M143.29,24.11
		c0,0.01-0.01,0.02-0.01,0.03c-0.01,0.03-0.03,0.06-0.05,0.08c-0.04,0.04-0.07,0.08-0.12,0.11c-0.04,0.03-0.09,0.06-0.13,0.09
		c-0.1,0.07-0.21,0.13-0.32,0.19c-0.13,0.06-0.26,0.12-0.4,0.16c-0.05,0.02-0.11,0.04-0.16,0.05c-0.04,0.01-0.07,0.02-0.11,0.03
		c-0.02,0.01-0.05,0.01-0.07,0.02c-0.09,0.02-0.19,0.04-0.29,0.05c-0.04,0.01-0.08,0.01-0.12,0.01c-0.04,0-0.09,0-0.13,0.01
		c-0.03,0-0.06,0.01-0.09,0.01c-0.06,0-0.13,0-0.19,0c-0.16,0-0.32-0.02-0.48-0.05c-0.02,0-0.04-0.01-0.06-0.01
		c-0.01,0-0.02,0-0.04,0c-0.04,0-0.07,0.03-0.08,0.07c0,0.01,0,0.03,0,0.04c0,0.01,0,0.02,0,0.03c0,0.02-0.02,0.03-0.04,0.03
		c-0.02,0-0.03,0-0.04-0.01c-0.03-0.01-0.05-0.03-0.07-0.05c-0.06-0.05-0.09-0.11-0.1-0.19c0,0,0,0,0,0c0,0,0-0.03,0.01-0.05
		c0-0.01,0.01-0.01,0.01-0.02c0.03-0.04,0.06-0.08,0.1-0.11c0.01-0.01,0.02-0.01,0.03-0.02c0,0,0,0,0-0.01
		c0.03-0.01,0.06-0.03,0.1-0.04c0,0,0.01,0,0.01,0c0.02,0,0.05-0.01,0.07-0.01c0.03-0.01,0.07-0.01,0.1-0.02
		c0.02,0,0.04,0,0.06-0.01c0.02,0,0.04,0,0.06,0.01c0.01,0,0.02,0.01,0.02,0.01c0.01,0.01,0.01,0.03,0,0.04
		c-0.01,0.01-0.02,0.02-0.03,0.02c-0.02,0.01-0.04,0.02-0.06,0.03c-0.01,0-0.01,0.01-0.02,0.02c-0.01,0.01-0.01,0.02,0,0.03
		c0.01,0.01,0.03,0.01,0.04,0.01c0.16,0.03,0.33,0.06,0.5,0.06c0.01,0,0.03,0,0.04,0c0.05,0.01,0.11,0,0.16-0.01
		c0.06-0.01,0.12-0.02,0.17-0.03c0,0,0,0,0,0c0.03-0.01,0.06-0.01,0.1-0.01c0.08-0.01,0.15-0.03,0.22-0.05
		c0.02-0.01,0.04-0.01,0.06-0.02c0.01,0,0.03-0.01,0.04-0.01c0.09-0.03,0.18-0.06,0.26-0.1c0.05-0.02,0.09-0.05,0.14-0.08
		c0.04-0.03,0.08-0.05,0.12-0.08c0.04-0.03,0.09-0.06,0.13-0.09c0.02-0.02,0.04-0.03,0.06-0.05c0.01-0.01,0.02-0.03,0.03-0.04
		c0.03-0.05,0.04-0.1,0.01-0.16c-0.01-0.02-0.02-0.03-0.03-0.04c-0.01-0.01-0.01-0.02-0.02-0.03c-0.01-0.01,0-0.03,0.01-0.04
		c0.01,0,0.01-0.01,0.02-0.01c0.07-0.02,0.15-0.04,0.22-0.04c0.01,0,0.02,0,0.04,0c0.06-0.01,0.11,0.01,0.16,0.03
		c0.04,0.02,0.08,0.04,0.11,0.07C143.29,24.03,143.3,24.07,143.29,24.11z"/>
	<path class="st0" d="M141.84,15.29c0.08,0.03,0.15,0.04,0.23,0.03c0.07-0.01,0.14-0.04,0.2-0.09c0.06-0.05,0.11-0.11,0.14-0.19
		c0.03-0.08,0.04-0.16,0.03-0.23c-0.01-0.08-0.04-0.14-0.08-0.2c-0.05-0.06-0.11-0.1-0.18-0.14c-0.08-0.03-0.15-0.04-0.23-0.03
		c-0.08,0.01-0.14,0.04-0.2,0.09c-0.06,0.05-0.11,0.11-0.14,0.19c-0.03,0.08-0.04,0.16-0.03,0.23c0.01,0.08,0.04,0.14,0.08,0.2
		C141.7,15.21,141.76,15.26,141.84,15.29z"/>
	<path class="st0" d="M148.96,19.63c0.06,0.01,0.12-0.02,0.18-0.07c0.06-0.05,0.08-0.11,0.08-0.18c0-0.06-0.04-0.13-0.11-0.2
		L148.93,19l-0.35,0.33l0.18,0.19C148.83,19.59,148.9,19.63,148.96,19.63z"/>
	<path class="st0" d="M137.48,20.82c0.03-0.11,0.05-0.22,0.04-0.34c0-0.02,0-0.05,0-0.07c0-0.01,0-0.01,0-0.02c0,0,0-0.01,0-0.01
		c0-0.01,0-0.01-0.01-0.01c0,0-0.01,0-0.01,0c-0.01,0.01-0.02,0.02-0.02,0.03c-0.01,0.04-0.02,0.07-0.02,0.11
		c0,0.03,0,0.05-0.01,0.08c-0.01,0.05-0.03,0.08-0.07,0.1c0,0,0,0,0,0l0,0c0,0,0,0,0,0l0,0.01l0-0.01c0,0,0,0,0,0
		c-0.01-0.02-0.01-0.05-0.02-0.07c-0.01-0.03-0.02-0.06-0.04-0.09c-0.02-0.03-0.05-0.05-0.09-0.05c-0.04,0-0.08,0.01-0.11,0.02
		c-0.02,0.01-0.04,0.02-0.06,0.04c-0.05,0.04-0.1,0.08-0.14,0.12c-0.07,0.08-0.14,0.17-0.19,0.26c-0.05,0.08-0.09,0.17-0.12,0.26
		c-0.05,0.14-0.08,0.28-0.09,0.43c0,0.01,0,0.02,0,0.04c0,0.01,0,0.01,0,0.02c0,0.02,0.03,0.04,0.04,0.03c0.01,0,0.02,0,0.03-0.01
		c0.02-0.01,0.03-0.01,0.05-0.02c0.05-0.03,0.1-0.06,0.14-0.09c0.08-0.05,0.15-0.11,0.22-0.17c0.03-0.03,0.07-0.06,0.1-0.09
		c0.02-0.02,0.04-0.02,0.06-0.01c0.02,0.01,0.03,0,0.04-0.02c0.01-0.02,0.02-0.04,0.03-0.05c0.04-0.05,0.07-0.1,0.1-0.16
		c0.04-0.07,0.07-0.15,0.1-0.22C137.47,20.86,137.47,20.84,137.48,20.82z"/>
	<path class="st0" d="M138.56,20.81c0.04-0.01,0.07-0.02,0.11-0.03c0.03-0.01,0.05-0.01,0.08-0.02c0.03-0.01,0.07-0.02,0.1-0.02
		c0.05-0.01,0.1-0.02,0.15-0.02c0,0,0,0,0,0c0.05-0.01,0.1-0.02,0.16-0.02c0.02,0,0.05-0.01,0.07-0.01
		c0.03-0.01,0.05-0.02,0.07-0.03c0.05-0.03,0.07-0.09,0.04-0.15c-0.01-0.01-0.01-0.03-0.02-0.04c-0.02-0.03-0.04-0.05-0.07-0.07
		c-0.06-0.05-0.21-0.13-0.26-0.16c-0.02-0.01-0.04-0.02-0.06-0.02c-0.09-0.03-0.18-0.05-0.27-0.06c-0.07-0.01-0.13-0.01-0.2,0
		c-0.05,0.01-0.1,0.02-0.15,0.02c-0.04,0.01-0.07,0.02-0.11,0.03c-0.09,0.04-0.18,0.09-0.26,0.14c-0.01,0.01-0.02,0.02-0.03,0.03
		c-0.02,0.01-0.03,0.03-0.05,0.04c-0.06,0.05-0.12,0.11-0.17,0.18c-0.01,0.01-0.02,0.03-0.03,0.04c-0.03,0.06-0.07,0.12-0.1,0.18
		c-0.03,0.07-0.05,0.14-0.08,0.21c-0.03,0.12-0.04,0.24-0.03,0.36c0.01,0.04,0.01,0.08,0.02,0.11c0,0.02,0.01,0.03,0.01,0.05
		c0.01,0.02,0.02,0.04,0.03,0.06c0.01,0.02,0.03,0.03,0.05,0.04c0.02,0.01,0.05,0.01,0.07,0c0.01,0,0.01-0.01,0.02-0.01
		c0.04-0.03,0.07-0.07,0.09-0.11c0.02-0.04,0.04-0.09,0.06-0.13c0.03-0.08,0.08-0.14,0.14-0.2c0.06-0.06,0.13-0.12,0.21-0.17
		C138.28,20.93,138.42,20.86,138.56,20.81z"/>
	<path class="st0" d="M139.72,22.88c-0.02-0.02-0.05-0.05-0.07-0.06c-0.02-0.01-0.03-0.02-0.05-0.03c0.01,0,0.01,0,0.02-0.01
		c0.02-0.01,0.04-0.03,0.06-0.05c0.04-0.04,0.07-0.09,0.09-0.14c0.04-0.11,0.06-0.21,0.06-0.33c0-0.06-0.03-0.23-0.05-0.29
		c-0.05-0.15-0.12-0.28-0.23-0.4c-0.07-0.08-0.15-0.15-0.24-0.22c-0.08-0.06-0.17-0.11-0.27-0.15c-0.05-0.02-0.09-0.04-0.14-0.05
		c-0.09-0.02-0.19-0.02-0.28,0c-0.04,0.01-0.08,0.03-0.11,0.05c-0.02,0.02-0.04,0.03-0.06,0.06c-0.03,0.04-0.06,0.08-0.09,0.13
		c-0.01,0.02-0.02,0.05-0.03,0.07c-0.01,0.02-0.02,0.05-0.04,0.07c-0.02,0.03-0.02,0.07-0.02,0.11c0,0.01,0,0.02,0,0.04
		c0,0.04,0.01,0.09,0.01,0.13c0,0.01,0,0.02,0,0.03c0.01,0.04,0.02,0.08,0.03,0.13c0.01,0.04,0.02,0.09,0.04,0.13
		c0.01,0.03,0.02,0.05,0.03,0.08c0.01,0.06,0.04,0.12,0.08,0.18c0,0,0,0,0.01,0.01c0,0,0.01,0,0.01,0c0,0,0-0.01,0-0.01
		c0-0.01,0-0.02-0.01-0.03c-0.02-0.04-0.03-0.09-0.04-0.13c-0.01-0.03-0.01-0.05-0.01-0.08c0-0.05-0.01-0.09-0.01-0.14
		c0-0.05,0-0.1,0.02-0.15c0-0.01,0.01-0.02,0.02-0.03c0-0.01,0.01-0.01,0.02-0.01c0.01,0,0.01,0.01,0.01,0.01c0,0.01,0,0.01,0,0.02
		c0,0.02,0,0.04,0,0.05c0,0,0,0.01,0,0.01c0,0.02,0,0.05,0,0.07c0.02,0.15,0.14,0.26,0.26,0.24c0.12-0.02,0.2-0.16,0.17-0.31
		c-0.02-0.15-0.14-0.26-0.26-0.24c-0.01,0-0.02,0-0.03,0.01c-0.01,0-0.02,0-0.03,0c-0.01,0-0.03,0.01-0.04,0.01
		c-0.01,0-0.02,0.01-0.03,0.01c-0.01,0-0.01,0-0.01-0.01c0-0.01,0-0.02,0.01-0.03c0.03-0.06,0.08-0.09,0.14-0.12
		c0.02-0.01,0.05-0.02,0.07-0.03c0.02-0.01,0.04-0.01,0.06-0.01c0.12-0.01,0.22,0.02,0.32,0.09c0.09,0.07,0.17,0.15,0.23,0.24
		c0.03,0.05,0.05,0.09,0.07,0.14c0.02,0.05,0.04,0.09,0.04,0.14c0.01,0.05,0.02,0.1,0.02,0.15c0.01,0.11,0,0.21-0.04,0.31
		c-0.02,0.05-0.05,0.09-0.08,0.13c-0.05-0.01-0.1-0.02-0.14-0.02c-0.01,0-0.02,0-0.02,0l-0.02,0c-0.02,0-0.03,0-0.05,0
		c-0.02,0-0.03,0-0.05,0l-0.05,0c0,0-0.01,0-0.01,0l-0.01,0l-0.02,0l-0.02,0c-0.01,0-0.02,0-0.02,0c-0.02,0-0.03,0.01-0.05,0.01
		c-0.02,0-0.03,0.01-0.05,0.01c-0.01,0-0.02,0-0.02,0.01l-0.02,0.01c-0.02,0-0.03,0.01-0.05,0.01c-0.02,0.01-0.03,0.01-0.04,0.02
		c-0.01,0-0.01,0.01-0.02,0.01c-0.01,0-0.01,0.01-0.02,0.01c-0.01,0.01-0.03,0.01-0.04,0.02c-0.01,0.01-0.03,0.02-0.04,0.02
		c-0.03,0.02-0.05,0.03-0.08,0.05c-0.01,0-0.01,0.01-0.02,0.01c-0.01,0-0.01,0.01-0.02,0.01c-0.01,0.01-0.02,0.02-0.04,0.03
		c-0.02,0.02-0.05,0.04-0.07,0.07c0,0,0,0,0,0c0,0,0.01,0,0.01,0L139.72,22.88C139.72,22.88,139.72,22.88,139.72,22.88z"/>
	<path class="st0" d="M149.78,21.06c0.11,0.01,0.22-0.02,0.32-0.1c0.1-0.08,0.16-0.18,0.16-0.29c0.01-0.11-0.03-0.22-0.12-0.33
		l-0.19-0.23l-0.66,0.54l0.19,0.23C149.56,20.99,149.66,21.05,149.78,21.06z"/>
	<path class="st0" d="M138.57,22.33c0.01,0,0.01,0,0.02,0c0.01,0,0.02-0.01,0.03-0.02c0.01-0.03,0.01-0.06-0.02-0.08
		c-0.01-0.01-0.02-0.01-0.03,0c-0.01,0.01-0.02,0.02-0.02,0.03c-0.01,0.02,0,0.04,0.01,0.06C138.55,22.32,138.56,22.33,138.57,22.33
		z"/>
	<path class="st0" d="M135.78,25.49c-0.05-0.05-0.1-0.09-0.15-0.14c-0.12-0.11-0.23-0.23-0.36-0.33c-0.01-0.01-0.01-0.01-0.02-0.02
		c-0.02-0.01-0.03-0.03-0.05-0.04c-0.04-0.03-0.09-0.07-0.14-0.1c-0.02-0.02-0.05-0.03-0.08-0.05c-0.01,0-0.02-0.01-0.02-0.01
		c-0.01,0-0.03,0-0.03,0.01c0,0-0.01,0.01-0.01,0.02c0,0.01-0.01,0.02-0.01,0.02c-0.02,0.07-0.03,0.13-0.05,0.2
		c0,0.01-0.01,0.02,0,0.03c0,0,0,0.01,0.01,0.01c0,0,0.01,0,0.01,0c0.02-0.02,0.04-0.03,0.06-0.05c0.02-0.02,0.05-0.02,0.08-0.02
		c0.02,0,0.05,0.01,0.07,0.02c0.06,0.02,0.12,0.06,0.16,0.1c0.05,0.05,0.1,0.1,0.15,0.15c0.02,0.02,0.03,0.04,0.05,0.06
		c0.06,0.07,0.11,0.16,0.16,0.24c0.05,0.09,0.09,0.19,0.12,0.29c0.01,0.03,0.01,0.07,0.02,0.1c0,0.1,0.01,0.21,0,0.31
		c-0.01,0.12-0.03,0.23-0.06,0.35c-0.02,0.06-0.04,0.11-0.07,0.16c-0.01,0.03-0.03,0.05-0.05,0.07c-0.03,0.02-0.05,0.05-0.08,0.06
		c-0.06,0.04-0.13,0.06-0.21,0.07c-0.13,0.02-0.26,0-0.37-0.07c-0.05-0.03-0.09-0.06-0.14-0.1c-0.01-0.01-0.03-0.02-0.04-0.04
		c-0.03-0.04-0.03-0.08-0.01-0.12c0.01-0.02,0.02-0.04,0.04-0.06c0.01-0.01,0.02-0.02,0.03-0.03c0.02-0.02,0.04-0.03,0.06-0.05
		c0.05-0.04,0.11-0.07,0.16-0.11c0,0,0,0,0.01,0c0,0,0.01,0,0.01,0c0.02-0.01,0.05,0,0.06,0.02c0.01,0.01,0.01,0.03,0.01,0.04
		c0.01,0.03,0.01,0.06,0.02,0.1c0.01,0.05,0.02,0.1,0.04,0.14c0.01,0.01,0.01,0.03,0.02,0.04c0.02,0.03,0.05,0.04,0.09,0.04
		c0.04,0,0.07-0.02,0.09-0.05c0.02-0.04,0.03-0.07,0.03-0.12c0-0.02,0-0.05-0.01-0.07c-0.01-0.06-0.03-0.11-0.04-0.17
		c-0.02-0.07-0.05-0.13-0.08-0.19c-0.05-0.08-0.1-0.16-0.16-0.24c-0.05-0.06-0.1-0.13-0.14-0.19c-0.04-0.06-0.07-0.11-0.1-0.18
		c-0.01-0.03-0.03-0.07-0.03-0.1c0-0.02,0-0.04-0.01-0.06c0,0,0,0-0.01,0c0,0-0.01,0-0.01,0c0,0-0.01,0.01-0.01,0.02
		c-0.01,0.08-0.03,0.16-0.04,0.24c0,0.02-0.01,0.04,0,0.06c0,0.02,0.01,0.05,0.03,0.06c0.02,0.02,0.05,0.04,0.07,0.05
		c0.09,0.06,0.18,0.13,0.26,0.21c0.07,0.06,0.12,0.13,0.15,0.21c0.02,0.05,0.03,0.09,0.04,0.14c0,0.01,0,0.02,0.01,0.03
		c0,0.05,0,0.11-0.01,0.16c0,0.01-0.01,0.02-0.01,0.03c0,0.01-0.01,0.01-0.01,0.01c-0.01,0.01-0.02,0.01-0.02,0
		c0,0-0.01-0.01-0.01-0.01c-0.01-0.04-0.03-0.09-0.04-0.14c-0.01-0.05-0.04-0.11-0.06-0.15c-0.02-0.04-0.04-0.07-0.07-0.1
		c-0.01-0.01-0.01-0.01-0.02-0.02c-0.01-0.01-0.03,0-0.03,0.01c-0.01,0.02-0.01,0.04-0.02,0.06c-0.03,0.08-0.08,0.13-0.14,0.17
		c-0.04,0.02-0.08,0.04-0.12,0.05c-0.02,0-0.03,0.01-0.05,0.01c-0.02,0.01-0.03,0.02-0.03,0.04c0,0.01-0.01,0.03-0.01,0.04
		c0,0.03,0,0.06-0.01,0.1c0,0.06-0.01,0.12-0.01,0.18c0,0.03-0.01,0.07-0.01,0.1c0,0.01,0.01,0.02,0.02,0.03
		c0.01,0.01,0.02,0.01,0.03,0.02c0.02,0.01,0.04,0.01,0.07,0.02c0.16,0.04,0.32,0.07,0.48,0.08c0.06,0,0.11,0,0.17,0
		c0.03,0,0.05,0,0.08-0.01c0.06-0.01,0.1-0.04,0.13-0.09c0.01-0.02,0.02-0.04,0.03-0.05c0.04-0.08,0.08-0.16,0.12-0.24
		c0.01-0.02,0.01-0.03,0.02-0.05c0.03-0.07,0.06-0.15,0.09-0.22c0.01-0.02,0.02-0.05,0.02-0.08c0.01-0.02,0.01-0.05,0.02-0.07
		c0.03-0.09,0.04-0.19,0.05-0.29c0.01-0.09,0.01-0.19,0-0.28c-0.01-0.03-0.01-0.06-0.02-0.09
		C135.89,25.63,135.84,25.55,135.78,25.49z"/>
	<polygon class="st0" points="134.11,29.09 134.12,29.09 134.11,29.08 	"/>
	<path class="st0" d="M116.92,24.39c-0.02-0.06-0.06-0.11-0.13-0.14c-0.07-0.03-0.13-0.04-0.19-0.01c-0.06,0.03-0.11,0.08-0.15,0.17
		l-0.11,0.23l0.43,0.21l0.11-0.23C116.92,24.53,116.93,24.46,116.92,24.39z"/>
	<path class="st0" d="M134.51,25.61c0.02-0.12,0.05-0.24,0.07-0.36c0.01-0.07,0.03-0.13,0.04-0.2c0.02-0.09,0.04-0.18,0.06-0.27
		c0.05-0.2,0.1-0.41,0.15-0.61c0.03-0.11,0.06-0.22,0.09-0.33c0.01-0.02,0.01-0.03,0.01-0.05c0.02-0.08,0.04-0.15,0.07-0.23
		c0.05-0.16,0.11-0.31,0.16-0.47c0.08-0.23,0.18-0.45,0.28-0.68c0.02-0.05,0.05-0.1,0.07-0.15c0.03-0.06,0.05-0.12,0.08-0.19
		c0.02-0.07,0.05-0.13,0.07-0.2s0.05-0.13,0.08-0.19c0.05-0.11,0.11-0.23,0.17-0.34c0.06-0.1,0.11-0.2,0.18-0.29
		c0.01-0.01,0.02-0.03,0.03-0.04c0.02-0.03,0.04-0.06,0.06-0.1c0.05-0.07,0.1-0.13,0.14-0.2c0.01-0.01,0.01-0.02,0.02-0.03
		c0.07-0.1,0.14-0.2,0.22-0.29c0.02-0.02,0.03-0.04,0.04-0.06c0.03-0.04,0.06-0.08,0.1-0.13c0.02-0.02,0.03-0.04,0.05-0.06
		c0.03-0.04,0.06-0.07,0.09-0.11c0.01-0.02,0.03-0.04,0.04-0.05c0.05-0.06,0.1-0.12,0.15-0.17c0.08-0.09,0.16-0.18,0.24-0.27
		c0.11-0.12,0.21-0.23,0.32-0.35c0.1-0.1,0.2-0.21,0.3-0.31c0.02-0.02,0.05-0.05,0.07-0.07c0.01-0.01,0.02-0.03,0.03-0.04
		c0.04-0.02,0.07-0.05,0.09-0.08c0-0.01,0.01-0.01,0.01-0.02c-0.05,0.03-0.08,0.06-0.11,0.1c-0.02,0.01-0.03,0.02-0.04,0.03
		c-0.02,0.02-0.03,0.03-0.05,0.05c-0.09,0.09-0.18,0.18-0.27,0.27c-0.17,0.17-0.33,0.34-0.49,0.51c-0.15,0.16-0.29,0.32-0.43,0.49
		c-0.01,0.01-0.01,0.02-0.02,0.03c-0.04,0.04-0.07,0.09-0.11,0.13c-0.02,0.03-0.04,0.05-0.06,0.08c-0.04,0.05-0.08,0.1-0.12,0.15
		c-0.09,0.12-0.18,0.24-0.26,0.36c-0.03,0.05-0.06,0.09-0.09,0.14c-0.01,0.02-0.02,0.03-0.03,0.04c-0.04,0.05-0.07,0.11-0.1,0.16
		c-0.04,0.06-0.07,0.13-0.11,0.19c-0.07,0.12-0.12,0.25-0.18,0.37c-0.03,0.06-0.05,0.11-0.07,0.17c-0.02,0.05-0.04,0.1-0.05,0.15
		c-0.01,0.03-0.02,0.06-0.04,0.09c-0.03,0.06-0.05,0.11-0.08,0.17c-0.05,0.11-0.1,0.21-0.14,0.32c-0.08,0.18-0.15,0.36-0.21,0.55
		c0,0.01-0.01,0.02-0.01,0.03c-0.02,0.06-0.04,0.12-0.06,0.18c-0.03,0.09-0.06,0.18-0.09,0.28c-0.02,0.08-0.05,0.16-0.07,0.24
		c0,0.01-0.01,0.02-0.01,0.03c-0.03,0.08-0.05,0.16-0.07,0.24c-0.03,0.13-0.07,0.26-0.1,0.38c-0.03,0.13-0.06,0.26-0.09,0.39
		c-0.02,0.12-0.05,0.23-0.07,0.35c0,0.03-0.01,0.05-0.02,0.08c-0.01,0.04-0.02,0.07-0.02,0.11c-0.02,0.13-0.04,0.25-0.06,0.38
		c-0.01,0.08-0.02,0.17-0.04,0.25c-0.01,0.1-0.03,0.21-0.04,0.31c-0.02,0.14-0.03,0.27-0.05,0.41c-0.01,0.08-0.02,0.15-0.02,0.23
		c-0.02,0.24-0.04,0.47-0.06,0.71c-0.02,0.32-0.04,0.63-0.05,0.95c0,0.06,0,0.13-0.01,0.19c0,0,0,0.01,0,0.01
		c0.01,0,0.01,0,0.01-0.01c0-0.01,0-0.03,0-0.04c0.02-0.3,0.04-0.6,0.06-0.9c0.02-0.19,0.03-0.38,0.05-0.57
		c0.02-0.21,0.05-0.43,0.07-0.64c0.02-0.17,0.04-0.34,0.07-0.51c0.01-0.03,0.01-0.07,0.01-0.1c0.01-0.06,0.02-0.12,0.03-0.18
		c0.01-0.05,0.02-0.1,0.03-0.15C134.48,25.79,134.49,25.7,134.51,25.61z"/>
	<path class="st0" d="M136.66,21.95C136.66,21.95,136.65,21.95,136.66,21.95c-0.03,0.01-0.04,0.02-0.06,0.03
		c-0.03,0.03-0.05,0.06-0.05,0.1c0,0.02,0,0.05,0,0.07c0,0.09,0,0.19-0.01,0.28c-0.01,0.09-0.02,0.17-0.04,0.26
		c0,0.02-0.01,0.03-0.02,0.05c-0.01,0.01-0.01,0.02-0.02,0.02c-0.01,0-0.02,0-0.03,0c-0.01,0-0.01-0.01-0.02-0.02
		c-0.01-0.02-0.01-0.03-0.01-0.05c-0.01-0.06-0.02-0.12-0.03-0.17c-0.01-0.03-0.01-0.07-0.02-0.1c-0.01-0.03-0.02-0.07-0.03-0.1
		c-0.01-0.03-0.02-0.07-0.04-0.1c-0.01-0.02-0.01-0.03-0.03-0.05c-0.01-0.02-0.04-0.02-0.06,0c-0.01,0.01-0.01,0.01-0.02,0.02
		c-0.01,0.02-0.03,0.05-0.04,0.07c-0.1,0.2-0.21,0.39-0.31,0.59c-0.05,0.09-0.1,0.18-0.14,0.27c-0.04,0.07-0.07,0.14-0.1,0.22
		c-0.03,0.06-0.05,0.13-0.08,0.2c-0.01,0.01-0.01,0.03-0.01,0.04c0,0.02,0.01,0.03,0.02,0.05c0.01,0.01,0.03,0.02,0.05,0.02
		c0.02,0,0.04,0,0.05,0c0.04,0,0.08-0.01,0.11-0.02c0.05-0.01,0.1-0.02,0.14-0.04c0.01-0.01,0.03-0.01,0.04-0.01
		c0.01,0,0.02,0,0.03,0.01c0.01,0.01,0.01,0.02,0,0.03c-0.01,0.01-0.01,0.02-0.02,0.03c-0.03,0.03-0.05,0.06-0.08,0.08
		c-0.04,0.03-0.08,0.06-0.12,0.09c-0.02,0.01-0.03,0.02-0.05,0.04c-0.01,0.02-0.02,0.04-0.02,0.06c0,0.02,0.01,0.04,0.01,0.05
		c0.01,0.02,0.03,0.04,0.04,0.07c0.03,0.04,0.05,0.08,0.08,0.12c0.08,0.13,0.14,0.26,0.21,0.39c0.02,0.04,0.03,0.07,0.02,0.11
		c0,0,0,0.01,0,0.01c0,0.01,0,0.02,0,0.03c0.01,0.01,0.01,0.03,0.02,0.04c0.03,0.06,0.05,0.11,0.07,0.17
		c0.01,0.01,0.01,0.03,0.02,0.04c0.01,0.01,0.01,0.03,0.03,0.04c0.03,0.02,0.05,0.05,0.08,0.08c0.01,0.01,0.01,0.01,0.02,0.02
		c0.01,0.01,0.03,0.02,0.05,0.01c0.01,0,0.03-0.01,0.04-0.02c0.04-0.03,0.08-0.05,0.13-0.08c0.04-0.02,0.07-0.05,0.11-0.07
		c0.07-0.04,0.14-0.08,0.21-0.12c0.02-0.01,0.03-0.02,0.04-0.03c0,0,0-0.01,0-0.01c0-0.01-0.01-0.01-0.01-0.01
		c-0.02,0-0.03,0.01-0.05,0.01c-0.01,0-0.02,0-0.03,0c-0.07,0-0.14-0.01-0.2-0.04c-0.01-0.01-0.03-0.01-0.04-0.02
		c-0.05-0.04-0.09-0.1-0.12-0.16c-0.02-0.04-0.04-0.08-0.05-0.12c-0.02-0.08-0.05-0.16-0.06-0.25c-0.01-0.07-0.02-0.14-0.03-0.21
		c0-0.02,0-0.03-0.01-0.05c0-0.09,0-0.18,0.01-0.26c0.01-0.05,0.02-0.1,0.04-0.15c0.01-0.03,0.02-0.06,0.04-0.09
		c0.01-0.02,0.02-0.05,0.03-0.07c0.03-0.05,0.06-0.11,0.1-0.16c0.06-0.08,0.1-0.17,0.12-0.27c0.04-0.16,0.06-0.32,0.05-0.48
		c0-0.07-0.01-0.14-0.01-0.21c0-0.08,0.01-0.15,0.04-0.22c0.01-0.01,0.01-0.03,0.01-0.04C136.67,21.96,136.67,21.95,136.66,21.95z"
		/>
	<path class="st0" d="M137.83,24.3c-0.01,0-0.01,0-0.02,0c-0.08,0.03-0.16,0.05-0.24,0.08c-0.12,0.04-0.23,0.1-0.33,0.16
		c-0.03,0.02-0.06,0.04-0.09,0.05c-0.01,0-0.01,0.01-0.02,0.02c0,0,0,0.01,0,0.01c0,0,0.01,0,0.01,0c0.01,0,0.03-0.01,0.04-0.02
		c0.1-0.05,0.2-0.09,0.29-0.14c0.11-0.05,0.22-0.09,0.32-0.14c0.01-0.01,0.03-0.01,0.04-0.02C137.84,24.31,137.84,24.31,137.83,24.3
		C137.84,24.3,137.83,24.3,137.83,24.3z"/>
	<path class="st0" d="M135.32,25.97c0.02,0.06,0.03,0.11,0.05,0.17c0.02,0.09,0.05,0.18,0.06,0.27c0.01,0.03,0.02,0.06,0.03,0.09
		c0,0.01,0.01,0.01,0.02,0.02c0.02,0.02,0.05,0.02,0.06,0c0.01-0.01,0.02-0.02,0.02-0.03c0.01-0.01,0.01-0.03,0.02-0.04
		c0.02-0.06,0.03-0.13,0.03-0.2c0-0.09-0.01-0.18-0.01-0.27c0-0.01,0-0.01,0-0.03c0,0,0-0.02-0.01-0.04
		c-0.01-0.04-0.02-0.08-0.03-0.13c-0.01-0.03-0.01-0.06-0.02-0.08c-0.06-0.15-0.08-0.19-0.17-0.31c-0.02-0.03-0.05-0.05-0.07-0.08
		c-0.03-0.03-0.06-0.05-0.1-0.06c-0.01-0.01-0.03-0.01-0.04-0.01c-0.02,0-0.03,0-0.04,0.01c-0.01,0.01-0.02,0.02-0.02,0.03
		c-0.01,0.02-0.02,0.05-0.02,0.08c0,0.04,0.01,0.08,0.03,0.11c0.01,0.02,0.02,0.04,0.03,0.05
		C135.21,25.67,135.27,25.82,135.32,25.97z"/>
	<path class="st0" d="M136.91,51.98c-0.07-0.03-0.14-0.04-0.23-0.03c-0.08,0.01-0.15,0.04-0.21,0.08c-0.06,0.04-0.11,0.1-0.14,0.17
		c-0.03,0.07-0.04,0.15-0.03,0.23c0.01,0.08,0.04,0.16,0.08,0.22c0.05,0.06,0.1,0.11,0.17,0.14c0.07,0.03,0.14,0.04,0.23,0.03
		c0.08-0.01,0.15-0.04,0.21-0.08c0.06-0.04,0.11-0.1,0.14-0.17c0.03-0.07,0.04-0.15,0.03-0.23c-0.01-0.08-0.04-0.16-0.08-0.22
		C137.03,52.06,136.98,52.01,136.91,51.98z"/>
	<path class="st0" d="M138.21,18.57c0.02-0.01,0.03-0.02,0.04-0.04C138.24,18.54,138.22,18.55,138.21,18.57z"/>
	<path class="st0" d="M138.26,18.53c0.02-0.01,0.03-0.02,0.04-0.04C138.28,18.49,138.27,18.51,138.26,18.53z"/>
	<path class="st0" d="M139.74,23.88c-0.06,0-0.12,0.01-0.18,0.02c-0.04,0.01-0.09,0.01-0.13,0.01c-0.03,0-0.06,0-0.1,0.01
		c-0.14,0.02-0.28,0.04-0.43,0.07c-0.04,0.01-0.09,0.02-0.13,0.04c-0.01,0-0.01,0.01-0.01,0.01c0,0,0.01,0,0.01,0
		c0.02,0,0.03,0,0.05-0.01c0.07-0.01,0.14-0.02,0.21-0.03c0.05-0.01,0.1-0.01,0.15-0.01c0.03,0,0.05,0,0.08,0c0.02,0,0.05,0,0.07,0
		c0.04,0,0.08,0,0.11-0.01c0.07,0,0.14-0.01,0.21-0.01c0.01,0,0.02,0,0.03,0c0.04,0,0.08,0,0.11-0.01c0.04-0.01,0.08-0.01,0.12-0.01
		c0.04,0,0.07,0,0.11-0.01c0.14-0.02,0.27-0.04,0.41-0.06c0.03-0.01,0.07-0.01,0.1-0.02c0.04-0.01,0.09-0.02,0.13-0.03
		c0.03,0,0.05-0.01,0.08-0.02c0.08-0.02,0.15-0.04,0.23-0.07c0.09-0.03,0.18-0.07,0.27-0.12c0.16-0.09,0.31-0.2,0.44-0.33
		c0.05-0.05,0.09-0.09,0.13-0.15c0.03-0.05,0.07-0.09,0.1-0.14c0.02-0.03,0.05-0.07,0.07-0.1c0.02-0.04,0.04-0.08,0.06-0.12
		c0.03-0.06,0.06-0.12,0.08-0.19c0.01-0.03,0.02-0.06,0.02-0.09c-0.02,0.02-0.03,0.04-0.04,0.06c-0.03,0.05-0.06,0.11-0.08,0.16
		c-0.02,0.04-0.05,0.09-0.08,0.13c-0.02,0.02-0.03,0.05-0.05,0.07c-0.02,0.03-0.04,0.05-0.06,0.08c-0.02,0.02-0.03,0.04-0.05,0.06
		c-0.03,0.05-0.07,0.09-0.11,0.13c-0.11,0.11-0.23,0.21-0.37,0.29c-0.16,0.09-0.32,0.17-0.5,0.21c-0.01,0-0.03,0.01-0.04,0.01
		c-0.04,0.02-0.09,0.02-0.14,0.03c-0.04,0.01-0.08,0.02-0.12,0.03c-0.03,0.01-0.07,0.02-0.1,0.02c-0.19,0.03-0.38,0.06-0.57,0.09
		C139.8,23.88,139.77,23.88,139.74,23.88z"/>
	<path class="st0" d="M138.1,18.68c0.04-0.02,0.08-0.06,0.11-0.1C138.16,18.6,138.13,18.63,138.1,18.68z"/>
	<path class="st0" d="M147.1,30.44c0.02,0.01,0.03,0.02,0.05,0.03C147.13,30.45,147.12,30.44,147.1,30.44z"/>
	<path class="st0" d="M134.67,18.38c-0.02,0.01-0.03,0.02-0.04,0.04C134.64,18.41,134.66,18.4,134.67,18.38z"/>
	<path class="st0" d="M138.38,18.42c-0.01,0-0.02,0.01-0.03,0.02C138.36,18.43,138.37,18.43,138.38,18.42z"/>
	<path class="st0" d="M134.59,18.46c-0.04,0.02-0.06,0.05-0.07,0.08C134.55,18.53,134.58,18.5,134.59,18.46z"/>
	<path class="st0" d="M132.55,51.98l-0.29-0.03l-0.09,0.85l0.29,0.03c0.14,0.01,0.25-0.01,0.34-0.08c0.09-0.07,0.14-0.17,0.16-0.3
		c0.01-0.13-0.02-0.24-0.09-0.32C132.79,52.05,132.69,52,132.55,51.98z"/>
	<path class="st0" d="M138.31,18.48c0.02-0.01,0.03-0.02,0.04-0.04C138.33,18.45,138.32,18.46,138.31,18.48z"/>
	<path class="st0" d="M152.12,37.35c-0.18,0.01-0.34,0.03-0.48,0.05c-0.59,0.09-0.91,0.25-1.09,0.38c-0.24,0.18-0.33,0.4-0.3,0.74
		c0.02,0.33,0.15,0.47,0.27,0.55c0.19,0.14,0.48,0.2,0.85,0.17c0.32-0.02,0.6-0.1,0.86-0.24c0.19-0.1,0.37-0.23,0.53-0.39
		c-0.02-0.15-0.03-0.28-0.04-0.39c-0.02-0.18-0.03-0.35-0.04-0.52c-0.01-0.08-0.01-0.21-0.02-0.37c-0.03,0-0.05,0-0.08,0
		C152.39,37.33,152.24,37.34,152.12,37.35z"/>
	<path class="st0" d="M151.24,34.32c-0.1,0.01-0.19,0.02-0.28,0.03c-0.27,0.04-0.5,0.12-0.67,0.22c-0.21,0.13-0.37,0.31-0.49,0.57
		l-0.18,0.37c0.63-0.29,1.37-0.47,2.22-0.54c0.2-0.01,0.42-0.02,0.64-0.03c-0.06-0.18-0.15-0.32-0.27-0.42
		C152.01,34.36,151.68,34.29,151.24,34.32z"/>
	<path class="st0" d="M166.27,27.4L166.27,27.4c-0.55-0.51-1.28-0.79-2.06-0.78c-0.82,0.01-1.59,0.34-2.16,0.92
		c-0.58,0.59-0.89,1.36-0.88,2.19c0,0.12,0.01,0.24,0.03,0.36c-0.27-0.06-0.57-0.09-0.88-0.08c-0.83,0.03-1.61,0.23-2.33,0.6
		c-0.5,0.26-0.96,0.6-1.37,1c-0.04-0.68-0.12-1.36-0.22-2.04c-1.9-12.09-13.24-20.36-25.33-18.46
		c-11.21,1.76-19.13,11.63-18.72,22.69c-0.38-0.09-0.81-0.12-1.31-0.11l-1.71,0.04l-0.17,1.7c-0.01,0.12-0.08,0.54-0.49,1.51
		c-0.22-0.53-0.5-0.92-0.87-1.21c-0.38-0.3-1.19-0.74-2.39-0.4c-0.38,0.11-0.76,0.29-1.12,0.53c-0.29,0.19-0.58,0.43-0.88,0.72
		l-1.4,1.33l1.34,1.4c0,0,0.17,0.18,0.43,0.8c0.16,0.38,0.45,1.17,0.89,2.71c0.26,0.92,0.55,2,0.84,3.2
		c0.41,1.69,0.53,2.13,0.58,2.32c0.23,0.8,0.55,1.39,0.99,1.81c0.59,0.57,1.37,0.81,2.19,0.68c0.12-0.02,0.23-0.04,0.35-0.08
		c0.41-0.12,0.8-0.32,1.17-0.6c0.28-0.22,0.57-0.48,0.86-0.82l1.08-1.22l-1.02-1.27c0,0,0,0-0.01-0.01c1.55,0.97,1.75,1.1,1.81,1.14
		l0.01,0.01c0.66,0.39,1.17,0.63,1.6,0.77c0.24,0.07,0.47,0.12,0.7,0.15l0.31-0.42l0.13,0.43c0.24-0.01,0.47-0.04,0.69-0.11
		c0.48-0.14,0.91-0.41,1.24-0.79c4.85,5.27,12.16,8.09,19.76,6.9c7.45-1.17,13.44-5.92,16.51-12.22c0.11,0,0.21,0,0.32-0.01
		c0.07-0.01,0.15-0.01,0.22-0.03c0.31-0.05,0.63-0.15,0.95-0.31c0.12-0.06,0.24-0.13,0.37-0.2c0.04,0.03,0.07,0.06,0.11,0.08
		c0.05,0.03,0.09,0.06,0.14,0.09l0.14-0.27c0.18,0.69,0.86,0.83,1.5,0.79l-0.02-0.11c0.04,0,0.08,0,0.12,0
		c0.25-0.01,0.49-0.03,0.72-0.07c1.04-0.16,1.95-0.59,2.71-1.26c0.07-0.06,0.14-0.13,0.21-0.2c0.02,0.04,0.04,0.07,0.07,0.11
		c0.27,0.4,0.92,1.08,2.18,1.06c0.18,0,0.37-0.02,0.56-0.05c0.19-0.03,0.39-0.08,0.59-0.14c0.35-0.11,0.7-0.26,1.06-0.46l1.61-0.91
		l-0.84-1.65c-0.03-0.06-0.11-0.25-0.18-0.66c-0.07-0.39-0.1-0.92-0.11-1.57c-0.01-0.76,0-1.58,0.04-2.43
		c0.06-1.39,0.06-1.5,0.06-1.58c-0.01-0.65-0.14-1.18-0.39-1.61c0.39-0.53,0.6-1.17,0.59-1.84
		C167.16,28.67,166.84,27.94,166.27,27.4z M150.77,21.23c0.13-0.01,0.25,0.02,0.36,0.07c0.12,0.06,0.21,0.15,0.29,0.26
		c0.07,0.1,0.11,0.2,0.13,0.3c0.02,0.1,0.02,0.2-0.01,0.3l-0.27-0.06c0.04-0.14,0.01-0.26-0.07-0.38c-0.05-0.07-0.11-0.12-0.18-0.16
		c-0.07-0.03-0.14-0.05-0.22-0.04c-0.08,0.01-0.15,0.04-0.22,0.08c-0.07,0.05-0.12,0.11-0.16,0.18c-0.03,0.07-0.05,0.14-0.04,0.22
		c0.01,0.08,0.04,0.15,0.08,0.22c0.08,0.11,0.19,0.18,0.33,0.19l-0.04,0.28c-0.1-0.01-0.2-0.04-0.29-0.1
		c-0.09-0.06-0.17-0.13-0.24-0.23c-0.08-0.12-0.13-0.24-0.14-0.37c-0.01-0.13,0-0.25,0.06-0.37c0.05-0.12,0.13-0.21,0.25-0.29
		C150.52,21.28,150.64,21.23,150.77,21.23z M148.18,31.49c-0.01-0.05-0.03-0.1-0.04-0.14c-0.01-0.04-0.03-0.08-0.05-0.12
		c-0.07-0.14-0.17-0.26-0.3-0.35c-0.05-0.03-0.1-0.07-0.14-0.1c-0.04-0.03-0.07-0.05-0.11-0.07c-0.05-0.02-0.1-0.04-0.15-0.06
		c-0.09-0.04-0.19-0.06-0.29-0.08c-0.18-0.04-0.37-0.05-0.55-0.05c-0.02,0-0.05,0-0.07,0.01c-0.03,0-0.05,0.01-0.08,0.01
		c-0.04,0.01-0.08,0.01-0.11,0.01c-0.08,0-0.15,0.01-0.23,0.03c-0.05,0.01-0.09,0.02-0.14,0.03c-0.08,0.01-0.15,0.02-0.22,0.05
		c-0.01,0-0.01,0-0.02,0c-0.12,0.03-0.23,0.07-0.35,0.1c-0.16,0.05-0.32,0.1-0.47,0.16c-0.06,0.02-0.11,0.04-0.17,0.06
		c-0.09,0.03-0.17,0.07-0.26,0.1c-0.28,0.1-0.57,0.21-0.85,0.31c-0.17,0.06-0.33,0.12-0.5,0.17c-0.09,0.03-0.17,0.06-0.26,0.08
		c-0.05,0.01-0.1,0.03-0.14,0.04c-0.01,0-0.02,0.01-0.02,0.01c-0.02,0.01-0.03,0.03-0.03,0.05c0,0.01,0,0.02,0.01,0.03
		c0.01,0.02,0.01,0.04,0.02,0.07c0.02,0.06,0.04,0.12,0.04,0.19c0.01,0.08,0,0.16-0.02,0.24c-0.01,0.02-0.01,0.04-0.03,0.06
		c-0.05,0.08-0.11,0.13-0.2,0.15c-0.01,0-0.02,0-0.03,0c-0.02,0-0.05-0.02-0.05-0.04c0-0.01,0-0.02,0-0.03c0-0.02,0-0.04,0.01-0.06
		c0-0.02,0-0.04,0-0.06c0-0.04-0.01-0.08-0.02-0.12c-0.02-0.07-0.05-0.12-0.11-0.17c-0.04-0.03-0.08-0.05-0.13-0.06
		c-0.03-0.01-0.05-0.01-0.08-0.01c-0.05,0-0.1,0-0.15,0c-0.03,0-0.06,0-0.1,0.01c-0.07,0-0.14,0.01-0.21,0.03
		c-0.05,0.01-0.1,0.02-0.15,0.03c-0.03,0.01-0.06,0.01-0.09,0.02c-0.05,0.01-0.1,0.02-0.15,0.03c-0.04,0.01-0.08,0.01-0.11,0.02
		c-0.05,0.02-0.1,0.03-0.15,0.03c-0.04,0.01-0.08,0.01-0.12,0.02c-0.03,0.01-0.06,0.01-0.09,0.02c-0.1,0.03-0.21,0.04-0.31,0.06
		c-0.07,0.01-0.15,0.02-0.22,0.02c-0.02,0-0.04,0-0.06,0.01c-0.06,0.01-0.12,0.01-0.18,0.01c-0.13,0-0.25-0.01-0.38-0.03
		c-0.16-0.03-0.33-0.07-0.48-0.14c-0.12-0.05-0.23-0.11-0.33-0.18c-0.08-0.05-0.16-0.11-0.23-0.17c-0.01-0.01-0.01-0.01-0.02-0.02
		c-0.09-0.08-0.18-0.16-0.26-0.25c-0.08-0.09-0.14-0.18-0.19-0.28c-0.01-0.02-0.02-0.05-0.04-0.07c0-0.01-0.01-0.01-0.02-0.02
		c-0.01-0.01-0.03-0.01-0.04,0c-0.01,0.01-0.03,0.02-0.04,0.04c-0.03,0.03-0.06,0.06-0.09,0.08c-0.05,0.03-0.1,0.06-0.16,0.08
		c-0.04,0.01-0.08,0.03-0.12,0.04c-0.03,0.01-0.06,0.01-0.1,0.02c-0.05,0-0.11,0-0.16-0.01c-0.09-0.01-0.18-0.05-0.25-0.1
		c-0.01-0.01-0.02-0.02-0.03-0.03c-0.02-0.02-0.01-0.04,0.01-0.05c0.02-0.01,0.03-0.01,0.05-0.02c0.02-0.01,0.04-0.03,0.05-0.05
		c0.02-0.05,0.02-0.1,0-0.15c-0.01-0.03-0.03-0.06-0.05-0.08c-0.03-0.03-0.05-0.06-0.09-0.09c-0.05-0.04-0.1-0.08-0.16-0.11
		c-0.06-0.03-0.12-0.06-0.18-0.1c-0.1-0.05-0.21-0.1-0.31-0.14c-0.05-0.02-0.11-0.04-0.17-0.06c-0.07-0.02-0.13-0.04-0.2-0.06
		c-0.07-0.02-0.13-0.04-0.19-0.06c-0.02-0.01-0.04-0.01-0.06-0.02c-0.06-0.02-0.12-0.03-0.19-0.05c-0.09-0.03-0.18-0.07-0.27-0.11
		c-0.07-0.03-0.14-0.07-0.2-0.12c-0.04-0.03-0.09-0.06-0.12-0.1c-0.03-0.02-0.06-0.04-0.1-0.04c-0.04,0-0.07,0-0.11,0
		c-0.08,0-0.16,0-0.25-0.01c-0.01,0-0.02,0-0.04,0c-0.07,0-0.14-0.01-0.21-0.01c-0.03,0-0.05-0.01-0.08-0.01c-0.01,0-0.03,0-0.04,0
		c-0.02,0-0.03,0.01-0.04,0.03c-0.01,0.01-0.01,0.02-0.02,0.03c-0.01,0.02-0.02,0.05-0.04,0.07c-0.03,0.05-0.06,0.1-0.1,0.14
		c-0.06,0.06-0.13,0.11-0.22,0.13c-0.02,0.01-0.04,0.01-0.06,0.02c-0.05,0.02-0.1,0.03-0.16,0.03c-0.09,0-0.18,0-0.27-0.01
		c-0.15-0.02-0.29-0.06-0.43-0.12c-0.1-0.04-0.19-0.08-0.29-0.13c-0.03-0.02-0.06-0.03-0.09-0.04c-0.03-0.02-0.07-0.02-0.1-0.02
		c-0.05,0-0.11,0.01-0.16,0.01c-0.04,0-0.09,0-0.13,0.01c-0.04,0-0.08,0.01-0.12,0.01c-0.06,0-0.11,0.01-0.17,0.02
		c-0.05,0.01-0.1,0.01-0.15,0.02c-0.04,0-0.09,0.01-0.13,0.01c-0.03,0-0.06,0.01-0.1,0.01c-0.06,0.01-0.11,0.01-0.17,0.02
		c-0.02,0-0.05,0-0.07,0.01c-0.12,0.02-0.25,0.03-0.38,0.05c-0.03,0-0.05,0.01-0.08,0.01c-0.04,0-0.08,0.01-0.11,0.01
		c-0.17,0.03-0.33,0.05-0.5,0.08c-0.03,0.01-0.07,0.01-0.1,0.02c-0.05,0.01-0.09,0.02-0.14,0.03c-0.08,0.01-0.16,0.03-0.23,0.05
		c-0.03,0.01-0.05,0.01-0.08,0.02c-0.07,0.01-0.13,0.02-0.2,0.04c-0.02,0.01-0.04,0.01-0.06,0.01c-0.1,0.02-0.2,0.05-0.3,0.07
		c-0.02,0-0.03,0.01-0.05,0.02c-0.02,0-0.03,0.01-0.05,0.01c-0.05,0.01-0.1,0.02-0.14,0.04c-0.07,0.01-0.14,0.03-0.2,0.05
		c-0.04,0.01-0.08,0.02-0.12,0.03c-0.03,0.01-0.06,0.01-0.09,0.02c-0.03,0.01-0.06,0.02-0.09,0.03c-0.03,0.01-0.07,0.02-0.1,0.03
		c-0.03,0.01-0.06,0.02-0.09,0.02c-0.03,0.01-0.06,0.02-0.09,0.03c-0.03,0.01-0.06,0.02-0.09,0.03c-0.03,0.01-0.06,0.02-0.09,0.02
		c-0.03,0.01-0.06,0.02-0.09,0.03c-0.03,0-0.05,0.01-0.08,0.02c-0.03,0.01-0.06,0.02-0.09,0.02c-0.03,0.01-0.07,0.03-0.1,0.03
		c0,0-0.01,0-0.01,0c-0.02,0-0.05,0.01-0.07,0.02c-0.05,0.02-0.1,0.02-0.15,0.05c-0.01,0-0.02,0-0.03,0.01
		c-0.03,0.01-0.07,0.02-0.1,0.03c-0.03,0.01-0.06,0.01-0.09,0.02c-0.03,0.01-0.06,0.02-0.09,0.03c-0.03,0.01-0.07,0.02-0.1,0.03
		c-0.03,0.01-0.06,0.01-0.09,0.02c-0.03,0.01-0.06,0.02-0.09,0.03c-0.03,0.01-0.06,0.01-0.09,0.03c-0.01,0-0.02,0.01-0.03,0.01
		c-0.06,0.01-0.11,0.03-0.17,0.05c-0.01,0-0.02,0-0.03,0.01c-0.06,0.02-0.12,0.03-0.18,0.05c-0.03,0.01-0.06,0.01-0.09,0.02
		c-0.07,0.01-0.13,0.03-0.2,0.05c-0.02,0.01-0.05,0.01-0.07,0.01c-0.04,0.01-0.08,0.01-0.12,0.02c-0.08,0.02-0.17,0.03-0.25,0.04
		c-0.1,0.02-0.21,0.03-0.31,0.05c-0.07,0.01-0.14,0.02-0.22,0.03c-0.04,0-0.08,0.01-0.12,0.02c-0.02,0-0.05,0.01-0.07,0.01
		c-0.06,0-0.12,0.01-0.18,0.01c-0.06,0.01-0.12,0.01-0.18,0.01c-0.07,0-0.15,0.01-0.22,0.01c-0.01,0-0.02,0-0.03,0
		c-0.06,0.01-0.12,0-0.18,0.01c-0.01,0-0.02,0-0.04,0c-0.02,0-0.04,0-0.06,0c-0.02,0-0.05,0-0.07,0c-0.02,0-0.04,0-0.05,0
		c-0.01,0-0.02,0-0.04,0c-0.03,0-0.06,0-0.1,0c-0.01,0-0.02,0-0.04,0c-0.18-0.01-0.36-0.02-0.54-0.03c-0.3-0.03-0.59-0.08-0.88-0.15
		c-0.02,0-0.04-0.01-0.06-0.01c-0.02,0-0.04,0-0.05,0.01c-0.04,0.03-0.08,0.05-0.12,0.08c0,0-0.01,0.01-0.01,0.01
		c-0.02,0.02-0.03,0.04-0.03,0.06c0,0.01,0,0.02,0,0.04c0,0.03,0,0.05,0,0.08c0,0.04-0.01,0.08-0.02,0.11
		c-0.02,0.05-0.04,0.09-0.07,0.12c-0.03,0.03-0.05,0.05-0.09,0.07c-0.11,0.07-0.23,0.12-0.35,0.15c-0.05,0.01-0.11,0.02-0.17,0.03
		c-0.11,0.02-0.23,0.01-0.34,0c-0.05-0.01-0.09-0.02-0.14-0.03c-0.1-0.03-0.2-0.07-0.29-0.12c-0.03-0.02-0.05-0.03-0.08-0.06
		c-0.01-0.01-0.03-0.03-0.05-0.04c-0.03-0.02-0.06-0.04-0.09-0.05c-0.02,0-0.03-0.01-0.05-0.01c-0.03-0.01-0.07-0.02-0.1-0.04
		c-0.04-0.02-0.08-0.04-0.11-0.07c-0.05-0.03-0.09-0.08-0.11-0.13c-0.01-0.02-0.02-0.03-0.02-0.05c-0.01-0.02-0.02-0.03-0.04-0.04
		c0-0.02-0.01-0.03-0.01-0.05c0.01-0.02,0.02-0.03,0.03-0.06c0-0.01,0-0.02,0-0.03c0-0.04,0.01-0.07,0.03-0.1
		c0.01-0.01,0.01-0.03,0.02-0.04c0.01-0.03,0.01-0.05,0-0.08c-0.01-0.02-0.02-0.04-0.03-0.06c-0.02-0.04-0.04-0.09-0.05-0.13
		c-0.02-0.07-0.04-0.14-0.03-0.22c0-0.04,0.01-0.07,0.01-0.1c0.02-0.1,0.06-0.2,0.13-0.28c0.07-0.09,0.16-0.16,0.26-0.2
		c0.09-0.04,0.18-0.08,0.28-0.09c0.01,0,0.02,0,0.03,0c0.03,0,0.06-0.01,0.1-0.01c0.03,0,0.06,0,0.09,0.01c0.01,0,0.03,0,0.04,0
		c0.02,0,0.04,0,0.06-0.02c0.01-0.01,0.03-0.02,0.04-0.03c0.13-0.09,0.27-0.12,0.43-0.11c0.06,0,0.11,0.02,0.17,0.05
		c0.04,0.02,0.07,0.04,0.1,0.07c0.02,0.01,0.03,0.03,0.04,0.05c0.01,0.01,0.02,0.02,0.02,0.04c0.02,0.04,0.05,0.07,0.1,0.07
		c0.04,0.01,0.07,0.02,0.11,0.03c0.03,0.01,0.05,0.02,0.08,0.04c0.05,0.04,0.11,0.07,0.15,0.12c0.01,0.01,0.02,0.02,0.03,0.03
		c0.01,0.01,0.03,0.02,0.05,0.01c0.01,0,0.02,0,0.03-0.01c0.02-0.01,0.04-0.02,0.06-0.02c0.12-0.06,0.24-0.1,0.36-0.14
		c0.08-0.03,0.16-0.05,0.24-0.07c0.08-0.02,0.16-0.05,0.24-0.07c0.1-0.03,0.21-0.07,0.31-0.1c0.11-0.04,0.22-0.08,0.33-0.13
		c0.18-0.08,0.35-0.17,0.52-0.28c0.21-0.14,0.4-0.3,0.57-0.48c0.15-0.16,0.29-0.32,0.42-0.5c0.11-0.15,0.21-0.3,0.31-0.46
		c0.21-0.34,0.39-0.7,0.53-1.08c0.08-0.21,0.15-0.43,0.22-0.64c0.09-0.27,0.18-0.55,0.28-0.82c0.08-0.23,0.16-0.46,0.25-0.69
		c0.08-0.2,0.15-0.41,0.24-0.61c0.04-0.11,0.09-0.21,0.14-0.32c0.03-0.07,0.07-0.14,0.11-0.2c0.13-0.22,0.25-0.45,0.37-0.68
		c0.09-0.18,0.18-0.36,0.28-0.53c0.08-0.13,0.15-0.26,0.24-0.39c0.09-0.14,0.18-0.27,0.28-0.41c0.1-0.14,0.2-0.27,0.31-0.41
		c0.13-0.17,0.27-0.34,0.42-0.5c0.29-0.32,0.6-0.62,0.93-0.9c0.14-0.11,0.27-0.22,0.42-0.33c0.13-0.09,0.26-0.19,0.39-0.27
		c0.11-0.07,0.22-0.14,0.33-0.21c0.05-0.03,0.1-0.06,0.14-0.08c0.07-0.04,0.14-0.07,0.2-0.11c0,0,0.01-0.01,0.02-0.01
		c0.06-0.03,0.12-0.06,0.18-0.09s0.12-0.06,0.18-0.09c0.09-0.04,0.17-0.08,0.26-0.12c0.2-0.09,0.39-0.17,0.59-0.25
		c0.1-0.04,0.2-0.07,0.3-0.11c0.04-0.02,0.09-0.03,0.13-0.04c0.07-0.02,0.13-0.04,0.2-0.06c0.02-0.01,0.03-0.01,0.05-0.01
		c0.02,0,0.03-0.01,0.05-0.01c0.03-0.01,0.07-0.02,0.1-0.03c0.02,0,0.03-0.01,0.05-0.01c0.04-0.01,0.08-0.02,0.12-0.03
		c0.02,0,0.05-0.01,0.07-0.02c0.04-0.01,0.08-0.02,0.13-0.03c0.03-0.01,0.07-0.01,0.1-0.02c0.04-0.01,0.09-0.02,0.14-0.03
		c0.12-0.02,0.23-0.04,0.35-0.06c0.1-0.02,0.2-0.03,0.3-0.04c0.04-0.01,0.08-0.01,0.11-0.01c0.04,0,0.09-0.01,0.13-0.01
		c0.03,0,0.05-0.01,0.08-0.01c0.04,0,0.07,0,0.11,0c0.01-0.01,0.02-0.01,0.02-0.02c-0.01,0.01-0.01,0.01-0.02,0.02
		c0.03,0,0.07,0,0.1,0c0.02,0,0.04,0,0.06-0.01c0.02-0.01,0.04-0.02,0.06-0.03c0.02-0.01,0.04-0.03,0.07-0.05
		c0.08-0.06,0.17-0.11,0.26-0.17c0.09-0.06,0.18-0.1,0.28-0.15c0.15-0.08,0.32-0.14,0.48-0.2c0.06-0.02,0.11-0.03,0.17-0.05
		c0.04-0.01,0.08-0.02,0.12-0.03c0.03,0,0.05-0.01,0.08-0.01c0.02,0,0.04-0.01,0.06-0.03c0.06-0.01,0.12-0.02,0.17-0.03
		c0.03,0.01,0.06,0.01,0.1,0c0.06-0.01,0.12-0.02,0.18-0.01c0.01,0,0.02,0,0.03,0c0.08-0.01,0.16,0,0.25,0
		c0.05,0,0.1,0.01,0.15,0.03c0.04,0.01,0.07,0.03,0.11,0.04c0.16,0.06,0.32,0.14,0.47,0.22c0.08,0.05,0.16,0.09,0.24,0.15
		c0.07,0.05,0.12,0.11,0.18,0.17c0.03,0.04,0.06,0.07,0.08,0.12c0.03,0.06,0.04,0.13,0.03,0.2c-0.01,0.05-0.03,0.1-0.06,0.14
		c-0.02,0.02-0.03,0.05-0.05,0.07c-0.01,0.01-0.02,0.02-0.02,0.04c-0.01,0.02-0.01,0.03,0,0.05c0.01,0.01,0.02,0.02,0.03,0.03
		c0.02,0.02,0.04,0.05,0.05,0.08c0.01,0.02,0.02,0.04,0.03,0.06c0.01,0.02,0.02,0.05,0.02,0.08c0.02,0.1,0.03,0.2,0.02,0.3
		c0,0,0,0.01,0,0.01c0,0.02-0.02,0.04-0.04,0.04c-0.02,0-0.03,0-0.05,0c-0.05,0-0.09,0.01-0.14,0.03c-0.06,0.02-0.11,0.04-0.16,0.07
		c-0.15,0.08-0.2,0.11-0.32,0.24c-0.06,0.06-0.11,0.12-0.17,0.18c-0.03,0.03-0.05,0.06-0.07,0.09c-0.05,0.08-0.08,0.16-0.1,0.25
		c-0.01,0.05,0,0.1,0.03,0.14c0.01,0.02,0.03,0.04,0.05,0.06c0.02,0.01,0.03,0.03,0.05,0.04c0.05,0.04,0.11,0.05,0.17,0.05
		c0.07,0,0.14-0.02,0.2-0.05c0.06-0.03,0.12-0.07,0.18-0.11c0.07-0.05,0.13-0.11,0.18-0.18c0.06-0.07,0.12-0.14,0.18-0.22
		c0.01-0.01,0.02-0.03,0.03-0.04c0,0,0.01-0.01,0.01-0.01c0.01,0,0.02,0,0.03,0c0,0,0.01,0.01,0.01,0.01
		c0.01,0.02,0.03,0.04,0.05,0.06c0.03,0.02,0.06,0.04,0.09,0.06c0.07,0.04,0.13,0.09,0.19,0.14c0.02,0.02,0.04,0.03,0.05,0.05
		c0.02,0.02,0.04,0.03,0.05,0.05c0.08,0.07,0.16,0.15,0.23,0.23c0.06,0.07,0.11,0.14,0.15,0.21c0.05,0.09,0.1,0.18,0.15,0.27
		c0.01,0.02,0.02,0.04,0.03,0.06c0.04,0.07,0.08,0.14,0.12,0.22c0.05,0.1,0.1,0.19,0.16,0.28c0.06,0.1,0.13,0.19,0.22,0.27
		c0.03,0.03,0.06,0.05,0.1,0.08c0.01,0.01,0.03,0.02,0.05,0.02c0.03,0.01,0.05,0,0.07-0.02c0.01-0.02,0.02-0.03,0.03-0.05
		c0.04-0.08,0.08-0.16,0.12-0.25c0.02-0.05,0.09-0.16,0.11-0.19c0.06-0.08,0.12-0.15,0.18-0.21c0.07-0.07,0.16-0.13,0.24-0.19
		c0.01-0.01,0.03-0.02,0.05-0.03c0.05-0.02,0.1-0.04,0.15-0.06c0.03-0.01,0.06-0.01,0.09-0.01c0.06,0.01,0.11,0.01,0.17,0.02
		c0.02,0,0.03,0.01,0.05,0.01c0.06,0.02,0.11,0.04,0.16,0.08c0.04,0.03,0.16,0.15,0.2,0.19c0.01,0.01,0.01,0.01,0.02,0.02
		c0.02,0.02,0.03,0.04,0.05,0.06c0.08,0.12,0.13,0.24,0.16,0.38c0.02,0.1,0.03,0.2,0.03,0.31c0,0.1,0,0.19-0.02,0.29
		c0,0.02-0.01,0.04-0.01,0.06c0,0.01,0,0.02,0,0.03c0,0.02,0.01,0.04,0.03,0.05c0.01,0.01,0.02,0.01,0.03,0.01
		c0.02,0.01,0.05,0.01,0.07,0.02c0.09,0.02,0.19,0.05,0.28,0.08c0.05,0.02,0.11,0.03,0.16,0.05c0.03,0.01,0.05,0.02,0.07,0.03
		c0.16,0.06,0.32,0.13,0.47,0.22c0.06,0.04,0.13,0.07,0.2,0.1c0.01,0,0.02,0.01,0.03,0.01c0.09,0.04,0.18,0.09,0.27,0.14
		c0.1,0.05,0.19,0.11,0.29,0.17c0.1,0.06,0.19,0.13,0.28,0.2c0.02,0.02,0.04,0.03,0.05,0.04c0.08,0.06,0.14,0.12,0.21,0.18
		c0.09,0.09,0.18,0.18,0.26,0.27c0.13,0.14,0.24,0.28,0.35,0.43c0.05,0.07,0.09,0.14,0.14,0.2c0.05,0.08,0.1,0.15,0.14,0.23
		c0.05,0.08,0.09,0.16,0.13,0.24c0.06,0.12,0.11,0.25,0.16,0.37c0.06,0.15,0.1,0.31,0.14,0.47c0,0.02,0.01,0.03,0.01,0.05
		c0.03,0.16,0.05,0.31,0.08,0.47c0.01,0.03,0.01,0.06,0.01,0.1c0,0.04,0,0.09,0.01,0.13c0,0.03,0.01,0.07,0.01,0.1
		c0,0.06,0,0.11,0.01,0.17c0,0.07,0,0.13,0.01,0.2c0,0.11,0.01,0.22,0,0.33c0,0.16,0,0.33,0,0.49c0,0.06,0,0.13,0.01,0.19
		c0.01,0.04,0.01,0.08,0.01,0.12c0,0.04,0,0.07,0.01,0.11c0.01,0.07,0.03,0.14,0.05,0.21c0.01,0.02,0.01,0.04,0.02,0.06
		c0.03,0.09,0.08,0.18,0.15,0.26c0.06,0.08,0.13,0.14,0.21,0.2c0.04,0.03,0.09,0.05,0.14,0.06c0.07,0.02,0.13,0,0.19-0.04
		c0.01,0,0.01-0.01,0.02-0.02c0.04-0.04,0.07-0.08,0.08-0.14c0.01-0.04,0.01-0.08,0-0.11c0-0.02-0.01-0.04-0.01-0.06
		c0-0.02,0.02-0.03,0.04-0.02c0,0,0.01,0,0.01,0c0.01,0.01,0.02,0.01,0.03,0.02c0.02,0.02,0.04,0.05,0.06,0.08
		c0.05,0.07,0.08,0.15,0.1,0.24c0.01,0.02,0.01,0.04,0.01,0.06c0,0.07-0.01,0.15-0.03,0.22c-0.02,0.06-0.04,0.11-0.08,0.16
		c-0.04,0.07-0.1,0.12-0.16,0.18c-0.07,0.06-0.15,0.11-0.25,0.13c-0.01,0-0.02,0.01-0.03,0.01c-0.01,0-0.01,0.01-0.02,0.01
		c-0.01,0.01-0.02,0.03-0.01,0.04c0.01,0.01,0.01,0.01,0.02,0.02c0.02,0.02,0.05,0.04,0.08,0.05c0.07,0.04,0.14,0.08,0.2,0.12
		c0.07,0.05,0.15,0.09,0.23,0.13c0.07,0.04,0.13,0.08,0.2,0.12c0.02,0.01,0.04,0.03,0.06,0.04c0.03,0.02,0.06,0.04,0.09,0.07
		c0.08,0.05,0.15,0.12,0.21,0.18c0.05,0.05,0.1,0.11,0.15,0.17c0.08,0.1,0.14,0.22,0.19,0.34c0.01,0.02,0.02,0.05,0.03,0.07
		c0.01,0.03,0.02,0.05,0.03,0.07c0.02,0.16,0.05,0.31,0.07,0.47c0,0.02-0.01,0.05-0.01,0.07c0,0.05,0,0.1-0.01,0.15
		c-0.01,0.05-0.02,0.11-0.03,0.16c0,0.02-0.01,0.04-0.01,0.06c-0.02,0-0.03,0.01-0.05,0.01c0,0,0-0.01,0-0.01
		c-0.03-0.04-0.04-0.08-0.04-0.12C148.19,31.54,148.19,31.52,148.18,31.49z M130.23,41.68c-0.02-0.12-0.07-0.21-0.15-0.3
		c-0.07-0.07-0.25-0.23-0.7-0.48c-0.08-0.04-0.18-0.09-0.31-0.17c-1.27-0.71-1.96-1.45-2.1-2.26c-0.06-0.32-0.06-0.66,0.01-1
		c0.06-0.33,0.18-0.66,0.36-0.97c0.32-0.57,0.74-1.03,1.24-1.39c0.5-0.36,1.08-0.6,1.72-0.72c0.41-0.08,0.76-0.04,1.05,0.1
		c0.35,0.17,0.58,0.49,0.66,0.89c0.03,0.18,0.03,0.37-0.01,0.6c-0.03,0.18-0.09,0.39-0.19,0.64l-0.2,0.55l-0.58-0.12
		c-0.12-0.03-0.24-0.04-0.34-0.05c-0.09,0-0.17,0-0.24,0.02c-0.31,0.06-0.52,0.16-0.66,0.32c-0.11,0.12-0.14,0.22-0.11,0.37
		c0,0,0.1,0.3,1.11,0.89c0.23,0.13,0.4,0.24,0.53,0.32c0.44,0.26,0.79,0.55,1.04,0.86c0.28,0.34,0.46,0.72,0.53,1.12
		c0.16,0.9-0.08,1.74-0.73,2.51c-0.62,0.73-1.45,1.2-2.48,1.39c-0.02,0-0.05,0.01-0.07,0.01c-0.42,0.07-0.78,0.02-1.08-0.12
		c-0.38-0.19-0.63-0.52-0.71-0.95c-0.03-0.18-0.03-0.38,0-0.59c0.03-0.17,0.08-0.37,0.15-0.61l0.2-0.65l0.65,0.2
		c0.17,0.05,0.33,0.09,0.47,0.1c0.13,0.01,0.25,0.01,0.36-0.01c0.24-0.04,0.42-0.13,0.52-0.24
		C130.23,41.84,130.25,41.78,130.23,41.68z M124.79,35.04c-0.27,0.4-0.68,0.66-1.18,0.77c-0.04,0.01-0.07,0.01-0.11,0.02
		c-0.53,0.08-0.9-0.07-1.13-0.21c-0.25-0.16-0.58-0.47-0.7-1.05c-0.1-0.48-0.01-0.96,0.26-1.37c0.27-0.41,0.67-0.68,1.16-0.78
		c0.45-0.1,0.89-0.03,1.26,0.2c0.38,0.23,0.63,0.6,0.72,1.04l0,0C125.17,34.16,125.07,34.64,124.79,35.04z M131.9,16.4
		c-8.84,1.39-15,9.47-14.12,18.26c0.01,0.14-0.07,0.28-0.2,0.33c0,0,0,0-0.01,0c-0.2,0.08-0.41-0.06-0.43-0.27
		c-0.91-9.14,5.48-17.53,14.66-18.97c9.11-1.43,17.71,4.5,19.72,13.37c0.04,0.19-0.1,0.38-0.3,0.39c0,0,0,0-0.01,0
		c-0.16,0.01-0.29-0.1-0.33-0.25C148.95,20.74,140.67,15.03,131.9,16.4z M150.35,20.18c0.1,0.12,0.16,0.24,0.19,0.36
		c0.03,0.13,0.02,0.25-0.02,0.36c-0.04,0.12-0.11,0.22-0.22,0.3c-0.11,0.09-0.22,0.14-0.34,0.16c-0.12,0.02-0.24,0-0.36-0.05
		c-0.12-0.05-0.22-0.14-0.32-0.25l-0.4-0.48l1.07-0.88L150.35,20.18z M149.31,19.02c0.08,0.09,0.14,0.18,0.18,0.27
		c0.03,0.09,0.04,0.18,0.02,0.27c-0.02,0.09-0.07,0.17-0.14,0.24c-0.07,0.07-0.15,0.11-0.24,0.13c-0.09,0.02-0.18,0.01-0.27-0.03
		l-0.1,0.53l-0.24-0.25l0.09-0.46l-0.01-0.01l-0.19-0.2l-0.28,0.27l-0.22-0.23l0.99-0.96L149.31,19.02z M147.4,17.26l-0.01,1.08
		l0.54-0.64l0.24,0.2l-0.89,1.06l-0.2-0.17l0.01-1.08l-0.54,0.64l-0.24-0.2l0.89-1.06L147.4,17.26z M146.06,16.27l0.85,0.61
		l-0.15,0.21l-0.59-0.42L146,16.9l0.52,0.37l-0.14,0.2l-0.52-0.37l-0.19,0.26l0.61,0.44l-0.15,0.21l-0.87-0.62L146.06,16.27z
		 M144.77,15.46l-0.56,0.97l0.6,0.35L144.67,17l-0.87-0.51l0.7-1.19L144.77,15.46z M144.07,14.61c0.08-0.01,0.15,0.04,0.16,0.12
		c0.01,0.08-0.04,0.15-0.12,0.16c-0.08,0.01-0.15-0.04-0.16-0.12C143.94,14.69,143.99,14.62,144.07,14.61z M143.6,14.35
		c0.08-0.01,0.15,0.04,0.16,0.12c0.01,0.08-0.04,0.15-0.12,0.16c-0.08,0.01-0.15-0.04-0.16-0.12S143.53,14.36,143.6,14.35z
		 M144.19,15.13l-0.11,0.23l-0.65-0.32l-0.13,0.27l0.57,0.29l-0.11,0.22l-0.57-0.29l-0.14,0.29l0.67,0.34l-0.11,0.23l-0.96-0.48
		l0.62-1.23L144.19,15.13z M141.53,14.29c0.1-0.08,0.22-0.12,0.35-0.13c0.13-0.01,0.26,0.01,0.39,0.06
		c0.13,0.05,0.24,0.13,0.32,0.23c0.08,0.1,0.13,0.21,0.15,0.34c0.02,0.13,0,0.25-0.05,0.38c-0.05,0.13-0.13,0.23-0.23,0.3
		c-0.1,0.08-0.22,0.12-0.35,0.13c-0.13,0.01-0.26-0.01-0.39-0.06c-0.13-0.05-0.24-0.13-0.32-0.23c-0.08-0.1-0.13-0.21-0.15-0.34
		c-0.02-0.12,0-0.25,0.05-0.38C141.36,14.47,141.43,14.37,141.53,14.29z M140.04,13.47l0.25,0.08l0.41,1l0.25-0.8l0.3,0.09
		l-0.41,1.32l-0.25-0.08l-0.41-1l-0.25,0.8l-0.3-0.09L140.04,13.47z M139.13,13.24l-0.05,0.25l-0.71-0.14l-0.06,0.29l0.63,0.13
		l-0.05,0.24l-0.63-0.13l-0.06,0.31l0.74,0.15l-0.05,0.25l-1.05-0.21l0.27-1.35L139.13,13.24z M136.41,12.81l0.62,0.08
		c0.15,0.02,0.28,0.06,0.38,0.13c0.11,0.07,0.19,0.16,0.24,0.27c0.05,0.11,0.07,0.23,0.05,0.37c-0.02,0.14-0.06,0.25-0.14,0.35
		c-0.08,0.1-0.17,0.16-0.3,0.21c-0.12,0.04-0.26,0.06-0.4,0.04l-0.62-0.08L136.41,12.81z M135.03,12.35l0.33,0L135,12.64l-0.24,0
		L135.03,12.35z M134.42,12.74l1.04,0.02l0,0.26L134.73,13l0,0.3l0.64,0.01l0,0.25l-0.64-0.01l0,0.32l0.75,0.01l0,0.26l-1.07-0.02
		L134.42,12.74z M132.75,12.82l0.32-0.02l0.03,0.54l0.63-0.04l-0.03-0.54l0.32-0.02l0.08,1.38l-0.32,0.02l-0.03-0.56l-0.63,0.04
		l0.03,0.56l-0.32,0.02L132.75,12.82z M131.29,13.33c0.05-0.12,0.13-0.21,0.23-0.29c0.1-0.08,0.23-0.12,0.37-0.14
		c0.12-0.02,0.23-0.01,0.33,0.02c0.1,0.03,0.19,0.08,0.27,0.15l-0.18,0.22c-0.11-0.09-0.23-0.13-0.37-0.11
		c-0.08,0.01-0.16,0.04-0.22,0.09c-0.06,0.05-0.11,0.11-0.13,0.18c-0.03,0.07-0.04,0.15-0.02,0.23c0.01,0.08,0.04,0.16,0.09,0.22
		c0.05,0.06,0.11,0.11,0.18,0.13c0.07,0.03,0.15,0.04,0.23,0.02c0.14-0.02,0.24-0.09,0.32-0.21l0.23,0.16
		c-0.05,0.09-0.13,0.16-0.22,0.22c-0.09,0.06-0.2,0.09-0.31,0.11c-0.14,0.02-0.27,0.01-0.39-0.04c-0.12-0.04-0.22-0.12-0.3-0.22
		c-0.08-0.1-0.13-0.22-0.15-0.35C131.22,13.58,131.24,13.45,131.29,13.33z M130.32,13.2c0.12-0.03,0.23-0.03,0.32-0.01
		c0.1,0.02,0.18,0.06,0.24,0.13c0.06,0.06,0.11,0.14,0.13,0.24c0.02,0.1,0.02,0.19-0.02,0.27c-0.03,0.08-0.09,0.15-0.17,0.21
		l0.4,0.37l-0.34,0.07l-0.34-0.32l-0.02,0l-0.27,0.06l0.08,0.38l-0.31,0.07l-0.29-1.35L130.32,13.2z M128.62,13.64l0.3-0.09
		l0.98,1.15l-0.32,0.1l-0.2-0.25l-0.61,0.18l-0.03,0.32l-0.31,0.09L128.62,13.64z M126.61,14.36l0.8,0.61l0.16-0.98l0.24-0.1
		l0.51,1.28l-0.28,0.11l-0.31-0.77l-0.13,0.78l-0.13,0.05l-0.62-0.47l0.3,0.75l-0.28,0.11l-0.51-1.28L126.61,14.36z M124.86,15.22
		c0.13-0.07,0.26-0.11,0.39-0.11c0.13,0,0.25,0.02,0.35,0.08c0.11,0.06,0.19,0.15,0.26,0.27c0.07,0.12,0.1,0.24,0.09,0.36
		c-0.01,0.12-0.05,0.24-0.12,0.34c-0.07,0.11-0.18,0.19-0.31,0.26l-0.55,0.3l-0.66-1.21L124.86,15.22z M123.11,16.28l1.03,0.32
		l-0.46-0.7l0.26-0.17l0.76,1.15l-0.22,0.14l-1.04-0.32l0.46,0.7l-0.26,0.17l-0.76-1.15L123.11,16.28z M122.21,16.93l1.33,0.71
		l-0.26,0.21L123,17.69l-0.51,0.39l0.09,0.31l-0.26,0.2l-0.36-1.47L122.21,16.93z M120.92,18.01c0.09-0.08,0.18-0.14,0.28-0.17
		c0.09-0.03,0.18-0.03,0.27-0.01c0.09,0.02,0.16,0.07,0.23,0.15c0.07,0.08,0.11,0.16,0.12,0.25c0.01,0.09,0,0.18-0.04,0.27
		l0.53,0.12l-0.25,0.23l-0.46-0.11l-0.01,0.01l-0.21,0.19l0.26,0.28l-0.24,0.21l-0.93-1.02L120.92,18.01z M119.61,19.4
		c0.04-0.13,0.1-0.24,0.2-0.35c0.08-0.09,0.17-0.15,0.27-0.2c0.1-0.04,0.2-0.06,0.3-0.06l0,0.28c-0.14,0-0.26,0.05-0.36,0.15
		c-0.06,0.06-0.1,0.13-0.12,0.21c-0.02,0.07-0.02,0.15,0,0.22c0.02,0.07,0.07,0.14,0.13,0.2c0.06,0.06,0.13,0.1,0.21,0.12
		c0.07,0.02,0.15,0.02,0.22-0.01c0.07-0.02,0.14-0.07,0.2-0.13c0.06-0.07,0.11-0.14,0.13-0.22l-0.29-0.28l0.2-0.21l0.41,0.38
		c-0.01,0.09-0.04,0.19-0.08,0.28c-0.05,0.09-0.1,0.17-0.17,0.25c-0.1,0.1-0.21,0.18-0.33,0.22c-0.12,0.04-0.25,0.05-0.37,0.02
		c-0.12-0.03-0.23-0.09-0.33-0.18c-0.1-0.09-0.17-0.2-0.2-0.32C119.58,19.65,119.58,19.53,119.61,19.4z M118.3,20.93
		c0.02-0.09,0.07-0.19,0.15-0.29c0.05-0.07,0.11-0.13,0.18-0.19c0.07-0.05,0.14-0.09,0.21-0.12l0.13,0.23
		c-0.14,0.06-0.24,0.14-0.32,0.24c-0.05,0.07-0.08,0.13-0.09,0.18c0,0.05,0.01,0.09,0.05,0.12c0.04,0.03,0.08,0.03,0.13,0.01
		c0.05-0.02,0.11-0.07,0.19-0.14c0.08-0.07,0.16-0.12,0.22-0.16c0.06-0.04,0.13-0.06,0.2-0.06c0.07-0.01,0.14,0.02,0.22,0.08
		c0.06,0.05,0.11,0.11,0.13,0.18c0.02,0.07,0.03,0.16,0,0.25c-0.02,0.09-0.07,0.19-0.15,0.29c-0.07,0.09-0.14,0.16-0.23,0.22
		c-0.09,0.06-0.17,0.1-0.24,0.12l-0.12-0.23c0.07-0.02,0.14-0.05,0.21-0.1c0.07-0.05,0.13-0.1,0.18-0.17
		c0.06-0.07,0.09-0.13,0.09-0.18c0.01-0.05-0.01-0.09-0.05-0.12c-0.03-0.02-0.06-0.03-0.09-0.02c-0.03,0.01-0.07,0.02-0.1,0.05
		c-0.03,0.02-0.08,0.06-0.13,0.1c-0.08,0.07-0.16,0.12-0.22,0.16c-0.06,0.04-0.13,0.06-0.2,0.06c-0.07,0-0.15-0.02-0.22-0.08
		c-0.06-0.05-0.11-0.11-0.13-0.18C118.28,21.11,118.27,21.02,118.3,20.93z M117.41,22.14l0.63,0.42c0.21,0.14,0.37,0.12,0.48-0.05
		c0.06-0.08,0.07-0.16,0.05-0.24c-0.02-0.08-0.08-0.15-0.19-0.22l-0.63-0.42l0.17-0.26l0.64,0.43c0.17,0.11,0.27,0.24,0.3,0.4
		c0.03,0.15-0.01,0.31-0.12,0.47c-0.11,0.16-0.24,0.26-0.39,0.29c-0.15,0.03-0.31-0.01-0.48-0.12l-0.64-0.43L117.41,22.14z
		 M116.78,23.2l0.97,0.55l0.34-0.6l0.23,0.13l-0.5,0.88l-1.2-0.68L116.78,23.2z M116.22,24.28c0.05-0.11,0.12-0.2,0.19-0.26
		c0.08-0.06,0.16-0.1,0.25-0.11c0.09-0.01,0.18,0.01,0.27,0.05c0.09,0.04,0.16,0.1,0.21,0.18c0.05,0.08,0.07,0.16,0.07,0.26
		c0,0.1-0.03,0.2-0.08,0.31L117,24.97l0.34,0.17l-0.14,0.29l-1.24-0.6L116.22,24.28z M115.6,25.69l0.24,0.09l-0.25,0.68l0.28,0.1
		l0.22-0.6l0.23,0.08l-0.22,0.6l0.3,0.11l0.26-0.71l0.24,0.09l-0.36,1l-1.3-0.47L115.6,25.69z M114.97,27.57l1.08,0.31l0.19-0.66
		l0.25,0.07l-0.28,0.97l-1.33-0.39L114.97,27.57z M117.46,45.42c0.03,0.54-0.03,0.97-0.19,1.34c-0.25,0.57-0.64,0.79-0.93,0.87
		c-0.33,0.1-0.71,0.08-1.11-0.05c-0.33-0.1-0.77-0.32-1.34-0.65c-0.07-0.04-0.38-0.23-2.28-1.43c-0.89-0.56-1.76-1.08-2.6-1.55
		c0.31,1.05,0.58,1.87,0.8,2.44c0.29,0.73,0.51,1.09,0.65,1.26l0.36,0.45l-0.38,0.43c-0.24,0.27-0.46,0.48-0.68,0.65
		c-0.25,0.19-0.5,0.32-0.76,0.39c-0.07,0.02-0.13,0.03-0.2,0.04c-0.43,0.07-0.82-0.05-1.13-0.35c-0.27-0.26-0.48-0.67-0.65-1.25
		c-0.08-0.28-0.27-1.02-0.57-2.27c-0.29-1.22-0.58-2.31-0.85-3.25c-0.37-1.29-0.69-2.24-0.94-2.85c-0.29-0.69-0.53-1.02-0.68-1.17
		l-0.47-0.49l0.49-0.47c0.25-0.23,0.49-0.43,0.72-0.58c0.26-0.17,0.52-0.3,0.77-0.37c0.63-0.18,1.04,0,1.27,0.18
		c0.28,0.22,0.48,0.58,0.64,1.14c0.02,0.06,0.05,0.19,0.16,0.65c0.16,0.68,0.32,1.33,0.48,1.97c0.58-1.08,1.04-1.98,1.36-2.7
		c0.55-1.22,0.7-1.88,0.74-2.22l0.06-0.6l0.6-0.01c0.53-0.01,0.94,0.04,1.26,0.15c0.44,0.16,0.75,0.47,0.87,0.87
		c0.12,0.41,0.07,1.01-1.74,4.06c-0.34,0.58-0.64,1.08-0.89,1.5c0.19,0.11,0.4,0.23,0.64,0.37c4.45,2.6,5.49,2.84,5.71,2.85
		l0.76-0.17L117.46,45.42z M114.33,42.24c-0.57-0.31-1.25-0.68-2.06-1.15c0.08-0.13,0.16-0.27,0.25-0.42
		c0.28-0.48,0.53-0.9,0.74-1.28C113.56,40.37,113.92,41.32,114.33,42.24z M125.5,45.43c-0.57,0.09-0.91-0.11-1.1-0.3
		c-0.23-0.23-0.39-0.59-0.52-1.19c-0.06-0.27-0.15-0.84-0.29-1.75c-0.13-0.87-0.27-1.62-0.4-2.24c-0.14-0.65-0.28-1.17-0.42-1.55
		c-0.13-0.35-0.28-0.63-0.45-0.85l-0.15-0.2c0.1,0.16,0.18,0.33,0.22,0.52c0.08,0.32,0.05,0.65-0.08,0.99
		c-0.11,0.28-0.29,0.56-0.55,0.86l-0.59,0.67l-0.49-0.74c-0.12-0.18-0.19-0.22-0.21-0.23c0,0-0.01,0-0.02,0
		c-0.03,0.01-0.16,0.06-0.35,0.32c-0.17,0.25-0.33,0.59-0.46,1.02c0.03,0.19,0.06,0.39,0.09,0.59c0.04,0.24,0.09,0.48,0.14,0.7
		c0.19,0.78,0.38,1.42,0.59,1.9c0.19,0.45,0.4,0.8,0.62,1.05l0.46,0.51l-0.52,0.45c-0.22,0.2-0.46,0.36-0.69,0.5
		c-0.25,0.14-0.51,0.24-0.77,0.31c-0.06,0.01-0.11,0.02-0.16,0.03c-0.51,0.08-0.84-0.08-1.03-0.24c-0.26-0.21-0.44-0.56-0.57-1.13
		c-0.02-0.1-0.09-0.4-0.33-1.75c-0.18-0.98-0.36-1.9-0.56-2.72c-0.16-0.66-0.3-1.15-0.43-1.48c-0.12-0.3-0.26-0.55-0.41-0.76
		l-0.45-0.59l0.62-0.4c0.13-0.08,0.26-0.15,0.4-0.21c0.14-0.06,0.29-0.11,0.44-0.15c0.49-0.12,0.92-0.07,1.26,0.13
		c0.12,0.07,0.23,0.17,0.33,0.28c0.06-0.09,0.13-0.17,0.19-0.25c0.4-0.48,0.86-0.79,1.36-0.91c0.47-0.11,0.92-0.05,1.33,0.17
		c0.16,0.09,0.3,0.2,0.42,0.32l-0.05-0.06l0.46-0.42c0.22-0.2,0.45-0.37,0.7-0.51c0.26-0.14,0.52-0.24,0.8-0.29
		c0.58-0.12,0.94,0.06,1.14,0.23c0.24,0.21,0.4,0.54,0.5,1.03c0.01,0.05,0.03,0.15,0.24,1.49c0.13,0.86,0.28,1.69,0.44,2.46
		c0.15,0.7,0.3,1.27,0.47,1.7c0.15,0.4,0.32,0.72,0.49,0.94l0.4,0.51l-0.49,0.42c-0.24,0.21-0.48,0.37-0.72,0.5
		c-0.25,0.13-0.51,0.23-0.76,0.28C125.57,45.42,125.53,45.42,125.5,45.43z M131.5,52.39l-0.63-0.12l-0.06,0.31l0.74,0.14l-0.05,0.25
		l-1.05-0.2l0.26-1.36l1.03,0.19l-0.05,0.25l-0.71-0.13l-0.06,0.29l0.63,0.12L131.5,52.39z M131.14,51.44l-0.04-0.23l0.56-0.09
		l0.04,0.23L131.14,51.44z M133.28,52.49c-0.01,0.14-0.06,0.25-0.13,0.35s-0.17,0.17-0.29,0.21c-0.12,0.04-0.26,0.06-0.4,0.04
		l-0.62-0.07l0.15-1.37l0.62,0.07c0.15,0.02,0.28,0.06,0.39,0.13c0.11,0.07,0.19,0.16,0.24,0.27
		C133.27,52.23,133.29,52.35,133.28,52.49z M133.82,53.2l-0.32-0.01l0.06-1.38l0.32,0.01L133.82,53.2z M135.23,52.09l-0.44,0
		l0.01,1.12l-0.32,0l-0.01-1.12l-0.44,0l0-0.26l1.2-0.01L135.23,52.09z M135.77,53.17l-0.32,0.02l-0.08-1.38l0.32-0.02L135.77,53.17
		z M137.48,52.3c0.02,0.13,0,0.26-0.06,0.37c-0.05,0.12-0.13,0.21-0.24,0.29c-0.11,0.07-0.23,0.12-0.37,0.14
		c-0.14,0.02-0.27,0-0.4-0.05c-0.12-0.05-0.22-0.12-0.3-0.22c-0.08-0.1-0.12-0.22-0.14-0.35c-0.02-0.13,0-0.26,0.05-0.37
		c0.05-0.12,0.13-0.21,0.24-0.29c0.11-0.07,0.23-0.12,0.37-0.14c0.14-0.02,0.27,0,0.39,0.05c0.12,0.05,0.22,0.12,0.3,0.22
		C137.42,52.05,137.47,52.17,137.48,52.3z M138.85,52.73l-0.84-0.68l0.17,0.82l-0.31,0.06l-0.28-1.35l0.26-0.05l0.84,0.68
		l-0.17-0.82l0.31-0.06l0.28,1.35L138.85,52.73z M139.96,52.45l-0.06-0.2l0.36-0.64c0.04-0.07,0.06-0.12,0.07-0.17
		c0.01-0.04,0-0.08-0.01-0.12c-0.02-0.05-0.05-0.09-0.09-0.1c-0.04-0.02-0.1-0.01-0.17,0.01c-0.06,0.02-0.11,0.05-0.15,0.08
		c-0.04,0.04-0.07,0.08-0.09,0.14l-0.27-0.07c0.03-0.09,0.08-0.17,0.16-0.25c0.08-0.07,0.17-0.13,0.29-0.16
		c0.1-0.03,0.19-0.04,0.27-0.03c0.08,0.01,0.15,0.04,0.21,0.08c0.06,0.05,0.1,0.11,0.13,0.19c0.02,0.07,0.03,0.14,0.02,0.22
		c-0.01,0.07-0.05,0.16-0.11,0.27l-0.21,0.38l0.57-0.18l0.08,0.25L139.96,52.45z M142.05,51.39c-0.01,0.12-0.04,0.22-0.11,0.31
		c-0.06,0.09-0.15,0.15-0.25,0.19c-0.11,0.04-0.21,0.05-0.32,0.03c-0.1-0.02-0.2-0.07-0.29-0.15c-0.09-0.08-0.16-0.19-0.21-0.33
		c-0.05-0.14-0.08-0.27-0.07-0.38c0.01-0.12,0.04-0.22,0.11-0.31c0.06-0.09,0.15-0.15,0.25-0.19c0.11-0.04,0.21-0.05,0.32-0.03
		c0.1,0.02,0.2,0.07,0.29,0.15c0.09,0.08,0.16,0.19,0.21,0.33C142.03,51.14,142.06,51.27,142.05,51.39z M142.4,51.57l-0.09-0.19
		l0.27-0.68c0.03-0.07,0.04-0.13,0.04-0.17c0-0.04-0.01-0.08-0.02-0.12c-0.02-0.05-0.06-0.08-0.11-0.09c-0.05-0.01-0.1,0-0.17,0.03
		c-0.05,0.03-0.1,0.06-0.13,0.1c-0.03,0.04-0.06,0.09-0.07,0.15l-0.27-0.04c0.01-0.1,0.06-0.18,0.12-0.27
		c0.07-0.08,0.15-0.15,0.27-0.2c0.09-0.04,0.18-0.07,0.26-0.07c0.08,0,0.16,0.01,0.22,0.05c0.06,0.04,0.11,0.09,0.15,0.17
		c0.03,0.07,0.05,0.14,0.05,0.21c0,0.07-0.02,0.17-0.07,0.28l-0.16,0.41l0.54-0.25l0.11,0.24L142.4,51.57z M144.33,50.24
		c0.01,0.12-0.01,0.22-0.06,0.32c-0.05,0.09-0.13,0.17-0.23,0.22c-0.1,0.06-0.2,0.08-0.31,0.07c-0.11-0.01-0.21-0.04-0.3-0.11
		c-0.1-0.07-0.18-0.17-0.25-0.3c-0.07-0.13-0.11-0.25-0.12-0.37c-0.01-0.12,0.01-0.22,0.06-0.32c0.05-0.09,0.13-0.17,0.23-0.22
		c0.1-0.06,0.2-0.08,0.31-0.07c0.11,0.01,0.21,0.04,0.3,0.11c0.1,0.07,0.18,0.17,0.25,0.3C144.28,49.99,144.32,50.12,144.33,50.24z
		 M146.72,45.44c-2.51,2.48-5.8,4.23-9.54,4.82c-3.73,0.58-7.37-0.06-10.5-1.64c-0.26-0.13-0.22-0.52,0.06-0.6c0,0,0.01,0,0.01,0
		c0.07-0.02,0.15-0.01,0.22,0.02c3.02,1.51,6.52,2.13,10.11,1.57c3.61-0.57,6.77-2.25,9.18-4.63c0.05-0.05,0.13-0.09,0.2-0.09
		c0,0,0.01,0,0.01,0C146.77,44.87,146.93,45.23,146.72,45.44z M147.3,41.51c-0.29,0.19-0.53,0.33-0.74,0.43
		c-0.23,0.11-0.44,0.17-0.64,0.2c-0.01,0-0.03,0-0.04,0.01c-0.6,0.08-0.95-0.13-1.14-0.33c-0.23-0.23-0.36-0.58-0.43-1.13
		c-0.05-0.36-0.1-0.92-0.16-1.7c-0.06-0.75-0.11-1.33-0.16-1.72c-0.14-1.07-0.39-1.54-0.57-1.74c-0.13-0.15-0.37-0.33-0.95-0.25
		c-0.29,0.04-0.58,0.12-0.84,0.24c-0.17,0.08-0.35,0.19-0.54,0.32c0.05,0.21,0.11,0.43,0.15,0.66c0.08,0.38,0.16,0.9,0.25,1.59
		l0.12,0.87c0.1,0.73,0.19,1.27,0.29,1.6c0.08,0.29,0.19,0.52,0.31,0.69l0.41,0.56l-0.56,0.4c-0.27,0.19-0.5,0.33-0.73,0.43
		c-0.24,0.11-0.48,0.18-0.73,0.21c-0.6,0.08-0.95-0.15-1.14-0.35c-0.22-0.24-0.35-0.59-0.42-1.12c-0.03-0.21-0.07-0.67-0.14-1.39
		c-0.06-0.7-0.12-1.29-0.19-1.78c-0.19-1.42-0.46-1.87-0.56-2c-0.07-0.08-0.24-0.29-0.83-0.21c-0.26,0.03-0.52,0.12-0.78,0.26
		c-0.2,0.11-0.4,0.24-0.61,0.41c0.04,0.4,0.09,0.87,0.15,1.42c0.07,0.71,0.12,1.16,0.14,1.32c0.09,0.7,0.2,1.27,0.32,1.68
		c0.11,0.38,0.23,0.68,0.38,0.9l0.36,0.55l-0.54,0.38c-0.25,0.18-0.49,0.32-0.72,0.42c-0.25,0.11-0.5,0.18-0.75,0.22
		c-0.62,0.08-0.97-0.16-1.16-0.38c-0.21-0.25-0.34-0.62-0.42-1.24c-0.01-0.1-0.04-0.38-0.13-1.71c-0.06-0.96-0.15-1.86-0.26-2.68
		c-0.08-0.62-0.18-1.14-0.3-1.55c-0.11-0.37-0.23-0.67-0.37-0.89l-0.41-0.64l0.67-0.34c0.16-0.08,0.31-0.14,0.46-0.19
		c0.15-0.05,0.31-0.08,0.47-0.1c0.47-0.06,0.88,0.03,1.22,0.27c0.07,0.05,0.14,0.11,0.2,0.17c0.23-0.16,0.46-0.29,0.68-0.41
		c0.47-0.23,0.95-0.38,1.44-0.45c0.5-0.07,0.99-0.03,1.46,0.11c0.29,0.09,0.58,0.21,0.86,0.38c0.33-0.26,0.68-0.49,1.04-0.68
		c0.54-0.28,1.08-0.45,1.61-0.52c1.19-0.16,2.17,0.09,2.92,0.72c0.74,0.62,1.2,1.56,1.36,2.81c0.02,0.17,0.05,0.48,0.1,0.95
		c0.04,0.45,0.09,0.84,0.12,1.14c0.09,0.67,0.19,1.19,0.29,1.53c0.09,0.29,0.2,0.51,0.32,0.66l0.49,0.59L147.3,41.51z M161.29,33.72
		l-0.28,0.52l-0.55-0.2c-0.12-0.04-0.23-0.07-0.33-0.09c-0.08-0.02-0.17-0.02-0.24-0.02c-0.31,0.01-0.54,0.08-0.7,0.22
		c-0.12,0.1-0.17,0.2-0.16,0.35c0,0,0.06,0.31,0.97,1.04c0.21,0.17,0.36,0.29,0.48,0.39c0.4,0.32,0.7,0.66,0.91,1
		c0.23,0.38,0.35,0.77,0.37,1.19c0.03,0.91-0.33,1.71-1.09,2.38c-0.58,0.51-1.28,0.84-2.07,0.96c-0.19,0.03-0.38,0.05-0.58,0.06
		c-0.46,0.02-0.83-0.08-1.13-0.28c-0.28-0.19-0.46-0.47-0.53-0.8l-0.54,0.4c-0.24,0.18-0.47,0.32-0.68,0.43
		c-0.21,0.1-0.4,0.17-0.59,0.2c-0.04,0.01-0.08,0.01-0.12,0.01c-0.58,0.04-0.92-0.2-1.11-0.42c0,0-0.01-0.01-0.01-0.01
		c-0.2,0.14-0.39,0.26-0.59,0.36c-0.48,0.24-0.98,0.39-1.49,0.42c-1.01,0.07-1.87-0.16-2.55-0.7c-0.7-0.55-1.09-1.32-1.16-2.28
		c-0.08-1.09,0.3-2,1.14-2.72c0.24-0.21,0.51-0.39,0.81-0.54l-0.4-0.07c-0.35-0.06-0.63-0.2-0.85-0.42
		c-0.22-0.23-0.36-0.54-0.38-0.89c-0.03-0.47,0.12-1.14,1.02-1.7c0.59-0.36,1.36-0.58,2.3-0.64c1.2-0.09,2.15,0.16,2.84,0.73
		c0.69,0.58,1.09,1.46,1.17,2.63c0.01,0.19,0.03,0.52,0.05,0.99c0.02,0.45,0.04,0.82,0.06,1.08c0.05,0.72,0.14,1.3,0.25,1.72
		c0.1,0.36,0.23,0.65,0.4,0.84l0.41,0.49c-0.01-0.05-0.01-0.1-0.01-0.15c-0.01-0.18,0.02-0.38,0.08-0.58
		c0.05-0.16,0.13-0.36,0.24-0.58l0.29-0.61l0.61,0.29c0.16,0.08,0.31,0.13,0.45,0.16c0.13,0.03,0.25,0.04,0.36,0.04
		c0.25-0.01,0.43-0.07,0.55-0.17c0.08-0.07,0.1-0.13,0.1-0.23c0-0.12-0.04-0.22-0.11-0.32c-0.06-0.08-0.21-0.26-0.62-0.58
		c-0.07-0.05-0.17-0.12-0.28-0.21c-1.15-0.88-1.73-1.71-1.76-2.54c-0.01-0.33,0.04-0.66,0.15-0.99c0.11-0.32,0.28-0.62,0.5-0.91
		c0.4-0.51,0.88-0.92,1.43-1.2c0.55-0.28,1.16-0.44,1.8-0.46c0.42-0.02,0.76,0.07,1.03,0.25c0.32,0.22,0.51,0.57,0.52,0.98
		c0.01,0.18-0.03,0.37-0.1,0.59C161.51,33.28,161.42,33.48,161.29,33.72z M165.48,32.98c0,0.05,0,0.15-0.06,1.51
		c-0.04,0.87-0.05,1.71-0.04,2.5c0.01,0.71,0.05,1.3,0.13,1.76c0.07,0.42,0.17,0.76,0.3,1.02l0.29,0.58l-0.57,0.32
		c-0.28,0.16-0.55,0.27-0.81,0.35c-0.14,0.04-0.28,0.08-0.42,0.1c-0.13,0.02-0.26,0.03-0.38,0.03c-0.64,0.01-0.97-0.27-1.13-0.51
		c-0.18-0.27-0.27-0.66-0.28-1.27c0-0.27,0.01-0.85,0.05-1.77c0.04-0.88,0.05-1.64,0.05-2.27c-0.01-0.66-0.05-1.2-0.11-1.6
		c-0.06-0.37-0.15-0.67-0.28-0.92l-0.28-0.56l0.53-0.33c0.25-0.15,0.52-0.28,0.79-0.36c0.28-0.09,0.56-0.13,0.84-0.14
		c0.6-0.01,0.92,0.24,1.08,0.44C165.38,32.12,165.47,32.47,165.48,32.98z M165.68,29.52c0.01,0.5-0.18,0.95-0.53,1.3
		c-0.27,0.27-0.62,0.44-1.01,0.5c-0.1,0.02-0.2,0.02-0.3,0.03c-0.59,0.01-0.97-0.23-1.18-0.43c-0.22-0.2-0.47-0.57-0.48-1.16
		c-0.01-0.49,0.17-0.94,0.52-1.29c0.34-0.35,0.79-0.54,1.29-0.54c0.46-0.01,0.88,0.15,1.19,0.44
		C165.5,28.66,165.67,29.06,165.68,29.52z"/>
	<path class="st0" d="M134.48,18.37c-0.1,0.1-0.19,0.2-0.28,0.3c-0.05,0.05-0.09,0.1-0.14,0.16c-0.04,0.05-0.09,0.11-0.13,0.16
		c-0.09,0.11-0.17,0.22-0.26,0.33c-0.08,0.11-0.16,0.22-0.24,0.34l-0.06,0.09l-0.06,0.09c-0.02,0.03-0.04,0.06-0.06,0.09l-0.06,0.09
		c-0.07,0.12-0.15,0.23-0.22,0.35c-0.07,0.12-0.14,0.24-0.2,0.36l-0.03,0.05l-0.02,0.05l-0.05,0.09c-0.03,0.06-0.06,0.12-0.09,0.18
		c-0.12,0.25-0.24,0.5-0.35,0.75c-0.21,0.51-0.39,1.04-0.54,1.57c-0.02,0.07-0.04,0.13-0.05,0.2c-0.02,0.07-0.03,0.13-0.05,0.2
		l-0.05,0.2l-0.04,0.2c-0.05,0.27-0.1,0.54-0.14,0.82c-0.02,0.14-0.04,0.27-0.05,0.41c0,0.03-0.01,0.07-0.01,0.1l-0.01,0.1
		c-0.01,0.07-0.01,0.14-0.02,0.21l-0.02,0.21c0,0.03,0,0.07-0.01,0.1l-0.01,0.1l-0.01,0.1l0,0.05l0,0.05l-0.01,0.21
		c0,0.07,0,0.14,0,0.21l0,0.21l0,0.21l0,0.1c0,0.03,0,0.07,0,0.1c0.01,0.14,0.01,0.28,0.02,0.41l0.01,0.21l0.02,0.21
		c0.02,0.27,0.06,0.55,0.09,0.82l0.01,0.05c0,0.02,0.01,0.03,0.01,0.05l0.02,0.1l0.03,0.2c0.02,0.14,0.05,0.27,0.08,0.4
		c-0.01-0.14-0.02-0.27-0.03-0.41l-0.01-0.21c0-0.07-0.01-0.14-0.01-0.2l-0.01-0.2l-0.01-0.1l0-0.1l-0.01-0.2l0-0.05
		c0-0.02,0-0.03,0-0.05l0-0.1l0-0.2v-0.2l0-0.1l0-0.05l0-0.05l0-0.19c0,0.03,0,0.05,0,0.08c0,0.09,0.01,0.18,0.02,0.26
		c0,0.01,0,0.01,0,0.02c0,0.04,0.01,0.07,0.01,0.11c0,0.04,0.01,0.08,0.01,0.11c0,0.06,0.01,0.13,0.02,0.19
		c0.01,0.09,0.02,0.17,0.03,0.26c0,0.02,0,0.04,0.01,0.05c0.02,0.17,0.05,0.34,0.08,0.51c0,0,0,0,0,0.01c0,0,0-0.01,0-0.02
		c0-0.02-0.01-0.04-0.01-0.06c-0.02-0.11-0.03-0.21-0.05-0.32c-0.01-0.03-0.01-0.07-0.01-0.1c0-0.07-0.01-0.15-0.02-0.22
		c-0.01-0.05-0.01-0.09-0.01-0.14c0-0.03,0-0.06-0.01-0.1c-0.01-0.05-0.01-0.1-0.01-0.16c0-0.02,0-0.05-0.01-0.07
		c-0.01-0.05-0.01-0.09-0.01-0.14c0-0.01,0-0.03,0-0.04c-0.01-0.08,0-0.16-0.01-0.24c0-0.01,0-0.03,0-0.04c0-0.06,0-0.12,0-0.18
		c0-0.06,0-0.13,0-0.19c0-0.04,0-0.08,0-0.12l0-0.09c0-0.07,0.01-0.14,0.01-0.2l0.01-0.2l0-0.05l0-0.05l0.01-0.1l0.01-0.1
		c0-0.03,0.01-0.07,0.01-0.1l0.02-0.2c0.01-0.07,0.02-0.13,0.02-0.2c0.01-0.07,0.02-0.13,0.03-0.2c0.02-0.13,0.04-0.27,0.06-0.4
		l0.02-0.1l0.01-0.05l0.01-0.05l0.04-0.2c0.01-0.03,0.01-0.07,0.02-0.1l0.02-0.1l0.02-0.1c0.01-0.03,0.01-0.07,0.02-0.1l0.04-0.2
		l0.05-0.2c0.02-0.07,0.03-0.13,0.05-0.2c0.02-0.07,0.03-0.13,0.05-0.2c0.07-0.26,0.15-0.52,0.23-0.78
		c0.04-0.13,0.09-0.26,0.13-0.38l0.07-0.19c0.02-0.06,0.05-0.13,0.07-0.19c0.1-0.25,0.21-0.5,0.32-0.75
		c0.06-0.12,0.12-0.24,0.17-0.36c0.03-0.06,0.06-0.12,0.1-0.18c0.05-0.09,0.1-0.18,0.16-0.28c0.03-0.05,0.06-0.1,0.09-0.14
		c0.04-0.07,0.08-0.13,0.12-0.19c0.02-0.04,0.05-0.08,0.08-0.12c0.01-0.01,0.02-0.02,0.02-0.04c0.03-0.05,0.06-0.1,0.1-0.15
		c0.02-0.03,0.05-0.07,0.07-0.1c0.02-0.04,0.05-0.08,0.08-0.12c0.12-0.16,0.23-0.32,0.35-0.48c0.03-0.05,0.07-0.09,0.11-0.14
		c0.01-0.01,0.02-0.02,0.03-0.03c0.05-0.06,0.1-0.13,0.15-0.19c0.03-0.03,0.06-0.07,0.07-0.11c-0.02,0.01-0.04,0.02-0.05,0.04
		c-0.05,0.06-0.11,0.12-0.15,0.18c-0.01,0.01-0.02,0.02-0.03,0.03c-0.04,0.04-0.07,0.09-0.11,0.13c-0.02,0.03-0.04,0.06-0.07,0.08
		c-0.03,0.03-0.06,0.07-0.08,0.1c-0.1,0.14-0.2,0.28-0.3,0.42c0.1-0.16,0.21-0.32,0.32-0.48c0.04-0.06,0.08-0.11,0.12-0.17
		c0.04-0.05,0.08-0.11,0.12-0.16c0.08-0.11,0.17-0.22,0.25-0.32c0.09-0.11,0.18-0.21,0.27-0.31c0.09-0.1,0.17-0.19,0.26-0.28
		c0,0,0,0-0.01,0c-0.1,0.08-0.2,0.16-0.29,0.25C134.67,18.17,134.57,18.27,134.48,18.37z"/>
	<path class="st0" d="M143.71,49.76c-0.08-0.04-0.15-0.04-0.23,0c-0.07,0.04-0.11,0.1-0.12,0.19c-0.01,0.09,0.03,0.2,0.1,0.33
		c0.07,0.13,0.15,0.22,0.23,0.26c0.08,0.04,0.15,0.04,0.22,0c0.07-0.04,0.11-0.1,0.12-0.19c0.01-0.09-0.03-0.2-0.1-0.33
		C143.86,49.89,143.78,49.8,143.71,49.76z"/>
	<path class="st0" d="M141.49,50.83c-0.07-0.05-0.15-0.06-0.22-0.03c-0.08,0.03-0.12,0.09-0.14,0.17c-0.02,0.08,0,0.2,0.06,0.34
		c0.06,0.14,0.12,0.24,0.19,0.29c0.07,0.05,0.15,0.06,0.22,0.03c0.08-0.03,0.13-0.09,0.15-0.17c0.02-0.08,0-0.2-0.06-0.34
		C141.62,50.98,141.56,50.88,141.49,50.83z"/>
	<path class="st0" d="M142.14,22.5c0.01-0.01,0.01-0.02,0.01-0.03C142.15,22.47,142.14,22.48,142.14,22.5z"/>
	<path class="st0" d="M121.56,30.61c-0.03-0.04-0.04-0.08-0.04-0.13c0-0.01,0-0.02,0-0.04c0-0.02-0.01-0.04-0.01-0.06
		c-0.01-0.04-0.04-0.08-0.07-0.11c-0.03-0.02-0.06-0.04-0.09-0.05c-0.01,0-0.02-0.01-0.03-0.01c-0.04-0.01-0.07-0.03-0.09-0.06
		c-0.01-0.01-0.03-0.03-0.04-0.04c-0.01-0.01-0.03-0.02-0.04-0.03c-0.07-0.03-0.15-0.04-0.22-0.02c-0.02,0.01-0.04,0.02-0.06,0.03
		c-0.02,0.01-0.04,0.02-0.06,0.03c-0.02,0.01-0.04,0.01-0.06,0.01c-0.02,0-0.04,0-0.06,0c-0.07,0-0.15,0.01-0.21,0.05
		c-0.04,0.02-0.08,0.04-0.11,0.07c-0.04,0.03-0.08,0.07-0.1,0.12c-0.01,0.01-0.01,0.03-0.02,0.04c-0.01,0.03-0.02,0.06-0.02,0.09
		c0,0.02,0,0.04,0,0.05c0,0.03,0,0.06,0.02,0.09c0.01,0.02,0.02,0.04,0.02,0.06c0.01,0.01,0.01,0.03,0.02,0.04
		c0.01,0.02,0.01,0.04,0.01,0.06c-0.01,0.03-0.02,0.06-0.02,0.09c-0.01,0.03,0,0.06,0.01,0.09c0.03,0.07,0.09,0.12,0.16,0.14
		c0.01,0,0.01,0,0.02,0.01c0.06,0.02,0.11,0.05,0.16,0.08c0.02,0.01,0.03,0.02,0.05,0.04c0.02,0.02,0.05,0.03,0.07,0.04
		c0.1,0.03,0.2,0.05,0.3,0.03c0.02,0,0.04-0.01,0.06-0.01c0,0,0,0,0,0c0.04-0.01,0.08-0.01,0.11-0.02c0.07-0.02,0.13-0.05,0.18-0.09
		c0.04-0.04,0.07-0.08,0.08-0.14c0-0.02,0.01-0.05,0.01-0.07c0-0.02,0.01-0.04,0.03-0.05c0.01-0.01,0.03-0.02,0.04-0.03
		c0.03-0.02,0.05-0.05,0.06-0.08c0.01-0.02,0.02-0.04,0.02-0.06c0-0.04,0-0.08-0.02-0.12C121.57,30.63,121.57,30.62,121.56,30.61z"
		/>
</g>
</svg>
