<?xml version="1.0" encoding="utf-8"?>
<!-- Generator: Adobe Illustrator 23.0.0, SVG Export Plug-In . SVG Version: 6.00 Build 0)  -->
<svg version="1.1" id="Calque_1" xmlns="http://www.w3.org/2000/svg" xmlns:xlink="http://www.w3.org/1999/xlink" x="0px" y="0px"
	 viewBox="0 0 270 66.1" style="enable-background:new 0 0 270 66.1;" xml:space="preserve">
<style type="text/css">
	.st0{fill:#FFFFFF;}
	.st1{fill:url(#SVGID_1_);}
	.st2{fill:url(#SVGID_2_);}
	.st3{fill:url(#SVGID_3_);}
	.st4{fill:url(#SVGID_4_);}
	.st5{fill:url(#SVGID_5_);}
	.st6{fill:url(#SVGID_6_);}
	.st7{fill:url(#SVGID_7_);}
	.st8{fill:url(#SVGID_8_);}
	.st9{fill:url(#SVGID_9_);}
	.st10{fill:url(#SVGID_10_);}
	.st11{fill:url(#SVGID_11_);}
	.st12{fill:url(#SVGID_12_);}
	.st13{fill:url(#SVGID_13_);}
	.st14{fill:url(#SVGID_14_);}
	.st15{fill:url(#SVGID_15_);}
	.st16{fill:url(#SVGID_16_);}
	.st17{fill:url(#SVGID_17_);}
	.st18{fill:url(#SVGID_18_);}
	.st19{fill:url(#SVGID_19_);}
	.st20{fill:url(#SVGID_20_);}
	.st21{fill:url(#SVGID_21_);}
	.st22{fill:url(#SVGID_22_);}
	.st23{fill:url(#SVGID_23_);}
	.st24{fill:url(#SVGID_24_);}
	.st25{fill:url(#SVGID_25_);}
	.st26{fill:url(#SVGID_26_);}
	.st27{fill:url(#SVGID_27_);}
	.st28{fill:url(#SVGID_28_);}
	.st29{fill:url(#SVGID_29_);}
	.st30{fill:url(#SVGID_30_);}
	.st31{fill:url(#SVGID_31_);}
	.st32{fill:url(#SVGID_32_);}
	.st33{clip-path:url(#XMLID_2_);fill:#FFFFFF;}
	.st34{clip-path:url(#XMLID_3_);fill:#FFFFFF;}
	.st35{clip-path:url(#XMLID_4_);fill:#FFFFFF;}
	.st36{clip-path:url(#XMLID_5_);fill:#FFFFFF;}
	.st37{clip-path:url(#XMLID_6_);fill:#FFFFFF;}
	.st38{clip-path:url(#XMLID_7_);fill:#FFFFFF;}
	.st39{clip-path:url(#XMLID_8_);fill:#FFFFFF;}
	.st40{clip-path:url(#XMLID_9_);fill:#FFFFFF;}
	.st41{clip-path:url(#XMLID_10_);fill:#FFFFFF;}
	.st42{clip-path:url(#XMLID_11_);fill:#FFFFFF;}
	.st43{clip-path:url(#XMLID_12_);fill:#FFFFFF;}
	.st44{clip-path:url(#XMLID_13_);fill:#FFFFFF;}
	.st45{clip-path:url(#XMLID_14_);fill:#FFFFFF;}
</style>
<g>
	<path class="st0" d="M117.8,43.1l-2.65-1.56c-0.1,0.11-0.22,0.22-0.36,0.34l-0.32,0.28c-0.27,0.24-0.51,0.45-0.74,0.63l2.57,1.5
		c0,0,1.24,0.59,1.68,0.06c0.37-0.44,0.27-0.87,0.2-1.04C117.97,43.21,117.82,43.11,117.8,43.1z"/>
	<path class="st0" d="M118.64,34.99c0,0,0-0.01,0.01-0.03C118.64,34.97,118.64,34.98,118.64,34.99z"/>
	<path class="st0" d="M123.44,37.82c-0.52-0.34-3.14-1.48-4.69-2.13c-0.15,0.63-0.39,1.33-0.57,1.8c0.6,0.28,3.79,1.77,4.32,1.99
		c0.71,0.28,1.11,0.32,1.45-0.24C124.23,38.77,124.03,38.22,123.44,37.82z"/>
	<path class="st0" d="M120.32,41.72l-3.39-1.75c-0.28,0.23-0.62,0.41-1.13,0.58c-0.04,0.13-0.12,0.31-0.28,0.54l2.59,1.52
		c0.03,0.02,1.29,0.83,1.95,0.27c0.64-0.55,0.32-1.04,0.31-1.06C120.34,41.79,120.33,41.75,120.32,41.72z"/>
	<path class="st0" d="M111.79,29.99l-3.16,4.21l4.97-0.32c0,0-0.23-0.47-0.14-1.31c0.23-2.23,1.49-1.01,1.68-2.29
		c0.18-1.29-0.41-2.1-0.41-2.1L111.79,29.99z"/>
	<path class="st0" d="M116.1,30.02c0,0.08-0.06,0.14-0.14,0.14s-0.14-0.06-0.14-0.14v-3.28h-0.29v4.57h1.14v-1.86
		c0-0.08,0.06-0.14,0.14-0.14c0.08,0,0.14,0.06,0.14,0.14v1.86h0.29v-4.57h-1.14V30.02z"/>
	<path class="st0" d="M118.85,35.12c-0.01,0-0.02-0.01-0.02-0.01L118.85,35.12C118.85,35.12,118.85,35.12,118.85,35.12z"/>
	<path class="st0" d="M117.84,37.96c-0.03-0.02-0.06-0.04-0.08-0.06l-0.19,0.05c0.03,0.37,0.03,1.05-0.26,1.57l3.39,1.75
		c0.15,0.04,1.01,0.24,1.34-0.25c0.3-0.45,0.11-0.93,0.03-1.11C121.07,39.48,117.98,38.03,117.84,37.96z"/>
	<path class="st0" d="M61.01,12v42.1h147.97V12H61.01z M100.31,38.68L100.31,38.68c0,0-0.02,4.47-6.39,5.39V32.11
		c0-2.06-0.26-3.52-0.79-4.38c-0.53-0.86-1.44-1.29-2.72-1.29c-0.34,0-0.82,0.09-1.44,0.26c-0.62,0.17-1.12,0.39-1.52,0.64
		c0.2,0.66,0.33,1.35,0.39,2.08c0.06,0.73,0.09,1.51,0.09,2.34v7.01l-0.01-0.03c0,0,0,4.41-6.38,5.33l0,0h0V32.11
		c0-2.06-0.26-3.52-0.79-4.38c-0.53-0.86-1.44-1.29-2.72-1.29c-0.4,0-0.82,0.02-1.24,0.06c-0.43,0.04-0.84,0.09-1.24,0.15v12.11
		l-0.01-0.03c0,0,0,4.41-6.38,5.33l0,0h0v0V24.96c0.54-2.54,2.82-3.29,3.79-3.49c0.15-0.02,0.29-0.05,0.44-0.07
		c0.82-0.13,1.65-0.23,2.51-0.3c0.86-0.07,1.7-0.11,2.53-0.11c1.63,0,2.95,0.21,3.97,0.62c1.01,0.41,1.85,0.91,2.51,1.48
		c0.91-0.66,1.97-1.17,3.15-1.54c1.19-0.37,2.28-0.56,3.28-0.56c1.8,0,3.28,0.25,4.44,0.75c1.16,0.5,2.08,1.21,2.77,2.12
		c0.69,0.92,1.16,2,1.42,3.26c0.26,1.26,0.39,2.66,0.39,4.2V38.68z M125.26,38.25c-0.55,1.59-1.36,2.94-2.4,4.07
		c-1.05,1.13-2.31,2-3.77,2.61c-1.46,0.62-3.11,0.92-4.93,0.92c-1.79,0-3.41-0.31-4.88-0.92c-1.24-0.52-2.33-1.23-3.28-2.12h6.44
		c0.42,0,0.94-0.46,1.65-1.09l0.32-0.28c0.31-0.27,0.51-0.5,0.63-0.68c-0.64,0.17-1.46,0.34-2.54,0.57c-0.02,0-0.04,0.01-0.06,0.01
		c-0.13,0-0.25-0.09-0.28-0.23c-0.03-0.15,0.07-0.31,0.22-0.34c1.43-0.3,2.37-0.5,3.03-0.71c0.02-0.01,0.05-0.02,0.08-0.03
		c0.58-0.19,0.93-0.37,1.19-0.63c0.31-0.31,0.35-0.91,0.33-1.32l-5.93,1.56c-0.02,0.01-0.05,0.01-0.07,0.01
		c-0.13,0-0.24-0.08-0.28-0.21c-0.04-0.15,0.05-0.31,0.2-0.35l6.69-1.76c0.41-1.1,0.77-2.39,0.68-2.64
		c-0.11-0.23-0.53-0.57-0.88-0.81l-0.88,1.89c-0.04,0.08-0.11,0.14-0.19,0.16l-4.56,1.08c-0.02,0.01-0.04,0.01-0.07,0.01
		c-0.13,0-0.25-0.09-0.28-0.22c-0.04-0.15,0.06-0.31,0.21-0.34l4.42-1.05l1.47-3.15c-0.35-0.07-0.8-0.15-1-0.16
		c-0.27,0.1-1.35,1.09-2.22,1.95c-0.05,0.05-0.12,0.08-0.2,0.08l-6.36,0.12c-0.09,0-0.18-0.04-0.23-0.11
		c-0.06-0.07-0.07-0.16-0.05-0.25c0.19-0.68,0.72-1.57,1.23-2.44c0.52-0.87,1.05-1.77,1.16-2.34c0.14-0.72-0.51-1.2-0.84-1.39
		c-0.34,0.41-1.18,1.44-1.64,2.09c-0.4,0.56-1.02,0.96-1.57,1.3c-0.3,0.19-0.58,0.37-0.74,0.53c-0.46,0.46-1.03,1.03-1.25,1.69
		c-0.27,0.81-1.28,1.44-1.32,1.47c-0.05,0.03-0.1,0.04-0.16,0.04l-0.08,0c-0.07-0.61-0.1-1.23-0.1-1.87c0-1.91,0.3-3.65,0.9-5.23
		c0.6-1.57,1.43-2.91,2.5-4.02c1.06-1.11,2.33-1.97,3.79-2.59c1.46-0.62,3.06-0.92,4.79-0.92c1.76,0,3.37,0.31,4.83,0.92
		c0.02,0.01,0.05,0.02,0.07,0.03c-3.56,0.28-4.35,1.2-4.35,2.55v0.49h1.87c0.16,0,0.29,0.13,0.29,0.29c0,0.16-0.13,0.29-0.29,0.29
		h-1.87v1.29h3.39v-1.27c0-0.16,0.13-0.29,0.29-0.29h5.04c0.73,0.94,1.32,2.02,1.78,3.23c0.59,1.57,0.88,3.31,0.88,5.23
		C126.09,34.92,125.82,36.66,125.26,38.25z M159.28,38.68L159.28,38.68c0,0-0.02,4.47-6.39,5.39V32.11c0-2.06-0.26-3.52-0.79-4.38
		c-0.53-0.86-1.44-1.29-2.72-1.29c-0.34,0-0.82,0.09-1.44,0.26c-0.62,0.17-1.12,0.39-1.52,0.64c0.2,0.66,0.33,1.35,0.39,2.08
		c0.06,0.73,0.09,1.51,0.09,2.34v7.01l-0.01-0.03c0,0,0,4.41-6.38,5.33l0,0h0V32.11c0-2.06-0.26-3.52-0.79-4.38
		c-0.53-0.86-1.44-1.29-2.72-1.29c-0.4,0-0.82,0.02-1.24,0.06c-0.43,0.04-0.84,0.09-1.24,0.15v12.11l-0.01-0.03
		c0,0,0,4.41-6.38,5.33V24.96c0.54-2.54,2.82-3.29,3.79-3.49c0.15-0.02,0.29-0.05,0.44-0.07c0.82-0.13,1.65-0.23,2.51-0.3
		c0.86-0.07,1.7-0.11,2.53-0.11c1.63,0,2.95,0.21,3.97,0.62c1.01,0.41,1.85,0.91,2.51,1.48c0.91-0.66,1.97-1.17,3.15-1.54
		c1.19-0.37,2.28-0.56,3.28-0.56c1.8,0,3.28,0.25,4.44,0.75c1.16,0.5,2.08,1.21,2.77,2.12c0.69,0.92,1.16,2,1.42,3.26
		c0.26,1.26,0.39,2.66,0.39,4.2V38.68z M181.03,39.84c-0.09,3.03-2.12,3.93-3.18,4.19c-0.21,0.04-0.42,0.07-0.64,0.11
		c-1.63,0.27-3.6,0.41-5.92,0.41c-1.46,0-2.78-0.13-3.97-0.39c-1.19-0.26-2.21-0.68-3.07-1.27c-0.86-0.59-1.52-1.35-1.97-2.3
		c-0.46-0.94-0.69-2.1-0.69-3.48c0-1.32,0.26-2.43,0.79-3.35c0.53-0.91,1.24-1.64,2.12-2.19c0.89-0.54,1.9-0.94,3.05-1.18
		c1.14-0.24,2.33-0.36,3.56-0.36c0.83,0,1.57,0.04,2.21,0.11c0.64,0.07,1.17,0.17,1.57,0.28v-0.6c0-1.09-0.33-1.96-0.99-2.62
		c-0.66-0.66-1.8-0.99-3.43-0.99c-0.8,0-1.6,0.04-2.38,0.13c-3.47-0.43-4.4-4.38-4.4-4.38c0.37-0.11,0.84-0.24,1.39-0.36
		c0.56-0.13,1.17-0.24,1.82-0.34c0.66-0.1,1.35-0.19,2.08-0.26c0.73-0.07,1.47-0.11,2.21-0.11c1.89,0,3.46,0.21,4.72,0.64
		c1.26,0.43,2.27,1.04,3.02,1.84c0.76,0.8,1.29,1.77,1.61,2.92c0.31,1.14,0.47,2.42,0.47,3.82V39.84z M190,31.31h-6.05
		c-0.02-0.1-0.03-0.22-0.03-0.37c0-0.15,0-0.25,0-0.31c0-0.42,0.07-0.8,0.2-1.15c0.14-0.35,0.31-0.67,0.53-0.98
		c0.22-0.3,0.46-0.58,0.74-0.84c0.27-0.26,0.55-0.52,0.82-0.79c0.21-0.2,0.41-0.39,0.59-0.57c0.18-0.18,0.34-0.35,0.48-0.52
		c0.14-0.17,0.25-0.34,0.33-0.51s0.12-0.34,0.12-0.52c0-0.38-0.11-0.65-0.33-0.81c-0.22-0.16-0.49-0.24-0.81-0.24
		c-0.24,0-0.46,0.04-0.66,0.11c-0.21,0.07-0.39,0.16-0.56,0.26c-0.72,0.18-1.15-0.14-1.33-0.32l-0.35-0.49
		c0.38-0.36,0.83-0.65,1.34-0.88c0.51-0.23,1.06-0.35,1.64-0.35c0.53,0,0.99,0.06,1.37,0.18c0.38,0.12,0.7,0.29,0.95,0.52
		c0.25,0.22,0.43,0.49,0.55,0.81c0.12,0.32,0.18,0.68,0.18,1.08c0,0.33-0.07,0.65-0.2,0.96c-0.13,0.31-0.3,0.6-0.51,0.88
		c-0.21,0.28-0.45,0.56-0.71,0.82c-0.26,0.26-0.52,0.51-0.77,0.75c-0.13,0.12-0.27,0.26-0.43,0.41c-0.15,0.15-0.3,0.31-0.44,0.46
		c-0.14,0.16-0.26,0.3-0.37,0.44c-0.11,0.14-0.18,0.25-0.2,0.33h3.9V31.31z M193.12,31.17c-0.25,0.2-0.53,0.31-0.84,0.31
		c-0.31,0-0.6-0.1-0.84-0.31c-0.25-0.2-0.37-0.5-0.37-0.9c0-0.39,0.12-0.69,0.37-0.9c0.25-0.2,0.53-0.31,0.84-0.31
		c0.31,0,0.6,0.1,0.84,0.31c0.25,0.21,0.37,0.5,0.37,0.9C193.5,30.67,193.37,30.97,193.12,31.17z M200.01,30.27
		c-0.58,0.82-1.38,1.22-2.4,1.22c-1.02,0-1.82-0.41-2.4-1.22c-0.58-0.82-0.87-1.99-0.87-3.51c0-0.76,0.08-1.43,0.23-2.02
		c0.15-0.58,0.37-1.08,0.66-1.48c0.29-0.4,0.63-0.71,1.03-0.92c0.4-0.21,0.85-0.31,1.35-0.31c1.02,0,1.82,0.41,2.4,1.22
		c0.58,0.82,0.87,1.98,0.87,3.5C200.88,28.28,200.59,29.45,200.01,30.27z"/>
	<path class="st0" d="M198.61,24.56c-0.1-0.27-0.23-0.48-0.39-0.63c-0.17-0.15-0.37-0.22-0.62-0.22c-0.24,0-0.45,0.07-0.61,0.22
		c-0.16,0.15-0.29,0.36-0.39,0.63c-0.1,0.27-0.17,0.59-0.22,0.96c-0.04,0.37-0.07,0.78-0.07,1.24c0,0.45,0.02,0.87,0.07,1.24
		c0.04,0.38,0.12,0.7,0.22,0.97c0.1,0.27,0.23,0.48,0.39,0.63c0.16,0.15,0.36,0.22,0.61,0.22c0.24,0,0.45-0.07,0.62-0.22
		c0.17-0.15,0.3-0.36,0.39-0.63c0.1-0.27,0.17-0.59,0.21-0.97c0.04-0.38,0.07-0.79,0.07-1.24c0-0.45-0.02-0.87-0.07-1.24
		C198.78,25.15,198.71,24.83,198.61,24.56z"/>
	<path class="st0" d="M172.32,34.34c-0.6,0-1.17,0.04-1.69,0.11c-0.53,0.07-0.99,0.21-1.39,0.41c-0.4,0.2-0.72,0.47-0.94,0.81
		c-0.23,0.34-0.34,0.77-0.34,1.29c0,1,0.34,1.69,1.01,2.08c0.67,0.39,1.59,0.58,2.77,0.58c0.63,0,1.23-0.01,1.8-0.04
		c0.57-0.03,1.03-0.07,1.37-0.13v-4.85c-0.26-0.06-0.64-0.11-1.16-0.17C173.22,34.37,172.75,34.34,172.32,34.34z"/>
</g>
</svg>
