<?xml version="1.0" encoding="utf-8"?>
<!-- Generator: Adobe Illustrator 23.0.0, SVG Export Plug-In . SVG Version: 6.00 Build 0)  -->
<svg version="1.1" id="Calque_1" xmlns="http://www.w3.org/2000/svg" xmlns:xlink="http://www.w3.org/1999/xlink" x="0px" y="0px"
	 viewBox="0 0 270 66.1" style="enable-background:new 0 0 270 66.1;" xml:space="preserve">
<style type="text/css">
	.st0{fill:#FFFFFF;}
	.st1{fill:url(#SVGID_1_);}
	.st2{fill:url(#SVGID_2_);}
	.st3{fill:url(#SVGID_3_);}
	.st4{fill:url(#SVGID_4_);}
	.st5{fill:url(#SVGID_5_);}
	.st6{fill:url(#SVGID_6_);}
	.st7{fill:url(#SVGID_7_);}
	.st8{fill:url(#SVGID_8_);}
	.st9{fill:url(#SVGID_9_);}
	.st10{fill:url(#SVGID_10_);}
	.st11{fill:url(#SVGID_11_);}
	.st12{fill:url(#SVGID_12_);}
	.st13{fill:url(#SVGID_13_);}
	.st14{fill:url(#SVGID_14_);}
	.st15{fill:url(#SVGID_15_);}
	.st16{fill:url(#SVGID_16_);}
	.st17{fill:url(#SVGID_17_);}
	.st18{fill:url(#SVGID_18_);}
	.st19{fill:url(#SVGID_19_);}
	.st20{fill:url(#SVGID_20_);}
	.st21{fill:url(#SVGID_21_);}
	.st22{fill:url(#SVGID_22_);}
	.st23{fill:url(#SVGID_23_);}
	.st24{fill:url(#SVGID_24_);}
	.st25{fill:url(#SVGID_25_);}
	.st26{fill:url(#SVGID_26_);}
	.st27{fill:url(#SVGID_27_);}
	.st28{fill:url(#SVGID_28_);}
	.st29{fill:url(#SVGID_29_);}
	.st30{fill:url(#SVGID_30_);}
	.st31{fill:url(#SVGID_31_);}
	.st32{fill:url(#SVGID_32_);}
	.st33{clip-path:url(#XMLID_2_);fill:#FFFFFF;}
	.st34{clip-path:url(#XMLID_3_);fill:#FFFFFF;}
	.st35{clip-path:url(#XMLID_4_);fill:#FFFFFF;}
	.st36{clip-path:url(#XMLID_5_);fill:#FFFFFF;}
	.st37{clip-path:url(#XMLID_6_);fill:#FFFFFF;}
	.st38{clip-path:url(#XMLID_7_);fill:#FFFFFF;}
	.st39{clip-path:url(#XMLID_8_);fill:#FFFFFF;}
	.st40{clip-path:url(#XMLID_9_);fill:#FFFFFF;}
	.st41{clip-path:url(#XMLID_10_);fill:#FFFFFF;}
	.st42{clip-path:url(#XMLID_11_);fill:#FFFFFF;}
	.st43{clip-path:url(#XMLID_12_);fill:#FFFFFF;}
	.st44{clip-path:url(#XMLID_13_);fill:#FFFFFF;}
	.st45{clip-path:url(#XMLID_14_);fill:#FFFFFF;}
</style>
<g>
	<path class="st0" d="M188.61,38.79c-1.74-0.03-3.49-0.06-5.23-0.08c-7.28-0.07-14.56,0.01-21.83-0.14
		c-1.11-0.02-2.22-0.01-3.33-0.02c-0.18,0-0.44,0.02-0.51-0.08c-0.35-0.45-0.57-0.13-0.8,0.09c-0.49,0.47-0.97,0.94-1.58,1.25
		c-1.47,0.74-3.05,1.29-4.42,2.51c0.28-0.81,0.6-1.45,0.71-2.15c0.21-1.28,0.17-2.57,0.32-3.85c0.02-0.14,0.02-0.3-0.12-0.37
		c-0.21-0.1-0.26,0.12-0.36,0.23c-0.56,0.6-0.92,1.34-1.41,2.04c-0.16-0.29-0.11-0.53-0.11-0.77c0-3.35,0.01-6.7,0.01-10.05
		l-21.09,11.17c6.57,0,13.14,0,19.7,0c0.2,0,0.4,0,0.59,0.01c0.66,0.04,0.7,0.12,0.47,0.76c-0.58,1.61-1,3.26-1.48,4.89
		c-0.11,0.38,0.05,0.53,0.41,0.5c0.47-0.03,0.95-0.06,1.42-0.12c2-0.26,3.81-0.91,5.17-2.51c0.59-0.7,1.16-1.41,1.62-2.2
		c0.23-0.39,0.53-0.52,0.98-0.51c1.96,0.02,3.92,0.08,5.89,0.1c7.69,0.06,15.39-0.01,23.08,0.14c0.19,0,0.43-0.09,0.54,0.12
		c0.07,0.15-0.09,0.29-0.19,0.41c-1.08,1.26-2.18,2.51-3.24,3.8c-0.35,0.43-0.74,0.56-1.28,0.56c-9.22-0.01-18.45,0-27.67,0
		c-0.16,0-0.32,0-0.48-0.01c-0.26-0.01-0.32-0.13-0.18-0.34c0.18-0.28,0.37-0.56,0.56-0.84c0.05-0.08,0.11-0.18,0.03-0.27
		c-0.08-0.09-0.19-0.05-0.27,0c-0.14,0.08-0.26,0.18-0.39,0.27c-0.99,0.66-2.03,1.19-3.21,1.49c-1.67,0.43-3.4,0.1-5.09,0.45
		c0.68-0.53,1.37-1.03,1.78-1.8c0.51-0.98,1.03-1.97,1.36-3.03c0.06-0.19,0.24-0.43,0.01-0.6c-0.19-0.13-0.38,0.03-0.55,0.13
		c-1.36,0.83-2.54,1.88-3.65,3.02c-1,1.02-1.63,2.4-3.02,3.02c0.03,0.05,0.03,0.1,0.06,0.11c0.09,0.05,0.18,0.09,0.27,0.12
		c2.32,0.86,4.7,1.29,7.17,0.97c1.27-0.16,2.51-0.45,3.45-1.42c0.34-0.35,0.77-0.35,1.21-0.35c7.89,0,15.79,0,23.68,0
		c0.26,0,0.52,0,0.77-0.02c1.56-0.13,3.13-0.13,4.69,0c0.43,0.03,0.76-0.1,1.05-0.43c1.59-1.87,3.19-3.74,4.78-5.61
		c0.11-0.13,0.28-0.27,0.2-0.46C189.01,38.74,188.79,38.8,188.61,38.79z"/>
	<path class="st0" d="M97.79,38.13c3.8-0.1,7.61,0,11.42-0.07c1.35-0.02,2.69-0.06,4.04-0.09c0.39-0.01,0.73,0.09,1.04,0.35
		c0.9,0.74,1.87,1.4,2.87,2.01c0.14,0.09,0.29,0.27,0.48,0.14c0.19-0.12,0.08-0.32,0.05-0.49c-0.16-0.82-0.24-1.64-0.16-2.47
		c0.11-1.16,0.15-2.33,0-3.5c-0.07-0.59-0.25-1.16-0.41-1.73c-0.04-0.16-0.1-0.4-0.32-0.38c-0.23,0.03-0.2,0.27-0.2,0.44
		c0.03,0.71-0.18,1.36-0.45,2.01c-0.35,0.87-0.45,1.76-0.19,2.68c0.05,0.16,0.16,0.35,0.02,0.61c-0.47-0.97-1.17-1.65-2.1-2.01
		c-0.92-0.36-1.49-1.01-1.94-1.83c-0.37-0.67-0.84-1.28-1.04-2.03c-0.26,0.1-0.26,0.25-0.23,0.38c0.26,1.55,0.6,3.08,1.63,4.34
		c0.13,0.16,0.39,0.31,0.29,0.54c-0.09,0.19-0.36,0.09-0.55,0.1c-2.93,0.06-5.87-0.02-8.8,0.09c-3.11,0.12-6.22,0.04-9.34,0.12
		c-2.87,0.08-5.75,0.02-8.63,0.04c-1.42,0.01-2.85,0.06-4.27,0.1c-0.32,0.01-0.62-0.01-0.86-0.29c-1.46-1.67-2.93-3.33-4.39-5
		c-0.08-0.09-0.22-0.16-0.18-0.29c0.05-0.17,0.23-0.12,0.36-0.13c0.89-0.04,1.78-0.08,2.67-0.1c3.96-0.07,7.93,0.04,11.9-0.11
		c3.55-0.13,7.1,0,10.65-0.12c3.21-0.1,6.43-0.04,9.64-0.07c0.32,0,0.51,0.11,0.67,0.38c0.68,1.17,1.67,2.11,2.47,3.19
		c0.08,0.11,0.19,0.23,0.34,0.18c0.15-0.05,0.17-0.21,0.19-0.35c0.1-0.61,0.45-1.09,0.78-1.59c0.32-0.48,0.68-0.93,0.97-1.43
		c0.62-1.07,0.77-2.24,0.54-3.45c-0.04-0.18-0.05-0.45-0.3-0.45c-0.23,0-0.19,0.26-0.25,0.42c-0.12,0.35-0.16,0.73-0.34,1.07
		c-0.5,0.96-1.56,1.5-1.86,2.63c-0.25-0.78-0.57-1.45-1.21-1.92c-0.52-0.38-0.8-0.91-0.98-1.51c-0.22-0.73-0.23-1.49-0.33-2.23
		c-0.02-0.17,0.05-0.43-0.15-0.47c-0.24-0.04-0.21,0.24-0.25,0.39c-0.22,0.76-0.43,1.53-0.41,2.33c0.01,0.4-0.18,0.58-0.56,0.61
		c-0.2,0.01-0.39,0.05-0.59,0.05c-3.85,0.05-7.69-0.02-11.54,0.11c-3.63,0.12-7.26,0.01-10.88,0.11c-4.4,0.12-8.8,0.01-13.2,0.16
		c-0.34,0.01-0.6-0.09-0.84-0.35c-1.51-1.7-3.04-3.39-4.55-5.09c-0.1-0.11-0.29-0.21-0.2-0.39c0.08-0.17,0.28-0.11,0.43-0.12
		c0.16-0.01,0.32,0,0.48,0c6.07,0,12.14,0,18.21,0c8.15,0,16.3,0,24.46,0c0.78,0,0.78,0.01,0.61,0.76
		c-0.49,2.24,0.12,4.28,1.13,6.24c0.06,0.12,0.13,0.27,0.3,0.26c0.17-0.01,0.22-0.17,0.25-0.29c0.53-1.71,1.66-2.99,2.95-4.17
		c0.86-0.78,1.51-1.7,1.61-2.89c0.03-0.39,0.16-0.59,0.47-0.79c1.04-0.69,1.59-1.73,2-2.87c0.05-0.14,0.1-0.35-0.09-0.42
		c-0.22-0.07-0.23,0.17-0.3,0.29c-0.35,0.66-0.81,1.16-1.58,1.33c-0.88,0.2-1.78,0.37-2.55,1.15c0.07-0.48,0.17-0.81,0.15-1.13
		c-0.07-1,0.19-1.86,0.85-2.63c0.24-0.28,0.77-0.71,0.53-0.95c-0.32-0.31-0.7,0.24-1.03,0.44c-0.85,0.51-1.71,1.1-1.96,2.13
		c-0.34,1.4-0.35,2.83-0.24,4.26c0.02,0.2-0.03,0.5,0.2,0.58c0.24,0.09,0.36-0.19,0.51-0.33c0.74-0.68,1.61-1.09,2.65-1.39
		c-0.33,0.89-0.87,1.43-1.63,1.76c-0.86,0.37-1.69,0.79-2.26,1.58c0.05-0.69,0.03-1.33-0.11-1.98c-0.2-0.97-0.42-1.96,0.22-2.87
		c0.06-0.09,0.13-0.23,0.01-0.32c-0.11-0.09-0.24-0.02-0.32,0.06c-0.25,0.23-0.55,0.43-0.72,0.71c-0.34,0.57-0.81,0.65-1.41,0.65
		c-13.92-0.01-27.85-0.01-41.77-0.01c-0.99,0-1.98,0.01-2.97-0.03c-0.33-0.01-0.85-0.27-1.03,0.15c-0.15,0.34,0.34,0.53,0.55,0.76
		c1.86,2.11,3.74,4.2,5.61,6.3c0.32,0.36,0.68,0.48,1.15,0.47c2.08-0.06,4.16-0.05,6.24-0.09c5.59-0.11,11.18-0.11,16.78-0.16
		c1.53-0.01,3.06,0.02,4.58-0.04c3.05-0.13,6.11-0.04,9.16-0.08c0.16,0,0.42-0.04,0.41,0.21c-0.01,0.2-0.25,0.14-0.4,0.14
		c-1.41,0.02-2.81,0.04-4.22,0.09c-2.93,0.1-5.87,0.03-8.8,0.11c-4.22,0.11-8.45,0.04-12.67,0.14c-3.49,0.08-6.98,0.01-10.47,0.14
		c-0.19,0.01-0.44-0.06-0.55,0.14c-0.14,0.26,0.15,0.38,0.28,0.52c1.82,2.07,3.65,4.12,5.46,6.19c0.33,0.38,0.67,0.56,1.18,0.54
		c2.28-0.07,4.56-0.01,6.84-0.09C90.93,38.12,94.36,38.21,97.79,38.13z"/>
	<path class="st0" d="M203.65,22.68c-0.06-0.19-0.24-0.17-0.4-0.18c-0.14-0.01-0.28,0-0.42,0c-10.39,0-20.79,0-31.18,0
		c-4.74,0-9.48-0.01-14.22,0.01c-0.47,0-0.83-0.11-1.14-0.48c-0.24-0.29-0.47-0.64-0.89-0.72c-0.12,0.2-0.03,0.36,0.05,0.47
		c0.38,0.55,0.35,1.17,0.31,1.78c-0.06,0.94-0.48,1.84-0.32,2.83c-0.62-0.75-1.43-1.12-2.27-1.45c-0.63-0.25-1.02-0.73-1.36-1.28
		c-0.06-0.1-0.18-0.2-0.1-0.32c0.1-0.15,0.25-0.06,0.37-0.02c0.85,0.34,1.68,0.73,2.31,1.42c0.11,0.11,0.2,0.3,0.37,0.25
		c0.22-0.06,0.17-0.29,0.17-0.46c0-1.25,0.08-2.5-0.01-3.74c-0.04-0.57-0.23-1.08-0.58-1.53c-0.58-0.73-1.35-1.22-2.14-1.68
		c-0.11-0.07-0.26-0.17-0.38-0.04c-0.14,0.15-0.02,0.32,0.08,0.42c1,0.99,1.32,2.22,1.31,3.57c0,0.15,0.1,0.34-0.06,0.44
		c-0.14,0.08-0.25-0.07-0.37-0.14c-0.55-0.31-1.12-0.57-1.76-0.68c-0.79-0.14-1.45-0.5-1.81-1.29c-0.07-0.16-0.13-0.38-0.36-0.44
		c-0.19,0.14-0.13,0.34-0.07,0.49c0.46,1.15,0.99,2.26,2.11,2.93c0.18,0.11,0.32,0.23,0.33,0.46c0.05,1.37,0.8,2.39,1.75,3.26
		c1.26,1.15,2.29,2.46,2.88,4.09c0.04,0.11,0.05,0.26,0.18,0.28c0.18,0.03,0.22-0.14,0.28-0.26c1.16-2.06,1.68-4.22,1.07-6.57
		c-0.19-0.74-0.19-0.75,0.55-0.75c14.42,0,28.84,0,43.26,0c0.2,0,0.5-0.12,0.59,0.13c0.07,0.18-0.18,0.33-0.3,0.48
		c-1.52,1.69-3.06,3.38-4.57,5.08c-0.25,0.29-0.53,0.37-0.89,0.36c-1.35-0.03-2.69-0.05-4.04-0.09c-3.23-0.11-6.46-0.01-9.69-0.11
		c-4.52-0.13-9.04,0.01-13.56-0.14c-2.26-0.07-4.52-0.02-6.78-0.03c-0.65,0-1.31-0.01-1.96-0.01c-0.43,0-0.65-0.17-0.66-0.64
		c-0.01-0.78-0.23-1.53-0.41-2.28c-0.03-0.13-0.02-0.33-0.29-0.33c-0.05,0.39-0.09,0.78-0.14,1.17c-0.1,0.87-0.2,1.76-0.76,2.47
		c-0.66,0.84-1.57,1.49-1.73,2.67c-0.22-0.54-0.38-1.04-0.79-1.43c-0.74-0.69-1.34-1.46-1.45-2.52c-0.01-0.15-0.03-0.35-0.26-0.32
		c-0.17,0.02-0.2,0.18-0.22,0.31c-0.24,1.22-0.16,2.4,0.45,3.52c0.61,1.1,1.62,1.97,1.84,3.3c0.03,0.2,0.21,0.25,0.35,0.08
		c0.75-0.9,1.66-1.71,2.19-2.72c0.51-0.97,1.06-1.2,2.1-1.16c4.04,0.13,8.09-0.02,12.13,0.13c3.17,0.12,6.34,0.03,9.51,0.11
		c4,0.11,8.01,0,12.01,0.15c0.17,0.01,0.41-0.08,0.49,0.09c0.1,0.21-0.14,0.34-0.27,0.48c-1.07,1.22-2.22,2.38-3.21,3.66
		c-0.83,1.06-1.72,1.48-3.13,1.41c-3.56-0.18-7.13-0.01-10.7-0.14c-3.33-0.13-6.66,0-9.99-0.12c-2.73-0.1-5.47-0.03-8.21-0.04
		c-0.34,0-0.67,0-1.01-0.01c-0.37-0.01-0.42-0.23-0.21-0.46c1.1-1.21,1.4-2.72,1.66-4.25c0.02-0.13,0.08-0.31-0.09-0.36
		c-0.19-0.06-0.22,0.14-0.26,0.26c-0.28,0.73-0.71,1.37-1.12,2.03c-0.4,0.66-0.89,1.2-1.66,1.45c-0.47,0.16-0.86,0.47-1.23,0.81
		c-0.39,0.35-0.64,0.81-1.08,1.3c0.06-0.31,0.08-0.47,0.13-0.61c0.34-0.87,0.24-1.7-0.1-2.54c-0.29-0.71-0.56-1.44-0.51-2.24
		c0.01-0.16,0.06-0.41-0.18-0.44c-0.21-0.03-0.29,0.2-0.33,0.36c-0.39,1.28-0.6,2.61-0.48,3.93c0.12,1.31,0.27,2.6-0.08,3.89
		c-0.04,0.15-0.11,0.33,0.04,0.44c0.16,0.12,0.3-0.03,0.43-0.11c1.05-0.68,2.11-1.35,3.07-2.15c0.4-0.33,0.8-0.46,1.3-0.46
		c2.56,0.05,5.11,0.01,7.67,0.1c3.78,0.13,7.57,0,11.36,0.12c4.2,0.13,8.4,0.09,12.6,0.16c0.83,0.01,1.42-0.16,1.99-0.84
		c1.73-2.04,3.55-4,5.34-5.99c0.1-0.12,0.25-0.24,0.18-0.41c-0.08-0.2-0.3-0.17-0.47-0.17c-0.85,0.01-1.7-0.07-2.55-0.09
		c-2.99-0.08-5.99-0.01-8.98-0.11c-3.96-0.13-7.93,0-11.9-0.12c-4.14-0.13-8.29,0.06-12.43-0.14c-0.24-0.01-0.67,0.12-0.66-0.16
		c0.01-0.34,0.45-0.2,0.7-0.2c3.33,0.04,6.66-0.02,9.99,0.09c4.12,0.14,8.25,0,12.37,0.12c4.6,0.13,9.2,0.09,13.8,0.17
		c0.7,0.01,1.15-0.25,1.57-0.75c0.9-1.05,1.84-2.07,2.77-3.1c1-1.12,2.01-2.24,3.01-3.36C203.58,22.94,203.7,22.84,203.65,22.68z"/>
	<path class="st0" d="M126.61,46.73c0.55-0.17,1.16-0.25,1.78-0.76c-0.83-0.08-1.22-0.55-1.6-1.04c-0.53-0.69-1.09-1.36-1.7-1.99
		c-1.08-1.12-2.22-2.15-3.58-2.92c-0.18-0.1-0.39-0.31-0.59-0.13c-0.2,0.18-0.03,0.41,0.05,0.6c0.31,0.73,0.64,1.45,0.96,2.18
		c0.42,0.97,1.02,1.79,1.94,2.34c0.09,0.06,0.22,0.12,0.15,0.36c-1.31-0.31-2.66-0.15-3.99-0.33c-1.6-0.21-3.06-0.79-4.34-1.8
		c-0.11-0.09-0.27-0.26-0.41-0.13c-0.18,0.16,0,0.32,0.09,0.46c0.26,0.38,0.53,0.77,0.82,1.19c-1.28,0.21-2.46,0-3.64,0
		c-3.73,0-7.46,0-11.19,0c-4.66,0-9.32-0.01-13.98,0c-0.45,0-0.77-0.1-1.07-0.47c-1.05-1.29-2.14-2.55-3.21-3.82
		c-0.12-0.14-0.36-0.27-0.23-0.49c0.1-0.17,0.33-0.09,0.5-0.09c2.72-0.05,5.43-0.04,8.15-0.08c6.92-0.1,13.84,0.01,20.76-0.16
		c0.58-0.01,0.9,0.2,1.18,0.68c0.58,1,1.32,1.89,2.2,2.63c1.58,1.32,3.49,1.72,5.49,1.8c0.7,0.03,0.78-0.13,0.59-0.82
		c-0.39-1.41-0.83-2.81-1.25-4.22c-0.4-1.37-1.18-2.5-2.02-3.6c-0.07-0.09-0.14-0.21-0.29-0.14c-0.13,0.06-0.11,0.2-0.09,0.32
		c0.26,1.98-0.07,4.05,0.93,5.93c-0.62-0.46-1.24-0.86-1.92-1.19c-1.46-0.73-3.07-1.23-4.16-2.57c-0.12-0.15-0.35-0.31-0.46-0.01
		c-0.13,0.36-0.39,0.34-0.67,0.35c-2.6,0.02-5.19,0.05-7.79,0.08c-7.46,0.09-14.91,0-22.37,0.15c-0.08,0-0.16,0-0.24,0
		c-0.16,0.01-0.34-0.01-0.42,0.16c-0.08,0.18,0.08,0.29,0.18,0.41c1.37,1.61,2.79,3.19,4.1,4.86c0.7,0.89,1.4,1.24,2.58,1.2
		c1.83-0.07,3.68,0.04,5.53,0.04c7.64,0,15.27,0.01,22.91,0c0.49,0,0.92,0.08,1.31,0.44c0.34,0.32,0.75,0.58,1.22,0.72
		C121.43,47.61,124.03,47.53,126.61,46.73z"/>
	<path class="st0" d="M152.77,46.88c-1.45,0.69-2.98,1.05-4.59,1.07c-2.2,0.04-4.33-0.41-6.42-1.05c-1.33-0.4-2.68-0.74-4.09-0.5
		c-1,0.17-1.97,0.25-2.98-0.06c-0.59-0.18-1.24-0.16-1.88-0.11c-1.52,0.14-2.94,0.62-4.38,1.06c-1.57,0.48-3.13,0.81-4.78,0.8
		c-1.78-0.01-3.5-0.33-5.22-0.74c-0.17-0.04-0.41-0.2-0.52,0.06c-0.08,0.19,0.13,0.32,0.25,0.44c0.8,0.78,1.7,1.41,2.71,1.9
		c1.84,0.9,3.71,1.1,5.63,0.33c1.62-0.64,3.22-1.33,4.84-1.97c0.97-0.39,1.98-0.66,3.07-0.61c-0.44,0.34-0.88,0.67-1.31,1.02
		c-0.88,0.71-1.63,1.56-2.41,2.38c-0.24,0.25-0.24,0.55-0.03,0.81c0.23,0.3,0.55,0.29,0.86,0.14c0.28-0.14,0.42-0.41,0.57-0.66
		c0.7-1.16,1.51-2.23,2.59-3.07c0.88-0.68,1.63-0.73,2.54-0.13c0.4,0.26,0.76,0.56,1.08,0.93c0.66,0.77,1.28,1.56,1.76,2.46
		c0.16,0.31,0.43,0.47,0.78,0.44c0.28-0.02,0.49-0.15,0.59-0.43c0.13-0.35-0.09-0.56-0.3-0.77c-0.47-0.48-0.97-0.94-1.42-1.43
		c-0.49-0.54-1.12-0.94-1.67-1.51c0.38-0.13,0.64-0.02,0.91,0.05c1.94,0.52,3.77,1.34,5.61,2.13c1.44,0.62,2.9,0.88,4.39,0.34
		c1.63-0.6,2.96-1.67,4.14-2.93c0.12-0.13,0.32-0.28,0.2-0.45C153.11,46.64,152.92,46.81,152.77,46.88z"/>
	<path class="st0" d="M128.51,57.78c-0.33-0.42-0.26-0.62,0.17-0.91c0.78-0.54,0.95-1.36,0.7-2.22c-0.24-0.81-0.82-1.27-1.69-1.37
		c-1.07-0.13-2.14-0.08-3.21-0.05c-0.68,0.02-0.95,0.35-0.97,1.1c-0.02,0.85-0.01,1.71-0.01,2.56c0.01,0,0.02,0,0.03,0
		c0,0.95-0.03,1.9,0.01,2.85c0.02,0.49,0.32,0.8,0.86,0.78c0.56-0.02,0.76-0.36,0.77-0.86c0.01-0.56,0.02-1.11,0.01-1.67
		c-0.01-0.4,0.19-0.52,0.56-0.5c0.54,0.04,0.85,0.39,1.12,0.8c0.37,0.56,0.69,1.16,1.06,1.72c0.35,0.54,0.85,0.67,1.33,0.4
		c0.39-0.22,0.43-0.68,0.1-1.27C129.09,58.68,128.84,58.2,128.51,57.78z M127.13,56.06c-0.33,0.1-0.66,0.11-1,0.11
		c-0.87,0-1.23-0.55-0.91-1.37c0.06-0.15,0.16-0.24,0.3-0.25c0.55-0.03,1.11-0.09,1.65,0.09c0.34,0.11,0.54,0.34,0.55,0.7
		C127.73,55.73,127.5,55.95,127.13,56.06z"/>
	<path class="st0" d="M177.58,13.1c0.2,0,0.4,0,0.59,0c0.74-0.01,0.79-0.07,0.81-0.82c0.02-0.58-0.06-1.17,0.07-1.86
		c0.44,0.62,0.89,1.12,1.17,1.69c0.43,0.88,1.08,1.1,1.98,1c0.45-0.05,0.62-0.19,0.61-0.66c-0.03-1.37-0.02-2.73-0.02-4.1
		c0-1.27,0.01-1.25-1.28-1.23c-0.5,0.01-0.66,0.22-0.65,0.69c0.02,0.61,0,1.22,0,2.01c-0.47-0.64-0.95-1.08-1.21-1.67
		c-0.42-0.94-1.16-1.14-2.09-1.02c-0.33,0.04-0.51,0.18-0.51,0.52c0,1.64,0,3.29,0,4.93C177.07,12.92,177.23,13.1,177.58,13.1z"/>
	<path class="st0" d="M183.72,12.5c0,0.18-0.01,0.41,0.16,0.48c0.49,0.21,1.02,0.18,1.51,0.05c0.36-0.1,0.25-0.49,0.26-0.78
		c0.01-0.57,0-1.14,0-1.71c0.55,0.57,1.03,1.12,1.35,1.74c0.37,0.72,0.9,0.89,1.64,0.83c0.73-0.06,0.8-0.08,0.8-0.84
		c0-1.31,0-2.61,0-3.92c0-1.22,0-1.2-1.23-1.22c-0.53-0.01-0.76,0.14-0.71,0.71c0.05,0.64,0.01,1.28,0.01,1.92
		c-0.06,0.01-0.12,0.03-0.18,0.04c-0.38-0.78-0.94-1.44-1.39-2.17c-0.21-0.35-0.48-0.51-0.87-0.49c-0.26,0.01-0.52,0.01-0.77,0
		c-0.39-0.02-0.59,0.14-0.58,0.55C183.73,9.29,183.72,10.89,183.72,12.5z"/>
	<path class="st0" d="M161.99,10.09c0.01,0,0.03,0,0.04,0c0,0.55,0.01,1.11,0,1.66c-0.02,1.44-0.02,1.43,1.45,1.35
		c0.42-0.02,0.62-0.2,0.6-0.62c-0.01-0.18-0.04-0.36-0.03-0.53c0.04-0.36-0.16-0.94,0.15-1.01c0.42-0.11,0.62,0.47,0.72,0.81
		c0.34,1.23,1.16,1.54,2.3,1.35c0.02,0,0.04,0,0.06,0c0.5,0,0.59-0.24,0.37-0.64c-0.29-0.52-0.56-1.05-0.89-1.54
		c-0.21-0.31-0.25-0.51,0.08-0.79c0.63-0.52,0.72-1.22,0.45-1.95c-0.25-0.68-0.83-1-1.54-1.02c-1.07-0.03-2.14-0.01-3.21-0.02
		c-0.44,0-0.57,0.22-0.56,0.64C162.01,8.55,161.99,9.32,161.99,10.09z"/>
	<path class="st0" d="M69.55,11.8c-0.01,1.38-0.25,1.32,1.42,1.3c0.37,0,0.54-0.19,0.54-0.55c0-0.42-0.01-0.83,0.01-1.25
		c0-0.16-0.06-0.39,0.18-0.44c0.19-0.04,0.25,0.15,0.34,0.28c0.18,0.29,0.42,0.55,0.53,0.86c0.38,1.13,1.24,1.23,2.22,1.1
		c0.02,0,0.04,0,0.06,0c0.42-0.01,0.51-0.2,0.34-0.58c-0.25-0.58-0.5-1.17-0.91-1.66c-0.23-0.28-0.21-0.45,0.07-0.68
		c0.62-0.51,0.76-1.21,0.53-1.94c-0.25-0.77-0.9-1.07-1.67-1.09c-0.51-0.02-1.03,0-1.54,0c0,0,0-0.01,0-0.01
		c-0.51,0-1.03,0.03-1.54-0.01c-0.45-0.03-0.58,0.13-0.57,0.58C69.56,9.06,69.56,10.43,69.55,11.8z"/>
	<path class="st0" d="M83.59,13.16c0.65,0.13,1.3,0.05,1.95-0.07c1.38-0.25,1.79-0.74,1.79-2.13c0-1.57,0.13-1.42-1.45-1.43
		c-0.26,0-0.52,0-0.77,0c-0.69,0.01-0.76,0.12-0.78,0.8c-0.02,0.55,0.24,0.69,0.73,0.66c0.15-0.01,0.33-0.03,0.42,0.15
		c0.04,0.1-0.01,0.19-0.1,0.25c-0.69,0.44-1.79,0.36-2-0.55c-0.13-0.56-0.15-1.14,0.1-1.69c0.24-0.5,1.06-0.81,1.4-0.43
		c0.51,0.56,1.06,0.41,1.63,0.32c0.72-0.11,0.85-0.38,0.46-1c-0.1-0.16-0.25-0.31-0.39-0.44C85.95,7.02,85.18,7.03,84.4,7
		c-2.03-0.06-3.3,1.33-3.15,3.41C81.37,11.94,82.16,12.88,83.59,13.16z"/>
	<path class="st0" d="M128.88,13.21c1.94,0.02,3.07-1.09,3.09-3.04c0.02-1.98-1.09-3.13-3.04-3.15c-1.98-0.02-3.14,1.1-3.16,3.05
		C125.75,12.06,126.86,13.19,128.88,13.21z M128.05,9.11c0.23-0.32,0.54-0.53,0.96-0.45c0.58,0.1,0.79,0.55,0.96,1.03
		c0.04,0.13,0.03,0.27,0.04,0.41c0.01,0.37-0.13,0.71-0.31,1.01c-0.35,0.58-1.28,0.57-1.67,0C127.74,10.68,127.74,9.54,128.05,9.11z
		"/>
	<path class="st0" d="M99.65,10.06C99.65,10.06,99.65,10.06,99.65,10.06c0,0.81,0.02,1.62,0,2.44c-0.01,0.41,0.15,0.6,0.54,0.6
		c0.89,0,1.79,0.04,2.67-0.02c1.22-0.08,1.98-0.73,2.19-1.82c0.13-0.7,0.18-1.41,0.04-2.12c-0.24-1.15-1.04-1.91-2.2-1.97
		c-0.91-0.05-1.82-0.01-2.73-0.02c-0.37,0-0.52,0.15-0.51,0.55C99.67,8.47,99.65,9.27,99.65,10.06z M101.65,9.35
		c0.01-0.25-0.02-0.55,0.32-0.62c0.34-0.07,0.67-0.04,0.91,0.28c0.32,0.44,0.38,1.59,0.1,2.05c-0.2,0.34-0.51,0.49-0.9,0.45
		c-0.44-0.04-0.34-0.43-0.39-0.69c-0.05-0.29-0.04-0.59-0.05-0.89c0,0,0.01,0,0.01,0C101.65,9.75,101.64,9.55,101.65,9.35z"/>
	<path class="st0" d="M171.99,13.1c0.61-0.02,1.23,0,1.84-0.01c0.65,0,1.31-0.01,1.96,0c0.55,0.01,0.58-0.35,0.58-0.76
		c0-0.42-0.01-0.81-0.6-0.8c-0.61,0.01-1.23,0-1.84,0c-0.27,0-0.53-0.02-0.55-0.39c-0.01-0.39,0.25-0.44,0.55-0.44
		c0.55,0,1.11,0.02,1.66-0.02c0.62-0.05,0.51-0.55,0.5-0.96c-0.01-0.39-0.23-0.53-0.63-0.51c-0.53,0.02-1.07-0.02-1.6-0.05
		c-0.2-0.01-0.44-0.01-0.45-0.27c-0.02-0.32,0.25-0.31,0.47-0.31c0.61-0.01,1.23-0.01,1.84,0c0.48,0.01,0.54-0.31,0.53-0.68
		c-0.01-0.35,0.08-0.77-0.47-0.78c-1.35-0.01-2.69,0-4.04,0c-0.3,0-0.47,0.14-0.47,0.47c0,1.58-0.01,3.16-0.03,4.74
		C171.24,12.88,171.45,13.12,171.99,13.1z"/>
	<path class="st0" d="M105.83,10.08c0.01,0,0.01,0,0.02,0c0,0.79,0.02,1.58-0.01,2.38c-0.02,0.5,0.19,0.66,0.66,0.65
		c1.15-0.02,2.3-0.01,3.45-0.01c0.96,0,0.94,0,0.99-0.96c0.03-0.45-0.13-0.61-0.56-0.6c-0.63,0.01-1.27,0-1.9,0
		c-0.27,0-0.53-0.01-0.55-0.38c-0.02-0.39,0.24-0.45,0.55-0.45c0.55,0,1.11,0.01,1.66-0.01c0.62-0.01,0.51-0.48,0.52-0.86
		c0-0.37-0.1-0.72-0.56-0.64c-0.56,0.1-1.11-0.03-1.66-0.01c-0.2,0.01-0.48,0.1-0.49-0.24c-0.02-0.34,0.25-0.35,0.5-0.35
		c0.61,0,1.23-0.01,1.84,0c0.52,0.01,0.62-0.29,0.62-0.72c0.01-0.44-0.08-0.74-0.61-0.74c-1.31,0.01-2.61,0.01-3.92,0
		c-0.45,0-0.57,0.22-0.55,0.63C105.84,8.53,105.83,9.31,105.83,10.08z"/>
	<path class="st0" d="M135.76,10.1c0,0.79,0,1.58,0,2.38c0,0.36,0.1,0.62,0.53,0.62c1.35,0,2.7,0.03,4.04-0.02
		c0.76-0.02,0.38-0.68,0.47-1.06c0.09-0.38-0.18-0.47-0.5-0.47c-0.63,0-1.27,0-1.9-0.01c-0.28,0-0.58,0.02-0.59-0.4
		c-0.01-0.4,0.27-0.43,0.57-0.43c0.53,0,1.07-0.01,1.6,0c0.56,0,0.56-0.37,0.56-0.77c0-0.41-0.04-0.77-0.58-0.76
		c-0.55,0.01-1.11,0-1.66-0.01c-0.2,0-0.44,0-0.45-0.27c-0.02-0.32,0.25-0.3,0.47-0.31c0.61-0.01,1.23-0.02,1.84,0
		c0.59,0.02,0.61-0.36,0.62-0.78c0.01-0.42-0.09-0.68-0.59-0.68c-1.27,0.02-2.54,0.01-3.8,0c-0.47,0-0.63,0.21-0.63,0.65
		C135.77,8.55,135.76,9.33,135.76,10.1z"/>
	<path class="st0" d="M76.3,13.1c1.29-0.02,2.58-0.02,3.86,0c0.57,0.01,0.62-0.34,0.62-0.78c0-0.44-0.03-0.8-0.61-0.78
		c-0.65,0.02-1.31,0-1.96-0.01c-0.29,0-0.51-0.1-0.5-0.45c0.01-0.34,0.25-0.37,0.5-0.37c0.55-0.01,1.11-0.01,1.66-0.01
		c0.65,0,0.56-0.47,0.57-0.88c0.01-0.43-0.17-0.61-0.61-0.59c-0.53,0.03-1.07,0.07-1.6-0.03c-0.22-0.04-0.54-0.01-0.5-0.37
		c0.03-0.31,0.32-0.25,0.52-0.25c0.59-0.01,1.2-0.05,1.78,0.02c0.68,0.08,0.6-0.34,0.65-0.77c0.06-0.48-0.11-0.71-0.6-0.71
		c-1.27,0.01-2.54,0.01-3.81,0c-0.46,0-0.64,0.2-0.64,0.65c0.01,0.77,0,1.55,0,2.32c0,0.77,0.01,1.55-0.01,2.32
		C75.64,12.87,75.8,13.11,76.3,13.1z"/>
	<path class="st0" d="M190.98,13.1c1.29-0.01,2.58-0.01,3.87,0c0.57,0.01,0.58-0.35,0.57-0.75c-0.01-0.4,0.06-0.83-0.56-0.82
		c-0.63,0.02-1.27,0-1.9,0c-0.28,0-0.52-0.05-0.52-0.41c0-0.36,0.23-0.42,0.52-0.42c0.56,0,1.11,0,1.67-0.01
		c0.66-0.01,0.53-0.5,0.55-0.9c0.01-0.41-0.16-0.62-0.6-0.61c-0.55,0.02-1.11-0.01-1.66-0.03c-0.2-0.01-0.43-0.03-0.43-0.29
		c0-0.28,0.23-0.29,0.43-0.29c0.61,0,1.23-0.02,1.84,0.03c0.48,0.03,0.66-0.16,0.65-0.61c-0.01-0.42,0.07-0.88-0.58-0.88
		c-0.65,0-1.31,0-1.96,0c0,0,0,0,0,0c-0.65,0-1.31,0-1.96,0c-0.32,0-0.52,0.09-0.52,0.47c0.02,1.63,0.02,3.25,0.02,4.88
		C190.38,12.91,190.55,13.1,190.98,13.1z"/>
	<path class="st0" d="M145.94,53.77c-0.19-0.47-0.56-0.66-1.04-0.64c-0.51,0.02-0.91,0.22-1.11,0.74c-0.69,1.77-1.38,3.54-2.08,5.31
		c-0.08,0.21-0.13,0.42-0.1,0.64c0.04,0.35,0.2,0.6,0.57,0.67c0.36,0.07,0.68,0.02,0.85-0.35c0.13-0.27,0.22-0.55,0.35-0.82
		c0.09-0.19,0.13-0.46,0.39-0.49c0.75-0.08,1.52-0.14,2.25,0.02c0.5,0.11,0.45,0.74,0.68,1.12c0.02,0.03,0.03,0.07,0.05,0.11
		c0.2,0.41,0.57,0.48,0.96,0.4c0.4-0.09,0.57-0.39,0.58-0.84c-0.02-0.08-0.02-0.2-0.06-0.31C147.45,57.48,146.69,55.63,145.94,53.77
		z M145.14,57.46c-0.97,0.12-1.09-0.01-0.76-0.93c0.14-0.39,0.31-0.76,0.54-1.31c0.25,0.66,0.43,1.15,0.62,1.65
		C145.68,57.26,145.52,57.41,145.14,57.46z"/>
	<path class="st0" d="M156.86,13.1c1.27-0.01,2.54-0.01,3.8,0c0.41,0,0.66-0.13,0.61-0.58c-0.05-0.41,0.15-0.99-0.6-0.98
		c-0.63,0-1.27,0-1.9-0.01c-0.29,0-0.51-0.08-0.5-0.44c0.01-0.32,0.23-0.38,0.49-0.39c0.46,0,0.91,0,1.37-0.01
		c0.75-0.01,0.87-0.11,0.87-0.78c0-0.65-0.11-0.75-0.9-0.75c-0.48,0-0.95,0-1.43-0.01c-0.19,0-0.37-0.06-0.37-0.29
		c0-0.24,0.19-0.28,0.38-0.28c0.61,0,1.23-0.05,1.84,0.01c0.8,0.08,0.57-0.49,0.64-0.9c0.08-0.48-0.18-0.58-0.58-0.58
		c-1.29,0.01-2.57,0.01-3.86-0.01c-0.42-0.01-0.5,0.2-0.5,0.55c0.01,0.79,0,1.58,0,2.38c0,0,0,0,0,0c0,0.81,0.01,1.62-0.01,2.44
		C156.2,12.95,156.41,13.11,156.86,13.1z"/>
	<path class="st0" d="M91.23,10.04C91.23,10.04,91.23,10.04,91.23,10.04c0.01,0.81,0.02,1.62,0.01,2.44
		c-0.01,0.41,0.12,0.63,0.57,0.62c1.29-0.01,2.57-0.01,3.86,0c0.63,0.01,0.6-0.41,0.62-0.84c0.01-0.44-0.06-0.74-0.6-0.72
		c-0.63,0.02-1.27,0-1.9,0c-0.26,0-0.47-0.06-0.49-0.38c-0.01-0.35,0.2-0.44,0.49-0.44c0.51,0,1.03,0,1.54,0
		c0.62-0.01,0.72-0.16,0.69-0.88c-0.02-0.51-0.25-0.72-0.76-0.62c-0.45,0.09-0.91,0.07-1.36-0.02c-0.23-0.04-0.61,0.06-0.56-0.34
		c0.04-0.37,0.4-0.25,0.63-0.25c0.55-0.02,1.11-0.02,1.66,0c0.52,0.02,0.63-0.27,0.63-0.71c0-0.42-0.06-0.75-0.59-0.75
		c-1.31,0.01-2.61,0.01-3.92,0c-0.42,0-0.54,0.19-0.52,0.59C91.24,8.5,91.23,9.27,91.23,10.04z"/>
	<path class="st0" d="M112.85,13.07c0.8,0.22,1.61,0.18,2.41,0c0.8-0.19,1.44-0.96,1.52-1.78c0.08-0.82-0.34-1.48-1.18-1.87
		c-0.51-0.24-1.07-0.3-1.6-0.45c-0.19-0.06-0.51-0.07-0.4-0.38c0.1-0.28,0.39-0.21,0.62-0.13c0.16,0.05,0.27,0.16,0.35,0.31
		c0.13,0.28,0.38,0.32,0.65,0.31c0.26-0.01,0.51-0.05,0.77-0.06c0.6-0.02,0.7-0.17,0.47-0.72c-0.46-1.13-1.44-1.23-2.5-1.28
		c-0.21,0.02-0.47,0.02-0.73,0.06c-1,0.18-1.66,0.84-1.72,1.7c-0.05,0.74,0.49,1.42,1.44,1.75c0.43,0.15,0.88,0.24,1.31,0.38
		c0.25,0.08,0.54,0.18,0.46,0.51c-0.07,0.3-0.36,0.34-0.62,0.35c-0.25,0-0.48-0.1-0.61-0.31c-0.2-0.33-0.37-0.66-0.86-0.58
		c-0.37,0.06-0.75,0.07-1.12,0.15c-0.23,0.05-0.18,0.27-0.15,0.45C111.55,12.28,112.03,12.84,112.85,13.07z"/>
	<path class="st0" d="M142.49,12.97c0.84,0.28,1.71,0.34,2.58,0.11c0.91-0.24,1.58-0.99,1.61-1.77c0.04-1.01-0.45-1.69-1.49-2.03
		c-0.45-0.15-0.92-0.24-1.38-0.37c-0.15-0.04-0.36-0.08-0.33-0.28c0.03-0.24,0.27-0.18,0.44-0.19c0.18-0.01,0.34,0.06,0.47,0.21
		c0.33,0.37,1.5,0.52,1.9,0.26c0.16-0.11,0.17-0.25,0.13-0.42c-0.06-0.29-0.18-0.56-0.38-0.79c-0.54-0.61-1.25-0.71-2.07-0.7
		c-0.35-0.02-0.76,0.03-1.16,0.15c-0.76,0.23-1.29,0.83-1.34,1.5c-0.06,0.8,0.29,1.33,1.09,1.74c0.49,0.25,1.03,0.29,1.53,0.46
		c0.28,0.09,0.65,0.18,0.5,0.58c-0.15,0.39-0.51,0.38-0.86,0.26c-0.2-0.07-0.32-0.22-0.43-0.39c-0.26-0.43-1.59-0.57-1.94-0.22
		c-0.13,0.13-0.13,0.29-0.08,0.44C141.49,12.17,141.81,12.75,142.49,12.97z"/>
	<path class="st0" d="M197.24,13.02c0.76,0.23,1.52,0.26,2.29,0.09c1-0.23,1.66-0.9,1.71-1.73c0.06-1.15-0.34-1.73-1.5-2.1
		c-0.45-0.15-0.92-0.25-1.38-0.37c-0.14-0.04-0.28-0.09-0.28-0.26c0.01-0.2,0.17-0.25,0.34-0.27c0.19-0.02,0.41,0.01,0.49,0.16
		c0.35,0.71,0.94,0.52,1.5,0.44c0.61-0.08,0.73-0.3,0.47-0.87c-0.12-0.26-0.29-0.47-0.52-0.64c-0.56-0.41-1.22-0.43-1.96-0.47
		c-0.21,0.02-0.52,0.01-0.8,0.08c-1.23,0.28-1.88,1.37-1.44,2.39c0.28,0.65,0.85,0.92,1.46,1.12c0.39,0.13,0.81,0.2,1.21,0.32
		c0.22,0.07,0.38,0.22,0.35,0.48c-0.03,0.27-0.24,0.35-0.47,0.37c-0.43,0.04-0.72-0.18-0.89-0.55c-0.08-0.17-0.15-0.31-0.36-0.35
		c-0.34-0.07-1.55,0.13-1.58,0.31c-0.1,0.59,0.22,1.02,0.6,1.42C196.69,12.79,196.95,12.94,197.24,13.02z"/>
	<path class="st0" d="M151.62,12.52c0.1-0.23,0.24-0.36,0.49-0.36c0.36,0,0.71,0,1.07,0c0.17,0,0.35,0.06,0.38,0.23
		c0.13,0.72,0.64,0.76,1.13,0.7c0.25,0,0.41,0.01,0.57,0c0.58-0.02,0.66-0.15,0.45-0.7c-0.6-1.59-1.22-3.18-1.8-4.78
		c-0.11-0.3-0.25-0.53-0.58-0.47c-0.61,0.1-1.31-0.31-1.84,0.29c-0.01,0.01-0.01,0.04-0.02,0.05c-0.65,1.68-1.29,3.36-1.93,5.05
		c-0.07,0.18-0.07,0.35,0.11,0.48C150.08,13.35,151.4,13.03,151.62,12.52z"/>
	<path class="st0" d="M138.49,53.16c-0.47,0.08-0.61,0.44-0.74,0.83c-0.46,1.41-0.92,2.82-1.39,4.22c-0.04,0.01-0.08,0.01-0.12,0.02
		c-0.11-0.34-0.22-0.67-0.33-1.01c-0.39-1.16-0.78-2.32-1.18-3.48c-0.18-0.51-0.54-0.72-1.07-0.57c-0.56,0.16-0.55,0.6-0.47,1.05
		c0.03,0.14,0.05,0.27,0.1,0.4c0.62,1.69,1.23,3.38,1.86,5.07c0.19,0.51,0.53,0.8,1.12,0.8c0.59,0.01,0.93-0.25,1.12-0.78
		c0.29-0.8,0.59-1.6,0.88-2.4c0.38-1.02,0.78-2.03,1.12-3.07C139.62,53.52,139.2,53.04,138.49,53.16z"/>
	<path class="st0" d="M121.23,11.88c0.51,1.25,0.53,1.22,1.88,1.23c0.53,0,0.77-0.21,0.94-0.69c0.48-1.32,0.99-2.63,1.51-3.93
		c0.51-1.26,0.45-1.35-0.91-1.36c-0.51,0-0.79,0.15-0.93,0.67c-0.26,0.95-0.59,1.89-0.91,2.88c-0.21-0.12-0.21-0.31-0.26-0.46
		c-0.19-0.6-0.36-1.22-0.57-1.81c-0.47-1.35-0.48-1.35-1.9-1.28c-0.02,0-0.04,0-0.06,0c-0.41,0.01-0.6,0.16-0.41,0.59
		C120.24,9.08,120.67,10.5,121.23,11.88z"/>
	<path class="st0" d="M88.16,11.72c0,1.46,0,1.46,1.46,1.38c0.46-0.02,0.62-0.22,0.61-0.67c-0.02-0.79-0.01-1.59-0.01-2.38
		c-0.01,0-0.02,0-0.02,0c0-0.56,0-1.11,0-1.67c0-1.28,0-1.26-1.31-1.26c-0.59,0-0.75,0.25-0.74,0.79
		C88.18,9.18,88.17,10.45,88.16,11.72z"/>
	<path class="st0" d="M168.25,11.76c0,1.42,0,1.41,1.42,1.34c0.46-0.02,0.63-0.22,0.62-0.66c-0.01-0.77,0-1.54,0-2.31
		c0-0.57,0-1.15,0-1.72c0-1.3,0-1.28-1.3-1.29c-0.58,0-0.75,0.23-0.74,0.78C168.27,9.19,168.25,10.48,168.25,11.76z"/>
	<path class="st0" d="M132.75,10.06C132.76,10.06,132.76,10.06,132.75,10.06c0.01,0.57,0,1.15,0.01,1.72
		c0.02,1.42-0.22,1.31,1.42,1.32c0.43,0,0.59-0.17,0.59-0.61c-0.01-1.31,0.03-2.61,0.03-3.92c0-1.55,0.24-1.45-1.55-1.45
		c-0.38,0-0.52,0.18-0.51,0.55C132.77,8.48,132.75,9.27,132.75,10.06z"/>
	<path class="st0" d="M148.74,18.6c0.92,1.06,2.12,1.71,3.35,2.31c0.16,0.08,0.35,0.15,0.39-0.18c-0.1-0.21-0.18-0.46-0.31-0.67
		c-1.03-1.62-2.52-2.66-4.3-3.31c-0.11-0.04-0.24-0.08-0.33,0.03c-0.11,0.14-0.02,0.26,0.07,0.37
		C147.98,17.63,148.34,18.14,148.74,18.6z"/>
	<path class="st0" d="M117.58,20.95c0.12,0.12,0.26,0.04,0.39-0.02c1.85-0.8,3.28-2.1,4.45-3.72c0.06-0.08,0.11-0.17,0.06-0.27
		c-0.06-0.14-0.18-0.13-0.33-0.13c-0.55,0.12-1.06,0.39-1.55,0.67c-1.28,0.73-2.34,1.69-2.99,3.04
		C117.54,20.65,117.43,20.8,117.58,20.95z"/>
	<path class="st0" d="M158.4,7.03c0.29,0,1.46-0.84,1.53-1.11c0.07-0.26-0.13-0.29-0.31-0.32c-0.87-0.16-1.19,0-1.6,0.8
		C157.78,6.89,157.87,7.04,158.4,7.03z"/>
	<path class="st0" d="M77.85,7.03c0.36,0.02,1.39-0.72,1.52-1.09c0.07-0.2-0.02-0.31-0.21-0.33c-0.16-0.02-0.31,0-0.47,0
		c-0.72-0.02-0.71-0.01-1.18,0.82C77.28,6.85,77.42,7.01,77.85,7.03z"/>
	<g>
		<path class="st0" d="M143.68,22.15c-7.38,0-14.75,0-22.13,0c-1,0-1.03,0.03-1.03,1.04c0,2.16,0.03,4.32-0.01,6.49
			c-0.03,1.6,0.07,3.2-0.13,4.81L143.68,22.15z M124.36,25.14l0.69-1.4l0.69,1.4l1.54,0.22l-1.12,1.09l0.26,1.54l-1.38-0.73
			l-1.38,0.73l0.26-1.54l-1.12-1.09L124.36,25.14z"/>
		<path class="st0" d="M148.57,22.23c-1.14-0.04-2.29-0.06-3.43-0.07l-24.83,13.15c-0.04,0.97,0.16,1.97,0.22,2.96
			c0.02,0.39,0.29,0.43,0.59,0.41c0.51-0.03,1.03-0.09,1.54-0.09c1.57,0,3.14,0,4.71,0l22.57-11.95c0-0.99,0-1.98,0-2.97
			C149.95,22.23,149.94,22.28,148.57,22.23z"/>
	</g>
</g>
</svg>
