<?xml version="1.0" encoding="utf-8"?>
<!-- Generator: Adobe Illustrator 23.0.0, SVG Export Plug-In . SVG Version: 6.00 Build 0)  -->
<svg version="1.1" id="Calque_1" xmlns="http://www.w3.org/2000/svg" xmlns:xlink="http://www.w3.org/1999/xlink" x="0px" y="0px"
	 viewBox="0 0 270 66.1" style="enable-background:new 0 0 270 66.1;" xml:space="preserve">
<style type="text/css">
	.st0{fill:#FFFFFF;}
	.st1{fill:url(#SVGID_1_);}
	.st2{fill:url(#SVGID_2_);}
	.st3{fill:url(#SVGID_3_);}
	.st4{fill:url(#SVGID_4_);}
	.st5{fill:url(#SVGID_5_);}
	.st6{fill:url(#SVGID_6_);}
	.st7{fill:url(#SVGID_7_);}
	.st8{fill:url(#SVGID_8_);}
	.st9{fill:url(#SVGID_9_);}
	.st10{fill:url(#SVGID_10_);}
	.st11{fill:url(#SVGID_11_);}
	.st12{fill:url(#SVGID_12_);}
	.st13{fill:url(#SVGID_13_);}
	.st14{fill:url(#SVGID_14_);}
	.st15{fill:url(#SVGID_15_);}
	.st16{fill:url(#SVGID_16_);}
	.st17{fill:url(#SVGID_17_);}
	.st18{fill:url(#SVGID_18_);}
	.st19{fill:url(#SVGID_19_);}
	.st20{fill:url(#SVGID_20_);}
	.st21{fill:url(#SVGID_21_);}
	.st22{fill:url(#SVGID_22_);}
	.st23{fill:url(#SVGID_23_);}
	.st24{fill:url(#SVGID_24_);}
	.st25{fill:url(#SVGID_25_);}
	.st26{fill:url(#SVGID_26_);}
	.st27{fill:url(#SVGID_27_);}
	.st28{fill:url(#SVGID_28_);}
	.st29{fill:url(#SVGID_29_);}
	.st30{fill:url(#SVGID_30_);}
	.st31{fill:url(#SVGID_31_);}
	.st32{fill:url(#SVGID_32_);}
	.st33{clip-path:url(#XMLID_2_);fill:#FFFFFF;}
	.st34{clip-path:url(#XMLID_3_);fill:#FFFFFF;}
	.st35{clip-path:url(#XMLID_4_);fill:#FFFFFF;}
	.st36{clip-path:url(#XMLID_5_);fill:#FFFFFF;}
	.st37{clip-path:url(#XMLID_6_);fill:#FFFFFF;}
	.st38{clip-path:url(#XMLID_7_);fill:#FFFFFF;}
	.st39{clip-path:url(#XMLID_8_);fill:#FFFFFF;}
	.st40{clip-path:url(#XMLID_9_);fill:#FFFFFF;}
	.st41{clip-path:url(#XMLID_10_);fill:#FFFFFF;}
	.st42{clip-path:url(#XMLID_11_);fill:#FFFFFF;}
	.st43{clip-path:url(#XMLID_12_);fill:#FFFFFF;}
	.st44{clip-path:url(#XMLID_13_);fill:#FFFFFF;}
	.st45{clip-path:url(#XMLID_14_);fill:#FFFFFF;}
</style>
<g>
	<g>
		<g>
			<path class="st0" d="M102.71,32.15c0.17-0.21,0.26-0.47,0.26-0.77c0-0.54-0.29-1.21-0.86-1.99c-0.57-0.78-1.35-1.61-2.34-2.5
				c-0.4-0.36-0.7-0.8-0.9-1.32c-0.2-0.52-0.3-1.09-0.3-1.71c0-1.12,0.31-2.11,0.92-2.99c0.67-0.96,1.58-1.52,2.73-1.7
				c0.24-0.03,0.51,0.06,0.79,0.26c0.26,0.21,0.52,0.43,0.79,0.64c0.34,0.23,0.69,0.46,1.05,0.69c0.33,0.24,0.58,0.54,0.76,0.89
				c0.18,0.35,0.27,0.81,0.27,1.39c0,0.53-0.07,0.98-0.23,1.35s-0.34,0.53-0.57,0.47c-0.34-0.09-0.58-0.15-0.71-0.19
				c-0.36-0.11-0.68-0.3-0.96-0.57c-0.28-0.26-0.45-0.72-0.5-1.37c-0.06-0.65-0.15-1.06-0.28-1.23c-0.13-0.17-0.39-0.09-0.77,0.26
				c-0.8,0.72-1.2,1.47-1.2,2.28c0,0.14,0.01,0.24,0.02,0.3c0.16,0.73,0.67,1.5,1.52,2.3c1.49,1.39,2.24,2.09,2.25,2.1
				c0.79,0.9,1.18,1.83,1.18,2.79c0,0.9-0.29,1.67-0.87,2.3c-0.58,0.63-1.33,1.03-2.24,1.2c-0.17,0.03-0.31,0.04-0.41,0.04
				c-0.93,0-1.91-0.44-2.94-1.33c-1.03-0.89-1.55-1.67-1.55-2.34c0-0.26,0-0.52,0-0.77c0.03-0.19,0.12-0.31,0.28-0.37
				c0.23-0.1,0.74,0.28,1.52,1.14c0.86,0.93,1.55,1.4,2.08,1.4c0.21,0,0.42-0.05,0.6-0.14C102.32,32.56,102.51,32.39,102.71,32.15z"
				/>
			<path class="st0" d="M114.2,27.08c-0.47,0.6-1.12,1.15-1.93,1.65c-0.72,0.44-1.37,0.67-1.95,0.67l0.02,5.56
				c0,0.14-0.1,0.21-0.3,0.21c-0.13,0-0.24-0.02-0.32-0.06c-0.09-0.03-0.35-0.11-0.78-0.26c-0.44-0.14-0.66-0.42-0.66-0.82
				l-0.04-12.65c0-0.14,0-0.25,0-0.32c0-0.2,0.02-0.36,0.05-0.48c0.04-0.12,0.13-0.23,0.28-0.33c0.15-0.1,0.3-0.15,0.44-0.15h1.18
				c0.79,0,1.47,0.14,2.06,0.41c0.49,0.23,1.11,0.65,1.87,1.27c0.37,0.3,0.65,0.68,0.84,1.13c0.19,0.45,0.28,0.91,0.28,1.39
				C115.23,25.35,114.89,26.28,114.2,27.08z M110.27,21.13l-0.04,6.59c0.82-0.19,1.46-0.6,1.92-1.26c0.47-0.65,0.7-1.42,0.7-2.31
				c0-1.03-0.24-1.77-0.71-2.21C111.8,21.62,111.17,21.35,110.27,21.13z"/>
			<path class="st0" d="M117.53,34l-0.06-13.29c0-0.14,0.07-0.25,0.21-0.32c0.14-0.07,0.31-0.11,0.49-0.11
				c0.13,0,0.22,0.01,0.28,0.02c0.43,0.09,0.74,0.18,0.95,0.27c0.2,0.09,0.3,0.27,0.3,0.53l-0.02,13.68c0,0.2-0.16,0.3-0.47,0.3
				c-0.1,0-0.21-0.01-0.32-0.04c-0.47-0.11-0.73-0.18-0.77-0.19C117.72,34.71,117.53,34.43,117.53,34z"/>
			<path class="st0" d="M126.7,19.76c0.11-0.06,0.26-0.05,0.45,0.02c0.3,0.14,0.6,0.29,0.9,0.43c0.34,0.07,0.62,0.17,0.83,0.3
				c0.21,0.13,0.36,0.32,0.47,0.57c0.11,0.25,0.21,0.48,0.3,0.69c0.09,0.21,0.21,0.71,0.35,1.51c0.04,0.21,0.06,0.41,0.06,0.58
				c0,0.47-0.12,0.83-0.35,1.08c-0.24,0.25-0.54,0.38-0.91,0.38c-0.11,0-0.2-0.01-0.26-0.02c-0.29-0.06-0.51-0.18-0.67-0.36
				c-0.16-0.19-0.29-0.44-0.41-0.77c-0.04-0.1-0.07-0.21-0.09-0.34c-0.01-0.13-0.02-0.2-0.02-0.21c0-0.24,0.01-0.49,0.02-0.75
				c-0.04-0.26-0.14-0.39-0.28-0.39c-0.33,0-0.82,0.6-1.46,1.79c-0.64,1.2-1.05,2.22-1.2,3.06c-0.09,0.46-0.16,0.93-0.21,1.43
				c-0.06,0.49-0.09,0.97-0.09,1.43c0,0.96,0.13,1.68,0.39,2.17c0.31,0.62,0.84,0.92,1.57,0.92c0.31,0,0.77-0.26,1.37-0.77
				c0.6-0.52,1.04-1,1.32-1.45c0.28-0.45,0.47-0.78,0.58-0.99c0.11-0.21,0.21-0.48,0.31-0.81l0.82,0.67c0,0.62-0.04,1.11-0.12,1.47
				c-0.08,0.37-0.25,0.79-0.53,1.28c-0.4,0.74-0.78,1.29-1.14,1.63c-0.49,0.46-1.07,0.72-1.74,0.77c-0.07,0.01-0.18,0.02-0.32,0.02
				c-0.59,0-1.15-0.19-1.7-0.56c-0.36-0.26-0.84-0.7-1.44-1.33c-0.53-0.56-0.91-1.14-1.13-1.74c-0.22-0.6-0.33-1.27-0.33-2
				c0-0.66,0.09-1.37,0.26-2.13c0.13-0.59,0.34-1.35,0.64-2.28c0.39-1.17,0.92-2.24,1.61-3.21
				C125.26,20.89,125.97,20.19,126.7,19.76z"/>
			<path class="st0" d="M137.33,34.4v0.58c-0.19,0.06-0.3,0.09-0.34,0.11c-0.13,0.03-0.25,0.03-0.37,0
				c-0.32-0.06-0.62-0.12-0.91-0.19c-0.29-0.07-0.56-0.21-0.81-0.41v-5.95l-3.31-8.46c0.13-0.03,0.31-0.04,0.54-0.04
				c0.21,0,0.47,0.04,0.75,0.13c0.46,0.16,0.82,0.46,1.07,0.9c0.26,0.62,0.46,1.09,0.6,1.42l1.46,3.2l3.11-7.43
				c0.13-0.01,0.22-0.02,0.28-0.02c0.24,0,0.52,0.08,0.84,0.24c0.4,0.23,0.69,0.54,0.86,0.92c-0.69,1.46-1.28,2.86-1.78,4.21
				c-0.63,1.5-1.07,2.58-1.31,3.24c-0.43,1.15-0.64,2.28-0.64,3.39L137.33,34.4z"/>
			<path class="st0" d="M151.5,35.31l-2.47-0.97V20.23l0.6-0.79c1.36,0,2.56,0.2,3.59,0.61c1.03,0.41,1.94,1.08,2.73,2.03
				c0.53,0.64,0.93,1.35,1.19,2.1c0.26,0.76,0.4,1.54,0.4,2.34c0,0.93-0.15,1.84-0.46,2.74c-0.31,0.9-0.76,1.78-1.35,2.66
				c-0.59,0.88-1.2,1.57-1.83,2.07C153.28,34.5,152.48,34.93,151.5,35.31z M151.29,21.15v11.9c1.22-0.76,2.13-1.74,2.73-2.94
				c0.56-1.12,0.84-2.41,0.84-3.87c0-0.87-0.13-1.71-0.39-2.51c-0.37-1.15-0.93-1.92-1.68-2.32c-0.19-0.1-0.35-0.17-0.5-0.2
				c-0.15-0.04-0.35-0.05-0.59-0.05C151.53,21.15,151.39,21.15,151.29,21.15z"/>
			<path class="st0" d="M169.07,24.1c-0.09,0.79-0.42,1.53-0.99,2.21c-0.46,0.54-1.15,1.13-2.08,1.76l-0.92,0.62l3.48,5.24
				c0.03,0.14,0.04,0.25,0.04,0.32c0,0.36-0.16,0.64-0.47,0.84c-0.16,0.09-0.31,0.13-0.45,0.13c-0.21,0-0.41-0.05-0.59-0.16
				c-0.18-0.11-0.34-0.26-0.48-0.46l-4.34-5.86l-0.11,6.01c0,0.21-0.17,0.32-0.52,0.32c-0.2,0-0.36-0.03-0.47-0.09
				c-0.27-0.09-0.51-0.17-0.71-0.25c-0.2-0.08-0.3-0.3-0.3-0.66l0.04-12.8c0-0.27,0.04-0.5,0.12-0.7c0.08-0.19,0.23-0.34,0.46-0.44
				c0.11-0.04,0.24-0.06,0.37-0.06c0.31,0,0.57,0.11,0.75,0.34c0.37-0.19,0.71-0.3,1.01-0.35c0.3-0.05,0.72-0.08,1.25-0.08h1.12
				c0.92,0,1.78,0.4,2.6,1.2c0.82,0.8,1.22,1.68,1.22,2.62C169.08,23.95,169.07,24.04,169.07,24.1z M162.31,27.4
				c0.76-0.19,1.34-0.43,1.74-0.74c0.4-0.31,0.73-0.56,0.99-0.76c0.56-0.44,1-0.94,1.32-1.48c0.32-0.54,0.48-1.1,0.48-1.67
				c0-0.34-0.17-0.6-0.52-0.78c-0.34-0.18-0.77-0.27-1.27-0.27c-0.59,0-1.15,0.09-1.67,0.28c-0.53,0.19-0.85,0.42-0.95,0.69
				L162.31,27.4z"/>
			<path class="st0" d="M171.31,34.13l0.28-14l1.22,0.3l4.32-0.28c0.42,0,0.77,0.17,1.06,0.52c0.29,0.34,0.44,0.71,0.44,1.1
				c0.01,0.17-0.21,0.31-0.69,0.41c-0.21,0.04-0.66,0.1-1.33,0.17l-3.01,0.28v3.59l3.2-0.09c0.11,0,0.23,0,0.33,0
				s0.22-0.01,0.33-0.02c0.16,0,0.27,0.01,0.34,0.02c0.1,0.03,0.21,0.09,0.34,0.17c0.37,0.29,0.56,0.66,0.56,1.12
				c0,0.23-0.04,0.42-0.11,0.56l-5.18,0.58l0.02,4.27l3.24-0.26c0.31-0.03,0.64,0.08,0.99,0.32c0.23,0.19,0.39,0.32,0.49,0.39
				c0.19,0.14,0.28,0.37,0.28,0.67c0,0.16-0.02,0.32-0.06,0.47l-5.58,0.6c-0.14,0-0.28-0.02-0.41-0.06
				c-0.19-0.09-0.34-0.16-0.46-0.21c-0.12-0.06-0.26-0.13-0.41-0.23C171.38,34.41,171.31,34.28,171.31,34.13z"/>
			<path class="st0" d="M185.18,32.15c0.17-0.21,0.26-0.47,0.26-0.77c0-0.54-0.29-1.21-0.86-1.99c-0.57-0.78-1.35-1.61-2.34-2.5
				c-0.4-0.36-0.7-0.8-0.9-1.32c-0.2-0.52-0.3-1.09-0.3-1.71c0-1.12,0.31-2.11,0.92-2.99c0.67-0.96,1.58-1.52,2.73-1.7
				c0.24-0.03,0.51,0.06,0.79,0.26c0.26,0.21,0.52,0.43,0.79,0.64c0.34,0.23,0.69,0.46,1.05,0.69c0.33,0.24,0.58,0.54,0.76,0.89
				c0.18,0.35,0.27,0.81,0.27,1.39c0,0.53-0.07,0.98-0.23,1.35c-0.15,0.37-0.34,0.53-0.57,0.47c-0.34-0.09-0.58-0.15-0.71-0.19
				c-0.36-0.11-0.68-0.3-0.96-0.57c-0.28-0.26-0.45-0.72-0.5-1.37c-0.06-0.65-0.15-1.06-0.28-1.23c-0.13-0.17-0.39-0.09-0.77,0.26
				c-0.8,0.72-1.2,1.47-1.2,2.28c0,0.14,0.01,0.24,0.02,0.3c0.16,0.73,0.67,1.5,1.52,2.3c1.49,1.39,2.24,2.09,2.25,2.1
				c0.79,0.9,1.18,1.83,1.18,2.79c0,0.9-0.29,1.67-0.87,2.3c-0.58,0.63-1.33,1.03-2.24,1.2c-0.17,0.03-0.31,0.04-0.41,0.04
				c-0.93,0-1.91-0.44-2.94-1.33c-1.03-0.89-1.55-1.67-1.55-2.34c0-0.26,0-0.52,0-0.77c0.03-0.19,0.12-0.31,0.28-0.37
				c0.23-0.1,0.74,0.28,1.52,1.14c0.86,0.93,1.55,1.4,2.08,1.4c0.21,0,0.42-0.05,0.6-0.14C184.79,32.56,184.98,32.39,185.18,32.15z"
				/>
			<path class="st0" d="M194.69,32.15c0.17-0.21,0.26-0.47,0.26-0.77c0-0.54-0.29-1.21-0.86-1.99c-0.57-0.78-1.35-1.61-2.34-2.5
				c-0.4-0.36-0.7-0.8-0.9-1.32c-0.2-0.52-0.3-1.09-0.3-1.71c0-1.12,0.31-2.11,0.92-2.99c0.67-0.96,1.58-1.52,2.73-1.7
				c0.24-0.03,0.51,0.06,0.79,0.26c0.26,0.21,0.52,0.43,0.79,0.64c0.34,0.23,0.69,0.46,1.05,0.69c0.33,0.24,0.58,0.54,0.76,0.89
				c0.18,0.35,0.27,0.81,0.27,1.39c0,0.53-0.07,0.98-0.23,1.35c-0.15,0.37-0.34,0.53-0.57,0.47c-0.34-0.09-0.58-0.15-0.71-0.19
				c-0.36-0.11-0.68-0.3-0.96-0.57c-0.28-0.26-0.45-0.72-0.5-1.37c-0.06-0.65-0.15-1.06-0.28-1.23c-0.13-0.17-0.39-0.09-0.77,0.26
				c-0.8,0.72-1.2,1.47-1.2,2.28c0,0.14,0.01,0.24,0.02,0.3c0.16,0.73,0.67,1.5,1.52,2.3c1.49,1.39,2.24,2.09,2.25,2.1
				c0.79,0.9,1.18,1.83,1.18,2.79c0,0.9-0.29,1.67-0.87,2.3c-0.58,0.63-1.33,1.03-2.24,1.2c-0.17,0.03-0.31,0.04-0.41,0.04
				c-0.93,0-1.91-0.44-2.94-1.33c-1.03-0.89-1.55-1.67-1.55-2.34c0-0.26,0-0.52,0-0.77c0.03-0.19,0.12-0.31,0.28-0.37
				c0.23-0.1,0.74,0.28,1.52,1.14c0.86,0.93,1.55,1.4,2.08,1.4c0.21,0,0.42-0.05,0.6-0.14C194.3,32.56,194.49,32.39,194.69,32.15z"
				/>
			<path class="st0" d="M200.32,34l-0.06-13.29c0-0.14,0.07-0.25,0.21-0.32c0.14-0.07,0.31-0.11,0.49-0.11
				c0.13,0,0.22,0.01,0.28,0.02c0.43,0.09,0.74,0.18,0.95,0.27c0.2,0.09,0.3,0.27,0.3,0.53l-0.02,13.68c0,0.2-0.16,0.3-0.47,0.3
				c-0.1,0-0.21-0.01-0.32-0.04c-0.47-0.11-0.73-0.18-0.77-0.19C200.51,34.71,200.32,34.43,200.32,34z"/>
			<path class="st0" d="M211.94,34.51l-3.99-7.32l0.02,9.15c0,0.16-0.06,0.29-0.19,0.39c-0.13,0.1-0.28,0.15-0.45,0.15
				c-0.04,0-0.09,0-0.13,0c-0.06-0.03-0.09-0.04-0.11-0.04c-0.37-0.16-0.74-0.31-1.1-0.45c-0.3-0.17-0.45-0.44-0.45-0.79l0.04-14.93
				c0-0.17,0.08-0.3,0.23-0.38c0.15-0.08,0.35-0.12,0.59-0.12c0.07,0,0.14,0,0.21,0c0.1,0.03,0.23,0.05,0.38,0.08
				c0.15,0.02,0.36,0.05,0.63,0.08c0.24,0.06,0.41,0.2,0.49,0.43l4.04,9.45l-0.02-10.78c0-0.19,0.07-0.32,0.21-0.4
				c0.14-0.08,0.33-0.12,0.56-0.12c0.24,0,0.47,0.04,0.69,0.11c0.21,0.07,0.46,0.15,0.73,0.24c0.13,0.09,0.19,0.32,0.19,0.69v14.88
				c0,0.19-0.09,0.32-0.27,0.41s-0.39,0.13-0.63,0.13c-0.07,0-0.14,0-0.22,0c-0.1-0.03-0.17-0.04-0.21-0.04
				c-0.33-0.06-0.59-0.14-0.77-0.25C212.23,34.95,212.07,34.77,211.94,34.51z"/>
			<path class="st0" d="M223.66,31.05c0.04-0.13,0.09-0.26,0.14-0.39c0.05-0.13,0.08-0.24,0.08-0.34c0-0.11-0.05-0.22-0.16-0.32
				c-0.11-0.1-0.25-0.15-0.44-0.15c-0.1,0-0.27,0.02-0.49,0.06c-0.23,0.04-0.42,0.06-0.56,0.06c-0.07,0-0.14,0-0.19,0
				c-0.11-0.01-0.23-0.06-0.34-0.13c-0.27-0.17-0.52-0.37-0.73-0.6c-0.27-0.29-0.41-0.51-0.41-0.67c0-0.11,0.07-0.18,0.21-0.19
				l3.78-0.62c0.11-0.01,0.23-0.03,0.33-0.05s0.23-0.03,0.35-0.03c0.27,0,0.52,0.09,0.73,0.26c0.14,0.11,0.25,0.28,0.32,0.48
				c0.07,0.21,0.11,0.41,0.11,0.61c0,0.42-0.13,1.01-0.39,1.78c-0.13,0.37-0.26,0.74-0.39,1.12c-0.19,0.57-0.56,1.2-1.12,1.87
				c-0.76,0.9-1.52,1.35-2.28,1.35c-0.1-0.01-0.18-0.02-0.24-0.02c-0.79-0.09-1.44-0.25-1.95-0.49c-0.67-0.31-1.2-0.77-1.59-1.37
				c-0.89-1.4-1.33-3.03-1.33-4.88c0-1.22,0.21-2.42,0.62-3.61c0.5-1.43,1.1-2.62,1.78-3.56c0.8-1.1,1.63-1.71,2.49-1.83
				c0.19-0.03,0.44,0.05,0.75,0.24c0.31,0.19,0.62,0.35,0.9,0.5c0.29,0.15,0.58,0.29,0.88,0.42c0.34,0.19,0.57,0.43,0.69,0.73
				c0.11,0.24,0.24,0.48,0.37,0.71c0.1,0.29,0.15,0.84,0.15,1.65c0,0.76-0.05,1.26-0.15,1.51c-0.1,0.25-0.37,0.48-0.79,0.68
				c-0.1,0.06-0.21,0.09-0.34,0.09c-0.14,0-0.28-0.03-0.42-0.09c-0.14-0.06-0.3-0.19-0.48-0.39c-0.19-0.2-0.31-0.39-0.38-0.58
				c-0.06-0.19-0.1-0.41-0.1-0.67c0-0.16,0.05-0.57,0.15-1.22c0.06-0.37,0.09-0.65,0.09-0.84c0-0.21-0.03-0.45-0.08-0.72
				c-0.05-0.26-0.19-0.4-0.42-0.4c-0.57,0-1.22,0.64-1.93,1.91c-0.82,1.45-1.22,2.94-1.22,4.49c0,1.9,0.06,3.24,0.17,3.99
				c0.23,1.55,0.72,2.45,1.48,2.71c0.17,0.04,0.49-0.19,0.97-0.69C222.88,32.79,223.34,32,223.66,31.05z"/>
		</g>
	</g>
	<g>
		<g>
			<rect x="97.64" y="44.29" class="st0" width="24.16" height="0.86"/>
			<rect x="202.23" y="44.29" class="st0" width="24.16" height="0.86"/>
		</g>
		<g>
			<path class="st0" d="M126.69,46.32l0.62-0.37c0.44,0.81,0.94,1.21,1.52,1.21c0.25,0,0.48-0.06,0.69-0.17
				c0.22-0.11,0.38-0.27,0.49-0.46c0.11-0.19,0.17-0.4,0.17-0.61c0-0.25-0.08-0.49-0.25-0.72c-0.23-0.32-0.65-0.72-1.25-1.17
				c-0.61-0.46-0.99-0.79-1.14-1c-0.26-0.34-0.39-0.72-0.39-1.12c0-0.32,0.08-0.61,0.23-0.87c0.15-0.26,0.37-0.47,0.64-0.62
				c0.28-0.15,0.58-0.23,0.9-0.23c0.34,0,0.67,0.09,0.97,0.26c0.3,0.17,0.62,0.48,0.95,0.94l-0.6,0.45
				c-0.28-0.36-0.51-0.61-0.7-0.72s-0.41-0.17-0.63-0.17c-0.3,0-0.54,0.09-0.72,0.27c-0.19,0.18-0.28,0.4-0.28,0.66
				c0,0.16,0.03,0.31,0.1,0.46c0.07,0.15,0.19,0.31,0.36,0.49c0.1,0.09,0.41,0.34,0.94,0.73c0.63,0.47,1.07,0.88,1.3,1.25
				c0.24,0.36,0.35,0.73,0.35,1.1c0,0.53-0.2,0.99-0.6,1.38c-0.4,0.39-0.89,0.59-1.47,0.59c-0.44,0-0.85-0.12-1.21-0.36
				C127.33,47.27,126.99,46.88,126.69,46.32z"/>
			<path class="st0" d="M134.61,41.08v-0.72h4.01v0.72h-1.63v6.6h-0.75v-6.6H134.61z"/>
			<path class="st0" d="M145.49,40.37l3.41,7.32h-0.79l-1.15-2.41h-3.15l-1.14,2.41h-0.82l3.46-7.32H145.49z M145.4,41.92
				l-1.25,2.65h2.5L145.4,41.92z"/>
			<path class="st0" d="M152.28,40.37h0.84l1.87,3.02l1.84-3.02h0.85l-2.32,3.82v3.5h-0.72v-3.5L152.28,40.37z"/>
			<path class="st0" d="M171.34,41.72l-0.58,0.44c-0.32-0.41-0.7-0.73-1.15-0.94c-0.45-0.21-0.94-0.32-1.47-0.32
				c-0.58,0-1.12,0.14-1.62,0.42c-0.5,0.28-0.88,0.66-1.16,1.13c-0.27,0.47-0.41,1-0.41,1.59c0,0.89,0.31,1.64,0.92,2.23
				c0.61,0.6,1.38,0.9,2.32,0.9c1.02,0,1.88-0.4,2.57-1.2l0.58,0.44c-0.36,0.46-0.82,0.82-1.37,1.08c-0.55,0.25-1.15,0.38-1.83,0.38
				c-1.28,0-2.29-0.43-3.03-1.28c-0.62-0.72-0.93-1.59-0.93-2.61c0-1.07,0.38-1.97,1.13-2.7c0.75-0.73,1.69-1.1,2.82-1.1
				c0.68,0,1.3,0.14,1.85,0.41C170.54,40.86,170.99,41.24,171.34,41.72z"/>
			<path class="st0" d="M175.62,40.37h0.73v3.07h3.73v-3.07h0.73v7.32h-0.73v-3.53h-3.73v3.53h-0.73V40.37z"/>
			<path class="st0" d="M185.3,40.37h0.73v7.32h-0.73V40.37z"/>
			<path class="st0" d="M197.35,41.72l-0.58,0.44c-0.32-0.41-0.7-0.73-1.15-0.94c-0.45-0.21-0.94-0.32-1.47-0.32
				c-0.58,0-1.12,0.14-1.62,0.42c-0.5,0.28-0.88,0.66-1.16,1.13c-0.27,0.47-0.41,1-0.41,1.59c0,0.89,0.31,1.64,0.92,2.23
				c0.61,0.6,1.38,0.9,2.32,0.9c1.02,0,1.88-0.4,2.57-1.2l0.58,0.44c-0.36,0.46-0.82,0.82-1.37,1.08c-0.55,0.25-1.15,0.38-1.83,0.38
				c-1.28,0-2.29-0.43-3.03-1.28c-0.62-0.72-0.93-1.59-0.93-2.61c0-1.07,0.38-1.97,1.13-2.7c0.75-0.73,1.69-1.1,2.82-1.1
				c0.68,0,1.3,0.14,1.85,0.41C196.54,40.86,196.99,41.24,197.35,41.72z"/>
		</g>
	</g>
	<g>
		<polygon class="st0" points="73.51,57.03 74.3,57.03 70.05,49.3 		"/>
		<polygon class="st0" points="63.24,57.03 63.83,57.03 64.82,50.23 		"/>
		<polygon class="st0" points="67.89,57.03 68.5,57.03 67.22,52.54 		"/>
		<polygon class="st0" points="56.99,57.03 57.73,57.03 62.14,47.15 		"/>
		<path class="st0" d="M88.83,9.07H43.61l0.03,47.97h9.27l8.26-12.81c0,0,0.72-1.12,0.75-1.4c0,0,0.28-0.75-0.22-2.34
			c-0.5-1.59-1.06-2.77-0.78-3.71c0,0,0.31-1.31,0.34-2.84c0,0,0.06-1.56-0.34-4.27H62c0,0,2.26,5.27,3.19,6.29
			c0,0,0.31,0.28,0.62-0.09c0,0,1.43-1.9,2.34-4.33l0.78-1.87h1.06c0,0-0.34,2.77-0.31,4.21c0,0,0.19,2.21,0.31,2.93
			c0,0,0.19,0.5,0,1.31l-0.93,2.96c0,0-0.37,1.43,0.34,2.46c0,0,5.79,8.69,7.07,10.31l2.29,3.19h10.08V9.07z M70.95,29.29
			c0,0-0.17-0.08-0.46-0.24c-0.04-0.02-0.07-0.04-0.11-0.06c-0.04-0.02-0.08-0.04-0.13-0.06c-0.09-0.04-0.18-0.09-0.29-0.14
			c-0.05-0.02-0.1-0.05-0.16-0.08c-0.06-0.02-0.11-0.05-0.17-0.07c-0.12-0.05-0.24-0.1-0.37-0.16c-0.26-0.1-0.54-0.21-0.84-0.3
			c-0.15-0.05-0.31-0.09-0.47-0.14c-0.08-0.02-0.16-0.05-0.24-0.07c-0.08-0.02-0.17-0.04-0.25-0.06c-0.08-0.02-0.17-0.04-0.25-0.06
			c-0.09-0.02-0.17-0.03-0.26-0.05c-0.17-0.04-0.35-0.06-0.53-0.09l-0.13-0.02l-0.14-0.01c-0.09-0.01-0.18-0.02-0.27-0.02
			c-0.18-0.01-0.37-0.02-0.55-0.02c-0.37,0-0.74,0.02-1.1,0.06c-0.36,0.04-0.72,0.1-1.06,0.18c-0.34,0.08-0.67,0.17-0.97,0.26
			c-0.31,0.1-0.59,0.2-0.85,0.3c-0.52,0.21-0.94,0.42-1.23,0.58c-0.29,0.16-0.44,0.26-0.44,0.26l-0.03-0.04c0,0,0.15-0.12,0.43-0.3
			c0.14-0.09,0.31-0.19,0.51-0.31c0.2-0.11,0.43-0.23,0.69-0.35c0.26-0.12,0.54-0.24,0.85-0.36c0.08-0.03,0.15-0.06,0.23-0.09
			c0.08-0.03,0.16-0.05,0.24-0.08c0.16-0.06,0.33-0.1,0.51-0.15c0.35-0.09,0.71-0.18,1.08-0.23c0.14-0.02,0.28-0.04,0.42-0.06
			c-0.06-0.08-0.1-0.18-0.1-0.28c0-0.29,0.3-0.54,0.69-0.58c0-0.03-0.01-0.07-0.01-0.1c0-0.05-0.01-0.09-0.01-0.14
			c-0.04-0.02-0.08-0.04-0.12-0.07c-0.06-0.03-0.11-0.07-0.16-0.12c-0.03-0.02-0.05-0.05-0.07-0.07c-0.02-0.02-0.05-0.05-0.07-0.08
			c-0.02-0.03-0.04-0.06-0.06-0.09c-0.02-0.03-0.03-0.07-0.04-0.1c-0.01-0.03-0.02-0.07-0.03-0.11c0-0.02-0.01-0.04-0.01-0.06
			l0-0.06c0-0.04,0-0.07,0.01-0.11c0.01-0.04,0.01-0.07,0.02-0.11l0.04-0.1l0,0l0,0l0.01-0.01l0,0l0.01-0.01l0.01-0.02l0.02-0.04
			c0.01-0.01,0.01-0.02,0.03-0.04l0.04-0.05c0.03-0.03,0.05-0.06,0.08-0.08c0.03-0.02,0.06-0.05,0.09-0.07l0.1-0.05
			c0.07-0.03,0.14-0.05,0.21-0.05c0.03-0.01,0.07,0,0.11,0l0.05,0l0.05,0.01c0.07,0.01,0.14,0.03,0.2,0.06
			c0.03,0.02,0.06,0.03,0.09,0.05l0.08,0.06c0.02,0.03,0.05,0.05,0.07,0.08c0.02,0.03,0.03,0.06,0.05,0.09
			c0.02,0.03,0.02,0.06,0.03,0.09c0.01,0.03,0.01,0.06,0.02,0.1c0.01,0.06,0,0.13-0.01,0.18c-0.02-0.06-0.02-0.12-0.05-0.17
			c-0.01-0.03-0.02-0.05-0.04-0.07c-0.02-0.02-0.03-0.05-0.05-0.07c-0.02-0.02-0.04-0.04-0.06-0.06c-0.02-0.02-0.04-0.03-0.06-0.05
			L65.66,25c-0.02-0.01-0.05-0.02-0.07-0.02c-0.05-0.01-0.1-0.02-0.15-0.02l-0.04,0l-0.04,0c-0.02,0-0.05,0-0.07,0.01
			c-0.02,0.01-0.05,0.01-0.07,0.02l-0.07,0.03l-0.06,0.04c-0.02,0.01-0.03,0.03-0.05,0.05c-0.02,0.01-0.03,0.03-0.04,0.05
			l-0.02,0.02c-0.01,0.01-0.01,0.02-0.02,0.04l-0.04,0.07l-0.02,0.07c-0.01,0.02-0.01,0.05-0.02,0.07
			c-0.01,0.02-0.01,0.05-0.01,0.07l0,0.03c0,0.01,0,0.02,0.01,0.03c0,0.02,0.01,0.04,0.01,0.07c0.01,0.02,0.01,0.04,0.02,0.06
			c0.01,0.02,0.02,0.04,0.03,0.06c0.01,0.02,0.03,0.04,0.04,0.06c0.01,0.02,0.03,0.04,0.05,0.06c0.03,0.04,0.08,0.07,0.12,0.11
			c0.04,0.03,0.09,0.07,0.13,0.09l0.06,0.04l0,0.05c0,0.07-0.01,0.14-0.02,0.21c0,0.03-0.01,0.06-0.01,0.1
			c0.43,0.01,0.78,0.27,0.78,0.59c0,0.07-0.02,0.15-0.06,0.21c0.04,0,0.08,0,0.12,0l0.14,0l0.14,0.01c0.19,0.02,0.38,0.03,0.56,0.06
			c0.09,0.01,0.18,0.03,0.28,0.04c0.09,0.02,0.18,0.04,0.27,0.06c0.09,0.02,0.18,0.04,0.26,0.06c0.09,0.02,0.17,0.05,0.25,0.08
			c0.08,0.03,0.17,0.05,0.25,0.08c0.08,0.02,0.16,0.06,0.24,0.09c0.08,0.03,0.15,0.06,0.23,0.09c0.08,0.03,0.15,0.06,0.22,0.1
			c0.14,0.07,0.27,0.14,0.4,0.2c0.13,0.07,0.25,0.14,0.36,0.21c0.11,0.07,0.22,0.13,0.31,0.2c0.19,0.14,0.36,0.25,0.49,0.36
			c0.26,0.21,0.4,0.34,0.4,0.34L70.95,29.29z M75.16,14.92c-0.48,4.77-4.51,8.5-9.4,8.5c-4.88,0-8.9-3.71-9.4-8.46
			c-0.37-0.16-0.63-0.53-0.63-0.96c0-0.58,0.47-1.04,1.04-1.04s1.04,0.47,1.04,1.04c0,0.38-0.2,0.7-0.5,0.89
			c0.46,4.25,4.07,7.57,8.45,7.57c4.39,0,8.02-3.35,8.45-7.64c-0.29-0.18-0.49-0.51-0.49-0.88c0-0.58,0.47-1.04,1.04-1.04
			c0.58,0,1.04,0.47,1.04,1.04C75.81,14.4,75.54,14.77,75.16,14.92z"/>
	</g>
</g>
</svg>
