<?xml version="1.0" encoding="utf-8"?>
<!-- Generator: Adobe Illustrator 23.0.0, SVG Export Plug-In . SVG Version: 6.00 Build 0)  -->
<svg version="1.1" id="Calque_1" xmlns="http://www.w3.org/2000/svg" xmlns:xlink="http://www.w3.org/1999/xlink" x="0px" y="0px"
	 viewBox="0 0 270 66.1" style="enable-background:new 0 0 270 66.1;" xml:space="preserve">
<style type="text/css">
	.st0{fill:#FFFFFF;}
	.st1{fill:url(#SVGID_1_);}
	.st2{fill:url(#SVGID_2_);}
	.st3{fill:url(#SVGID_3_);}
	.st4{fill:url(#SVGID_4_);}
	.st5{fill:url(#SVGID_5_);}
	.st6{fill:url(#SVGID_6_);}
	.st7{fill:url(#SVGID_7_);}
	.st8{fill:url(#SVGID_8_);}
	.st9{fill:url(#SVGID_9_);}
	.st10{fill:url(#SVGID_10_);}
	.st11{fill:url(#SVGID_11_);}
	.st12{fill:url(#SVGID_12_);}
	.st13{fill:url(#SVGID_13_);}
	.st14{fill:url(#SVGID_14_);}
	.st15{fill:url(#SVGID_15_);}
	.st16{fill:url(#SVGID_16_);}
	.st17{fill:url(#SVGID_17_);}
	.st18{fill:url(#SVGID_18_);}
	.st19{fill:url(#SVGID_19_);}
	.st20{fill:url(#SVGID_20_);}
	.st21{fill:url(#SVGID_21_);}
	.st22{fill:url(#SVGID_22_);}
	.st23{fill:url(#SVGID_23_);}
	.st24{fill:url(#SVGID_24_);}
	.st25{fill:url(#SVGID_25_);}
	.st26{fill:url(#SVGID_26_);}
	.st27{fill:url(#SVGID_27_);}
	.st28{fill:url(#SVGID_28_);}
	.st29{fill:url(#SVGID_29_);}
	.st30{fill:url(#SVGID_30_);}
	.st31{fill:url(#SVGID_31_);}
	.st32{fill:url(#SVGID_32_);}
	.st33{clip-path:url(#XMLID_2_);fill:#FFFFFF;}
	.st34{clip-path:url(#XMLID_3_);fill:#FFFFFF;}
	.st35{clip-path:url(#XMLID_4_);fill:#FFFFFF;}
	.st36{clip-path:url(#XMLID_5_);fill:#FFFFFF;}
	.st37{clip-path:url(#XMLID_6_);fill:#FFFFFF;}
	.st38{clip-path:url(#XMLID_7_);fill:#FFFFFF;}
	.st39{clip-path:url(#XMLID_8_);fill:#FFFFFF;}
	.st40{clip-path:url(#XMLID_9_);fill:#FFFFFF;}
	.st41{clip-path:url(#XMLID_10_);fill:#FFFFFF;}
	.st42{clip-path:url(#XMLID_11_);fill:#FFFFFF;}
	.st43{clip-path:url(#XMLID_12_);fill:#FFFFFF;}
	.st44{clip-path:url(#XMLID_13_);fill:#FFFFFF;}
	.st45{clip-path:url(#XMLID_14_);fill:#FFFFFF;}
</style>
<g>
	<path class="st0" d="M37.33,10.24c65.14,0,130.21,0,195.33,0c0,15.21,0,30.37,0,45.61c-65.08,0-130.17,0-195.33,0
		C37.33,40.7,37.33,25.51,37.33,10.24z M187.33,26.99c1.26,4.58,2.49,9.08,3.73,13.61c0.58,0,1.09-0.06,1.57,0.01
		c0.83,0.12,1.15-0.26,1.36-1.01c0.68-2.35,1.43-4.68,2.16-7.01c0.09-0.28,0.22-0.55,0.33-0.83c0.07,0.01,0.14,0.02,0.22,0.04
		c0.91,2.92,1.82,5.83,2.75,8.8c0.55,0,1.05-0.06,1.54,0.01c0.89,0.14,1.2-0.3,1.4-1.08c0.95-3.61,1.94-7.22,2.91-10.82
		c0.15-0.55,0.28-1.11,0.45-1.76c-0.72,0-1.29,0.05-1.84-0.01c-0.72-0.09-0.98,0.22-1.13,0.88c-0.36,1.58-0.79,3.14-1.19,4.71
		c-0.25,0.97-0.51,1.93-0.77,2.89c-0.27-0.18-0.35-0.32-0.39-0.47c-0.77-2.42-1.55-4.84-2.29-7.28c-0.16-0.53-0.39-0.8-0.96-0.73
		c-0.29,0.03-0.6,0.04-0.89,0c-0.75-0.11-1.11,0.17-1.32,0.93c-0.51,1.88-1.13,3.73-1.71,5.6c-0.2,0.64-0.42,1.28-0.64,1.92
		c-0.08-0.01-0.16-0.01-0.23-0.02c-0.75-2.79-1.5-5.58-2.25-8.38C189.2,26.99,188.35,26.99,187.33,26.99z M71.25,26.95
		c-0.45,0-0.79,0.04-1.1-0.01c-0.87-0.13-1.27,0.16-1.47,1.08c-0.39,1.84-0.94,3.65-1.44,5.46c-0.27,0.99-0.56,1.97-0.84,2.95
		c-0.34-0.37-0.49-0.7-0.6-1.04c-0.81-2.52-1.66-5.02-2.4-7.56c-0.23-0.8-0.65-0.94-1.36-0.89c-0.71,0.05-1.38-0.12-1.64,0.93
		c-0.41,1.7-1.03,3.34-1.57,5.01c-0.39,1.19-0.79,2.38-1.19,3.57c-0.09-0.01-0.18-0.03-0.27-0.04c-0.69-2.58-1.38-5.16-2.06-7.74
		c-0.48-1.83-0.48-1.83-2.37-1.7c-0.09,0.01-0.18,0.05-0.35,0.1c1.21,4.5,2.41,8.99,3.63,13.54c0.43,0,0.8-0.06,1.15,0.01
		c0.97,0.18,1.33-0.31,1.56-1.16c0.38-1.37,0.85-2.71,1.29-4.06c0.52-1.58,1.04-3.15,1.65-4.98c0.22,0.52,0.35,0.78,0.43,1.05
		c0.88,2.7,1.77,5.4,2.61,8.12c0.22,0.72,0.51,1.17,1.36,1.04c0.41-0.07,0.85-0.01,1.31-0.01C68.82,36.03,70.02,31.54,71.25,26.95z
		 M207.66,26.99c-0.57,2.12-1.28,4.2-1.63,6.33c-0.21,1.3-0.1,2.75,0.27,4.02c0.77,2.65,3.35,4.01,6.3,3.58
		c2.92-0.42,4.71-2.3,4.78-5.17c0.07-2.75,0.02-5.5,0.02-8.25c0-0.16-0.05-0.31-0.08-0.49c-0.89,0-1.73,0-2.69,0
		c0,2.41,0.01,4.75,0,7.1c0,0.63,0,1.26-0.11,1.88c-0.26,1.52-1.4,2.35-3,2.24c-1.73-0.12-2.67-1.04-2.69-2.68
		c-0.02-1.62,0-3.25,0-4.87c0-1.22,0-2.44,0-3.69C208.39,26.99,208.07,26.99,207.66,26.99z M138.92,26.98
		c0,2.74,0.01,5.39-0.01,8.03c0,0.49-0.03,1-0.18,1.46c-0.52,1.61-1.95,2.29-4.05,1.98c-1.43-0.21-2.46-1.36-2.51-3
		c-0.06-2.41-0.02-4.83-0.03-7.25c0-0.39-0.04-0.77-0.06-1.17c-0.76,0-1.43,0-2.14,0c0,3-0.08,5.91,0.02,8.81
		c0.1,2.78,2.11,4.64,5.04,4.91c2.88,0.26,5.57-1.21,5.9-3.83c0.4-3.22,0.22-6.52,0.28-9.79c0-0.05-0.08-0.09-0.14-0.15
		C140.39,26.98,139.74,26.98,138.92,26.98z M101.45,36.03c2.6,0,5.13,0,7.65,0c0.4-2.58-1.02-4.97-3.21-5.55
		c-2.66-0.7-5.32,0.57-6.29,3.02c-1,2.52,0.06,5.44,2.42,6.65c2.15,1.11,5.23,0.55,6.4-1.21c-0.44-0.41-0.9-0.83-1.35-1.25
		c-1.31,1-2.66,1.38-4.12,0.62C102.08,37.88,101.52,37.17,101.45,36.03z M73.36,35.98c2.64,0,5.2,0,7.75,0
		c0.13-2.93-1.38-5.15-3.71-5.59c-2.69-0.51-5.17,0.88-6,3.37c-0.84,2.49,0.21,5.2,2.45,6.37c2.19,1.14,5.2,0.6,6.46-1.17
		c-0.46-0.42-0.91-0.84-1.36-1.26C76.39,39.47,73.66,38.7,73.36,35.98z M163.6,30.3c-2.98,0.01-5.22,2.25-5.21,5.2
		c0,2.97,2.35,5.29,5.31,5.25c2.92-0.03,5.18-2.36,5.15-5.29C168.81,32.47,166.59,30.29,163.6,30.3z M170.79,30.23
		c0,3.66,0,6.96,0,10.29c0.7,0,1.34,0,2.08,0c0-1.96-0.02-3.84,0.01-5.73c0.02-1.55,0.86-2.43,2.27-2.44
		c1.38-0.01,2.17,0.8,2.2,2.36c0.03,1.39,0.01,2.78,0.02,4.18c0,1.86,0,1.86,1.88,1.68c0.06-0.01,0.12-0.05,0.23-0.1
		c0.02-0.2,0.08-0.42,0.07-0.64c-0.03-2.09-0.06-4.17-0.11-6.26c-0.01-0.26-0.08-0.52-0.17-0.77c-0.75-2.16-3.14-3.11-5.52-2.22
		c-0.25,0.09-0.55,0.18-0.8,0.14C172.26,30.61,171.58,30.42,170.79,30.23z M145.57,40.5c0-0.41,0-0.77,0-1.13
		c0-1.62-0.02-3.24,0.01-4.87c0.02-1.3,0.84-2.09,2.11-2.15c1.42-0.06,2.3,0.76,2.32,2.23c0.03,1.97,0.01,3.95,0.01,5.93
		c0.78,0,1.42,0,2.14,0c0-1.99,0.01-3.91,0-5.82c-0.01-3.55-2.57-5.29-5.9-4.05c-0.21,0.08-0.48-0.04-0.73-0.06
		c-0.61-0.05-1.23-0.2-1.81-0.1c-0.17,0.03-0.3,0.78-0.3,1.2c-0.03,2.38-0.01,4.77-0.01,7.15C143.41,40.77,143.41,40.77,145.57,40.5
		z M121.06,40.55c0.02-0.37,0.04-0.69,0.05-1.02c0.01-1.66-0.01-3.31,0.01-4.97c0.02-1.39,0.89-2.21,2.26-2.2
		c1.37,0.01,2.17,0.85,2.2,2.39c0.03,1.91,0.01,3.82,0.01,5.78c0.76,0,1.4,0,2.1,0c0-2.35,0.1-4.63-0.03-6.9
		c-0.11-1.9-1.58-3.22-3.49-3.28c-0.93-0.03-1.87,0.2-2.81,0.31c-0.66-0.15-1.38-0.31-2.04-0.18c-0.2,0.04-0.33,0.88-0.33,1.36
		c-0.03,2.52-0.02,5.03-0.01,7.55c0,0.38,0.04,0.76,0.07,1.16C119.75,40.55,120.37,40.55,121.06,40.55z M82.53,39
		c1.48,1.43,3.07,1.94,4.85,1.68c1.86-0.27,2.98-1.39,3.09-2.85c0.12-1.5-0.67-2.45-2.62-3.12c-0.59-0.2-1.2-0.35-1.8-0.54
		c-0.53-0.17-1.11-0.46-0.86-1.09c0.15-0.38,0.71-0.73,1.14-0.83c0.63-0.15,1.31-0.09,1.97-0.08c0.67,0.01,0.72-0.4,0.72-0.92
		c0-0.52-0.06-0.93-0.73-0.88c-0.92,0.06-1.86,0.03-2.77,0.15c-1.41,0.19-2.27,1.06-2.43,2.35c-0.17,1.35,0.38,2.31,1.75,2.87
		c0.79,0.32,1.65,0.47,2.46,0.74c0.57,0.19,1.29,0.47,1.07,1.18c-0.14,0.45-0.77,1.04-1.2,1.06c-0.84,0.02-1.75-0.19-2.53-0.53
		c-0.56-0.25-0.86-0.3-1.26,0.16C83.16,38.6,82.86,38.75,82.53,39z M95.28,27.12c-0.4,0.08-0.68,0.16-0.97,0.18
		c-0.94,0.07-1.34,0.54-1.2,1.5c0.07,0.48,0.01,0.97,0.01,1.51c-0.72,0.05-1.3,0.09-1.89,0.13c0,0.59,0,1.11,0,1.66
		c0.24,0.02,0.44,0.08,0.63,0.05c1.1-0.18,1.33,0.36,1.28,1.35c-0.07,1.42-0.02,2.85-0.01,4.27c0.02,1.99,1.28,3.14,3.24,2.99
		c1.72-0.13,1.94-0.46,1.38-2.1c-0.02-0.05-0.09-0.09-0.14-0.13c-1.35,0.42-2.24,0.15-2.29-0.82c-0.08-1.81-0.02-3.62-0.02-5.5
		c0.73-0.03,1.45,0.12,1.94-0.15c0.35-0.2,0.38-0.97,0.6-1.62c-1.03-0.05-1.74-0.08-2.54-0.11C95.28,29.23,95.28,28.21,95.28,27.12z
		 M113.34,40.5c0-2-0.02-3.95,0-5.9c0.02-1.49,1.1-2.45,2.59-2.33c0.24,0.02,0.49,0.05,0.81,0.08c0-0.35,0-0.61,0-0.87
		c0-1.14-0.12-1.3-1.24-1.15c-0.67,0.09-1.33,0.35-2.01,0.55c-0.46-0.59-0.94-0.67-2.29-0.34c-0.01,0.27-0.04,0.56-0.04,0.85
		c0,2.48,0,4.96,0,7.44C111.16,40.78,111.16,40.78,113.34,40.5z M156.44,40.55c0.02-0.4,0.05-0.75,0.05-1.11c0-2.55,0-5.1,0-7.65
		c0-1.49,0-1.49-1.46-1.42c-0.19,0.01-0.38,0.07-0.59,0.1c0,3.36,0,6.69,0,10.06C155.12,40.55,155.74,40.55,156.44,40.55z
		 M182.18,26.8c-0.08,0.1-0.16,0.19-0.24,0.29c1.2,4.37,2.39,8.74,3.63,13.1c0.07,0.25,0.54,0.39,0.82,0.58
		c0.07-0.08,0.14-0.16,0.21-0.24c-1.2-4.4-2.4-8.8-3.64-13.19C182.9,27.11,182.45,26.98,182.18,26.8z M184.59,27.02
		c1.21,4.4,2.4,8.72,3.57,13.05c0.16,0.6,0.47,0.73,1.04,0.5c-0.01-0.13,0.01-0.26-0.03-0.38c-1.16-4.23-2.32-8.47-3.47-12.7
		C185.54,26.87,185.21,26.78,184.59,27.02z M155.52,28.25c0.73,0.06,1.57,0.14,1.6-1.05c0.02-0.91-0.79-1.68-1.74-1.66
		c-0.94,0.02-1.58,0.71-1.6,1.66C153.76,28.48,154.66,28.26,155.52,28.25z"/>
	<path class="st0" d="M101.53,34.43c0.46-1.63,1.66-2.4,3.25-2.22c1.23,0.14,2.03,0.96,2.11,2.22
		C105.13,34.43,103.37,34.43,101.53,34.43z"/>
	<path class="st0" d="M73.43,34.4c0.46-1.59,1.61-2.35,3.17-2.2c1.26,0.12,2.04,0.88,2.19,2.2C77.02,34.4,75.26,34.4,73.43,34.4z"/>
	<path class="st0" d="M166.7,35.47c0.02,1.82-1.3,3.24-3.04,3.25c-1.75,0.01-3.09-1.35-3.12-3.18c-0.03-1.79,1.31-3.23,3.05-3.26
		C165.3,32.24,166.68,33.66,166.7,35.47z"/>
</g>
</svg>
